  0
SECTION
  2
HEADER
  9
$ACADVER
  1
AC1027
  9
$ACADMAINTVER
 70
105
  9
$DWGCODEPAGE
  3
ANSI_1252
  9
$LASTSAVEDBY
  1
ezdxf
  9
$REQUIREDVERSIONS
160
0
  9
$INSBASE
 10
0.0
 20
0.0
 30
0.0
  9
$EXTMIN
 10
1e+20
 20
1e+20
 30
1e+20
  9
$EXTMAX
 10
-1e+20
 20
-1e+20
 30
-1e+20
  9
$LIMMIN
 10
0.0
 20
0.0
  9
$LIMMAX
 10
420.0
 20
297.0
  9
$ORTHOMODE
 70
0
  9
$REGENMODE
 70
1
  9
$FILLMODE
 70
1
  9
$QTEXTMODE
 70
0
  9
$MIRRTEXT
 70
1
  9
$LTSCALE
 40
1.0
  9
$ATTMODE
 70
1
  9
$TEXTSIZE
 40
2.5
  9
$TRACEWID
 40
1.0
  9
$TEXTSTYLE
  7
Standard
  9
$CLAYER
  8
0
  9
$CELTYPE
  6
ByLayer
  9
$CECOLOR
 62
256
  9
$CELTSCALE
 40
1.0
  9
$DISPSILH
 70
0
  9
$DIMSCALE
 40
1.0
  9
$DIMASZ
 40
2.5
  9
$DIMEXO
 40
0.625
  9
$DIMDLI
 40
3.75
  9
$DIMRND
 40
0.0
  9
$DIMDLE
 40
0.0
  9
$DIMEXE
 40
1.25
  9
$DIMTP
 40
0.0
  9
$DIMTM
 40
0.0
  9
$DIMTXT
 40
2.5
  9
$DIMCEN
 40
2.5
  9
$DIMTSZ
 40
0.0
  9
$DIMTOL
 70
0
  9
$DIMLIM
 70
0
  9
$DIMTIH
 70
0
  9
$DIMTOH
 70
0
  9
$DIMSE1
 70
0
  9
$DIMSE2
 70
0
  9
$DIMTAD
 70
1
  9
$DIMZIN
 70
8
  9
$DIMBLK
  1

  9
$DIMASO
 70
1
  9
$DIMSHO
 70
1
  9
$DIMPOST
  1

  9
$DIMAPOST
  1

  9
$DIMALT
 70
0
  9
$DIMALTD
 70
3
  9
$DIMALTF
 40
0.03937007874
  9
$DIMLFAC
 40
1.0
  9
$DIMTOFL
 70
1
  9
$DIMTVP
 40
0.0
  9
$DIMTIX
 70
0
  9
$DIMSOXD
 70
0
  9
$DIMSAH
 70
0
  9
$DIMBLK1
  1

  9
$DIMBLK2
  1

  9
$DIMSTYLE
  2
ISO-25
  9
$DIMCLRD
 70
0
  9
$DIMCLRE
 70
0
  9
$DIMCLRT
 70
0
  9
$DIMTFAC
 40
1.0
  9
$DIMGAP
 40
0.625
  9
$DIMJUST
 70
0
  9
$DIMSD1
 70
0
  9
$DIMSD2
 70
0
  9
$DIMTOLJ
 70
0
  9
$DIMTZIN
 70
8
  9
$DIMALTZ
 70
0
  9
$DIMALTTZ
 70
0
  9
$DIMUPT
 70
0
  9
$DIMDEC
 70
2
  9
$DIMTDEC
 70
2
  9
$DIMALTU
 70
2
  9
$DIMALTTD
 70
3
  9
$DIMTXSTY
  7
Standard
  9
$DIMAUNIT
 70
0
  9
$DIMADEC
 70
0
  9
$DIMALTRND
 40
0.0
  9
$DIMAZIN
 70
0
  9
$DIMDSEP
 70
44
  9
$DIMATFIT
 70
3
  9
$DIMFRAC
 70
0
  9
$DIMLDRBLK
  1

  9
$DIMLUNIT
 70
2
  9
$DIMLWD
 70
-2
  9
$DIMLWE
 70
-2
  9
$DIMTMOVE
 70
0
  9
$DIMFXL
 40
1.0
  9
$DIMFXLON
 70
0
  9
$DIMJOGANG
 40
0.785398163397
  9
$DIMTFILL
 70
0
  9
$DIMTFILLCLR
 70
0
  9
$DIMARCSYM
 70
0
  9
$DIMLTYPE
  6

  9
$DIMLTEX1
  6

  9
$DIMLTEX2
  6

  9
$DIMTXTDIRECTION
 70
0
  9
$LUNITS
 70
2
  9
$LUPREC
 70
4
  9
$SKETCHINC
 40
1.0
  9
$FILLETRAD
 40
10.0
  9
$AUNITS
 70
0
  9
$AUPREC
 70
2
  9
$MENU
  1
.
  9
$ELEVATION
 40
0.0
  9
$PELEVATION
 40
0.0
  9
$THICKNESS
 40
0.0
  9
$LIMCHECK
 70
0
  9
$CHAMFERA
 40
0.0
  9
$CHAMFERB
 40
0.0
  9
$CHAMFERC
 40
0.0
  9
$CHAMFERD
 40
0.0
  9
$SKPOLY
 70
0
  9
$TDCREATE
 40
2460511.748738426
  9
$TDUCREATE
 40
2458532.153996898
  9
$TDUPDATE
 40
2460511.748738426
  9
$TDUUPDATE
 40
2458532.1544311
  9
$TDINDWG
 40
0.0
  9
$TDUSRTIMER
 40
0.0
  9
$USRTIMER
 70
1
  9
$ANGBASE
 50
0.0
  9
$ANGDIR
 70
0
  9
$PDMODE
 70
0
  9
$PDSIZE
 40
0.0
  9
$PLINEWID
 40
0.0
  9
$SPLFRAME
 70
0
  9
$SPLINETYPE
 70
6
  9
$SPLINESEGS
 70
8
  9
$HANDSEED
  5
137
  9
$SURFTAB1
 70
6
  9
$SURFTAB2
 70
6
  9
$SURFTYPE
 70
6
  9
$SURFU
 70
6
  9
$SURFV
 70
6
  9
$UCSBASE
  2

  9
$UCSNAME
  2

  9
$UCSORG
 10
0.0
 20
0.0
 30
0.0
  9
$UCSXDIR
 10
1.0
 20
0.0
 30
0.0
  9
$UCSYDIR
 10
0.0
 20
1.0
 30
0.0
  9
$UCSORTHOREF
  2

  9
$UCSORTHOVIEW
 70
0
  9
$UCSORGTOP
 10
0.0
 20
0.0
 30
0.0
  9
$UCSORGBOTTOM
 10
0.0
 20
0.0
 30
0.0
  9
$UCSORGLEFT
 10
0.0
 20
0.0
 30
0.0
  9
$UCSORGRIGHT
 10
0.0
 20
0.0
 30
0.0
  9
$UCSORGFRONT
 10
0.0
 20
0.0
 30
0.0
  9
$UCSORGBACK
 10
0.0
 20
0.0
 30
0.0
  9
$PUCSBASE
  2

  9
$PUCSNAME
  2

  9
$PUCSORG
 10
0.0
 20
0.0
 30
0.0
  9
$PUCSXDIR
 10
1.0
 20
0.0
 30
0.0
  9
$PUCSYDIR
 10
0.0
 20
1.0
 30
0.0
  9
$PUCSORTHOREF
  2

  9
$PUCSORTHOVIEW
 70
0
  9
$PUCSORGTOP
 10
0.0
 20
0.0
 30
0.0
  9
$PUCSORGBOTTOM
 10
0.0
 20
0.0
 30
0.0
  9
$PUCSORGLEFT
 10
0.0
 20
0.0
 30
0.0
  9
$PUCSORGRIGHT
 10
0.0
 20
0.0
 30
0.0
  9
$PUCSORGFRONT
 10
0.0
 20
0.0
 30
0.0
  9
$PUCSORGBACK
 10
0.0
 20
0.0
 30
0.0
  9
$USERI1
 70
0
  9
$USERI2
 70
0
  9
$USERI3
 70
0
  9
$USERI4
 70
0
  9
$USERI5
 70
0
  9
$USERR1
 40
0.0
  9
$USERR2
 40
0.0
  9
$USERR3
 40
0.0
  9
$USERR4
 40
0.0
  9
$USERR5
 40
0.0
  9
$WORLDVIEW
 70
1
  9
$SHADEDGE
 70
3
  9
$SHADEDIF
 70
70
  9
$TILEMODE
 70
1
  9
$MAXACTVP
 70
64
  9
$PINSBASE
 10
0.0
 20
0.0
 30
0.0
  9
$PLIMCHECK
 70
0
  9
$PEXTMIN
 10
1e+20
 20
1e+20
 30
1e+20
  9
$PEXTMAX
 10
-1e+20
 20
-1e+20
 30
-1e+20
  9
$PLIMMIN
 10
0.0
 20
0.0
  9
$PLIMMAX
 10
420.0
 20
297.0
  9
$UNITMODE
 70
0
  9
$VISRETAIN
 70
1
  9
$PLINEGEN
 70
0
  9
$PSLTSCALE
 70
1
  9
$TREEDEPTH
 70
3020
  9
$CMLSTYLE
  2
Standard
  9
$CMLJUST
 70
0
  9
$CMLSCALE
 40
20.0
  9
$PROXYGRAPHICS
 70
1
  9
$MEASUREMENT
 70
1
  9
$CELWEIGHT
370
-1
  9
$ENDCAPS
280
0
  9
$JOINSTYLE
280
0
  9
$LWDISPLAY
290
0
  9
$INSUNITS
 70
6
  9
$HYPERLINKBASE
  1

  9
$STYLESHEET
  1

  9
$XEDIT
290
1
  9
$CEPSNTYPE
380
0
  9
$PSTYLEMODE
290
1
  9
$FINGERPRINTGUID
  2
{8A26044D-A605-4959-B022-5450467C204A}
  9
$VERSIONGUID
  2
{33895073-E426-4562-83B5-819885AA466B}
  9
$EXTNAMES
290
1
  9
$PSVPSCALE
 40
0.0
  9
$OLESTARTUP
290
0
  9
$SORTENTS
280
127
  9
$INDEXCTL
280
0
  9
$HIDETEXT
280
1
  9
$XCLIPFRAME
280
1
  9
$HALOGAP
280
0
  9
$OBSCOLOR
 70
257
  9
$OBSLTYPE
280
0
  9
$INTERSECTIONDISPLAY
280
0
  9
$INTERSECTIONCOLOR
 70
257
  9
$DIMASSOC
280
2
  9
$PROJECTNAME
  1

  9
$CAMERADISPLAY
290
0
  9
$LENSLENGTH
 40
50.0
  9
$CAMERAHEIGHT
 40
0.0
  9
$STEPSPERSEC
 40
24.0
  9
$STEPSIZE
 40
100.0
  9
$3DDWFPREC
 40
2.0
  9
$PSOLWIDTH
 40
0.005
  9
$PSOLHEIGHT
 40
0.08
  9
$LOFTANG1
 40
1.570796326795
  9
$LOFTANG2
 40
1.570796326795
  9
$LOFTMAG1
 40
0.0
  9
$LOFTMAG2
 40
0.0
  9
$LOFTPARAM
 70
7
  9
$LOFTNORMALS
280
1
  9
$LATITUDE
 40
37.795
  9
$LONGITUDE
 40
-122.394
  9
$NORTHDIRECTION
 40
0.0
  9
$TIMEZONE
 70
-8000
  9
$LIGHTGLYPHDISPLAY
280
1
  9
$TILEMODELIGHTSYNCH
280
1
  9
$CMATERIAL
347
20
  9
$SOLIDHIST
280
0
  9
$SHOWHIST
280
1
  9
$DWFFRAME
280
2
  9
$DGNFRAME
280
2
  9
$REALWORLDSCALE
290
1
  9
$INTERFERECOLOR
 62
256
  9
$CSHADOW
280
0
  9
$SHADOWPLANELOCATION
 40
0.0
  0
ENDSEC
  0
SECTION
  2
CLASSES
  0
CLASS
  1
ACDBDICTIONARYWDFLT
  2
AcDbDictionaryWithDefault
  3
ObjectDBX Classes
 90
0
 91
0
280
0
281
0
  0
CLASS
  1
SUN
  2
AcDbSun
  3
SCENEOE
 90
1153
 91
0
280
0
281
0
  0
CLASS
  1
VISUALSTYLE
  2
AcDbVisualStyle
  3
ObjectDBX Classes
 90
4095
 91
0
280
0
281
0
  0
CLASS
  1
MATERIAL
  2
AcDbMaterial
  3
ObjectDBX Classes
 90
1153
 91
0
280
0
281
0
  0
CLASS
  1
SCALE
  2
AcDbScale
  3
ObjectDBX Classes
 90
1153
 91
0
280
0
281
0
  0
CLASS
  1
TABLESTYLE
  2
AcDbTableStyle
  3
ObjectDBX Classes
 90
4095
 91
0
280
0
281
0
  0
CLASS
  1
MLEADERSTYLE
  2
AcDbMLeaderStyle
  3
ACDB_MLEADERSTYLE_CLASS
 90
4095
 91
0
280
0
281
0
  0
CLASS
  1
DICTIONARYVAR
  2
AcDbDictionaryVar
  3
ObjectDBX Classes
 90
0
 91
0
280
0
281
0
  0
CLASS
  1
CELLSTYLEMAP
  2
AcDbCellStyleMap
  3
ObjectDBX Classes
 90
1152
 91
0
280
0
281
0
  0
CLASS
  1
MENTALRAYRENDERSETTINGS
  2
AcDbMentalRayRenderSettings
  3
SCENEOE
 90
1024
 91
0
280
0
281
0
  0
CLASS
  1
ACDBDETAILVIEWSTYLE
  2
AcDbDetailViewStyle
  3
ObjectDBX Classes
 90
1025
 91
0
280
0
281
0
  0
CLASS
  1
ACDBSECTIONVIEWSTYLE
  2
AcDbSectionViewStyle
  3
ObjectDBX Classes
 90
1025
 91
0
280
0
281
0
  0
CLASS
  1
RASTERVARIABLES
  2
AcDbRasterVariables
  3
ISM
 90
0
 91
0
280
0
281
0
  0
CLASS
  1
ACDBPLACEHOLDER
  2
AcDbPlaceHolder
  3
ObjectDBX Classes
 90
0
 91
0
280
0
281
0
  0
CLASS
  1
LAYOUT
  2
AcDbLayout
  3
ObjectDBX Classes
 90
0
 91
0
280
0
281
0
  0
ENDSEC
  0
SECTION
  2
TABLES
  0
TABLE
  2
VPORT
  5
8
330
0
100
AcDbSymbolTable
 70
1
  0
VPORT
  5
23
330
8
100
AcDbSymbolTableRecord
100
AcDbViewportTableRecord
  2
*Active
 70
0
 10
0.0
 20
0.0
 11
1.0
 21
1.0
 12
0.0
 22
0.0
 13
0.0
 23
0.0
 14
0.5
 24
0.5
 15
0.5
 25
0.5
 16
0.0
 26
0.0
 36
1.0
 17
0.0
 27
0.0
 37
0.0
 40
1000.0
 41
1.34
 42
50.0
 43
0.0
 44
0.0
 50
0.0
 51
0.0
 71
0
 72
1000
 73
1
 74
3
 75
0
 76
0
 77
0
 78
0
281
0
 65
0
146
0.0
  0
ENDTAB
  0
TABLE
  2
LTYPE
  5
2
330
0
100
AcDbSymbolTable
 70
3
  0
LTYPE
  5
24
330
2
100
AcDbSymbolTableRecord
100
AcDbLinetypeTableRecord
  2
ByBlock
 70
0
  3

 72
65
 73
0
 40
0.0
  0
LTYPE
  5
25
330
2
100
AcDbSymbolTableRecord
100
AcDbLinetypeTableRecord
  2
ByLayer
 70
0
  3

 72
65
 73
0
 40
0.0
  0
LTYPE
  5
26
330
2
100
AcDbSymbolTableRecord
100
AcDbLinetypeTableRecord
  2
Continuous
 70
0
  3

 72
65
 73
0
 40
0.0
  0
ENDTAB
  0
TABLE
  2
LAYER
  5
1
330
0
100
AcDbSymbolTable
 70
23
  0
LAYER
  5
27
330
1
100
AcDbSymbolTableRecord
100
AcDbLayerTableRecord
  2
0
 70
0
 62
7
  6
Continuous
370
-3
390
13
347
21
  0
LAYER
  5
28
330
1
100
AcDbSymbolTableRecord
100
AcDbLayerTableRecord
  2
Defpoints
 70
0
 62
7
  6
Continuous
290
0
370
-3
390
13
347
21
  0
LAYER
  5
2F
330
1
100
AcDbSymbolTableRecord
100
AcDbLayerTableRecord
  2
Garden
 70
0
 62
7
  6
Continuous
370
-3
390
13
347
21
  0
LAYER
  5
32
330
1
100
AcDbSymbolTableRecord
100
AcDbLayerTableRecord
  2
Boundary
 70
0
 62
7
  6
Continuous
370
-3
390
13
347
21
  0
LAYER
  5
37
330
1
100
AcDbSymbolTableRecord
100
AcDbLayerTableRecord
  2
Entrance_Staircase
 70
0
 62
7
  6
Continuous
370
-3
390
13
347
21
  0
LAYER
  5
3B
330
1
100
AcDbSymbolTableRecord
100
AcDbLayerTableRecord
  2
Parking
 70
0
 62
7
  6
Continuous
370
-3
390
13
347
21
  0
LAYER
  5
44
330
1
100
AcDbSymbolTableRecord
100
AcDbLayerTableRecord
  2
Garden_Staircase
 70
0
 62
7
  6
Continuous
370
-3
390
13
347
21
  0
LAYER
  5
4C
330
1
100
AcDbSymbolTableRecord
100
AcDbLayerTableRecord
  2
PoojaRoom
 70
0
 62
7
  6
Continuous
370
-3
390
13
347
21
  0
LAYER
  5
5E
330
1
100
AcDbSymbolTableRecord
100
AcDbLayerTableRecord
  2
LivingRoom1
 70
0
 62
7
  6
Continuous
370
-3
390
13
347
21
  0
LAYER
  5
6D
330
1
100
AcDbSymbolTableRecord
100
AcDbLayerTableRecord
  2
BedRoom3
 70
0
 62
7
  6
Continuous
370
-3
390
13
347
21
  0
LAYER
  5
71
330
1
100
AcDbSymbolTableRecord
100
AcDbLayerTableRecord
  2
BathRoom2
 70
0
 62
7
  6
Continuous
370
-3
390
13
347
21
  0
LAYER
  5
81
330
1
100
AcDbSymbolTableRecord
100
AcDbLayerTableRecord
  2
Kitchen
 70
0
 62
7
  6
Continuous
370
-3
390
13
347
21
  0
LAYER
  5
85
330
1
100
AcDbSymbolTableRecord
100
AcDbLayerTableRecord
  2
StoreRoom
 70
0
 62
7
  6
Continuous
370
-3
390
13
347
21
  0
LAYER
  5
8D
330
1
100
AcDbSymbolTableRecord
100
AcDbLayerTableRecord
  2
BathRoom1
 70
0
 62
7
  6
Continuous
370
-3
390
13
347
21
  0
LAYER
  5
93
330
1
100
AcDbSymbolTableRecord
100
AcDbLayerTableRecord
  2
Staircase
 70
0
 62
7
  6
Continuous
370
-3
390
13
347
21
  0
LAYER
  5
9A
330
1
100
AcDbSymbolTableRecord
100
AcDbLayerTableRecord
  2
BedRoom1
 70
0
 62
7
  6
Continuous
370
-3
390
13
347
21
  0
LAYER
  5
D2
330
1
100
AcDbSymbolTableRecord
100
AcDbLayerTableRecord
  2
Terrace
 70
0
 62
7
  6
Continuous
370
-3
390
13
347
21
  0
LAYER
  5
D9
330
1
100
AcDbSymbolTableRecord
100
AcDbLayerTableRecord
  2
BedRoom2a
 70
0
 62
7
  6
Continuous
370
-3
390
13
347
21
  0
LAYER
  5
DC
330
1
100
AcDbSymbolTableRecord
100
AcDbLayerTableRecord
  2
BathRoom2b
 70
0
 62
7
  6
Continuous
370
-3
390
13
347
21
  0
LAYER
  5
E6
330
1
100
AcDbSymbolTableRecord
100
AcDbLayerTableRecord
  2
Pantry
 70
0
 62
7
  6
Continuous
370
-3
390
13
347
21
  0
LAYER
  5
ED
330
1
100
AcDbSymbolTableRecord
100
AcDbLayerTableRecord
  2
WashArea
 70
0
 62
7
  6
Continuous
370
-3
390
13
347
21
  0
LAYER
  5
F6
330
1
100
AcDbSymbolTableRecord
100
AcDbLayerTableRecord
  2
BathRoom2c
 70
0
 62
7
  6
Continuous
370
-3
390
13
347
21
  0
LAYER
  5
11C
330
1
100
AcDbSymbolTableRecord
100
AcDbLayerTableRecord
  2
BedRoom2
 70
0
 62
7
  6
Continuous
370
-3
390
13
347
21
  0
ENDTAB
  0
TABLE
  2
STYLE
  5
5
330
0
100
AcDbSymbolTable
 70
1
  0
STYLE
  5
29
330
5
100
AcDbSymbolTableRecord
100
AcDbTextStyleTableRecord
  2
Standard
 70
0
 40
0.0
 41
1.0
 50
0.0
 71
0
 42
2.5
  3
txt
  4

  0
ENDTAB
  0
TABLE
  2
VIEW
  5
7
330
0
100
AcDbSymbolTable
 70
0
  0
ENDTAB
  0
TABLE
  2
UCS
  5
6
330
0
100
AcDbSymbolTable
 70
0
  0
ENDTAB
  0
TABLE
  2
APPID
  5
3
330
0
100
AcDbSymbolTable
 70
3
  0
APPID
  5
2A
330
3
100
AcDbSymbolTableRecord
100
AcDbRegAppTableRecord
  2
ACAD
 70
0
  0
APPID
  5
134
330
3
100
AcDbSymbolTableRecord
100
AcDbRegAppTableRecord
  2
HATCHBACKGROUNDCOLOR
 70
0
  0
APPID
  5
135
330
3
100
AcDbSymbolTableRecord
100
AcDbRegAppTableRecord
  2
EZDXF
 70
0
  0
ENDTAB
  0
TABLE
  2
DIMSTYLE
  5
4
330
0
100
AcDbSymbolTable
 70
1
100
AcDbDimStyleTable
  0
DIMSTYLE
105
2B
330
4
100
AcDbSymbolTableRecord
100
AcDbDimStyleTableRecord
  2
Standard
 70
0
 40
1.0
 41
2.5
 42
0.625
 43
3.75
 44
1.25
 45
0.0
 46
0.0
 47
0.0
 48
0.0
 49
2.5
140
2.5
141
2.5
142
0.0
143
0.03937007874
144
1.0
145
0.0
146
1.0
147
0.625
148
0.0
 69
0
 70
0
 71
0
 72
0
 73
0
 74
0
 75
0
 76
0
 77
1
 78
8
 79
3
170
0
171
3
172
1
173
0
174
0
175
0
176
0
177
0
178
0
179
2
271
2
272
2
273
2
274
3
275
0
276
0
277
2
278
44
279
0
280
0
281
0
282
0
283
0
284
8
285
0
286
0
288
0
289
3
290
0
371
-2
372
-2
  0
ENDTAB
  0
TABLE
  2
BLOCK_RECORD
  5
9
330
0
100
AcDbSymbolTable
 70
2
  0
BLOCK_RECORD
  5
17
330
9
100
AcDbSymbolTableRecord
100
AcDbBlockTableRecord
  2
*Model_Space
340
1A
 70
0
280
1
281
0
  0
BLOCK_RECORD
  5
1B
330
9
100
AcDbSymbolTableRecord
100
AcDbBlockTableRecord
  2
*Paper_Space
340
1E
 70
0
280
1
281
0
  0
ENDTAB
  0
ENDSEC
  0
SECTION
  2
BLOCKS
  0
BLOCK
  5
18
330
17
100
AcDbEntity
  8
0
100
AcDbBlockBegin
  2
*Model_Space
 70
0
 10
0.0
 20
0.0
 30
0.0
  3
*Model_Space
  1

  0
ENDBLK
  5
19
330
17
100
AcDbEntity
  8
0
100
AcDbBlockEnd
  0
BLOCK
  5
1C
330
1B
100
AcDbEntity
  8
0
100
AcDbBlockBegin
  2
*Paper_Space
 70
0
 10
0.0
 20
0.0
 30
0.0
  3
*Paper_Space
  1

  0
ENDBLK
  5
1D
330
1B
100
AcDbEntity
  8
0
100
AcDbBlockEnd
  0
ENDSEC
  0
SECTION
  2
ENTITIES
  0
LINE
  5
30
330
17
100
AcDbEntity
  8
Garden
100
AcDbLine
 10
8.999999999999993
 20
9.000000000000114
 30
0.0
 11
153.5368098159511
 21
9.000000000000114
 31
0.0
  0
LINE
  5
31
330
17
100
AcDbEntity
  8
Garden
100
AcDbLine
 10
8.999999999999993
 20
9.000000000000341
 30
0.0
 11
8.999999999999993
 21
602.9999999999999
 31
0.0
  0
LINE
  5
33
330
17
100
AcDbEntity
  8
Boundary
100
AcDbLine
 10
0.0
 20
1.1368683772161603e-13
 30
0.0
 11
153.5368098159511
 21
2.2737367544323206e-13
 31
0.0
  0
LINE
  5
34
330
17
100
AcDbEntity
  8
Boundary
100
AcDbLine
 10
0.0
 20
2.2737367544323206e-13
 30
0.0
 11
0.0
 21
611.9999999999999
 31
0.0
  0
LINE
  5
35
330
17
100
AcDbEntity
  8
Boundary
100
AcDbLine
 10
201.5368098159511
 20
1.1368683772161603e-13
 30
0.0
 11
243.28834355828238
 21
1.1368683772161603e-13
 31
0.0
  0
LINE
  5
36
330
17
100
AcDbEntity
  8
Boundary
100
AcDbLine
 10
153.5368098159511
 20
2.2737367544323206e-13
 30
0.0
 11
153.5368098159511
 21
9.000000000000114
 31
0.0
  0
LINE
  5
38
330
17
100
AcDbEntity
  8
Entrance_Staircase
100
AcDbLine
 10
201.53680981595122
 20
9.000000000000114
 30
0.0
 11
243.28834355828238
 21
9.000000000000114
 31
0.0
  0
LINE
  5
39
330
17
100
AcDbEntity
  8
Entrance_Staircase
100
AcDbLine
 10
201.5368098159511
 20
1.1368683772161603e-13
 30
0.0
 11
201.5368098159511
 21
9.000000000000114
 31
0.0
  0
LINE
  5
3A
330
17
100
AcDbEntity
  8
Garden
100
AcDbLine
 10
110.0368098159509
 20
9.000000000000114
 30
0.0
 11
110.0368098159509
 21
128.3631578947371
 31
0.0
  0
LINE
  5
3C
330
17
100
AcDbEntity
  8
Parking
100
AcDbLine
 10
243.28834355828238
 20
0.0
 30
0.0
 11
470.9999999999999
 21
1.1368683772161603e-13
 31
0.0
  0
LINE
  5
3D
330
17
100
AcDbEntity
  8
Parking
100
AcDbLine
 10
243.28834355828238
 20
1.1368683772161603e-13
 30
0.0
 11
243.28834355828238
 21
9.000000000000114
 31
0.0
  0
LINE
  5
3E
330
17
100
AcDbEntity
  8
Boundary
100
AcDbLine
 10
470.9999999999999
 20
0.0
 30
0.0
 11
479.9999999999999
 21
0.0
 31
0.0
  0
LINE
  5
3F
330
17
100
AcDbEntity
  8
Parking
100
AcDbLine
 10
470.9999999999999
 20
2.2737367544323206e-13
 30
0.0
 11
470.9999999999999
 21
200.23947368421076
 31
0.0
  0
LINE
  5
40
330
17
100
AcDbEntity
  8
Boundary
100
AcDbLine
 10
479.9999999999999
 20
2.2737367544323206e-13
 30
0.0
 11
479.9999999999999
 21
611.9999999999999
 31
0.0
  0
LINE
  5
41
330
17
100
AcDbEntity
  8
Parking
100
AcDbLine
 10
243.28834355828238
 20
51.06315789473706
 30
0.0
 11
243.28834355828238
 21
200.23947368421088
 31
0.0
  0
LINE
  5
42
330
17
100
AcDbEntity
  8
Entrance_Staircase
100
AcDbLine
 10
234.28834355828238
 20
51.06315789473706
 30
0.0
 11
243.28834355828238
 21
51.06315789473706
 31
0.0
  0
LINE
  5
43
330
17
100
AcDbEntity
  8
Entrance_Staircase
100
AcDbLine
 10
234.28834355828226
 20
51.06315789473706
 30
0.0
 11
234.28834355828238
 21
200.23947368421088
 31
0.0
  0
LINE
  5
45
330
17
100
AcDbEntity
  8
Garden_Staircase
100
AcDbLine
 10
8.999999999999993
 20
176.07115419952137
 30
0.0
 11
47.429447852760774
 21
176.0711541995215
 31
0.0
  0
LINE
  5
46
330
17
100
AcDbEntity
  8
Garden_Staircase
100
AcDbLine
 10
9.000000000000004
 20
166.07115419952137
 30
0.0
 11
47.429447852760774
 21
166.07115419952137
 31
0.0
  0
LINE
  5
47
330
17
100
AcDbEntity
  8
Garden_Staircase
100
AcDbLine
 10
9.000000000000014
 20
156.07115419952137
 30
0.0
 11
47.429447852760774
 21
156.0711541995216
 31
0.0
  0
MTEXT
  5
48
330
17
100
AcDbEntity
  8
Garden_Staircase
100
AcDbMText
 10
28.46472392638037
 20
186.7977281642831
 30
0.0
 40
2.5
 71
1
  1
3
  0
MTEXT
  5
49
330
17
100
AcDbEntity
  8
Garden_Staircase
100
AcDbMText
 10
28.46472392638037
 20
173.5002208038387
 30
0.0
 40
2.5
 71
1
  1
2
  0
MTEXT
  5
4A
330
17
100
AcDbEntity
  8
Garden_Staircase
100
AcDbMText
 10
28.46472392638037
 20
164.3108532891553
 30
0.0
 40
2.5
 71
1
  1
1
  0
MTEXT
  5
4B
330
17
100
AcDbEntity
  8
Garden
100
AcDbMText
 10
28.46472392638037
 20
77.46315789473682
 30
0.0
 40
2.5
 71
1
  1
GARDEN
  0
LINE
  5
4D
330
17
100
AcDbEntity
  8
PoojaRoom
100
AcDbLine
 10
56.4294478527607
 20
137.36315789473687
 30
0.0
 11
56.4294478527607
 21
204.23947368421088
 31
0.0
  0
MTEXT
  5
4E
330
17
100
AcDbEntity
  8
PoojaRoom
100
AcDbMText
 10
63.70551961880382
 20
172.00318879121951
 30
0.0
 40
2.5
 71
1
  1
POOJAROOM
  0
LINE
  5
4F
330
17
100
AcDbEntity
  8
PoojaRoom
100
AcDbLine
 10
56.42944785276066
 20
137.36315789473682
 30
0.0
 11
110.0368098159509
 21
137.3631578947371
 31
0.0
  0
LINE
  5
50
330
17
100
AcDbEntity
  8
Garden
100
AcDbLine
 10
47.429447852760774
 20
128.36315789473687
 30
0.0
 11
47.429447852760774
 21
266.00826794707507
 31
0.0
  0
LINE
  5
51
330
17
100
AcDbEntity
  8
Garden
100
AcDbLine
 10
47.429447852760774
 20
128.36315789473687
 30
0.0
 11
110.0368098159509
 21
128.3631578947371
 31
0.0
  0
MTEXT
  5
52
330
17
100
AcDbEntity
  8
Entrance_Staircase
100
AcDbMText
 10
176.6686314882366
 20
148.32220161094008
 30
0.0
 40
2.5
 71
1
  1
3
  0
MTEXT
  5
53
330
17
100
AcDbEntity
  8
Entrance_Staircase
100
AcDbMText
 10
176.8526519659675
 20
114.26001589302982
 30
0.0
 40
2.5
 71
1
  1
2
  0
MTEXT
  5
54
330
17
100
AcDbEntity
  8
Entrance_Staircase
100
AcDbMText
 10
168.4956971586128
 20
184.0510114005463
 30
0.0
 40
2.5
 71
1
  1
+24''
  0
MTEXT
  5
55
330
17
100
AcDbEntity
  8
Entrance_Staircase
100
AcDbMText
 10
176.8526519659675
 20
105.07064837834642
 30
0.0
 40
2.5
 71
1
  1
1
  0
LINE
  5
56
330
17
100
AcDbEntity
  8
Entrance_Staircase
100
AcDbLine
 10
119.0368098159513
 20
96.47178199857481
 30
0.0
 11
234.28834355828226
 21
96.47178199857481
 31
0.0
  0
LINE
  5
57
330
17
100
AcDbEntity
  8
Entrance_Staircase
100
AcDbLine
 10
119.0368098159513
 20
106.4717819985747
 30
0.0
 11
234.28834355828226
 21
106.4717819985747
 31
0.0
  0
LINE
  5
58
330
17
100
AcDbEntity
  8
Entrance_Staircase
100
AcDbLine
 10
119.0368098159513
 20
116.47178199857487
 30
0.0
 11
234.28834355828226
 21
116.47178199857487
 31
0.0
  0
LINE
  5
59
330
17
100
AcDbEntity
  8
PoojaRoom
100
AcDbLine
 10
110.0368098159509
 20
137.3631578947371
 30
0.0
 11
110.0368098159509
 21
204.23947368421076
 31
0.0
  0
LINE
  5
5A
330
17
100
AcDbEntity
  8
Entrance_Staircase
100
AcDbLine
 10
110.0368098159509
 20
96.47178199857481
 30
0.0
 11
119.03680981595082
 21
96.47178199857481
 31
0.0
  0
LINE
  5
5B
330
17
100
AcDbEntity
  8
Entrance_Staircase
100
AcDbLine
 10
119.03680981595082
 20
96.47178199857481
 30
0.0
 11
119.03680981595082
 21
200.23947368421088
 31
0.0
  0
MTEXT
  5
5C
330
17
100
AcDbEntity
  8
Parking
100
AcDbMText
 10
336.6527548785074
 20
95.37618319103265
 30
0.0
 40
2.5
 71
1
  1
PARKING
  0
LINE
  5
5D
330
17
100
AcDbEntity
  8
PoojaRoom
100
AcDbLine
 10
69.42944785276062
 20
204.23947368421076
 30
0.0
 11
69.42944785276062
 21
209.23947368421088
 31
0.0
  0
LINE
  5
5F
330
17
100
AcDbEntity
  8
LivingRoom1
100
AcDbLine
 10
56.4294478527607
 20
209.23947368421076
 30
0.0
 11
69.42944785276062
 21
209.23947368421088
 31
0.0
  0
LINE
  5
60
330
17
100
AcDbEntity
  8
PoojaRoom
100
AcDbLine
 10
56.4294478527607
 20
204.23947368421076
 30
0.0
 11
69.42944785276062
 21
204.23947368421076
 31
0.0
  0
LINE
  5
61
330
17
100
AcDbEntity
  8
LivingRoom1
100
AcDbLine
 10
56.4294478527607
 20
209.23947368421088
 30
0.0
 11
56.4294478527607
 21
266.00826794707507
 31
0.0
  0
MTEXT
  5
62
330
17
100
AcDbEntity
  8
Entrance_Staircase
100
AcDbMText
 10
155.6170261204146
 20
192.49101775682377
 30
0.0
 40
2.5
 71
1
  1
ENTRANCE
  0
LINE
  5
63
330
17
100
AcDbEntity
  8
PoojaRoom
100
AcDbLine
 10
97.03680981595082
 20
204.23947368421076
 30
0.0
 11
97.03680981595082
 21
209.23947368421088
 31
0.0
  0
LINE
  5
64
330
17
100
AcDbEntity
  8
PoojaRoom
100
AcDbLine
 10
97.0368098159509
 20
204.23947368421076
 30
0.0
 11
110.03680981595082
 21
204.23947368421076
 31
0.0
  0
LINE
  5
65
330
17
100
AcDbEntity
  8
LivingRoom1
100
AcDbLine
 10
110.03680981595082
 20
209.23947368421088
 30
0.0
 11
149.03680981595082
 21
209.23947368421088
 31
0.0
  0
LINE
  5
66
330
17
100
AcDbEntity
  8
LivingRoom1
100
AcDbLine
 10
97.0368098159509
 20
209.23947368421088
 30
0.0
 11
110.03680981595082
 21
209.23947368421088
 31
0.0
  0
LINE
  5
67
330
17
100
AcDbEntity
  8
Entrance_Staircase
100
AcDbLine
 10
119.03680981595082
 20
200.23947368421076
 30
0.0
 11
149.03680981595082
 21
200.23947368421088
 31
0.0
  0
LINE
  5
68
330
17
100
AcDbEntity
  8
Entrance_Staircase
100
AcDbLine
 10
149.03680981595082
 20
200.23947368421076
 30
0.0
 11
149.03680981595082
 21
209.23947368421076
 31
0.0
  0
LINE
  5
69
330
17
100
AcDbEntity
  8
LivingRoom1
100
AcDbLine
 10
197.0368098159509
 20
209.23947368421088
 30
0.0
 11
234.28834355828226
 21
209.23947368421088
 31
0.0
  0
LINE
  5
6A
330
17
100
AcDbEntity
  8
Entrance_Staircase
100
AcDbLine
 10
197.0368098159509
 20
200.23947368421088
 30
0.0
 11
234.28834355828226
 21
200.23947368421088
 31
0.0
  0
LINE
  5
6B
330
17
100
AcDbEntity
  8
Entrance_Staircase
100
AcDbLine
 10
197.0368098159509
 20
200.23947368421088
 30
0.0
 11
197.03680981595102
 21
209.23947368421088
 31
0.0
  0
LINE
  5
6C
330
17
100
AcDbEntity
  8
Parking
100
AcDbLine
 10
243.28834355828238
 20
200.23947368421088
 30
0.0
 11
471.0
 21
200.23947368421076
 31
0.0
  0
LINE
  5
6E
330
17
100
AcDbEntity
  8
BedRoom3
100
AcDbLine
 10
239.28834355828238
 20
209.23947368421088
 30
0.0
 11
381.04294478527606
 21
209.23947368421088
 31
0.0
  0
LINE
  5
6F
330
17
100
AcDbEntity
  8
BedRoom3
100
AcDbLine
 10
239.2883435582822
 20
209.23947368421088
 30
0.0
 11
239.28834355828238
 21
356.54210526315785
 31
0.0
  0
LINE
  5
70
330
17
100
AcDbEntity
  8
LivingRoom1
100
AcDbLine
 10
234.2883435582821
 20
209.23947368421088
 30
0.0
 11
234.28834355828226
 21
356.54210526315785
 31
0.0
  0
LINE
  5
72
330
17
100
AcDbEntity
  8
BathRoom2
100
AcDbLine
 10
434.04294478527595
 20
209.23947368421088
 30
0.0
 11
434.04294478527595
 21
351.54210526315796
 31
0.0
  0
LINE
  5
73
330
17
100
AcDbEntity
  8
Garden
100
AcDbLine
 10
443.04294478527606
 20
200.23947368421076
 30
0.0
 11
443.04294478527606
 21
569.9684210526315
 31
0.0
  0
LINE
  5
74
330
17
100
AcDbEntity
  8
BathRoom2
100
AcDbLine
 10
386.04294478527584
 20
209.23947368421088
 30
0.0
 11
434.04294478527595
 21
209.23947368421088
 31
0.0
  0
LINE
  5
75
330
17
100
AcDbEntity
  8
BathRoom2
100
AcDbLine
 10
386.04294478527584
 20
209.23947368421088
 30
0.0
 11
386.04294478527595
 21
318.51052631578943
 31
0.0
  0
LINE
  5
76
330
17
100
AcDbEntity
  8
BedRoom3
100
AcDbLine
 10
381.04294478527606
 20
209.23947368421088
 30
0.0
 11
381.04294478527606
 21
318.5105263157893
 31
0.0
  0
LINE
  5
77
330
17
100
AcDbEntity
  8
Garden
100
AcDbLine
 10
471.0
 20
200.23947368421076
 30
0.0
 11
471.0
 21
602.9999999999999
 31
0.0
  0
LINE
  5
78
330
17
100
AcDbEntity
  8
LivingRoom1
100
AcDbLine
 10
47.429447852760745
 20
266.00826794707507
 30
0.0
 11
56.42944785276072
 21
266.00826794707507
 31
0.0
  0
MTEXT
  5
79
330
17
100
AcDbEntity
  8
BedRoom3
100
AcDbMText
 10
289.5736116805996
 20
282.30334142074037
 30
0.0
 40
2.5
 71
1
  1
BEDROOM3
  0
LINE
  5
7A
330
17
100
AcDbEntity
  8
Garden
100
AcDbLine
 10
47.429447852760745
 20
299.0398468944435
 30
0.0
 11
47.429447852760774
 21
569.9684210526315
 31
0.0
  0
LINE
  5
7B
330
17
100
AcDbEntity
  8
LivingRoom1
100
AcDbLine
 10
47.429447852760745
 20
299.0398468944435
 30
0.0
 11
56.429447852760745
 21
299.0398468944435
 31
0.0
  0
LINE
  5
7C
330
17
100
AcDbEntity
  8
LivingRoom1
100
AcDbLine
 10
56.429447852760745
 20
299.0398468944435
 30
0.0
 11
56.429447852760774
 21
428.54210526315796
 31
0.0
  0
MTEXT
  5
7D
330
17
100
AcDbEntity
  8
LivingRoom1
100
AcDbMText
 10
114.3918910224213
 20
318.2558320026807
 30
0.0
 40
2.5
 71
1
  1
LIVINGROOM1
  0
MTEXT
  5
7E
330
17
100
AcDbEntity
  8
BathRoom2
100
AcDbMText
 10
412.8562842983911
 20
293.64111180420605
 30
0.0
 40
2.5
 71
1
  1
BATHROOM2
  0
MTEXT
  5
7F
330
17
100
AcDbEntity
  8
Garden
100
AcDbMText
 10
28.46472392638037
 20
355.34364362571375
 30
0.0
 40
2.5
 71
1
  1
+24''
  0
MTEXT
  5
80
330
17
100
AcDbEntity
  8
Garden
100
AcDbMText
 10
26.721663710205576
 20
365.39627578821
 30
0.0
 40
2.5
 71
1
  1
GARDEN
  0
LINE
  5
82
330
17
100
AcDbEntity
  8
Kitchen
100
AcDbLine
 10
56.429447852760745
 20
433.54210526315796
 30
0.0
 11
56.429447852760774
 21
560.9684210526315
 31
0.0
  0
LINE
  5
83
330
17
100
AcDbEntity
  8
LivingRoom1
100
AcDbLine
 10
56.429447852760745
 20
428.54210526315796
 30
0.0
 11
120.03680981595082
 21
428.54210526315796
 31
0.0
  0
LINE
  5
84
330
17
100
AcDbEntity
  8
Kitchen
100
AcDbLine
 10
56.429447852760745
 20
433.54210526315796
 30
0.0
 11
120.03680981595082
 21
433.54210526315796
 31
0.0
  0
LINE
  5
86
330
17
100
AcDbEntity
  8
StoreRoom
100
AcDbLine
 10
173.0368098159509
 20
433.54210526315796
 30
0.0
 11
180.5368098159509
 21
433.54210526315796
 31
0.0
  0
LINE
  5
87
330
17
100
AcDbEntity
  8
StoreRoom
100
AcDbLine
 10
173.0368098159509
 20
433.54210526315785
 30
0.0
 11
173.0368098159509
 21
495.8421052631579
 31
0.0
  0
LINE
  5
88
330
17
100
AcDbEntity
  8
Kitchen
100
AcDbLine
 10
168.0368098159509
 20
428.54210526315796
 30
0.0
 11
168.0368098159509
 21
560.9684210526315
 31
0.0
  0
LINE
  5
89
330
17
100
AcDbEntity
  8
Kitchen
100
AcDbLine
 10
120.03680981595082
 20
428.54210526315796
 30
0.0
 11
120.03680981595082
 21
433.54210526315785
 31
0.0
  0
LINE
  5
8A
330
17
100
AcDbEntity
  8
LivingRoom1
100
AcDbLine
 10
168.03680981595082
 20
428.54210526315796
 30
0.0
 11
180.5368098159509
 21
428.54210526315796
 31
0.0
  0
LINE
  5
8B
330
17
100
AcDbEntity
  8
StoreRoom
100
AcDbLine
 10
180.5368098159509
 20
428.54210526315774
 30
0.0
 11
180.53680981595102
 21
433.54210526315774
 31
0.0
  0
LINE
  5
8C
330
17
100
AcDbEntity
  8
StoreRoom
100
AcDbLine
 10
234.2883435582821
 20
433.54210526315796
 30
0.0
 11
234.2883435582821
 21
495.8421052631579
 31
0.0
  0
LINE
  5
8E
330
17
100
AcDbEntity
  8
BathRoom1
100
AcDbLine
 10
239.2883435582822
 20
433.54210526315785
 30
0.0
 11
239.2883435582822
 21
500.8421052631578
 31
0.0
  0
LINE
  5
8F
330
17
100
AcDbEntity
  8
BathRoom1
100
AcDbLine
 10
239.2883435582822
 20
433.54210526315796
 30
0.0
 11
285.04294478527606
 21
433.54210526315796
 31
0.0
  0
LINE
  5
90
330
17
100
AcDbEntity
  8
StoreRoom
100
AcDbLine
 10
226.7883435582822
 20
428.5421052631581
 30
0.0
 11
226.7883435582822
 21
433.5421052631581
 31
0.0
  0
LINE
  5
91
330
17
100
AcDbEntity
  8
StoreRoom
100
AcDbLine
 10
226.7883435582822
 20
433.54210526315796
 30
0.0
 11
234.2883435582821
 21
433.54210526315796
 31
0.0
  0
LINE
  5
92
330
17
100
AcDbEntity
  8
LivingRoom1
100
AcDbLine
 10
226.7883435582822
 20
428.54210526315796
 30
0.0
 11
285.04294478527606
 21
428.54210526315796
 31
0.0
  0
LINE
  5
94
330
17
100
AcDbEntity
  8
Staircase
100
AcDbLine
 10
308.04294478527595
 20
392.54210526315785
 30
0.0
 11
434.04294478527606
 21
392.54210526315796
 31
0.0
  0
LINE
  5
95
330
17
100
AcDbEntity
  8
Staircase
100
AcDbLine
 10
398.04294478527595
 20
356.54210526315785
 30
0.0
 11
398.04294478527595
 21
428.5421052631581
 31
0.0
  0
LINE
  5
96
330
17
100
AcDbEntity
  8
Staircase
100
AcDbLine
 10
388.04294478527595
 20
356.54210526315785
 30
0.0
 11
388.04294478527606
 21
428.5421052631581
 31
0.0
  0
LINE
  5
97
330
17
100
AcDbEntity
  8
Staircase
100
AcDbLine
 10
378.04294478527595
 20
356.54210526315785
 30
0.0
 11
378.04294478527606
 21
428.5421052631581
 31
0.0
  0
LINE
  5
98
330
17
100
AcDbEntity
  8
Staircase
100
AcDbLine
 10
368.04294478527606
 20
356.54210526315785
 30
0.0
 11
368.04294478527606
 21
428.5421052631581
 31
0.0
  0
LINE
  5
99
330
17
100
AcDbEntity
  8
Staircase
100
AcDbLine
 10
358.04294478527595
 20
356.54210526315785
 30
0.0
 11
358.04294478527606
 21
428.5421052631581
 31
0.0
  0
LINE
  5
9B
330
17
100
AcDbEntity
  8
BedRoom1
100
AcDbLine
 10
434.04294478527595
 20
433.5421052631581
 30
0.0
 11
434.04294478527606
 21
560.9684210526315
 31
0.0
  0
LINE
  5
9C
330
17
100
AcDbEntity
  8
Staircase
100
AcDbLine
 10
338.04294478527606
 20
356.54210526315785
 30
0.0
 11
338.04294478527606
 21
392.54210526315796
 31
0.0
  0
LINE
  5
9D
330
17
100
AcDbEntity
  8
Staircase
100
AcDbLine
 10
318.04294478527606
 20
356.54210526315785
 30
0.0
 11
318.04294478527606
 21
392.54210526315796
 31
0.0
  0
LINE
  5
9E
330
17
100
AcDbEntity
  8
Staircase
100
AcDbLine
 10
308.04294478527606
 20
356.54210526315785
 30
0.0
 11
308.04294478527606
 21
392.54210526315796
 31
0.0
  0
LINE
  5
9F
330
17
100
AcDbEntity
  8
Staircase
100
AcDbLine
 10
348.04294478527595
 20
356.54210526315785
 30
0.0
 11
348.04294478527595
 21
428.5421052631581
 31
0.0
  0
LINE
  5
A0
330
17
100
AcDbEntity
  8
BathRoom2
100
AcDbLine
 10
381.04294478527606
 20
351.54210526315796
 30
0.0
 11
434.04294478527595
 21
351.54210526315796
 31
0.0
  0
LINE
  5
A1
330
17
100
AcDbEntity
  8
Staircase
100
AcDbLine
 10
328.04294478527606
 20
356.54210526315785
 30
0.0
 11
328.04294478527606
 21
392.54210526315796
 31
0.0
  0
LINE
  5
A2
330
17
100
AcDbEntity
  8
Staircase
100
AcDbLine
 10
434.04294478527595
 20
356.54210526315785
 30
0.0
 11
434.04294478527606
 21
428.54210526315796
 31
0.0
  0
MTEXT
  5
A3
330
17
100
AcDbEntity
  8
Staircase
100
AcDbMText
 10
335.78021566376844
 20
377.0156188400881
 30
0.0
 40
2.5
 71
1
  1
3
  0
MTEXT
  5
A4
330
17
100
AcDbEntity
  8
Staircase
100
AcDbMText
 10
324.67648112779557
 20
377.0156188400881
 30
0.0
 40
2.5
 71
1
  1
2
  0
MTEXT
  5
A5
330
17
100
AcDbEntity
  8
Staircase
100
AcDbMText
 10
314.2861133978471
 20
377.0156188400881
 30
0.0
 40
2.5
 71
1
  1
1
  0
MTEXT
  5
A6
330
17
100
AcDbEntity
  8
Staircase
100
AcDbMText
 10
345.38189794268897
 20
377.0156188400881
 30
0.0
 40
2.5
 71
1
  1
4
  0
MTEXT
  5
A7
330
17
100
AcDbEntity
  8
Staircase
100
AcDbMText
 10
355.76590751339825
 20
377.0156188400881
 30
0.0
 40
2.5
 71
1
  1
5
  0
MTEXT
  5
A8
330
17
100
AcDbEntity
  8
Staircase
100
AcDbMText
 10
365.7942921878587
 20
377.0156188400881
 30
0.0
 40
2.5
 71
1
  1
6
  0
MTEXT
  5
A9
330
17
100
AcDbEntity
  8
Staircase
100
AcDbMText
 10
375.6804506437969
 20
377.0156188400881
 30
0.0
 40
2.5
 71
1
  1
7
  0
MTEXT
  5
AA
330
17
100
AcDbEntity
  8
Staircase
100
AcDbMText
 10
355.82248404040297
 20
409.8128719734091
 30
0.0
 40
2.5
 71
1
  1
16
  0
MTEXT
  5
AB
330
17
100
AcDbEntity
  8
Staircase
100
AcDbMText
 10
366.21463642415915
 20
409.8128719734091
 30
0.0
 40
2.5
 71
1
  1
15
  0
MTEXT
  5
AC
330
17
100
AcDbEntity
  8
Staircase
100
AcDbMText
 10
376.1767865551949
 20
409.8128719734091
 30
0.0
 40
2.5
 71
1
  1
14
  0
MTEXT
  5
AD
330
17
100
AcDbEntity
  8
Staircase
100
AcDbMText
 10
386.06724194746425
 20
409.8128719734091
 30
0.0
 40
2.5
 71
1
  1
13
  0
MTEXT
  5
AE
330
17
100
AcDbEntity
  8
Staircase
100
AcDbMText
 10
396.53106533000334
 20
409.8128719734091
 30
0.0
 40
2.5
 71
1
  1
12
  0
MTEXT
  5
AF
330
17
100
AcDbEntity
  8
Staircase
100
AcDbMText
 10
418.6039245615923
 20
409.8128719734091
 30
0.0
 40
2.5
 71
1
  1
11
  0
MTEXT
  5
B0
330
17
100
AcDbEntity
  8
Staircase
100
AcDbMText
 10
418.6039245615923
 20
377.0156188400881
 30
0.0
 40
2.5
 71
1
  1
10
  0
MTEXT
  5
B1
330
17
100
AcDbEntity
  8
Staircase
100
AcDbMText
 10
395.8444297411464
 20
377.0156188400881
 30
0.0
 40
2.5
 71
1
  1
9
  0
MTEXT
  5
B2
330
17
100
AcDbEntity
  8
Staircase
100
AcDbMText
 10
385.38929519118597
 20
377.0156188400881
 30
0.0
 40
2.5
 71
1
  1
8
  0
LINE
  5
B3
330
17
100
AcDbEntity
  8
BedRoom1
100
AcDbLine
 10
321.04294478527606
 20
433.54210526315796
 30
0.0
 11
434.04294478527595
 21
433.54210526315796
 31
0.0
  0
LINE
  5
B4
330
17
100
AcDbEntity
  8
BedRoom3
100
AcDbLine
 10
270.04294478527606
 20
351.54210526315785
 30
0.0
 11
381.04294478527606
 21
351.54210526315796
 31
0.0
  0
LINE
  5
B5
330
17
100
AcDbEntity
  8
Staircase
100
AcDbLine
 10
270.04294478527606
 20
356.54210526315785
 30
0.0
 11
434.04294478527595
 21
356.54210526315785
 31
0.0
  0
LINE
  5
B6
330
17
100
AcDbEntity
  8
BedRoom3
100
AcDbLine
 10
270.04294478527606
 20
351.54210526315774
 30
0.0
 11
270.04294478527606
 21
356.54210526315785
 31
0.0
  0
LINE
  5
B7
330
17
100
AcDbEntity
  8
BathRoom1
100
AcDbLine
 10
285.04294478527606
 20
428.54210526315796
 30
0.0
 11
285.04294478527606
 21
433.54210526315785
 31
0.0
  0
LINE
  5
B8
330
17
100
AcDbEntity
  8
BedRoom1
100
AcDbLine
 10
321.04294478527606
 20
428.54210526315796
 30
0.0
 11
321.04294478527606
 21
433.54210526315796
 31
0.0
  0
LINE
  5
B9
330
17
100
AcDbEntity
  8
Staircase
100
AcDbLine
 10
321.04294478527606
 20
428.54210526315796
 30
0.0
 11
434.04294478527595
 21
428.54210526315796
 31
0.0
  0
MTEXT
  5
BA
330
17
100
AcDbEntity
  8
StoreRoom
100
AcDbMText
 10
183.2230184717204
 20
466.61818893321595
 30
0.0
 40
2.5
 71
1
  1
STOREROOM
  0
LINE
  5
BB
330
17
100
AcDbEntity
  8
BathRoom1
100
AcDbLine
 10
280.04294478527606
 20
462.0578947368422
 30
0.0
 11
280.04294478527606
 21
560.9684210526315
 31
0.0
  0
LINE
  5
BC
330
17
100
AcDbEntity
  8
BedRoom1
100
AcDbLine
 10
285.04294478527606
 20
462.0578947368422
 30
0.0
 11
285.04294478527606
 21
560.9684210526315
 31
0.0
  0
LINE
  5
BD
330
17
100
AcDbEntity
  8
BathRoom1
100
AcDbLine
 10
280.04294478527606
 20
462.0578947368422
 30
0.0
 11
285.04294478527606
 21
462.0578947368422
 31
0.0
  0
MTEXT
  5
BE
330
17
100
AcDbEntity
  8
Kitchen
100
AcDbMText
 10
88.1008842983477
 20
507.2325499897813
 30
0.0
 40
2.5
 71
1
  1
KITCHEN
  0
LINE
  5
BF
330
17
100
AcDbEntity
  8
BathRoom1
100
AcDbLine
 10
173.0368098159509
 20
500.8421052631578
 30
0.0
 11
173.0368098159509
 21
560.9684210526315
 31
0.0
  0
LINE
  5
C0
330
17
100
AcDbEntity
  8
BathRoom1
100
AcDbLine
 10
173.0368098159509
 20
500.8421052631578
 30
0.0
 11
239.2883435582822
 21
500.8421052631578
 31
0.0
  0
LINE
  5
C1
330
17
100
AcDbEntity
  8
StoreRoom
100
AcDbLine
 10
173.03680981595102
 20
495.8421052631579
 30
0.0
 11
234.2883435582821
 21
495.8421052631579
 31
0.0
  0
MTEXT
  5
C2
330
17
100
AcDbEntity
  8
BedRoom1
100
AcDbMText
 10
340.92337562669695
 20
509.201417652488
 30
0.0
 40
2.5
 71
1
  1
BEDROOM1
  0
LINE
  5
C3
330
17
100
AcDbEntity
  8
Kitchen
100
AcDbLine
 10
56.429447852760745
 20
560.9684210526315
 30
0.0
 11
168.0368098159509
 21
560.9684210526315
 31
0.0
  0
LINE
  5
C4
330
17
100
AcDbEntity
  8
Garden
100
AcDbLine
 10
47.429447852760774
 20
569.9684210526315
 30
0.0
 11
443.04294478527606
 21
569.9684210526315
 31
0.0
  0
LINE
  5
C5
330
17
100
AcDbEntity
  8
BathRoom1
100
AcDbLine
 10
173.0368098159509
 20
560.9684210526315
 30
0.0
 11
280.0429447852762
 21
560.9684210526315
 31
0.0
  0
MTEXT
  5
C6
330
17
100
AcDbEntity
  8
BathRoom1
100
AcDbMText
 10
202.2615800903235
 20
531.1552631578945
 30
0.0
 40
2.5
 71
1
  1
BATHROOM1
  0
LINE
  5
C7
330
17
100
AcDbEntity
  8
BedRoom1
100
AcDbLine
 10
285.04294478527606
 20
560.9684210526315
 30
0.0
 11
434.04294478527595
 21
560.9684210526315
 31
0.0
  0
LINE
  5
C8
330
17
100
AcDbEntity
  8
Boundary
100
AcDbLine
 10
0.0
 20
611.9999999999999
 30
0.0
 11
479.9999999999999
 21
611.9999999999999
 31
0.0
  0
LINE
  5
C9
330
17
100
AcDbEntity
  8
Garden
100
AcDbLine
 10
8.999999999999993
 20
602.9999999999999
 30
0.0
 11
471.0
 21
602.9999999999999
 31
0.0
  0
LINE
  5
CA
330
17
100
AcDbEntity
  8
Boundary
100
AcDbLine
 10
935.9898936851621
 20
9.000000000000114
 30
0.0
 11
935.9898936851621
 21
603.0000000000001
 31
0.0
  0
LINE
  5
CB
330
17
100
AcDbEntity
  8
Boundary
100
AcDbLine
 10
926.9898936851621
 20
2.2737367544323206e-13
 30
0.0
 11
926.9898936851621
 21
612.0000000000001
 31
0.0
  0
LINE
  5
CC
330
17
100
AcDbEntity
  8
Boundary
100
AcDbLine
 10
926.9898936851621
 20
2.2737367544323206e-13
 30
0.0
 11
1406.989893685162
 21
2.2737367544323206e-13
 31
0.0
  0
LINE
  5
CD
330
17
100
AcDbEntity
  8
Boundary
100
AcDbLine
 10
935.9898936851621
 20
9.000000000000114
 30
0.0
 11
1397.989893685161
 21
9.000000000000114
 31
0.0
  0
LINE
  5
CE
330
17
100
AcDbEntity
  8
Boundary
100
AcDbLine
 10
1406.989893685162
 20
2.2737367544323206e-13
 30
0.0
 11
1406.989893685162
 21
612.0000000000001
 31
0.0
  0
LINE
  5
CF
330
17
100
AcDbEntity
  8
Boundary
100
AcDbLine
 10
1397.989893685161
 20
9.000000000000341
 30
0.0
 11
1397.989893685162
 21
603.0000000000001
 31
0.0
  0
LINE
  5
D0
330
17
100
AcDbEntity
  8
Boundary
100
AcDbLine
 10
974.4193415379228
 20
56.275954066479386
 30
0.0
 11
1163.2782372434447
 21
56.27595406648007
 31
0.0
  0
LINE
  5
D1
330
17
100
AcDbEntity
  8
Boundary
100
AcDbLine
 10
974.4193415379228
 20
56.275954066479386
 30
0.0
 11
974.4193415379228
 21
569.9684210526317
 31
0.0
  0
LINE
  5
D3
330
17
100
AcDbEntity
  8
Terrace
100
AcDbLine
 10
983.419341537923
 20
58.2759540664795
 30
0.0
 11
1161.2782372434435
 21
58.27595406647984
 31
0.0
  0
LINE
  5
D4
330
17
100
AcDbEntity
  8
Terrace
100
AcDbLine
 10
983.419341537923
 20
56.275954066479386
 30
0.0
 11
983.419341537923
 21
351.542105263158
 31
0.0
  0
LINE
  5
D5
330
17
100
AcDbEntity
  8
Terrace
100
AcDbLine
 10
1163.2782372434447
 20
56.27595406647961
 30
0.0
 11
1163.2782372434447
 21
200.23947368421082
 31
0.0
  0
LINE
  5
D6
330
17
100
AcDbEntity
  8
Terrace
100
AcDbLine
 10
1161.2782372434447
 20
58.27595406647984
 30
0.0
 11
1161.2782372434447
 21
356.542105263158
 31
0.0
  0
MTEXT
  5
D7
330
17
100
AcDbEntity
  8
Terrace
100
AcDbMText
 10
1041.808004031966
 20
217.5899646332795
 30
0.0
 40
2.5
 71
1
  1
TERRACE
  0
LINE
  5
D8
330
17
100
AcDbEntity
  8
Boundary
100
AcDbLine
 10
1161.2782372434447
 20
200.23947368421082
 30
0.0
 11
1370.0328384704383
 21
200.23947368421094
 31
0.0
  0
LINE
  5
DA
330
17
100
AcDbEntity
  8
BedRoom2a
100
AcDbLine
 10
1166.2782372434447
 20
209.23947368421094
 30
0.0
 11
1308.0328384704383
 21
209.23947368421094
 31
0.0
  0
LINE
  5
DB
330
17
100
AcDbEntity
  8
BedRoom2a
100
AcDbLine
 10
1166.2782372434447
 20
209.23947368421094
 30
0.0
 11
1166.2782372434447
 21
356.542105263158
 31
0.0
  0
LINE
  5
DD
330
17
100
AcDbEntity
  8
BathRoom2b
100
AcDbLine
 10
1313.0328384704383
 20
209.23947368421094
 30
0.0
 11
1361.0328384704383
 21
209.23947368421094
 31
0.0
  0
LINE
  5
DE
330
17
100
AcDbEntity
  8
Boundary
100
AcDbLine
 10
1370.0328384704383
 20
200.23947368421082
 30
0.0
 11
1370.0328384704383
 21
569.9684210526317
 31
0.0
  0
LINE
  5
DF
330
17
100
AcDbEntity
  8
BathRoom2b
100
AcDbLine
 10
1313.0328384704383
 20
209.23947368421094
 30
0.0
 11
1313.0328384704383
 21
318.51052631578955
 31
0.0
  0
LINE
  5
E0
330
17
100
AcDbEntity
  8
BedRoom2a
100
AcDbLine
 10
1308.0328384704383
 20
209.23947368421094
 30
0.0
 11
1308.0328384704383
 21
318.5105263157895
 31
0.0
  0
LINE
  5
E1
330
17
100
AcDbEntity
  8
BathRoom2b
100
AcDbLine
 10
1361.0328384704383
 20
209.23947368421094
 30
0.0
 11
1361.0328384704383
 21
351.542105263158
 31
0.0
  0
MTEXT
  5
E2
330
17
100
AcDbEntity
  8
BathRoom2b
100
AcDbMText
 10
1344.1403229684831
 20
296.4954673741903
 30
0.0
 40
2.5
 71
1
  1
BATHROOM2b
  0
MTEXT
  5
E3
330
17
100
AcDbEntity
  8
BedRoom2a
100
AcDbMText
 10
1222.4832908326002
 20
282.7447368421053
 30
0.0
 40
2.5
 71
1
  1
BEDROOM2a
  0
LINE
  5
E4
330
17
100
AcDbEntity
  8
BathRoom2b
100
AcDbLine
 10
1308.0328384704383
 20
318.51052631578955
 30
0.0
 11
1313.0328384704383
 21
318.51052631578955
 31
0.0
  0
MTEXT
  5
E5
330
17
100
AcDbEntity
  8
BathRoom2b
100
AcDbMText
 10
995.8742976674519
 20
394.1388214308442
 30
0.0
 40
2.5
 71
1
  1
BATHROOM2b
  0
LINE
  5
E7
330
17
100
AcDbEntity
  8
Pantry
100
AcDbLine
 10
983.419341537923
 20
433.5421052631581
 30
0.0
 11
983.419341537923
 21
560.9684210526317
 31
0.0
  0
LINE
  5
E8
330
17
100
AcDbEntity
  8
BathRoom2b
100
AcDbLine
 10
983.419341537923
 20
428.5421052631581
 30
0.0
 11
1047.026703501112
 21
428.5421052631581
 31
0.0
  0
LINE
  5
E9
330
17
100
AcDbEntity
  8
Pantry
100
AcDbLine
 10
983.419341537923
 20
433.5421052631581
 30
0.0
 11
1052.0267035011132
 21
433.5421052631581
 31
0.0
  0
LINE
  5
EA
330
17
100
AcDbEntity
  8
Terrace
100
AcDbLine
 10
983.419341537923
 20
351.542105263158
 30
0.0
 11
1115.026703501112
 21
351.542105263158
 31
0.0
  0
LINE
  5
EB
330
17
100
AcDbEntity
  8
BathRoom2b
100
AcDbLine
 10
983.419341537923
 20
356.542105263158
 30
0.0
 11
1115.026703501112
 21
356.542105263158
 31
0.0
  0
LINE
  5
EC
330
17
100
AcDbEntity
  8
BathRoom2b
100
AcDbLine
 10
983.419341537923
 20
356.542105263158
 30
0.0
 11
983.419341537923
 21
428.5421052631581
 31
0.0
  0
LINE
  5
EE
330
17
100
AcDbEntity
  8
WashArea
100
AcDbLine
 10
1095.0267035011132
 20
428.5421052631581
 30
0.0
 11
1107.526703501112
 21
428.5421052631581
 31
0.0
  0
LINE
  5
EF
330
17
100
AcDbEntity
  8
WashArea
100
AcDbLine
 10
1100.0267035011132
 20
433.542105263158
 30
0.0
 11
1100.0267035011132
 21
495.84210526315803
 31
0.0
  0
LINE
  5
F0
330
17
100
AcDbEntity
  8
Pantry
100
AcDbLine
 10
1095.0267035011132
 20
428.5421052631581
 30
0.0
 11
1095.0267035011132
 21
560.9684210526317
 31
0.0
  0
LINE
  5
F1
330
17
100
AcDbEntity
  8
WashArea
100
AcDbLine
 10
1100.0267035011132
 20
433.5421052631581
 30
0.0
 11
1107.526703501112
 21
433.5421052631581
 31
0.0
  0
LINE
  5
F2
330
17
100
AcDbEntity
  8
BathRoom2b
100
AcDbLine
 10
1047.026703501112
 20
386.5421052631579
 30
0.0
 11
1047.0267035011132
 21
428.5421052631581
 31
0.0
  0
LINE
  5
F3
330
17
100
AcDbEntity
  8
BathRoom2b
100
AcDbLine
 10
1052.0267035011132
 20
386.5421052631579
 30
0.0
 11
1052.0267035011132
 21
433.5421052631581
 31
0.0
  0
LINE
  5
F4
330
17
100
AcDbEntity
  8
BathRoom2b
100
AcDbLine
 10
1047.0267035011132
 20
386.5421052631579
 30
0.0
 11
1052.0267035011132
 21
386.5421052631579
 31
0.0
  0
LINE
  5
F5
330
17
100
AcDbEntity
  8
WashArea
100
AcDbLine
 10
1107.526703501112
 20
428.5421052631579
 30
0.0
 11
1107.526703501112
 21
433.5421052631579
 31
0.0
  0
LINE
  5
F7
330
17
100
AcDbEntity
  8
BathRoom2c
100
AcDbLine
 10
1166.2782372434447
 20
433.542105263158
 30
0.0
 11
1166.2782372434447
 21
500.84210526315803
 31
0.0
  0
LINE
  5
F8
330
17
100
AcDbEntity
  8
WashArea
100
AcDbLine
 10
1161.2782372434447
 20
433.5421052631581
 30
0.0
 11
1161.2782372434447
 21
495.84210526315803
 31
0.0
  0
LINE
  5
F9
330
17
100
AcDbEntity
  8
Terrace
100
AcDbLine
 10
1161.2782372434447
 20
356.542105263158
 30
0.0
 11
1166.2782372434447
 21
356.542105263158
 31
0.0
  0
LINE
  5
FA
330
17
100
AcDbEntity
  8
BathRoom2c
100
AcDbLine
 10
1153.7782372434447
 20
428.5421052631581
 30
0.0
 11
1212.0328384704383
 21
428.5421052631581
 31
0.0
  0
LINE
  5
FB
330
17
100
AcDbEntity
  8
WashArea
100
AcDbLine
 10
1153.7782372434447
 20
433.5421052631581
 30
0.0
 11
1161.2782372434447
 21
433.5421052631581
 31
0.0
  0
LINE
  5
FC
330
17
100
AcDbEntity
  8
BathRoom2c
100
AcDbLine
 10
1166.2782372434447
 20
433.5421052631581
 30
0.0
 11
1212.0328384704383
 21
433.5421052631581
 31
0.0
  0
LINE
  5
FD
330
17
100
AcDbEntity
  8
WashArea
100
AcDbLine
 10
1153.7782372434447
 20
428.5421052631582
 30
0.0
 11
1153.7782372434447
 21
433.5421052631582
 31
0.0
  0
LINE
  5
FE
330
17
100
AcDbEntity
  8
Staircase
100
AcDbLine
 10
1255.0328384704383
 20
356.542105263158
 30
0.0
 11
1255.0328384704383
 21
392.542105263158
 31
0.0
  0
LINE
  5
FF
330
17
100
AcDbEntity
  8
Staircase
100
AcDbLine
 10
1265.0328384704383
 20
356.542105263158
 30
0.0
 11
1265.0328384704383
 21
392.542105263158
 31
0.0
  0
LINE
  5
100
330
17
100
AcDbEntity
  8
BathRoom2b
100
AcDbLine
 10
1313.0328384704383
 20
351.542105263158
 30
0.0
 11
1361.0328384704383
 21
351.5421052631581
 31
0.0
  0
LINE
  5
101
330
17
100
AcDbEntity
  8
Staircase
100
AcDbLine
 10
1235.0328384704383
 20
392.542105263158
 30
0.0
 11
1361.0328384704383
 21
392.5421052631581
 31
0.0
  0
LINE
  5
102
330
17
100
AcDbEntity
  8
Staircase
100
AcDbLine
 10
1235.0328384704383
 20
356.542105263158
 30
0.0
 11
1235.0328384704383
 21
392.542105263158
 31
0.0
  0
LINE
  5
103
330
17
100
AcDbEntity
  8
Staircase
100
AcDbLine
 10
1275.0328384704383
 20
356.542105263158
 30
0.0
 11
1275.0328384704383
 21
428.5421052631581
 31
0.0
  0
LINE
  5
104
330
17
100
AcDbEntity
  8
Staircase
100
AcDbLine
 10
1285.0328384704383
 20
356.542105263158
 30
0.0
 11
1285.0328384704383
 21
428.5421052631581
 31
0.0
  0
LINE
  5
105
330
17
100
AcDbEntity
  8
Staircase
100
AcDbLine
 10
1245.0328384704383
 20
356.542105263158
 30
0.0
 11
1245.0328384704383
 21
392.542105263158
 31
0.0
  0
MTEXT
  5
106
330
17
100
AcDbEntity
  8
Staircase
100
AcDbMText
 10
1241.2760070830093
 20
377.0156188400883
 30
0.0
 40
2.5
 71
1
  1
1
  0
LINE
  5
107
330
17
100
AcDbEntity
  8
Staircase
100
AcDbLine
 10
1295.0328384704383
 20
356.542105263158
 30
0.0
 11
1295.0328384704383
 21
428.5421052631581
 31
0.0
  0
MTEXT
  5
108
330
17
100
AcDbEntity
  8
Staircase
100
AcDbMText
 10
1282.8123777255653
 20
409.8128719734091
 30
0.0
 40
2.5
 71
1
  1
16
  0
MTEXT
  5
109
330
17
100
AcDbEntity
  8
Staircase
100
AcDbMText
 10
1293.2045301093212
 20
409.8128719734091
 30
0.0
 40
2.5
 71
1
  1
15
  0
MTEXT
  5
10A
330
17
100
AcDbEntity
  8
Staircase
100
AcDbMText
 10
1303.1666802403572
 20
409.8128719734091
 30
0.0
 40
2.5
 71
1
  1
14
  0
MTEXT
  5
10B
330
17
100
AcDbEntity
  8
Staircase
100
AcDbMText
 10
1313.0571356326261
 20
409.8128719734091
 30
0.0
 40
2.5
 71
1
  1
13
  0
MTEXT
  5
10C
330
17
100
AcDbEntity
  8
Staircase
100
AcDbMText
 10
1323.520959015165
 20
409.8128719734091
 30
0.0
 40
2.5
 71
1
  1
12
  0
MTEXT
  5
10D
330
17
100
AcDbEntity
  8
Staircase
100
AcDbMText
 10
1345.5938182467542
 20
409.8128719734091
 30
0.0
 40
2.5
 71
1
  1
11
  0
MTEXT
  5
10E
330
17
100
AcDbEntity
  8
Staircase
100
AcDbMText
 10
1345.5938182467542
 20
377.0156188400883
 30
0.0
 40
2.5
 71
1
  1
10
  0
MTEXT
  5
10F
330
17
100
AcDbEntity
  8
Staircase
100
AcDbMText
 10
1322.8343234263082
 20
377.0156188400883
 30
0.0
 40
2.5
 71
1
  1
9
  0
MTEXT
  5
110
330
17
100
AcDbEntity
  8
Staircase
100
AcDbMText
 10
1312.3791888763483
 20
377.0156188400883
 30
0.0
 40
2.5
 71
1
  1
8
  0
MTEXT
  5
111
330
17
100
AcDbEntity
  8
Staircase
100
AcDbMText
 10
1292.7841858730212
 20
377.0156188400883
 30
0.0
 40
2.5
 71
1
  1
6
  0
MTEXT
  5
112
330
17
100
AcDbEntity
  8
Staircase
100
AcDbMText
 10
1282.7558011985602
 20
377.0156188400883
 30
0.0
 40
2.5
 71
1
  1
5
  0
MTEXT
  5
113
330
17
100
AcDbEntity
  8
Staircase
100
AcDbMText
 10
1272.3717916278513
 20
377.0156188400883
 30
0.0
 40
2.5
 71
1
  1
4
  0
MTEXT
  5
114
330
17
100
AcDbEntity
  8
Staircase
100
AcDbMText
 10
1262.7701093489302
 20
377.0156188400883
 30
0.0
 40
2.5
 71
1
  1
3
  0
MTEXT
  5
115
330
17
100
AcDbEntity
  8
Staircase
100
AcDbMText
 10
1251.6663748129572
 20
377.0156188400883
 30
0.0
 40
2.5
 71
1
  1
2
  0
MTEXT
  5
116
330
17
100
AcDbEntity
  8
Staircase
100
AcDbMText
 10
1302.6703443289591
 20
377.0156188400883
 30
0.0
 40
2.5
 71
1
  1
7
  0
LINE
  5
117
330
17
100
AcDbEntity
  8
Staircase
100
AcDbLine
 10
1305.0328384704383
 20
356.542105263158
 30
0.0
 11
1305.0328384704383
 21
428.5421052631581
 31
0.0
  0
LINE
  5
118
330
17
100
AcDbEntity
  8
Staircase
100
AcDbLine
 10
1325.0328384704383
 20
356.542105263158
 30
0.0
 11
1325.0328384704383
 21
428.5421052631581
 31
0.0
  0
LINE
  5
119
330
17
100
AcDbEntity
  8
BedRoom2a
100
AcDbLine
 10
1197.0328384704383
 20
351.542105263158
 30
0.0
 11
1313.0328384704383
 21
351.5421052631581
 31
0.0
  0
LINE
  5
11A
330
17
100
AcDbEntity
  8
Staircase
100
AcDbLine
 10
1197.0328384704383
 20
356.542105263158
 30
0.0
 11
1361.0328384704383
 21
356.542105263158
 31
0.0
  0
LINE
  5
11B
330
17
100
AcDbEntity
  8
Staircase
100
AcDbLine
 10
1248.0328384704383
 20
428.5421052631581
 30
0.0
 11
1361.0328384704383
 21
428.5421052631581
 31
0.0
  0
LINE
  5
11D
330
17
100
AcDbEntity
  8
BedRoom2
100
AcDbLine
 10
1248.0328384704383
 20
433.5421052631581
 30
0.0
 11
1361.0328384704383
 21
433.5421052631581
 31
0.0
  0
LINE
  5
11E
330
17
100
AcDbEntity
  8
BathRoom2c
100
AcDbLine
 10
1212.0328384704383
 20
428.5421052631581
 30
0.0
 11
1212.0328384704383
 21
433.542105263158
 31
0.0
  0
LINE
  5
11F
330
17
100
AcDbEntity
  8
BedRoom2
100
AcDbLine
 10
1248.0328384704383
 20
428.5421052631581
 30
0.0
 11
1248.0328384704383
 21
433.5421052631581
 31
0.0
  0
LINE
  5
120
330
17
100
AcDbEntity
  8
Staircase
100
AcDbLine
 10
1315.0328384704383
 20
356.542105263158
 30
0.0
 11
1315.0328384704383
 21
428.5421052631581
 31
0.0
  0
LINE
  5
121
330
17
100
AcDbEntity
  8
BedRoom2
100
AcDbLine
 10
1361.0328384704383
 20
433.5421052631581
 30
0.0
 11
1361.0328384704383
 21
560.9684210526317
 31
0.0
  0
LINE
  5
122
330
17
100
AcDbEntity
  8
Staircase
100
AcDbLine
 10
1361.0328384704383
 20
356.542105263158
 30
0.0
 11
1361.0328384704383
 21
428.5421052631581
 31
0.0
  0
LINE
  5
123
330
17
100
AcDbEntity
  8
BedRoom2a
100
AcDbLine
 10
1197.0328384704383
 20
351.5421052631579
 30
0.0
 11
1197.0328384704383
 21
356.542105263158
 31
0.0
  0
MTEXT
  5
124
330
17
100
AcDbEntity
  8
WashArea
100
AcDbMText
 10
1108.8063691036232
 20
472.3188214822962
 30
0.0
 40
2.5
 71
1
  1
WASHAREA
  0
LINE
  5
125
330
17
100
AcDbEntity
  8
BathRoom2c
100
AcDbLine
 10
1207.0328384704383
 20
462.0578947368423
 30
0.0
 11
1207.0328384704383
 21
560.9684210526317
 31
0.0
  0
LINE
  5
126
330
17
100
AcDbEntity
  8
BedRoom2
100
AcDbLine
 10
1212.0328384704383
 20
462.0578947368423
 30
0.0
 11
1212.0328384704383
 21
560.9684210526317
 31
0.0
  0
LINE
  5
127
330
17
100
AcDbEntity
  8
BathRoom2c
100
AcDbLine
 10
1207.0328384704383
 20
462.0578947368423
 30
0.0
 11
1212.0328384704383
 21
462.0578947368423
 31
0.0
  0
LINE
  5
128
330
17
100
AcDbEntity
  8
BathRoom2c
100
AcDbLine
 10
1100.0267035011132
 20
500.84210526315803
 30
0.0
 11
1100.0267035011132
 21
560.9684210526317
 31
0.0
  0
LINE
  5
129
330
17
100
AcDbEntity
  8
BathRoom2c
100
AcDbLine
 10
1100.0267035011132
 20
500.84210526315803
 30
0.0
 11
1166.2782372434447
 21
500.84210526315803
 31
0.0
  0
LINE
  5
12A
330
17
100
AcDbEntity
  8
WashArea
100
AcDbLine
 10
1100.0267035011132
 20
495.84210526315803
 30
0.0
 11
1161.2782372434447
 21
495.84210526315803
 31
0.0
  0
MTEXT
  5
12B
330
17
100
AcDbEntity
  8
Pantry
100
AcDbMText
 10
1014.6170736934841
 20
503.73772906335023
 30
0.0
 40
2.5
 71
1
  1
PANTRY
  0
MTEXT
  5
12C
330
17
100
AcDbEntity
  8
BedRoom2
100
AcDbMText
 10
1273.0605816930413
 20
507.3474595665242
 30
0.0
 40
2.5
 71
1
  1
BEDROOM2
  0
LINE
  5
12D
330
17
100
AcDbEntity
  8
Boundary
100
AcDbLine
 10
974.4193415379228
 20
569.9684210526317
 30
0.0
 11
1370.0328384704383
 21
569.9684210526317
 31
0.0
  0
LINE
  5
12E
330
17
100
AcDbEntity
  8
Pantry
100
AcDbLine
 10
983.419341537923
 20
560.9684210526317
 30
0.0
 11
1095.0267035011132
 21
560.9684210526317
 31
0.0
  0
MTEXT
  5
12F
330
17
100
AcDbEntity
  8
BathRoom2c
100
AcDbMText
 10
1127.013556632327
 20
531.1552631578948
 30
0.0
 40
2.5
 71
1
  1
BATHROOM2c
  0
LINE
  5
130
330
17
100
AcDbEntity
  8
BathRoom2c
100
AcDbLine
 10
1100.0267035011132
 20
560.9684210526317
 30
0.0
 11
1207.0328384704383
 21
560.9684210526317
 31
0.0
  0
LINE
  5
131
330
17
100
AcDbEntity
  8
BedRoom2
100
AcDbLine
 10
1212.0328384704383
 20
560.9684210526317
 30
0.0
 11
1361.0328384704383
 21
560.9684210526317
 31
0.0
  0
LINE
  5
132
330
17
100
AcDbEntity
  8
Boundary
100
AcDbLine
 10
926.9898936851621
 20
612.0000000000001
 30
0.0
 11
1406.989893685162
 21
612.0000000000001
 31
0.0
  0
LINE
  5
133
330
17
100
AcDbEntity
  8
Boundary
100
AcDbLine
 10
935.9898936851621
 20
603.0000000000001
 30
0.0
 11
1397.989893685162
 21
603.0000000000001
 31
0.0
  0
ENDSEC
  0
SECTION
  2
OBJECTS
  0
DICTIONARY
  5
A
330
0
100
AcDbDictionary
280
0
281
1
  3
ACAD_COLOR
350
B
  3
ACAD_GROUP
350
C
  3
ACAD_LAYOUT
350
D
  3
ACAD_MATERIAL
350
E
  3
ACAD_MLEADERSTYLE
350
F
  3
ACAD_MLINESTYLE
350
10
  3
ACAD_PLOTSETTINGS
350
11
  3
ACAD_PLOTSTYLENAME
350
12
  3
ACAD_SCALELIST
350
14
  3
ACAD_TABLESTYLE
350
15
  3
ACAD_VISUALSTYLE
350
16
  3
EZDXF_META
350
2D
  0
DICTIONARY
  5
B
330
A
100
AcDbDictionary
280
0
281
1
  0
DICTIONARY
  5
C
330
A
100
AcDbDictionary
280
0
281
1
  0
DICTIONARY
  5
D
330
A
100
AcDbDictionary
280
0
281
1
  3
Model
350
1A
  3
Layout1
350
1E
  0
DICTIONARY
  5
E
330
A
100
AcDbDictionary
280
0
281
1
  3
ByBlock
350
1F
  3
ByLayer
350
20
  3
Global
350
21
  0
DICTIONARY
  5
F
330
A
100
AcDbDictionary
280
0
281
1
  3
Standard
350
2C
  0
DICTIONARY
  5
10
330
A
100
AcDbDictionary
280
0
281
1
  3
Standard
350
22
  0
DICTIONARY
  5
11
330
A
100
AcDbDictionary
280
0
281
1
  0
ACDBDICTIONARYWDFLT
  5
12
330
A
100
AcDbDictionary
280
0
281
1
  3
Normal
350
13
100
AcDbDictionaryWithDefault
340
13
  0
ACDBPLACEHOLDER
  5
13
330
12
  0
DICTIONARY
  5
14
330
A
100
AcDbDictionary
280
0
281
1
  0
DICTIONARY
  5
15
330
A
100
AcDbDictionary
280
0
281
1
  0
DICTIONARY
  5
16
330
A
100
AcDbDictionary
280
0
281
1
  0
LAYOUT
  5
1A
330
D
100
AcDbPlotSettings
  1

  4
A3
  6

 40
7.5
 41
20.0
 42
7.5
 43
20.0
 44
420.0
 45
297.0
 46
0.0
 47
0.0
 48
0.0
 49
0.0
140
0.0
141
0.0
142
1.0
143
1.0
 70
1024
 72
1
 73
0
 74
5
  7

 75
16
 76
0
 77
2
 78
300
147
1.0
148
0.0
149
0.0
100
AcDbLayout
  1
Model
 70
1
 71
0
 10
0.0
 20
0.0
 11
420.0
 21
297.0
 12
0.0
 22
0.0
 32
0.0
 14
1e+20
 24
1e+20
 34
1e+20
 15
-1e+20
 25
-1e+20
 35
-1e+20
146
0.0
 13
0.0
 23
0.0
 33
0.0
 16
1.0
 26
0.0
 36
0.0
 17
0.0
 27
1.0
 37
0.0
 76
1
330
17
  0
LAYOUT
  5
1E
330
D
100
AcDbPlotSettings
  1

  4
A3
  6

 40
7.5
 41
20.0
 42
7.5
 43
20.0
 44
420.0
 45
297.0
 46
0.0
 47
0.0
 48
0.0
 49
0.0
140
0.0
141
0.0
142
1.0
143
1.0
 70
0
 72
1
 73
0
 74
5
  7

 75
16
 76
0
 77
2
 78
300
147
1.0
148
0.0
149
0.0
100
AcDbLayout
  1
Layout1
 70
1
 71
1
 10
0.0
 20
0.0
 11
420.0
 21
297.0
 12
0.0
 22
0.0
 32
0.0
 14
1e+20
 24
1e+20
 34
1e+20
 15
-1e+20
 25
-1e+20
 35
-1e+20
146
0.0
 13
0.0
 23
0.0
 33
0.0
 16
1.0
 26
0.0
 36
0.0
 17
0.0
 27
1.0
 37
0.0
 76
1
330
1B
  0
MATERIAL
  5
1F
102
{ACAD_REACTORS
330
E
102
}
330
E
100
AcDbMaterial
  1
ByBlock
  2

 70
0
 40
1.0
 71
1
 41
1.0
 91
-1023410177
 42
1.0
 72
1
  3

 73
1
 74
1
 75
1
 44
0.5
 73
0
 45
1.0
 46
1.0
 77
1
  4

 78
1
 79
1
170
1
 48
1.0
171
1
  6

172
1
173
1
174
1
140
1.0
141
1.0
175
1
  7

176
1
177
1
178
1
143
1.0
179
1
  8

270
1
271
1
272
1
145
1.0
146
1.0
273
1
  9

274
1
275
1
276
1
 42
1.0
 72
1
  3

 73
1
 74
1
 75
1
 94
63
  0
MATERIAL
  5
20
102
{ACAD_REACTORS
330
E
102
}
330
E
100
AcDbMaterial
  1
ByLayer
  2

 70
0
 40
1.0
 71
1
 41
1.0
 91
-1023410177
 42
1.0
 72
1
  3

 73
1
 74
1
 75
1
 44
0.5
 73
0
 45
1.0
 46
1.0
 77
1
  4

 78
1
 79
1
170
1
 48
1.0
171
1
  6

172
1
173
1
174
1
140
1.0
141
1.0
175
1
  7

176
1
177
1
178
1
143
1.0
179
1
  8

270
1
271
1
272
1
145
1.0
146
1.0
273
1
  9

274
1
275
1
276
1
 42
1.0
 72
1
  3

 73
1
 74
1
 75
1
 94
63
  0
MATERIAL
  5
21
102
{ACAD_REACTORS
330
E
102
}
330
E
100
AcDbMaterial
  1
Global
  2

 70
0
 40
1.0
 71
1
 41
1.0
 91
-1023410177
 42
1.0
 72
1
  3

 73
1
 74
1
 75
1
 44
0.5
 73
0
 45
1.0
 46
1.0
 77
1
  4

 78
1
 79
1
170
1
 48
1.0
171
1
  6

172
1
173
1
174
1
140
1.0
141
1.0
175
1
  7

176
1
177
1
178
1
143
1.0
179
1
  8

270
1
271
1
272
1
145
1.0
146
1.0
273
1
  9

274
1
275
1
276
1
 42
1.0
 72
1
  3

 73
1
 74
1
 75
1
 94
63
  0
MLINESTYLE
  5
22
102
{ACAD_REACTORS
330
10
102
}
330
10
100
AcDbMlineStyle
  2
Standard
 70
0
  3

 62
256
 51
90.0
 52
90.0
 71
2
 49
0.5
 62
256
  6
BYLAYER
 49
-0.5
 62
256
  6
BYLAYER
  0
MLEADERSTYLE
  5
2C
102
{ACAD_REACTORS
330
F
102
}
330
F
100
AcDbMLeaderStyle
179
2
170
2
171
1
172
0
 90
2
 40
0.0
 41
0.0
173
1
 91
-1056964608
 92
-2
290
1
 42
2.0
291
1
 43
8.0
  3
Standard
 44
4.0
300

342
29
174
1
175
1
176
0
178
1
 93
-1056964608
 45
4.0
292
0
297
0
 46
4.0
 94
-1056964608
 47
1.0
 49
1.0
140
1.0
294
1
141
0.0
177
0
142
1.0
295
0
296
0
143
3.75
271
0
272
9
273
9
  0
DICTIONARY
  5
2D
330
A
100
AcDbDictionary
281
1
  3
CREATED_BY_EZDXF
350
2E
  3
WRITTEN_BY_EZDXF
350
136
  0
DICTIONARYVAR
  5
2E
330
2D
100
DictionaryVariables
280
0
  1
1.3.1 @ 2024-07-19T17:58:11.123125+00:00
  0
DICTIONARYVAR
  5
136
330
2D
100
DictionaryVariables
280
0
  1
1.3.1 @ 2024-07-19T17:58:11.134541+00:00
  0
ENDSEC
  0
EOF
