  0
SECTION
  2
HEADER
  9
$ACADVER
  1
AC1027
  9
$ACADMAINTVER
 70
105
  9
$DWGCODEPAGE
  3
ANSI_1252
  9
$LASTSAVEDBY
  1
ezdxf
  9
$REQUIREDVERSIONS
160
0
  9
$INSBASE
 10
0.0
 20
0.0
 30
0.0
  9
$EXTMIN
 10
1e+20
 20
1e+20
 30
1e+20
  9
$EXTMAX
 10
-1e+20
 20
-1e+20
 30
-1e+20
  9
$LIMMIN
 10
0.0
 20
0.0
  9
$LIMMAX
 10
420.0
 20
297.0
  9
$ORTHOMODE
 70
0
  9
$REGENMODE
 70
1
  9
$FILLMODE
 70
1
  9
$QTEXTMODE
 70
0
  9
$MIRRTEXT
 70
1
  9
$LTSCALE
 40
1.0
  9
$ATTMODE
 70
1
  9
$TEXTSIZE
 40
2.5
  9
$TRACEWID
 40
1.0
  9
$TEXTSTYLE
  7
Standard
  9
$CLAYER
  8
0
  9
$CELTYPE
  6
ByLayer
  9
$CECOLOR
 62
256
  9
$CELTSCALE
 40
1.0
  9
$DISPSILH
 70
0
  9
$DIMSCALE
 40
1.0
  9
$DIMASZ
 40
2.5
  9
$DIMEXO
 40
0.625
  9
$DIMDLI
 40
3.75
  9
$DIMRND
 40
0.0
  9
$DIMDLE
 40
0.0
  9
$DIMEXE
 40
1.25
  9
$DIMTP
 40
0.0
  9
$DIMTM
 40
0.0
  9
$DIMTXT
 40
2.5
  9
$DIMCEN
 40
2.5
  9
$DIMTSZ
 40
0.0
  9
$DIMTOL
 70
0
  9
$DIMLIM
 70
0
  9
$DIMTIH
 70
0
  9
$DIMTOH
 70
0
  9
$DIMSE1
 70
0
  9
$DIMSE2
 70
0
  9
$DIMTAD
 70
1
  9
$DIMZIN
 70
8
  9
$DIMBLK
  1

  9
$DIMASO
 70
1
  9
$DIMSHO
 70
1
  9
$DIMPOST
  1

  9
$DIMAPOST
  1

  9
$DIMALT
 70
0
  9
$DIMALTD
 70
3
  9
$DIMALTF
 40
0.03937007874
  9
$DIMLFAC
 40
1.0
  9
$DIMTOFL
 70
1
  9
$DIMTVP
 40
0.0
  9
$DIMTIX
 70
0
  9
$DIMSOXD
 70
0
  9
$DIMSAH
 70
0
  9
$DIMBLK1
  1

  9
$DIMBLK2
  1

  9
$DIMSTYLE
  2
ISO-25
  9
$DIMCLRD
 70
0
  9
$DIMCLRE
 70
0
  9
$DIMCLRT
 70
0
  9
$DIMTFAC
 40
1.0
  9
$DIMGAP
 40
0.625
  9
$DIMJUST
 70
0
  9
$DIMSD1
 70
0
  9
$DIMSD2
 70
0
  9
$DIMTOLJ
 70
0
  9
$DIMTZIN
 70
8
  9
$DIMALTZ
 70
0
  9
$DIMALTTZ
 70
0
  9
$DIMUPT
 70
0
  9
$DIMDEC
 70
2
  9
$DIMTDEC
 70
2
  9
$DIMALTU
 70
2
  9
$DIMALTTD
 70
3
  9
$DIMTXSTY
  7
Standard
  9
$DIMAUNIT
 70
0
  9
$DIMADEC
 70
0
  9
$DIMALTRND
 40
0.0
  9
$DIMAZIN
 70
0
  9
$DIMDSEP
 70
44
  9
$DIMATFIT
 70
3
  9
$DIMFRAC
 70
0
  9
$DIMLDRBLK
  1

  9
$DIMLUNIT
 70
2
  9
$DIMLWD
 70
-2
  9
$DIMLWE
 70
-2
  9
$DIMTMOVE
 70
0
  9
$DIMFXL
 40
1.0
  9
$DIMFXLON
 70
0
  9
$DIMJOGANG
 40
0.785398163397
  9
$DIMTFILL
 70
0
  9
$DIMTFILLCLR
 70
0
  9
$DIMARCSYM
 70
0
  9
$DIMLTYPE
  6

  9
$DIMLTEX1
  6

  9
$DIMLTEX2
  6

  9
$DIMTXTDIRECTION
 70
0
  9
$LUNITS
 70
2
  9
$LUPREC
 70
4
  9
$SKETCHINC
 40
1.0
  9
$FILLETRAD
 40
10.0
  9
$AUNITS
 70
0
  9
$AUPREC
 70
2
  9
$MENU
  1
.
  9
$ELEVATION
 40
0.0
  9
$PELEVATION
 40
0.0
  9
$THICKNESS
 40
0.0
  9
$LIMCHECK
 70
0
  9
$CHAMFERA
 40
0.0
  9
$CHAMFERB
 40
0.0
  9
$CHAMFERC
 40
0.0
  9
$CHAMFERD
 40
0.0
  9
$SKPOLY
 70
0
  9
$TDCREATE
 40
2460511.748912037
  9
$TDUCREATE
 40
2458532.153996898
  9
$TDUPDATE
 40
2460511.748912037
  9
$TDUUPDATE
 40
2458532.1544311
  9
$TDINDWG
 40
0.0
  9
$TDUSRTIMER
 40
0.0
  9
$USRTIMER
 70
1
  9
$ANGBASE
 50
0.0
  9
$ANGDIR
 70
0
  9
$PDMODE
 70
0
  9
$PDSIZE
 40
0.0
  9
$PLINEWID
 40
0.0
  9
$SPLFRAME
 70
0
  9
$SPLINETYPE
 70
6
  9
$SPLINESEGS
 70
8
  9
$HANDSEED
  5
169
  9
$SURFTAB1
 70
6
  9
$SURFTAB2
 70
6
  9
$SURFTYPE
 70
6
  9
$SURFU
 70
6
  9
$SURFV
 70
6
  9
$UCSBASE
  2

  9
$UCSNAME
  2

  9
$UCSORG
 10
0.0
 20
0.0
 30
0.0
  9
$UCSXDIR
 10
1.0
 20
0.0
 30
0.0
  9
$UCSYDIR
 10
0.0
 20
1.0
 30
0.0
  9
$UCSORTHOREF
  2

  9
$UCSORTHOVIEW
 70
0
  9
$UCSORGTOP
 10
0.0
 20
0.0
 30
0.0
  9
$UCSORGBOTTOM
 10
0.0
 20
0.0
 30
0.0
  9
$UCSORGLEFT
 10
0.0
 20
0.0
 30
0.0
  9
$UCSORGRIGHT
 10
0.0
 20
0.0
 30
0.0
  9
$UCSORGFRONT
 10
0.0
 20
0.0
 30
0.0
  9
$UCSORGBACK
 10
0.0
 20
0.0
 30
0.0
  9
$PUCSBASE
  2

  9
$PUCSNAME
  2

  9
$PUCSORG
 10
0.0
 20
0.0
 30
0.0
  9
$PUCSXDIR
 10
1.0
 20
0.0
 30
0.0
  9
$PUCSYDIR
 10
0.0
 20
1.0
 30
0.0
  9
$PUCSORTHOREF
  2

  9
$PUCSORTHOVIEW
 70
0
  9
$PUCSORGTOP
 10
0.0
 20
0.0
 30
0.0
  9
$PUCSORGBOTTOM
 10
0.0
 20
0.0
 30
0.0
  9
$PUCSORGLEFT
 10
0.0
 20
0.0
 30
0.0
  9
$PUCSORGRIGHT
 10
0.0
 20
0.0
 30
0.0
  9
$PUCSORGFRONT
 10
0.0
 20
0.0
 30
0.0
  9
$PUCSORGBACK
 10
0.0
 20
0.0
 30
0.0
  9
$USERI1
 70
0
  9
$USERI2
 70
0
  9
$USERI3
 70
0
  9
$USERI4
 70
0
  9
$USERI5
 70
0
  9
$USERR1
 40
0.0
  9
$USERR2
 40
0.0
  9
$USERR3
 40
0.0
  9
$USERR4
 40
0.0
  9
$USERR5
 40
0.0
  9
$WORLDVIEW
 70
1
  9
$SHADEDGE
 70
3
  9
$SHADEDIF
 70
70
  9
$TILEMODE
 70
1
  9
$MAXACTVP
 70
64
  9
$PINSBASE
 10
0.0
 20
0.0
 30
0.0
  9
$PLIMCHECK
 70
0
  9
$PEXTMIN
 10
1e+20
 20
1e+20
 30
1e+20
  9
$PEXTMAX
 10
-1e+20
 20
-1e+20
 30
-1e+20
  9
$PLIMMIN
 10
0.0
 20
0.0
  9
$PLIMMAX
 10
420.0
 20
297.0
  9
$UNITMODE
 70
0
  9
$VISRETAIN
 70
1
  9
$PLINEGEN
 70
0
  9
$PSLTSCALE
 70
1
  9
$TREEDEPTH
 70
3020
  9
$CMLSTYLE
  2
Standard
  9
$CMLJUST
 70
0
  9
$CMLSCALE
 40
20.0
  9
$PROXYGRAPHICS
 70
1
  9
$MEASUREMENT
 70
1
  9
$CELWEIGHT
370
-1
  9
$ENDCAPS
280
0
  9
$JOINSTYLE
280
0
  9
$LWDISPLAY
290
0
  9
$INSUNITS
 70
6
  9
$HYPERLINKBASE
  1

  9
$STYLESHEET
  1

  9
$XEDIT
290
1
  9
$CEPSNTYPE
380
0
  9
$PSTYLEMODE
290
1
  9
$FINGERPRINTGUID
  2
{4C9F261D-B8F8-47CC-A25E-FB825109AD44}
  9
$VERSIONGUID
  2
{5CDD009A-C160-4880-8150-B0A759EFDAC1}
  9
$EXTNAMES
290
1
  9
$PSVPSCALE
 40
0.0
  9
$OLESTARTUP
290
0
  9
$SORTENTS
280
127
  9
$INDEXCTL
280
0
  9
$HIDETEXT
280
1
  9
$XCLIPFRAME
280
1
  9
$HALOGAP
280
0
  9
$OBSCOLOR
 70
257
  9
$OBSLTYPE
280
0
  9
$INTERSECTIONDISPLAY
280
0
  9
$INTERSECTIONCOLOR
 70
257
  9
$DIMASSOC
280
2
  9
$PROJECTNAME
  1

  9
$CAMERADISPLAY
290
0
  9
$LENSLENGTH
 40
50.0
  9
$CAMERAHEIGHT
 40
0.0
  9
$STEPSPERSEC
 40
24.0
  9
$STEPSIZE
 40
100.0
  9
$3DDWFPREC
 40
2.0
  9
$PSOLWIDTH
 40
0.005
  9
$PSOLHEIGHT
 40
0.08
  9
$LOFTANG1
 40
1.570796326795
  9
$LOFTANG2
 40
1.570796326795
  9
$LOFTMAG1
 40
0.0
  9
$LOFTMAG2
 40
0.0
  9
$LOFTPARAM
 70
7
  9
$LOFTNORMALS
280
1
  9
$LATITUDE
 40
37.795
  9
$LONGITUDE
 40
-122.394
  9
$NORTHDIRECTION
 40
0.0
  9
$TIMEZONE
 70
-8000
  9
$LIGHTGLYPHDISPLAY
280
1
  9
$TILEMODELIGHTSYNCH
280
1
  9
$CMATERIAL
347
20
  9
$SOLIDHIST
280
0
  9
$SHOWHIST
280
1
  9
$DWFFRAME
280
2
  9
$DGNFRAME
280
2
  9
$REALWORLDSCALE
290
1
  9
$INTERFERECOLOR
 62
256
  9
$CSHADOW
280
0
  9
$SHADOWPLANELOCATION
 40
0.0
  0
ENDSEC
  0
SECTION
  2
CLASSES
  0
CLASS
  1
ACDBDICTIONARYWDFLT
  2
AcDbDictionaryWithDefault
  3
ObjectDBX Classes
 90
0
 91
0
280
0
281
0
  0
CLASS
  1
SUN
  2
AcDbSun
  3
SCENEOE
 90
1153
 91
0
280
0
281
0
  0
CLASS
  1
VISUALSTYLE
  2
AcDbVisualStyle
  3
ObjectDBX Classes
 90
4095
 91
0
280
0
281
0
  0
CLASS
  1
MATERIAL
  2
AcDbMaterial
  3
ObjectDBX Classes
 90
1153
 91
0
280
0
281
0
  0
CLASS
  1
SCALE
  2
AcDbScale
  3
ObjectDBX Classes
 90
1153
 91
0
280
0
281
0
  0
CLASS
  1
TABLESTYLE
  2
AcDbTableStyle
  3
ObjectDBX Classes
 90
4095
 91
0
280
0
281
0
  0
CLASS
  1
MLEADERSTYLE
  2
AcDbMLeaderStyle
  3
ACDB_MLEADERSTYLE_CLASS
 90
4095
 91
0
280
0
281
0
  0
CLASS
  1
DICTIONARYVAR
  2
AcDbDictionaryVar
  3
ObjectDBX Classes
 90
0
 91
0
280
0
281
0
  0
CLASS
  1
CELLSTYLEMAP
  2
AcDbCellStyleMap
  3
ObjectDBX Classes
 90
1152
 91
0
280
0
281
0
  0
CLASS
  1
MENTALRAYRENDERSETTINGS
  2
AcDbMentalRayRenderSettings
  3
SCENEOE
 90
1024
 91
0
280
0
281
0
  0
CLASS
  1
ACDBDETAILVIEWSTYLE
  2
AcDbDetailViewStyle
  3
ObjectDBX Classes
 90
1025
 91
0
280
0
281
0
  0
CLASS
  1
ACDBSECTIONVIEWSTYLE
  2
AcDbSectionViewStyle
  3
ObjectDBX Classes
 90
1025
 91
0
280
0
281
0
  0
CLASS
  1
RASTERVARIABLES
  2
AcDbRasterVariables
  3
ISM
 90
0
 91
0
280
0
281
0
  0
CLASS
  1
ACDBPLACEHOLDER
  2
AcDbPlaceHolder
  3
ObjectDBX Classes
 90
0
 91
0
280
0
281
0
  0
CLASS
  1
LAYOUT
  2
AcDbLayout
  3
ObjectDBX Classes
 90
0
 91
0
280
0
281
0
  0
ENDSEC
  0
SECTION
  2
TABLES
  0
TABLE
  2
VPORT
  5
8
330
0
100
AcDbSymbolTable
 70
1
  0
VPORT
  5
23
330
8
100
AcDbSymbolTableRecord
100
AcDbViewportTableRecord
  2
*Active
 70
0
 10
0.0
 20
0.0
 11
1.0
 21
1.0
 12
0.0
 22
0.0
 13
0.0
 23
0.0
 14
0.5
 24
0.5
 15
0.5
 25
0.5
 16
0.0
 26
0.0
 36
1.0
 17
0.0
 27
0.0
 37
0.0
 40
1000.0
 41
1.34
 42
50.0
 43
0.0
 44
0.0
 50
0.0
 51
0.0
 71
0
 72
1000
 73
1
 74
3
 75
0
 76
0
 77
0
 78
0
281
0
 65
0
146
0.0
  0
ENDTAB
  0
TABLE
  2
LTYPE
  5
2
330
0
100
AcDbSymbolTable
 70
3
  0
LTYPE
  5
24
330
2
100
AcDbSymbolTableRecord
100
AcDbLinetypeTableRecord
  2
ByBlock
 70
0
  3

 72
65
 73
0
 40
0.0
  0
LTYPE
  5
25
330
2
100
AcDbSymbolTableRecord
100
AcDbLinetypeTableRecord
  2
ByLayer
 70
0
  3

 72
65
 73
0
 40
0.0
  0
LTYPE
  5
26
330
2
100
AcDbSymbolTableRecord
100
AcDbLinetypeTableRecord
  2
Continuous
 70
0
  3

 72
65
 73
0
 40
0.0
  0
ENDTAB
  0
TABLE
  2
LAYER
  5
1
330
0
100
AcDbSymbolTable
 70
24
  0
LAYER
  5
27
330
1
100
AcDbSymbolTableRecord
100
AcDbLayerTableRecord
  2
0
 70
0
 62
7
  6
Continuous
370
-3
390
13
347
21
  0
LAYER
  5
28
330
1
100
AcDbSymbolTableRecord
100
AcDbLayerTableRecord
  2
Defpoints
 70
0
 62
7
  6
Continuous
290
0
370
-3
390
13
347
21
  0
LAYER
  5
2F
330
1
100
AcDbSymbolTableRecord
100
AcDbLayerTableRecord
  2
Boundary
 70
0
 62
7
  6
Continuous
370
-3
390
13
347
21
  0
LAYER
  5
31
330
1
100
AcDbSymbolTableRecord
100
AcDbLayerTableRecord
  2
Garden
 70
0
 62
7
  6
Continuous
370
-3
390
13
347
21
  0
LAYER
  5
33
330
1
100
AcDbSymbolTableRecord
100
AcDbLayerTableRecord
  2
Parking
 70
0
 62
7
  6
Continuous
370
-3
390
13
347
21
  0
LAYER
  5
3F
330
1
100
AcDbSymbolTableRecord
100
AcDbLayerTableRecord
  2
EntranceStairs
 70
0
 62
7
  6
Continuous
370
-3
390
13
347
21
  0
LAYER
  5
41
330
1
100
AcDbSymbolTableRecord
100
AcDbLayerTableRecord
  2
Entrance_Staircase
 70
0
 62
7
  6
Continuous
370
-3
390
13
347
21
  0
LAYER
  5
49
330
1
100
AcDbSymbolTableRecord
100
AcDbLayerTableRecord
  2
DrawingRoom
 70
0
 62
7
  6
Continuous
370
-3
390
13
347
21
  0
LAYER
  5
55
330
1
100
AcDbSymbolTableRecord
100
AcDbLayerTableRecord
  2
LivingRoom1
 70
0
 62
7
  6
Continuous
370
-3
390
13
347
21
  0
LAYER
  5
5E
330
1
100
AcDbSymbolTableRecord
100
AcDbLayerTableRecord
  2
Staircase
 70
0
 62
7
  6
Continuous
370
-3
390
13
347
21
  0
LAYER
  5
61
330
1
100
AcDbSymbolTableRecord
100
AcDbLayerTableRecord
  2
OTS
 70
0
 62
7
  6
Continuous
370
-3
390
13
347
21
  0
LAYER
  5
77
330
1
100
AcDbSymbolTableRecord
100
AcDbLayerTableRecord
  2
BathRoom2
 70
0
 62
7
  6
Continuous
370
-3
390
13
347
21
  0
LAYER
  5
79
330
1
100
AcDbSymbolTableRecord
100
AcDbLayerTableRecord
  2
BedRoom1
 70
0
 62
7
  6
Continuous
370
-3
390
13
347
21
  0
LAYER
  5
94
330
1
100
AcDbSymbolTableRecord
100
AcDbLayerTableRecord
  2
Kitchen & Dining
 70
0
 62
7
  6
Continuous
370
-3
390
13
347
21
  0
LAYER
  5
A7
330
1
100
AcDbSymbolTableRecord
100
AcDbLayerTableRecord
  2
WashArea_Staircase
 70
0
 62
7
  6
Continuous
370
-3
390
13
347
21
  0
LAYER
  5
AB
330
1
100
AcDbSymbolTableRecord
100
AcDbLayerTableRecord
  2
WashArea
 70
0
 62
7
  6
Continuous
370
-3
390
13
347
21
  0
LAYER
  5
AD
330
1
100
AcDbSymbolTableRecord
100
AcDbLayerTableRecord
  2
Balcony
 70
0
 62
7
  6
Continuous
370
-3
390
13
347
21
  0
LAYER
  5
D6
330
1
100
AcDbSymbolTableRecord
100
AcDbLayerTableRecord
  2
PoojaRoom
 70
0
 62
7
  6
Continuous
370
-3
390
13
347
21
  0
LAYER
  5
E2
330
1
100
AcDbSymbolTableRecord
100
AcDbLayerTableRecord
  2
BathRoom1
 70
0
 62
7
  6
Continuous
370
-3
390
13
347
21
  0
LAYER
  5
ED
330
1
100
AcDbSymbolTableRecord
100
AcDbLayerTableRecord
  2
FoyerArea
 70
0
 62
7
  6
Continuous
370
-3
390
13
347
21
  0
LAYER
  5
F0
330
1
100
AcDbSymbolTableRecord
100
AcDbLayerTableRecord
  2
BedRoom3
 70
0
 62
7
  6
Continuous
370
-3
390
13
347
21
  0
LAYER
  5
105
330
1
100
AcDbSymbolTableRecord
100
AcDbLayerTableRecord
  2
Pantry
 70
0
 62
7
  6
Continuous
370
-3
390
13
347
21
  0
LAYER
  5
136
330
1
100
AcDbSymbolTableRecord
100
AcDbLayerTableRecord
  2
StoreRoom
 70
0
 62
7
  6
Continuous
370
-3
390
13
347
21
  0
LAYER
  5
14F
330
1
100
AcDbSymbolTableRecord
100
AcDbLayerTableRecord
  2
BathRoom2a
 70
0
 62
7
  6
Continuous
370
-3
390
13
347
21
  0
ENDTAB
  0
TABLE
  2
STYLE
  5
5
330
0
100
AcDbSymbolTable
 70
1
  0
STYLE
  5
29
330
5
100
AcDbSymbolTableRecord
100
AcDbTextStyleTableRecord
  2
Standard
 70
0
 40
0.0
 41
1.0
 50
0.0
 71
0
 42
2.5
  3
txt
  4

  0
ENDTAB
  0
TABLE
  2
VIEW
  5
7
330
0
100
AcDbSymbolTable
 70
0
  0
ENDTAB
  0
TABLE
  2
UCS
  5
6
330
0
100
AcDbSymbolTable
 70
0
  0
ENDTAB
  0
TABLE
  2
APPID
  5
3
330
0
100
AcDbSymbolTable
 70
3
  0
APPID
  5
2A
330
3
100
AcDbSymbolTableRecord
100
AcDbRegAppTableRecord
  2
ACAD
 70
0
  0
APPID
  5
166
330
3
100
AcDbSymbolTableRecord
100
AcDbRegAppTableRecord
  2
HATCHBACKGROUNDCOLOR
 70
0
  0
APPID
  5
167
330
3
100
AcDbSymbolTableRecord
100
AcDbRegAppTableRecord
  2
EZDXF
 70
0
  0
ENDTAB
  0
TABLE
  2
DIMSTYLE
  5
4
330
0
100
AcDbSymbolTable
 70
1
100
AcDbDimStyleTable
  0
DIMSTYLE
105
2B
330
4
100
AcDbSymbolTableRecord
100
AcDbDimStyleTableRecord
  2
Standard
 70
0
 40
1.0
 41
2.5
 42
0.625
 43
3.75
 44
1.25
 45
0.0
 46
0.0
 47
0.0
 48
0.0
 49
2.5
140
2.5
141
2.5
142
0.0
143
0.03937007874
144
1.0
145
0.0
146
1.0
147
0.625
148
0.0
 69
0
 70
0
 71
0
 72
0
 73
0
 74
0
 75
0
 76
0
 77
1
 78
8
 79
3
170
0
171
3
172
1
173
0
174
0
175
0
176
0
177
0
178
0
179
2
271
2
272
2
273
2
274
3
275
0
276
0
277
2
278
44
279
0
280
0
281
0
282
0
283
0
284
8
285
0
286
0
288
0
289
3
290
0
371
-2
372
-2
  0
ENDTAB
  0
TABLE
  2
BLOCK_RECORD
  5
9
330
0
100
AcDbSymbolTable
 70
2
  0
BLOCK_RECORD
  5
17
330
9
100
AcDbSymbolTableRecord
100
AcDbBlockTableRecord
  2
*Model_Space
340
1A
 70
0
280
1
281
0
  0
BLOCK_RECORD
  5
1B
330
9
100
AcDbSymbolTableRecord
100
AcDbBlockTableRecord
  2
*Paper_Space
340
1E
 70
0
280
1
281
0
  0
ENDTAB
  0
ENDSEC
  0
SECTION
  2
BLOCKS
  0
BLOCK
  5
18
330
17
100
AcDbEntity
  8
0
100
AcDbBlockBegin
  2
*Model_Space
 70
0
 10
0.0
 20
0.0
 30
0.0
  3
*Model_Space
  1

  0
ENDBLK
  5
19
330
17
100
AcDbEntity
  8
0
100
AcDbBlockEnd
  0
BLOCK
  5
1C
330
1B
100
AcDbEntity
  8
0
100
AcDbBlockBegin
  2
*Paper_Space
 70
0
 10
0.0
 20
0.0
 30
0.0
  3
*Paper_Space
  1

  0
ENDBLK
  5
1D
330
1B
100
AcDbEntity
  8
0
100
AcDbBlockEnd
  0
ENDSEC
  0
SECTION
  2
ENTITIES
  0
LINE
  5
30
330
17
100
AcDbEntity
  8
Boundary
100
AcDbLine
 10
0.0
 20
1.1368683772161603e-13
 30
0.0
 11
0.0
 21
612.0000000000001
 31
0.0
  0
LINE
  5
32
330
17
100
AcDbEntity
  8
Garden
100
AcDbLine
 10
129.00000000000028
 20
9.000000000000114
 30
0.0
 11
129.00000000000028
 21
59.20000000000023
 31
0.0
  0
LINE
  5
34
330
17
100
AcDbEntity
  8
Parking
100
AcDbLine
 10
189.00000000000006
 20
0.0
 30
0.0
 11
248.8500000000001
 21
1.1368683772161603e-13
 31
0.0
  0
LINE
  5
35
330
17
100
AcDbEntity
  8
Parking
100
AcDbLine
 10
188.99999999999983
 20
1.1368683772161603e-13
 30
0.0
 11
189.00000000000006
 21
174.03529411764723
 31
0.0
  0
LINE
  5
36
330
17
100
AcDbEntity
  8
Boundary
100
AcDbLine
 10
0.0
 20
1.1368683772161603e-13
 30
0.0
 11
129.00000000000006
 21
1.1368683772161603e-13
 31
0.0
  0
LINE
  5
37
330
17
100
AcDbEntity
  8
Garden
100
AcDbLine
 10
9.000000000000114
 20
9.000000000000114
 30
0.0
 11
128.99999999999983
 21
9.000000000000114
 31
0.0
  0
LINE
  5
38
330
17
100
AcDbEntity
  8
Garden
100
AcDbLine
 10
9.000000000000114
 20
9.000000000000114
 30
0.0
 11
9.000000000000114
 21
106.16470588235312
 31
0.0
  0
LINE
  5
39
330
17
100
AcDbEntity
  8
Boundary
100
AcDbLine
 10
128.99999999999983
 20
1.1368683772161603e-13
 30
0.0
 11
129.00000000000006
 21
9.000000000000114
 31
0.0
  0
LINE
  5
3A
330
17
100
AcDbEntity
  8
Parking
100
AcDbLine
 10
256.2000000000003
 20
0.0
 30
0.0
 11
471.0
 21
1.1368683772161603e-13
 31
0.0
  0
LINE
  5
3B
330
17
100
AcDbEntity
  8
Parking
100
AcDbLine
 10
256.20000000000005
 20
1.1368683772161603e-13
 30
0.0
 11
256.2000000000003
 21
174.03529411764723
 31
0.0
  0
LINE
  5
3C
330
17
100
AcDbEntity
  8
Boundary
100
AcDbLine
 10
471.0
 20
0.0
 30
0.0
 11
480.0
 21
1.1368683772161603e-13
 31
0.0
  0
LINE
  5
3D
330
17
100
AcDbEntity
  8
Parking
100
AcDbLine
 10
471.0
 20
0.0
 30
0.0
 11
471.00000000000045
 21
174.035294117647
 31
0.0
  0
LINE
  5
3E
330
17
100
AcDbEntity
  8
Boundary
100
AcDbLine
 10
480.0
 20
1.1368683772161603e-13
 30
0.0
 11
480.0
 21
612.0000000000001
 31
0.0
  0
LINE
  5
40
330
17
100
AcDbEntity
  8
EntranceStairs
100
AcDbLine
 10
184.00000000000006
 20
59.20000000000023
 30
0.0
 11
189.00000000000006
 21
59.20000000000023
 31
0.0
  0
LINE
  5
42
330
17
100
AcDbEntity
  8
Entrance_Staircase
100
AcDbLine
 10
129.00000000000006
 20
59.20000000000023
 30
0.0
 11
129.00000000000028
 21
115.16470588235318
 31
0.0
  0
MTEXT
  5
43
330
17
100
AcDbEntity
  8
Garden
100
AcDbMText
 10
42.251348475036195
 20
67.57686157140257
 30
0.0
 40
2.5
 71
1
  1
GARDEN
  0
MTEXT
  5
44
330
17
100
AcDbEntity
  8
Entrance_Staircase
100
AcDbMText
 10
150.15163234523988
 20
66.20671683451077
 30
0.0
 40
2.5
 71
1
  1
1
  0
MTEXT
  5
45
330
17
100
AcDbEntity
  8
Entrance_Staircase
100
AcDbMText
 10
149.80302329362013
 20
77.19167361001486
 30
0.0
 40
2.5
 71
1
  1
2
  0
LINE
  5
46
330
17
100
AcDbEntity
  8
Entrance_Staircase
100
AcDbLine
 10
184.00000000000006
 20
59.20000000000023
 30
0.0
 11
184.00000000000006
 21
114.57841440460508
 31
0.0
  0
LINE
  5
47
330
17
100
AcDbEntity
  8
EntranceStairs
100
AcDbLine
 10
251.20000000000027
 20
59.20000000000023
 30
0.0
 11
256.2000000000003
 21
59.20000000000023
 31
0.0
  0
LINE
  5
48
330
17
100
AcDbEntity
  8
Entrance_Staircase
100
AcDbLine
 10
251.20000000000027
 20
59.20000000000023
 30
0.0
 11
251.20000000000027
 21
114.57841440460508
 31
0.0
  0
LINE
  5
4A
330
17
100
AcDbEntity
  8
DrawingRoom
100
AcDbLine
 10
183.99999999999983
 20
114.57841440460508
 30
0.0
 11
184.00000000000006
 21
277.48235294117654
 31
0.0
  0
LINE
  5
4B
330
17
100
AcDbEntity
  8
DrawingRoom
100
AcDbLine
 10
9.000000000000114
 20
115.16470588235318
 30
0.0
 11
9.000000000000114
 21
250.48235294117666
 31
0.0
  0
MTEXT
  5
4C
330
17
100
AcDbEntity
  8
Entrance_Staircase
100
AcDbMText
 10
140.21633814840237
 20
121.1313491543381
 30
0.0
 40
2.5
 71
1
  1
ENTRANCE
  0
MTEXT
  5
4D
330
17
100
AcDbEntity
  8
Entrance_Staircase
100
AcDbMText
 10
153.09500918660132
 20
112.56765858753458
 30
0.0
 40
2.5
 71
1
  1
+24''
  0
MTEXT
  5
4E
330
17
100
AcDbEntity
  8
Entrance_Staircase
100
AcDbMText
 10
149.47942765186093
 20
82.93235294117648
 30
0.0
 40
2.5
 71
1
  1
3
  0
LINE
  5
4F
330
17
100
AcDbEntity
  8
DrawingRoom
100
AcDbLine
 10
9.000000000000114
 20
115.16470588235318
 30
0.0
 11
129.00000000000028
 21
115.16470588235318
 31
0.0
  0
LINE
  5
50
330
17
100
AcDbEntity
  8
Garden
100
AcDbLine
 10
9.000000000000114
 20
106.164705882353
 30
0.0
 11
129.00000000000028
 21
106.16470588235312
 31
0.0
  0
LINE
  5
51
330
17
100
AcDbEntity
  8
DrawingRoom
100
AcDbLine
 10
251.20000000000005
 20
114.57841440460508
 30
0.0
 11
251.20000000000027
 21
277.48235294117654
 31
0.0
  0
MTEXT
  5
52
330
17
100
AcDbEntity
  8
Parking
100
AcDbMText
 10
320.89301829279384
 20
89.0686949577976
 30
0.0
 40
2.5
 71
1
  1
PARKING
  0
LINE
  5
53
330
17
100
AcDbEntity
  8
Parking
100
AcDbLine
 10
188.99999999999983
 20
174.035294117647
 30
0.0
 11
248.8500000000001
 21
174.03529411764723
 31
0.0
  0
MTEXT
  5
54
330
17
100
AcDbEntity
  8
DrawingRoom
100
AcDbMText
 10
61.191868937265156
 20
186.05825838848418
 30
0.0
 40
2.5
 71
1
  1
DRAWINGROOM
  0
LINE
  5
56
330
17
100
AcDbEntity
  8
LivingRoom1
100
AcDbLine
 10
188.99999999999983
 20
183.0352941176471
 30
0.0
 11
248.8500000000001
 21
183.03529411764723
 31
0.0
  0
LINE
  5
57
330
17
100
AcDbEntity
  8
LivingRoom1
100
AcDbLine
 10
188.99999999999983
 20
183.0352941176471
 30
0.0
 11
188.99999999999983
 21
277.48235294117654
 31
0.0
  0
LINE
  5
58
330
17
100
AcDbEntity
  8
Parking
100
AcDbLine
 10
256.20000000000005
 20
174.035294117647
 30
0.0
 11
471.00000000000045
 21
174.03529411764723
 31
0.0
  0
LINE
  5
59
330
17
100
AcDbEntity
  8
LivingRoom1
100
AcDbLine
 10
256.20000000000005
 20
183.0352941176471
 30
0.0
 11
426.0000000000001
 21
183.03529411764723
 31
0.0
  0
LINE
  5
5A
330
17
100
AcDbEntity
  8
LivingRoom1
100
AcDbLine
 10
256.20000000000005
 20
183.0352941176471
 30
0.0
 11
256.20000000000005
 21
277.48235294117654
 31
0.0
  0
LINE
  5
5B
330
17
100
AcDbEntity
  8
Garden
100
AcDbLine
 10
471.00000000000045
 20
174.03529411764723
 30
0.0
 11
471.00000000000045
 21
320.48235294117654
 31
0.0
  0
LINE
  5
5C
330
17
100
AcDbEntity
  8
LivingRoom1
100
AcDbLine
 10
426.0000000000001
 20
183.03529411764723
 30
0.0
 11
426.0000000000001
 21
329.48235294117654
 31
0.0
  0
LINE
  5
5D
330
17
100
AcDbEntity
  8
Garden
100
AcDbLine
 10
435.0000000000001
 20
174.03529411764723
 30
0.0
 11
435.0000000000001
 21
320.48235294117666
 31
0.0
  0
MTEXT
  5
5F
330
17
100
AcDbEntity
  8
Staircase
100
AcDbMText
 10
118.46078068215098
 20
335.71623674904237
 30
0.0
 40
2.5
 71
1
  1
16
  0
MTEXT
  5
60
330
17
100
AcDbEntity
  8
Staircase
100
AcDbMText
 10
68.14947147395839
 20
335.1775646680713
 30
0.0
 40
2.5
 71
1
  1
11
  0
LINE
  5
62
330
17
100
AcDbEntity
  8
OTS
100
AcDbLine
 10
47.00000000000006
 20
252.48235294117666
 30
0.0
 11
123.00000000000006
 21
252.48235294117666
 31
0.0
  0
LINE
  5
63
330
17
100
AcDbEntity
  8
OTS
100
AcDbLine
 10
122.99999999999983
 20
252.48235294117666
 30
0.0
 11
122.99999999999983
 21
318.48235294117677
 31
0.0
  0
LINE
  5
64
330
17
100
AcDbEntity
  8
OTS
100
AcDbLine
 10
124.99999999999983
 20
250.48235294117666
 30
0.0
 11
124.99999999999983
 21
320.48235294117677
 31
0.0
  0
LINE
  5
65
330
17
100
AcDbEntity
  8
OTS
100
AcDbLine
 10
45.00000000000006
 20
250.48235294117666
 30
0.0
 11
124.99999999999983
 21
250.48235294117666
 31
0.0
  0
MTEXT
  5
66
330
17
100
AcDbEntity
  8
Staircase
100
AcDbMText
 10
78.02716926486238
 20
335.2284715415104
 30
0.0
 40
2.5
 71
1
  1
12
  0
MTEXT
  5
67
330
17
100
AcDbEntity
  8
Staircase
100
AcDbMText
 10
98.36835131241816
 20
334.90329473648904
 30
0.0
 40
2.5
 71
1
  1
14
  0
MTEXT
  5
68
330
17
100
AcDbEntity
  8
LivingRoom1
100
AcDbMText
 10
231.29587791931584
 20
246.56050858254304
 30
0.0
 40
2.5
 71
1
  1
LIVINGROOM1
  0
MTEXT
  5
69
330
17
100
AcDbEntity
  8
OTS
100
AcDbMText
 10
75.6738481083649
 20
289.38404764694354
 30
0.0
 40
2.5
 71
1
  1
OTS
  0
MTEXT
  5
6A
330
17
100
AcDbEntity
  8
Staircase
100
AcDbMText
 10
88.64711584766115
 20
335.0658831389988
 30
0.0
 40
2.5
 71
1
  1
13
  0
MTEXT
  5
6B
330
17
100
AcDbEntity
  8
Staircase
100
AcDbMText
 10
28.037463752013707
 20
257.38618259334265
 30
0.0
 40
2.5
 71
1
  1
1
  0
MTEXT
  5
6C
330
17
100
AcDbEntity
  8
Staircase
100
AcDbMText
 10
28.037463752013707
 20
267.64238227548884
 30
0.0
 40
2.5
 71
1
  1
2
  0
MTEXT
  5
6D
330
17
100
AcDbEntity
  8
Staircase
100
AcDbMText
 10
28.037463752013707
 20
277.429361260701
 30
0.0
 40
2.5
 71
1
  1
3
  0
MTEXT
  5
6E
330
17
100
AcDbEntity
  8
Staircase
100
AcDbMText
 10
28.037463752013707
 20
288.0207336186257
 30
0.0
 40
2.5
 71
1
  1
4
  0
MTEXT
  5
6F
330
17
100
AcDbEntity
  8
Staircase
100
AcDbMText
 10
28.037463752013707
 20
297.60660549017877
 30
0.0
 40
2.5
 71
1
  1
5
  0
MTEXT
  5
70
330
17
100
AcDbEntity
  8
Staircase
100
AcDbMText
 10
27.712281568257083
 20
308.24081287396695
 30
0.0
 40
2.5
 71
1
  1
6
  0
MTEXT
  5
71
330
17
100
AcDbEntity
  8
Staircase
100
AcDbMText
 10
28.275623381706282
 20
317.7388875781267
 30
0.0
 40
2.5
 71
1
  1
7
  0
MTEXT
  5
72
330
17
100
AcDbEntity
  8
Staircase
100
AcDbMText
 10
57.95643899042528
 20
334.66950038984174
 30
0.0
 40
2.5
 71
1
  1
10
  0
MTEXT
  5
73
330
17
100
AcDbEntity
  8
Staircase
100
AcDbMText
 10
47.172179572643984
 20
337.1123661105967
 30
0.0
 40
2.5
 71
1
  1
9
  0
MTEXT
  5
74
330
17
100
AcDbEntity
  8
Staircase
100
AcDbMText
 10
25.54302351816858
 20
340.46360818400314
 30
0.0
 40
2.5
 71
1
  1
8
  0
MTEXT
  5
75
330
17
100
AcDbEntity
  8
Staircase
100
AcDbMText
 10
108.12305493006517
 20
335.2284715415104
 30
0.0
 40
2.5
 71
1
  1
15
  0
LINE
  5
76
330
17
100
AcDbEntity
  8
LivingRoom1
100
AcDbLine
 10
183.99999999999983
 20
277.48235294117654
 30
0.0
 11
188.99999999999983
 21
277.48235294117654
 31
0.0
  0
LINE
  5
78
330
17
100
AcDbEntity
  8
BathRoom2
100
AcDbLine
 10
9.0
 20
361.48235294117654
 30
0.0
 11
9.0
 21
544.023529411765
 31
0.0
  0
LINE
  5
7A
330
17
100
AcDbEntity
  8
BedRoom1
100
AcDbLine
 10
133.99999999999983
 20
356.48235294117654
 30
0.0
 11
133.99999999999983
 21
361.48235294117654
 31
0.0
  0
LINE
  5
7B
330
17
100
AcDbEntity
  8
BathRoom2
100
AcDbLine
 10
9.0
 20
361.48235294117654
 30
0.0
 11
133.99999999999983
 21
361.48235294117654
 31
0.0
  0
LINE
  5
7C
330
17
100
AcDbEntity
  8
Staircase
100
AcDbLine
 10
9.0
 20
356.48235294117654
 30
0.0
 11
133.99999999999983
 21
356.48235294117666
 31
0.0
  0
LINE
  5
7D
330
17
100
AcDbEntity
  8
Staircase
100
AcDbLine
 10
9.0
 20
250.48235294117666
 30
0.0
 11
9.000000000000114
 21
356.48235294117654
 31
0.0
  0
LINE
  5
7E
330
17
100
AcDbEntity
  8
Staircase
100
AcDbLine
 10
9.0
 20
320.48235294117654
 30
0.0
 11
124.99999999999983
 21
320.48235294117677
 31
0.0
  0
LINE
  5
7F
330
17
100
AcDbEntity
  8
Staircase
100
AcDbLine
 10
75.00000000000006
 20
320.48235294117666
 30
0.0
 11
75.00000000000006
 21
356.48235294117654
 31
0.0
  0
LINE
  5
80
330
17
100
AcDbEntity
  8
Staircase
100
AcDbLine
 10
45.00000000000006
 20
250.48235294117666
 30
0.0
 11
45.00000000000006
 21
356.48235294117654
 31
0.0
  0
LINE
  5
81
330
17
100
AcDbEntity
  8
Staircase
100
AcDbLine
 10
9.0
 20
310.48235294117654
 30
0.0
 11
45.00000000000006
 21
310.48235294117654
 31
0.0
  0
LINE
  5
82
330
17
100
AcDbEntity
  8
Staircase
100
AcDbLine
 10
9.0
 20
300.48235294117654
 30
0.0
 11
45.00000000000006
 21
300.48235294117654
 31
0.0
  0
LINE
  5
83
330
17
100
AcDbEntity
  8
Staircase
100
AcDbLine
 10
9.0
 20
250.48235294117666
 30
0.0
 11
45.00000000000006
 21
250.48235294117666
 31
0.0
  0
LINE
  5
84
330
17
100
AcDbEntity
  8
Staircase
100
AcDbLine
 10
9.0
 20
290.48235294117654
 30
0.0
 11
45.00000000000006
 21
290.48235294117654
 31
0.0
  0
LINE
  5
85
330
17
100
AcDbEntity
  8
Staircase
100
AcDbLine
 10
9.0
 20
280.48235294117654
 30
0.0
 11
45.00000000000006
 21
280.48235294117654
 31
0.0
  0
LINE
  5
86
330
17
100
AcDbEntity
  8
Staircase
100
AcDbLine
 10
9.0
 20
270.48235294117654
 30
0.0
 11
45.00000000000006
 21
270.48235294117654
 31
0.0
  0
LINE
  5
87
330
17
100
AcDbEntity
  8
OTS
100
AcDbLine
 10
47.00000000000006
 20
252.48235294117654
 30
0.0
 11
47.00000000000006
 21
318.48235294117654
 31
0.0
  0
LINE
  5
88
330
17
100
AcDbEntity
  8
Staircase
100
AcDbLine
 10
9.0
 20
260.48235294117666
 30
0.0
 11
45.00000000000006
 21
260.48235294117666
 31
0.0
  0
LINE
  5
89
330
17
100
AcDbEntity
  8
Staircase
100
AcDbLine
 10
65.00000000000006
 20
320.48235294117666
 30
0.0
 11
65.00000000000006
 21
356.48235294117654
 31
0.0
  0
LINE
  5
8A
330
17
100
AcDbEntity
  8
Staircase
100
AcDbLine
 10
85.00000000000006
 20
320.48235294117666
 30
0.0
 11
85.00000000000006
 21
356.48235294117654
 31
0.0
  0
LINE
  5
8B
330
17
100
AcDbEntity
  8
Staircase
100
AcDbLine
 10
95.00000000000006
 20
320.48235294117666
 30
0.0
 11
95.00000000000006
 21
356.48235294117654
 31
0.0
  0
LINE
  5
8C
330
17
100
AcDbEntity
  8
Staircase
100
AcDbLine
 10
105.00000000000006
 20
320.48235294117666
 30
0.0
 11
105.00000000000006
 21
356.48235294117654
 31
0.0
  0
LINE
  5
8D
330
17
100
AcDbEntity
  8
Staircase
100
AcDbLine
 10
115.00000000000006
 20
320.48235294117677
 30
0.0
 11
115.00000000000006
 21
356.48235294117654
 31
0.0
  0
LINE
  5
8E
330
17
100
AcDbEntity
  8
Staircase
100
AcDbLine
 10
124.99999999999983
 20
320.48235294117677
 30
0.0
 11
125.00000000000006
 21
356.48235294117654
 31
0.0
  0
LINE
  5
8F
330
17
100
AcDbEntity
  8
Staircase
100
AcDbLine
 10
55.00000000000006
 20
320.48235294117654
 30
0.0
 11
55.00000000000006
 21
356.48235294117654
 31
0.0
  0
LINE
  5
90
330
17
100
AcDbEntity
  8
OTS
100
AcDbLine
 10
47.00000000000006
 20
318.48235294117654
 30
0.0
 11
122.99999999999983
 21
318.48235294117666
 31
0.0
  0
LINE
  5
91
330
17
100
AcDbEntity
  8
LivingRoom1
100
AcDbLine
 10
251.20000000000005
 20
277.48235294117654
 30
0.0
 11
256.20000000000005
 21
277.48235294117654
 31
0.0
  0
MTEXT
  5
92
330
17
100
AcDbEntity
  8
Garden
100
AcDbMText
 10
437.17633394096663
 20
247.40091679280096
 30
0.0
 40
2.5
 71
1
  1
GARDEN
  0
LINE
  5
93
330
17
100
AcDbEntity
  8
Garden
100
AcDbLine
 10
435.0000000000001
 20
320.48235294117654
 30
0.0
 11
471.00000000000045
 21
320.48235294117666
 31
0.0
  0
LINE
  5
95
330
17
100
AcDbEntity
  8
Kitchen & Dining
100
AcDbLine
 10
471.00000000000045
 20
329.48235294117654
 30
0.0
 11
471.00000000000045
 21
544.023529411765
 31
0.0
  0
LINE
  5
96
330
17
100
AcDbEntity
  8
Kitchen & Dining
100
AcDbLine
 10
426.00000000000045
 20
329.48235294117654
 30
0.0
 11
471.00000000000045
 21
329.48235294117654
 31
0.0
  0
LINE
  5
97
330
17
100
AcDbEntity
  8
BathRoom2
100
AcDbLine
 10
128.99999999999983
 20
396.35294117647067
 30
0.0
 11
128.99999999999983
 21
544.023529411765
 31
0.0
  0
LINE
  5
98
330
17
100
AcDbEntity
  8
Kitchen & Dining
100
AcDbLine
 10
133.99999999999983
 20
396.35294117647067
 30
0.0
 11
133.99999999999983
 21
456.5764705882354
 31
0.0
  0
LINE
  5
99
330
17
100
AcDbEntity
  8
BathRoom2
100
AcDbLine
 10
128.99999999999983
 20
396.35294117647067
 30
0.0
 11
133.99999999999983
 21
396.35294117647067
 31
0.0
  0
MTEXT
  5
9A
330
17
100
AcDbEntity
  8
BathRoom2
100
AcDbMText
 10
38.948954723551594
 20
467.07119804852067
 30
0.0
 40
2.5
 71
1
  1
BEDROOM2
  0
MTEXT
  5
9B
330
17
100
AcDbEntity
  8
Kitchen & Dining
100
AcDbMText
 10
246.84358805426024
 20
452.1944166051156
 30
0.0
 40
2.5
 71
1
  1
KITCHEN & DINING
  0
LINE
  5
9C
330
17
100
AcDbEntity
  8
Kitchen & Dining
100
AcDbLine
 10
189.99999999999983
 20
437.5764705882354
 30
0.0
 11
194.99999999999983
 21
437.5764705882354
 31
0.0
  0
LINE
  5
9D
330
17
100
AcDbEntity
  8
Kitchen & Dining
100
AcDbLine
 10
194.99999999999983
 20
437.5764705882354
 30
0.0
 11
194.99999999999983
 21
553.023529411765
 31
0.0
  0
LINE
  5
9E
330
17
100
AcDbEntity
  8
BathRoom2
100
AcDbLine
 10
133.99999999999983
 20
461.5764705882354
 30
0.0
 11
160.00000000000006
 21
461.5764705882354
 31
0.0
  0
LINE
  5
9F
330
17
100
AcDbEntity
  8
BathRoom2
100
AcDbLine
 10
189.99999999999983
 20
437.5764705882354
 30
0.0
 11
190.00000000000028
 21
544.023529411765
 31
0.0
  0
LINE
  5
A0
330
17
100
AcDbEntity
  8
BathRoom2
100
AcDbLine
 10
133.99999999999983
 20
461.5764705882354
 30
0.0
 11
134.00000000000006
 21
544.023529411765
 31
0.0
  0
LINE
  5
A1
330
17
100
AcDbEntity
  8
BathRoom2
100
AcDbLine
 10
133.99999999999983
 20
456.5764705882354
 30
0.0
 11
160.00000000000006
 21
456.5764705882354
 31
0.0
  0
LINE
  5
A2
330
17
100
AcDbEntity
  8
BathRoom2
100
AcDbLine
 10
160.00000000000006
 20
456.5764705882354
 30
0.0
 11
160.00000000000006
 21
461.5764705882354
 31
0.0
  0
LINE
  5
A3
330
17
100
AcDbEntity
  8
Kitchen & Dining
100
AcDbLine
 10
257.20000000000005
 20
437.5764705882354
 30
0.0
 11
262.20000000000005
 21
437.5764705882354
 31
0.0
  0
LINE
  5
A4
330
17
100
AcDbEntity
  8
Kitchen & Dining
100
AcDbLine
 10
262.20000000000005
 20
437.5764705882354
 30
0.0
 11
262.20000000000005
 21
553.023529411765
 31
0.0
  0
LINE
  5
A5
330
17
100
AcDbEntity
  8
BathRoom2
100
AcDbLine
 10
257.20000000000005
 20
437.5764705882354
 30
0.0
 11
257.2000000000005
 21
544.023529411765
 31
0.0
  0
MTEXT
  5
A6
330
17
100
AcDbEntity
  8
BathRoom2
100
AcDbMText
 10
142.03409276192912
 20
500.11552107389605
 30
0.0
 40
2.5
 71
1
  1
BATHROOM2
  0
LINE
  5
A8
330
17
100
AcDbEntity
  8
WashArea_Staircase
100
AcDbLine
 10
138.99999999999983
 20
553.023529411765
 30
0.0
 11
194.99999999999983
 21
553.023529411765
 31
0.0
  0
LINE
  5
A9
330
17
100
AcDbEntity
  8
WashArea_Staircase
100
AcDbLine
 10
138.99999999999983
 20
553.023529411765
 30
0.0
 11
138.99999999999983
 21
603.0000000000001
 31
0.0
  0
LINE
  5
AA
330
17
100
AcDbEntity
  8
WashArea_Staircase
100
AcDbLine
 10
158.99999999999983
 20
553.023529411765
 30
0.0
 11
158.99999999999983
 21
603.0000000000001
 31
0.0
  0
LINE
  5
AC
330
17
100
AcDbEntity
  8
WashArea
100
AcDbLine
 10
194.99999999999983
 20
553.023529411765
 30
0.0
 11
194.99999999999983
 21
603.0000000000001
 31
0.0
  0
LINE
  5
AE
330
17
100
AcDbEntity
  8
Balcony
100
AcDbLine
 10
8.999999999999886
 20
553.023529411765
 30
0.0
 11
138.99999999999983
 21
553.023529411765
 31
0.0
  0
LINE
  5
AF
330
17
100
AcDbEntity
  8
WashArea
100
AcDbLine
 10
230.99999999999972
 20
544.023529411765
 30
0.0
 11
230.99999999999972
 21
553.023529411765
 31
0.0
  0
LINE
  5
B0
330
17
100
AcDbEntity
  8
WashArea_Staircase
100
AcDbLine
 10
148.99999999999983
 20
553.023529411765
 30
0.0
 11
148.99999999999983
 21
603.0000000000001
 31
0.0
  0
LINE
  5
B1
330
17
100
AcDbEntity
  8
Kitchen & Dining
100
AcDbLine
 10
230.99999999999972
 20
544.023529411765
 30
0.0
 11
248.8500000000001
 21
544.023529411765
 31
0.0
  0
LINE
  5
B2
330
17
100
AcDbEntity
  8
BathRoom2
100
AcDbLine
 10
134.00000000000006
 20
544.023529411765
 30
0.0
 11
189.99999999999983
 21
544.023529411765
 31
0.0
  0
LINE
  5
B3
330
17
100
AcDbEntity
  8
WashArea
100
AcDbLine
 10
230.99999999999972
 20
553.023529411765
 30
0.0
 11
248.8500000000001
 21
553.023529411765
 31
0.0
  0
LINE
  5
B4
330
17
100
AcDbEntity
  8
Balcony
100
AcDbLine
 10
9.0
 20
553.023529411765
 30
0.0
 11
9.0
 21
603.0000000000001
 31
0.0
  0
LINE
  5
B5
330
17
100
AcDbEntity
  8
BathRoom2
100
AcDbLine
 10
8.999999999999886
 20
544.023529411765
 30
0.0
 11
128.99999999999983
 21
544.023529411765
 31
0.0
  0
LINE
  5
B6
330
17
100
AcDbEntity
  8
WashArea_Staircase
100
AcDbLine
 10
248.8500000000001
 20
553.023529411765
 30
0.0
 11
262.20000000000005
 21
553.023529411765
 31
0.0
  0
LINE
  5
B7
330
17
100
AcDbEntity
  8
WashArea
100
AcDbLine
 10
262.20000000000005
 20
553.023529411765
 30
0.0
 11
262.20000000000005
 21
603.0000000000001
 31
0.0
  0
LINE
  5
B8
330
17
100
AcDbEntity
  8
WashArea
100
AcDbLine
 10
298.19999999999993
 20
544.023529411765
 30
0.0
 11
298.19999999999993
 21
553.023529411765
 31
0.0
  0
LINE
  5
B9
330
17
100
AcDbEntity
  8
Kitchen & Dining
100
AcDbLine
 10
298.19999999999993
 20
544.023529411765
 30
0.0
 11
471.00000000000045
 21
544.023529411765
 31
0.0
  0
LINE
  5
BA
330
17
100
AcDbEntity
  8
BathRoom2
100
AcDbLine
 10
248.8500000000001
 20
544.023529411765
 30
0.0
 11
257.20000000000005
 21
544.023529411765
 31
0.0
  0
LINE
  5
BB
330
17
100
AcDbEntity
  8
WashArea
100
AcDbLine
 10
298.19999999999993
 20
553.023529411765
 30
0.0
 11
471.00000000000045
 21
553.023529411765
 31
0.0
  0
LINE
  5
BC
330
17
100
AcDbEntity
  8
WashArea
100
AcDbLine
 10
471.00000000000045
 20
553.023529411765
 30
0.0
 11
471.00000000000045
 21
603.0000000000001
 31
0.0
  0
MTEXT
  5
BD
330
17
100
AcDbEntity
  8
WashArea_Staircase
100
AcDbMText
 10
146.16114340275652
 20
578.0117647058825
 30
0.0
 40
2.5
 71
1
  1
1
  0
MTEXT
  5
BE
330
17
100
AcDbEntity
  8
WashArea_Staircase
100
AcDbMText
 10
157.1461001782606
 20
578.0117647058825
 30
0.0
 40
2.5
 71
1
  1
2
  0
MTEXT
  5
BF
330
17
100
AcDbEntity
  8
WashArea_Staircase
100
AcDbMText
 10
169.29925516309748
 20
578.0117647058825
 30
0.0
 40
2.5
 71
1
  1
3
  0
LINE
  5
C0
330
17
100
AcDbEntity
  8
WashArea_Staircase
100
AcDbLine
 10
138.99999999999983
 20
603.0000000000001
 30
0.0
 11
194.99999999999983
 21
603.0000000000001
 31
0.0
  0
LINE
  5
C1
330
17
100
AcDbEntity
  8
WashArea
100
AcDbLine
 10
194.99999999999983
 20
603.0000000000001
 30
0.0
 11
248.8500000000001
 21
603.0000000000001
 31
0.0
  0
LINE
  5
C2
330
17
100
AcDbEntity
  8
Boundary
100
AcDbLine
 10
0.0
 20
612.0000000000001
 30
0.0
 11
480.0
 21
612.0000000000001
 31
0.0
  0
LINE
  5
C3
330
17
100
AcDbEntity
  8
Balcony
100
AcDbLine
 10
9.000000000000114
 20
602.9999999999999
 30
0.0
 11
138.99999999999983
 21
603.0000000000001
 31
0.0
  0
LINE
  5
C4
330
17
100
AcDbEntity
  8
WashArea_Staircase
100
AcDbLine
 10
248.8500000000001
 20
603.0000000000001
 30
0.0
 11
262.20000000000005
 21
603.0000000000001
 31
0.0
  0
LINE
  5
C5
330
17
100
AcDbEntity
  8
WashArea
100
AcDbLine
 10
262.20000000000005
 20
603.0000000000001
 30
0.0
 11
471.00000000000045
 21
603.0000000000001
 31
0.0
  0
MTEXT
  5
C6
330
17
100
AcDbEntity
  8
WashArea
100
AcDbMText
 10
324.12663503523004
 20
578.0117647058825
 30
0.0
 40
2.5
 71
1
  1
WASHAREA
  0
LINE
  5
C7
330
17
100
AcDbEntity
  8
Balcony
100
AcDbLine
 10
608.0977262996114
 20
21.000000000000227
 30
0.0
 11
608.0977262996114
 21
106.164705882353
 31
0.0
  0
LINE
  5
C8
330
17
100
AcDbEntity
  8
Balcony
100
AcDbLine
 10
610.0977262996105
 20
23.000000000000455
 30
0.0
 11
610.0977262996105
 21
106.164705882353
 31
0.0
  0
LINE
  5
C9
330
17
100
AcDbEntity
  8
Boundary
100
AcDbLine
 10
596.0977262996105
 20
9.000000000000114
 30
0.0
 11
596.0977262996105
 21
106.164705882353
 31
0.0
  0
LINE
  5
CA
330
17
100
AcDbEntity
  8
Boundary
100
AcDbLine
 10
587.0977262996114
 20
1.1368683772161603e-13
 30
0.0
 11
587.0977262996114
 21
612.0000000000001
 31
0.0
  0
LINE
  5
CB
330
17
100
AcDbEntity
  8
Boundary
100
AcDbLine
 10
596.0977262996105
 20
9.0
 30
0.0
 11
1058.0977262996114
 21
9.000000000000227
 31
0.0
  0
LINE
  5
CC
330
17
100
AcDbEntity
  8
Balcony
100
AcDbLine
 10
608.0977262996114
 20
21.0
 30
0.0
 11
1046.0977262996114
 21
21.000000000000227
 31
0.0
  0
LINE
  5
CD
330
17
100
AcDbEntity
  8
Balcony
100
AcDbLine
 10
610.0977262996105
 20
23.0
 30
0.0
 11
1044.0977262996123
 21
23.00000000000034
 31
0.0
  0
LINE
  5
CE
330
17
100
AcDbEntity
  8
Boundary
100
AcDbLine
 10
587.0977262996114
 20
0.0
 30
0.0
 11
1067.0977262996114
 21
2.2737367544323206e-13
 31
0.0
  0
LINE
  5
CF
330
17
100
AcDbEntity
  8
Balcony
100
AcDbLine
 10
1046.0977262996114
 20
21.0
 30
0.0
 11
1046.0977262996114
 21
106.164705882353
 31
0.0
  0
LINE
  5
D0
330
17
100
AcDbEntity
  8
Balcony
100
AcDbLine
 10
1044.0977262996123
 20
23.0
 30
0.0
 11
1044.0977262996123
 21
106.164705882353
 31
0.0
  0
LINE
  5
D1
330
17
100
AcDbEntity
  8
Boundary
100
AcDbLine
 10
1058.0977262996114
 20
9.0
 30
0.0
 11
1058.0977262996123
 21
106.164705882353
 31
0.0
  0
LINE
  5
D2
330
17
100
AcDbEntity
  8
Boundary
100
AcDbLine
 10
1067.0977262996114
 20
1.1368683772161603e-13
 30
0.0
 11
1067.0977262996114
 21
612.0000000000001
 31
0.0
  0
MTEXT
  5
D3
330
17
100
AcDbEntity
  8
Balcony
100
AcDbMText
 10
745.1679675693645
 20
68.54291366976334
 30
0.0
 40
2.5
 71
1
  1
BALCONY
  0
LINE
  5
D4
330
17
100
AcDbEntity
  8
Balcony
100
AcDbLine
 10
770.0977262996105
 20
106.164705882353
 30
0.0
 11
770.0977262996105
 21
115.16470588235357
 31
0.0
  0
LINE
  5
D5
330
17
100
AcDbEntity
  8
Balcony
100
AcDbLine
 10
770.0977262996105
 20
106.164705882353
 30
0.0
 11
835.9477262996116
 21
106.164705882353
 31
0.0
  0
LINE
  5
D7
330
17
100
AcDbEntity
  8
PoojaRoom
100
AcDbLine
 10
683.0977262996105
 20
123.16470588235299
 30
0.0
 11
688.0977262996105
 21
123.16470588235299
 31
0.0
  0
LINE
  5
D8
330
17
100
AcDbEntity
  8
Balcony
100
AcDbLine
 10
688.0977262996105
 20
106.164705882353
 30
0.0
 11
688.0977262996105
 21
123.16470588235316
 31
0.0
  0
LINE
  5
D9
330
17
100
AcDbEntity
  8
PoojaRoom
100
AcDbLine
 10
683.0977262996105
 20
111.164705882353
 30
0.0
 11
683.0977262996114
 21
123.16470588235299
 31
0.0
  0
LINE
  5
DA
330
17
100
AcDbEntity
  8
Balcony
100
AcDbLine
 10
610.0977262996105
 20
106.164705882353
 30
0.0
 11
688.0977262996105
 21
106.164705882353
 31
0.0
  0
LINE
  5
DB
330
17
100
AcDbEntity
  8
PoojaRoom
100
AcDbLine
 10
596.0977262996105
 20
111.16470588235278
 30
0.0
 11
683.0977262996114
 21
111.164705882353
 31
0.0
  0
LINE
  5
DC
330
17
100
AcDbEntity
  8
Boundary
100
AcDbLine
 10
596.0977262996105
 20
106.164705882353
 30
0.0
 11
608.0977262996114
 21
106.164705882353
 31
0.0
  0
LINE
  5
DD
330
17
100
AcDbEntity
  8
PoojaRoom
100
AcDbLine
 10
596.0977262996105
 20
111.164705882353
 30
0.0
 11
596.0977262996105
 21
187.03529411764723
 31
0.0
  0
LINE
  5
DE
330
17
100
AcDbEntity
  8
BedRoom1
100
AcDbLine
 10
770.0977262996105
 20
115.16470588235357
 30
0.0
 11
835.9477262996116
 21
115.16470588235357
 31
0.0
  0
LINE
  5
DF
330
17
100
AcDbEntity
  8
Balcony
100
AcDbLine
 10
837.297726299611
 20
106.164705882353
 30
0.0
 11
837.297726299611
 21
115.16470588235357
 31
0.0
  0
LINE
  5
E0
330
17
100
AcDbEntity
  8
Balcony
100
AcDbLine
 10
837.297726299611
 20
106.164705882353
 30
0.0
 11
1044.0977262996123
 21
106.164705882353
 31
0.0
  0
LINE
  5
E1
330
17
100
AcDbEntity
  8
BedRoom1
100
AcDbLine
 10
837.297726299611
 20
115.16470588235357
 30
0.0
 11
904.2977262996119
 21
115.16470588235357
 31
0.0
  0
LINE
  5
E3
330
17
100
AcDbEntity
  8
BathRoom1
100
AcDbLine
 10
909.2977262996119
 20
115.16470588235318
 30
0.0
 11
950.6977262996121
 21
115.16470588235357
 31
0.0
  0
LINE
  5
E4
330
17
100
AcDbEntity
  8
BedRoom1
100
AcDbLine
 10
904.2977262996119
 20
115.16470588235318
 30
0.0
 11
904.2977262996119
 21
179.03529411764723
 31
0.0
  0
LINE
  5
E5
330
17
100
AcDbEntity
  8
BathRoom1
100
AcDbLine
 10
909.2977262996119
 20
115.16470588235318
 30
0.0
 11
909.2977262996119
 21
179.03529411764723
 31
0.0
  0
LINE
  5
E6
330
17
100
AcDbEntity
  8
BedRoom1
100
AcDbLine
 10
950.6977262996121
 20
115.16470588235357
 30
0.0
 11
957.0977262996123
 21
115.16470588235357
 31
0.0
  0
LINE
  5
E7
330
17
100
AcDbEntity
  8
BathRoom1
100
AcDbLine
 10
962.0977262996123
 20
115.16470588235318
 30
0.0
 11
1058.0977262996123
 21
115.16470588235357
 31
0.0
  0
LINE
  5
E8
330
17
100
AcDbEntity
  8
Boundary
100
AcDbLine
 10
1046.0977262996114
 20
106.1647058823525
 30
0.0
 11
1058.0977262996123
 21
106.164705882353
 31
0.0
  0
LINE
  5
E9
330
17
100
AcDbEntity
  8
BedRoom1
100
AcDbLine
 10
957.0977262996123
 20
115.16470588235318
 30
0.0
 11
957.0977262996123
 21
179.03529411764723
 31
0.0
  0
LINE
  5
EA
330
17
100
AcDbEntity
  8
BathRoom1
100
AcDbLine
 10
962.0977262996123
 20
115.16470588235318
 30
0.0
 11
962.0977262996123
 21
179.03529411764723
 31
0.0
  0
LINE
  5
EB
330
17
100
AcDbEntity
  8
BathRoom1
100
AcDbLine
 10
1058.0977262996114
 20
115.16470588235357
 30
0.0
 11
1058.0977262996123
 21
174.03529411764728
 31
0.0
  0
LINE
  5
EC
330
17
100
AcDbEntity
  8
PoojaRoom
100
AcDbLine
 10
683.0977262996105
 20
170.035294117647
 30
0.0
 11
688.0977262996105
 21
170.035294117647
 31
0.0
  0
LINE
  5
EE
330
17
100
AcDbEntity
  8
FoyerArea
100
AcDbLine
 10
596.0977262996105
 20
192.0352941176471
 30
0.0
 11
596.0977262996105
 21
250.48235294117666
 31
0.0
  0
MTEXT
  5
EF
330
17
100
AcDbEntity
  8
PoojaRoom
100
AcDbMText
 10
619.4666504894774
 20
152.38575923513977
 30
0.0
 40
2.5
 71
1
  1
POOJAROOM
  0
LINE
  5
F1
330
17
100
AcDbEntity
  8
BedRoom3
100
AcDbLine
 10
782.0977262996114
 20
150.03529411764728
 30
0.0
 11
787.0977262996105
 21
150.03529411764728
 31
0.0
  0
LINE
  5
F2
330
17
100
AcDbEntity
  8
FoyerArea
100
AcDbLine
 10
688.0977262996105
 20
170.035294117647
 30
0.0
 11
688.0977262996105
 21
192.03529411764723
 31
0.0
  0
LINE
  5
F3
330
17
100
AcDbEntity
  8
FoyerArea
100
AcDbLine
 10
596.0977262996105
 20
192.0352941176471
 30
0.0
 11
688.0977262996114
 21
192.0352941176471
 31
0.0
  0
LINE
  5
F4
330
17
100
AcDbEntity
  8
PoojaRoom
100
AcDbLine
 10
596.0977262996105
 20
187.0352941176471
 30
0.0
 11
683.0977262996105
 21
187.03529411764728
 31
0.0
  0
LINE
  5
F5
330
17
100
AcDbEntity
  8
PoojaRoom
100
AcDbLine
 10
683.0977262996105
 20
170.035294117647
 30
0.0
 11
683.0977262996105
 21
187.03529411764723
 31
0.0
  0
LINE
  5
F6
330
17
100
AcDbEntity
  8
BedRoom1
100
AcDbLine
 10
787.0977262996105
 20
150.03529411764723
 30
0.0
 11
787.0977262996105
 21
324.4823529411769
 31
0.0
  0
LINE
  5
F7
330
17
100
AcDbEntity
  8
FoyerArea
100
AcDbLine
 10
782.0977262996105
 20
150.03529411764723
 30
0.0
 11
782.0977262996114
 21
329.48235294117654
 31
0.0
  0
MTEXT
  5
F8
330
17
100
AcDbEntity
  8
BathRoom1
100
AcDbMText
 10
936.01087100824
 20
147.38207114308622
 30
0.0
 40
2.5
 71
1
  1
BATHROOM1
  0
LINE
  5
F9
330
17
100
AcDbEntity
  8
BedRoom3
100
AcDbLine
 10
849.2977262996119
 20
150.03529411764728
 30
0.0
 11
854.297726299611
 21
150.03529411764728
 31
0.0
  0
LINE
  5
FA
330
17
100
AcDbEntity
  8
BathRoom1
100
AcDbLine
 10
939.297726299611
 20
174.03529411764728
 30
0.0
 11
939.2977262996119
 21
179.03529411764723
 31
0.0
  0
LINE
  5
FB
330
17
100
AcDbEntity
  8
BedRoom1
100
AcDbLine
 10
939.297726299611
 20
179.03529411764728
 30
0.0
 11
950.6977262996121
 21
179.03529411764728
 31
0.0
  0
LINE
  5
FC
330
17
100
AcDbEntity
  8
BathRoom1
100
AcDbLine
 10
939.297726299611
 20
174.03529411764728
 30
0.0
 11
950.6977262996121
 21
174.03529411764728
 31
0.0
  0
LINE
  5
FD
330
17
100
AcDbEntity
  8
BedRoom1
100
AcDbLine
 10
904.2977262996119
 20
179.03529411764723
 30
0.0
 11
909.2977262996119
 21
179.03529411764723
 31
0.0
  0
LINE
  5
FE
330
17
100
AcDbEntity
  8
BedRoom1
100
AcDbLine
 10
854.297726299611
 20
150.03529411764723
 30
0.0
 11
854.297726299611
 21
324.4823529411769
 31
0.0
  0
LINE
  5
FF
330
17
100
AcDbEntity
  8
FoyerArea
100
AcDbLine
 10
849.297726299611
 20
150.03529411764723
 30
0.0
 11
849.2977262996119
 21
329.48235294117654
 31
0.0
  0
LINE
  5
100
330
17
100
AcDbEntity
  8
BathRoom1
100
AcDbLine
 10
992.0977262996114
 20
174.03529411764728
 30
0.0
 11
992.0977262996123
 21
179.03529411764723
 31
0.0
  0
LINE
  5
101
330
17
100
AcDbEntity
  8
BedRoom1
100
AcDbLine
 10
992.0977262996114
 20
179.03529411764728
 30
0.0
 11
1058.0977262996123
 21
179.03529411764728
 31
0.0
  0
LINE
  5
102
330
17
100
AcDbEntity
  8
BathRoom1
100
AcDbLine
 10
992.0977262996114
 20
174.03529411764728
 30
0.0
 11
1058.0977262996123
 21
174.03529411764728
 31
0.0
  0
LINE
  5
103
330
17
100
AcDbEntity
  8
BedRoom1
100
AcDbLine
 10
1058.0977262996114
 20
179.03529411764728
 30
0.0
 11
1058.0977262996114
 21
324.48235294117654
 31
0.0
  0
LINE
  5
104
330
17
100
AcDbEntity
  8
BedRoom1
100
AcDbLine
 10
957.0977262996123
 20
179.03529411764723
 30
0.0
 11
962.0977262996123
 21
179.03529411764723
 31
0.0
  0
LINE
  5
106
330
17
100
AcDbEntity
  8
Pantry
100
AcDbLine
 10
782.0977262996105
 20
329.48235294117654
 30
0.0
 11
835.9477262996116
 21
329.48235294117654
 31
0.0
  0
MTEXT
  5
107
330
17
100
AcDbEntity
  8
Staircase
100
AcDbMText
 10
615.3179905902643
 20
267.71241621951293
 30
0.0
 40
2.5
 71
1
  1
2
  0
MTEXT
  5
108
330
17
100
AcDbEntity
  8
Staircase
100
AcDbMText
 10
615.3179905902643
 20
257.45621653736674
 30
0.0
 40
2.5
 71
1
  1
1
  0
MTEXT
  5
109
330
17
100
AcDbEntity
  8
OTS
100
AcDbMText
 10
666.0806842903785
 20
288.96563799280335
 30
0.0
 40
2.5
 71
1
  1
OTS
  0
MTEXT
  5
10A
330
17
100
AcDbEntity
  8
Staircase
100
AcDbMText
 10
615.3179905902643
 20
288.09076756264955
 30
0.0
 40
2.5
 71
1
  1
4
  0
MTEXT
  5
10B
330
17
100
AcDbEntity
  8
Staircase
100
AcDbMText
 10
615.3179905902643
 20
297.67663943420274
 30
0.0
 40
2.5
 71
1
  1
5
  0
MTEXT
  5
10C
330
17
100
AcDbEntity
  8
Staircase
100
AcDbMText
 10
614.9928084065084
 20
308.3108468179909
 30
0.0
 40
2.5
 71
1
  1
6
  0
MTEXT
  5
10D
330
17
100
AcDbEntity
  8
Staircase
100
AcDbMText
 10
615.5561502199575
 20
317.80892152215057
 30
0.0
 40
2.5
 71
1
  1
7
  0
MTEXT
  5
10E
330
17
100
AcDbEntity
  8
Staircase
100
AcDbMText
 10
634.4527064108954
 20
337.1824000546207
 30
0.0
 40
2.5
 71
1
  1
9
  0
MTEXT
  5
10F
330
17
100
AcDbEntity
  8
Staircase
100
AcDbMText
 10
612.8235503564204
 20
340.533642128027
 30
0.0
 40
2.5
 71
1
  1
8
  0
MTEXT
  5
110
330
17
100
AcDbEntity
  8
Staircase
100
AcDbMText
 10
695.4035817683164
 20
335.29850548553435
 30
0.0
 40
2.5
 71
1
  1
15
  0
MTEXT
  5
111
330
17
100
AcDbEntity
  8
Staircase
100
AcDbMText
 10
685.6488781506694
 20
334.97332868051313
 30
0.0
 40
2.5
 71
1
  1
14
  0
MTEXT
  5
112
330
17
100
AcDbEntity
  8
Staircase
100
AcDbMText
 10
675.9276426859124
 20
335.1359170830228
 30
0.0
 40
2.5
 71
1
  1
13
  0
MTEXT
  5
113
330
17
100
AcDbEntity
  8
Staircase
100
AcDbMText
 10
665.3076961031134
 20
335.29850548553435
 30
0.0
 40
2.5
 71
1
  1
12
  0
MTEXT
  5
114
330
17
100
AcDbEntity
  8
Staircase
100
AcDbMText
 10
655.4299983122094
 20
335.24759861209526
 30
0.0
 40
2.5
 71
1
  1
11
  0
MTEXT
  5
115
330
17
100
AcDbEntity
  8
Staircase
100
AcDbMText
 10
615.3179905902643
 20
277.49939520472486
 30
0.0
 40
2.5
 71
1
  1
3
  0
LINE
  5
116
330
17
100
AcDbEntity
  8
Staircase
100
AcDbLine
 10
596.0977262996105
 20
320.48235294117654
 30
0.0
 11
712.0977262996105
 21
320.48235294117677
 31
0.0
  0
LINE
  5
117
330
17
100
AcDbEntity
  8
BedRoom1
100
AcDbLine
 10
721.0977262996105
 20
356.48235294117654
 30
0.0
 11
721.0977262996105
 21
361.48235294117654
 31
0.0
  0
LINE
  5
118
330
17
100
AcDbEntity
  8
BedRoom3
100
AcDbLine
 10
596.0977262996105
 20
361.48235294117654
 30
0.0
 11
721.0977262996105
 21
361.48235294117654
 31
0.0
  0
LINE
  5
119
330
17
100
AcDbEntity
  8
Staircase
100
AcDbLine
 10
596.0977262996105
 20
356.48235294117654
 30
0.0
 11
721.0977262996105
 21
356.48235294117666
 31
0.0
  0
LINE
  5
11A
330
17
100
AcDbEntity
  8
BedRoom3
100
AcDbLine
 10
596.0977262996105
 20
361.48235294117654
 30
0.0
 11
596.0977262996105
 21
544.023529411765
 31
0.0
  0
LINE
  5
11B
330
17
100
AcDbEntity
  8
Staircase
100
AcDbLine
 10
596.0977262996105
 20
250.48235294117666
 30
0.0
 11
596.0977262996105
 21
356.48235294117654
 31
0.0
  0
LINE
  5
11C
330
17
100
AcDbEntity
  8
Staircase
100
AcDbLine
 10
632.0977262996114
 20
250.48235294117666
 30
0.0
 11
632.0977262996114
 21
356.48235294117654
 31
0.0
  0
LINE
  5
11D
330
17
100
AcDbEntity
  8
OTS
100
AcDbLine
 10
634.0977262996105
 20
252.48235294117654
 30
0.0
 11
634.0977262996105
 21
318.48235294117654
 31
0.0
  0
LINE
  5
11E
330
17
100
AcDbEntity
  8
Staircase
100
AcDbLine
 10
642.0977262996105
 20
320.48235294117654
 30
0.0
 11
642.0977262996105
 21
356.48235294117654
 31
0.0
  0
MTEXT
  5
11F
330
17
100
AcDbEntity
  8
Staircase
100
AcDbMText
 10
705.7413075204024
 20
335.78627069306634
 30
0.0
 40
2.5
 71
1
  1
16
  0
LINE
  5
120
330
17
100
AcDbEntity
  8
Staircase
100
AcDbLine
 10
652.0977262996105
 20
320.48235294117666
 30
0.0
 11
652.0977262996105
 21
356.48235294117654
 31
0.0
  0
LINE
  5
121
330
17
100
AcDbEntity
  8
Staircase
100
AcDbLine
 10
672.0977262996105
 20
320.48235294117666
 30
0.0
 11
672.0977262996105
 21
356.48235294117654
 31
0.0
  0
LINE
  5
122
330
17
100
AcDbEntity
  8
Staircase
100
AcDbLine
 10
682.0977262996114
 20
320.48235294117666
 30
0.0
 11
682.0977262996114
 21
356.48235294117654
 31
0.0
  0
LINE
  5
123
330
17
100
AcDbEntity
  8
Staircase
100
AcDbLine
 10
692.0977262996114
 20
320.48235294117666
 30
0.0
 11
692.0977262996114
 21
356.48235294117654
 31
0.0
  0
LINE
  5
124
330
17
100
AcDbEntity
  8
Staircase
100
AcDbLine
 10
702.0977262996114
 20
320.48235294117677
 30
0.0
 11
702.0977262996114
 21
356.48235294117654
 31
0.0
  0
LINE
  5
125
330
17
100
AcDbEntity
  8
Staircase
100
AcDbLine
 10
712.0977262996105
 20
320.48235294117677
 30
0.0
 11
712.0977262996114
 21
356.48235294117654
 31
0.0
  0
LINE
  5
126
330
17
100
AcDbEntity
  8
Staircase
100
AcDbLine
 10
662.0977262996105
 20
320.48235294117666
 30
0.0
 11
662.0977262996105
 21
356.48235294117654
 31
0.0
  0
LINE
  5
127
330
17
100
AcDbEntity
  8
OTS
100
AcDbLine
 10
634.0977262996105
 20
318.48235294117654
 30
0.0
 11
710.0977262996105
 21
318.48235294117666
 31
0.0
  0
LINE
  5
128
330
17
100
AcDbEntity
  8
Staircase
100
AcDbLine
 10
596.0977262996105
 20
310.48235294117654
 30
0.0
 11
632.0977262996114
 21
310.48235294117654
 31
0.0
  0
LINE
  5
129
330
17
100
AcDbEntity
  8
Staircase
100
AcDbLine
 10
596.0977262996105
 20
300.48235294117654
 30
0.0
 11
632.0977262996114
 21
300.48235294117654
 31
0.0
  0
LINE
  5
12A
330
17
100
AcDbEntity
  8
Staircase
100
AcDbLine
 10
596.0977262996105
 20
290.48235294117654
 30
0.0
 11
632.0977262996114
 21
290.48235294117654
 31
0.0
  0
LINE
  5
12B
330
17
100
AcDbEntity
  8
Staircase
100
AcDbLine
 10
596.0977262996105
 20
280.48235294117654
 30
0.0
 11
632.0977262996114
 21
280.48235294117654
 31
0.0
  0
LINE
  5
12C
330
17
100
AcDbEntity
  8
Staircase
100
AcDbLine
 10
596.0977262996105
 20
270.48235294117654
 30
0.0
 11
632.0977262996114
 21
270.48235294117654
 31
0.0
  0
LINE
  5
12D
330
17
100
AcDbEntity
  8
Staircase
100
AcDbLine
 10
596.0977262996105
 20
260.48235294117666
 30
0.0
 11
632.0977262996114
 21
260.48235294117666
 31
0.0
  0
LINE
  5
12E
330
17
100
AcDbEntity
  8
Staircase
100
AcDbLine
 10
596.0977262996105
 20
250.48235294117666
 30
0.0
 11
632.0977262996114
 21
250.48235294117666
 31
0.0
  0
LINE
  5
12F
330
17
100
AcDbEntity
  8
OTS
100
AcDbLine
 10
632.0977262996114
 20
250.48235294117666
 30
0.0
 11
712.0977262996105
 21
250.48235294117666
 31
0.0
  0
LINE
  5
130
330
17
100
AcDbEntity
  8
OTS
100
AcDbLine
 10
634.0977262996105
 20
252.48235294117666
 30
0.0
 11
710.0977262996114
 21
252.48235294117666
 31
0.0
  0
LINE
  5
131
330
17
100
AcDbEntity
  8
OTS
100
AcDbLine
 10
712.0977262996105
 20
250.48235294117666
 30
0.0
 11
712.0977262996105
 21
320.48235294117666
 31
0.0
  0
LINE
  5
132
330
17
100
AcDbEntity
  8
OTS
100
AcDbLine
 10
710.0977262996105
 20
252.48235294117666
 30
0.0
 11
710.0977262996105
 21
318.48235294117677
 31
0.0
  0
LINE
  5
133
330
17
100
AcDbEntity
  8
BedRoom1
100
AcDbLine
 10
787.0977262996105
 20
324.48235294117654
 30
0.0
 11
835.9477262996116
 21
324.4823529411769
 31
0.0
  0
MTEXT
  5
134
330
17
100
AcDbEntity
  8
FoyerArea
100
AcDbMText
 10
632.8026189686664
 20
221.50882352941176
 30
0.0
 40
2.5
 71
1
  1
FOYER AREA
  0
LINE
  5
135
330
17
100
AcDbEntity
  8
Pantry
100
AcDbLine
 10
849.297726299611
 20
329.48235294117654
 30
0.0
 11
940.297726299611
 21
329.48235294117654
 31
0.0
  0
LINE
  5
137
330
17
100
AcDbEntity
  8
StoreRoom
100
AcDbLine
 10
940.2977262996119
 20
359.48235294117666
 30
0.0
 11
945.297726299611
 21
359.48235294117666
 31
0.0
  0
MTEXT
  5
138
330
17
100
AcDbEntity
  8
BedRoom1
100
AcDbMText
 10
906.4554587060879
 20
244.13845577906915
 30
0.0
 40
2.5
 71
1
  1
BEDROOM1
  0
LINE
  5
139
330
17
100
AcDbEntity
  8
StoreRoom
100
AcDbLine
 10
945.297726299611
 20
329.48235294117654
 30
0.0
 11
945.297726299611
 21
359.48235294117666
 31
0.0
  0
LINE
  5
13A
330
17
100
AcDbEntity
  8
Pantry
100
AcDbLine
 10
940.297726299611
 20
329.48235294117654
 30
0.0
 11
940.2977262996119
 21
359.48235294117666
 31
0.0
  0
LINE
  5
13B
330
17
100
AcDbEntity
  8
StoreRoom
100
AcDbLine
 10
945.297726299611
 20
329.48235294117654
 30
0.0
 11
950.6977262996121
 21
329.48235294117654
 31
0.0
  0
LINE
  5
13C
330
17
100
AcDbEntity
  8
BedRoom1
100
AcDbLine
 10
854.297726299611
 20
324.48235294117654
 30
0.0
 11
1058.0977262996114
 21
324.4823529411769
 31
0.0
  0
LINE
  5
13D
330
17
100
AcDbEntity
  8
Pantry
100
AcDbLine
 10
950.6977262996121
 20
329.48235294117654
 30
0.0
 11
993.0977262996114
 21
329.48235294117654
 31
0.0
  0
LINE
  5
13E
330
17
100
AcDbEntity
  8
StoreRoom
100
AcDbLine
 10
993.0977262996123
 20
359.48235294117666
 30
0.0
 11
998.0977262996114
 21
359.48235294117666
 31
0.0
  0
MTEXT
  5
13F
330
17
100
AcDbEntity
  8
StoreRoom
100
AcDbMText
 10
1007.6158197027623
 20
364.66853887983376
 30
0.0
 40
2.5
 71
1
  1
STOREROOM
  0
LINE
  5
140
330
17
100
AcDbEntity
  8
StoreRoom
100
AcDbLine
 10
998.0977262996114
 20
329.48235294117654
 30
0.0
 11
998.0977262996114
 21
359.48235294117666
 31
0.0
  0
LINE
  5
141
330
17
100
AcDbEntity
  8
StoreRoom
100
AcDbLine
 10
1058.0977262996123
 20
329.48235294117654
 30
0.0
 11
1058.0977262996123
 21
388.35294117647067
 31
0.0
  0
LINE
  5
142
330
17
100
AcDbEntity
  8
Pantry
100
AcDbLine
 10
993.0977262996114
 20
329.48235294117654
 30
0.0
 11
993.0977262996123
 21
359.48235294117666
 31
0.0
  0
LINE
  5
143
330
17
100
AcDbEntity
  8
StoreRoom
100
AcDbLine
 10
998.0977262996114
 20
329.48235294117654
 30
0.0
 11
1058.0977262996114
 21
329.48235294117654
 31
0.0
  0
LINE
  5
144
330
17
100
AcDbEntity
  8
Pantry
100
AcDbLine
 10
721.0977262996105
 20
396.35294117647067
 30
0.0
 11
721.0977262996105
 21
456.5764705882354
 31
0.0
  0
LINE
  5
145
330
17
100
AcDbEntity
  8
BedRoom3
100
AcDbLine
 10
716.0977262996105
 20
396.35294117647067
 30
0.0
 11
716.0977262996114
 21
515.7176470588239
 31
0.0
  0
LINE
  5
146
330
17
100
AcDbEntity
  8
BedRoom3
100
AcDbLine
 10
716.0977262996105
 20
396.35294117647067
 30
0.0
 11
721.0977262996105
 21
396.35294117647067
 31
0.0
  0
LINE
  5
147
330
17
100
AcDbEntity
  8
StoreRoom
100
AcDbLine
 10
940.297726299611
 20
388.3529411764708
 30
0.0
 11
940.2977262996119
 21
393.35294117647067
 31
0.0
  0
LINE
  5
148
330
17
100
AcDbEntity
  8
Pantry
100
AcDbLine
 10
940.2977262996119
 20
393.35294117647067
 30
0.0
 11
950.6977262996121
 21
393.35294117647067
 31
0.0
  0
LINE
  5
149
330
17
100
AcDbEntity
  8
StoreRoom
100
AcDbLine
 10
940.2977262996119
 20
388.35294117647067
 30
0.0
 11
950.6977262996121
 21
388.35294117647067
 31
0.0
  0
LINE
  5
14A
330
17
100
AcDbEntity
  8
StoreRoom
100
AcDbLine
 10
993.0977262996114
 20
388.3529411764708
 30
0.0
 11
993.0977262996123
 21
393.35294117647067
 31
0.0
  0
LINE
  5
14B
330
17
100
AcDbEntity
  8
Pantry
100
AcDbLine
 10
1058.0977262996114
 20
393.35294117647067
 30
0.0
 11
1058.0977262996123
 21
544.023529411765
 31
0.0
  0
LINE
  5
14C
330
17
100
AcDbEntity
  8
Pantry
100
AcDbLine
 10
993.0977262996123
 20
393.35294117647067
 30
0.0
 11
1058.0977262996114
 21
393.35294117647067
 31
0.0
  0
LINE
  5
14D
330
17
100
AcDbEntity
  8
StoreRoom
100
AcDbLine
 10
993.0977262996123
 20
388.35294117647067
 30
0.0
 11
1058.0977262996114
 21
388.35294117647067
 31
0.0
  0
MTEXT
  5
14E
330
17
100
AcDbEntity
  8
BedRoom3
100
AcDbMText
 10
626.2369558999656
 20
458.7702615911434
 30
0.0
 40
2.5
 71
1
  1
BEDROOM3
  0
LINE
  5
150
330
17
100
AcDbEntity
  8
BathRoom2a
100
AcDbLine
 10
777.0977262996105
 20
461.5764705882354
 30
0.0
 11
777.0977262996105
 21
544.023529411765
 31
0.0
  0
LINE
  5
151
330
17
100
AcDbEntity
  8
BathRoom2a
100
AcDbLine
 10
721.0977262996105
 20
461.5764705882354
 30
0.0
 11
721.0977262996105
 21
515.7176470588239
 31
0.0
  0
LINE
  5
152
330
17
100
AcDbEntity
  8
Pantry
100
AcDbLine
 10
782.0977262996105
 20
456.5764705882354
 30
0.0
 11
782.0977262996105
 21
544.023529411765
 31
0.0
  0
LINE
  5
153
330
17
100
AcDbEntity
  8
BathRoom2a
100
AcDbLine
 10
721.0977262996105
 20
461.5764705882354
 30
0.0
 11
777.0977262996105
 21
461.5764705882354
 31
0.0
  0
LINE
  5
154
330
17
100
AcDbEntity
  8
Pantry
100
AcDbLine
 10
721.0977262996105
 20
456.5764705882354
 30
0.0
 11
782.0977262996105
 21
456.5764705882354
 31
0.0
  0
MTEXT
  5
155
330
17
100
AcDbEntity
  8
Pantry
100
AcDbMText
 10
914.952787969268
 20
485.01404601426617
 30
0.0
 40
2.5
 71
1
  1
PANTRY
  0
LINE
  5
156
330
17
100
AcDbEntity
  8
BathRoom2a
100
AcDbLine
 10
844.297726299611
 20
461.5764705882354
 30
0.0
 11
844.297726299611
 21
544.023529411765
 31
0.0
  0
LINE
  5
157
330
17
100
AcDbEntity
  8
Pantry
100
AcDbLine
 10
849.297726299611
 20
456.5764705882354
 30
0.0
 11
849.297726299611
 21
544.023529411765
 31
0.0
  0
LINE
  5
158
330
17
100
AcDbEntity
  8
BathRoom2a
100
AcDbLine
 10
835.9477262996116
 20
461.5764705882354
 30
0.0
 11
844.297726299611
 21
461.5764705882354
 31
0.0
  0
LINE
  5
159
330
17
100
AcDbEntity
  8
Pantry
100
AcDbLine
 10
835.9477262996116
 20
456.5764705882354
 30
0.0
 11
849.297726299611
 21
456.5764705882354
 31
0.0
  0
MTEXT
  5
15A
330
17
100
AcDbEntity
  8
BathRoom2a
100
AcDbMText
 10
729.3220939383425
 20
491.81458461651874
 30
0.0
 40
2.5
 71
1
  1
BATHROOM2a
  0
LINE
  5
15B
330
17
100
AcDbEntity
  8
BathRoom2a
100
AcDbLine
 10
716.0977262996105
 20
515.7176470588239
 30
0.0
 11
721.0977262996105
 21
515.7176470588239
 31
0.0
  0
LINE
  5
15C
330
17
100
AcDbEntity
  8
Boundary
100
AcDbLine
 10
596.0977262996105
 20
553.023529411765
 30
0.0
 11
1058.0977262996114
 21
553.023529411765
 31
0.0
  0
LINE
  5
15D
330
17
100
AcDbEntity
  8
Pantry
100
AcDbLine
 10
782.0977262996105
 20
544.023529411765
 30
0.0
 11
835.9477262996116
 21
544.023529411765
 31
0.0
  0
LINE
  5
15E
330
17
100
AcDbEntity
  8
BathRoom2a
100
AcDbLine
 10
716.0977262996105
 20
544.023529411765
 30
0.0
 11
777.0977262996105
 21
544.023529411765
 31
0.0
  0
LINE
  5
15F
330
17
100
AcDbEntity
  8
BedRoom3
100
AcDbLine
 10
596.0977262996105
 20
544.023529411765
 30
0.0
 11
716.0977262996105
 21
544.023529411765
 31
0.0
  0
LINE
  5
160
330
17
100
AcDbEntity
  8
Boundary
100
AcDbLine
 10
596.0977262996105
 20
553.023529411765
 30
0.0
 11
596.0977262996105
 21
603.0000000000001
 31
0.0
  0
LINE
  5
161
330
17
100
AcDbEntity
  8
Pantry
100
AcDbLine
 10
849.297726299611
 20
544.023529411765
 30
0.0
 11
1058.0977262996114
 21
544.023529411765
 31
0.0
  0
LINE
  5
162
330
17
100
AcDbEntity
  8
BathRoom2a
100
AcDbLine
 10
835.9477262996116
 20
544.023529411765
 30
0.0
 11
844.297726299611
 21
544.023529411765
 31
0.0
  0
LINE
  5
163
330
17
100
AcDbEntity
  8
Boundary
100
AcDbLine
 10
1058.0977262996114
 20
553.023529411765
 30
0.0
 11
1058.0977262996114
 21
603.0000000000001
 31
0.0
  0
LINE
  5
164
330
17
100
AcDbEntity
  8
Boundary
100
AcDbLine
 10
587.0977262996114
 20
612.0000000000001
 30
0.0
 11
1067.0977262996114
 21
612.0000000000001
 31
0.0
  0
LINE
  5
165
330
17
100
AcDbEntity
  8
Boundary
100
AcDbLine
 10
596.0977262996105
 20
603.0000000000001
 30
0.0
 11
1058.0977262996114
 21
603.0000000000001
 31
0.0
  0
ENDSEC
  0
SECTION
  2
OBJECTS
  0
DICTIONARY
  5
A
330
0
100
AcDbDictionary
280
0
281
1
  3
ACAD_COLOR
350
B
  3
ACAD_GROUP
350
C
  3
ACAD_LAYOUT
350
D
  3
ACAD_MATERIAL
350
E
  3
ACAD_MLEADERSTYLE
350
F
  3
ACAD_MLINESTYLE
350
10
  3
ACAD_PLOTSETTINGS
350
11
  3
ACAD_PLOTSTYLENAME
350
12
  3
ACAD_SCALELIST
350
14
  3
ACAD_TABLESTYLE
350
15
  3
ACAD_VISUALSTYLE
350
16
  3
EZDXF_META
350
2D
  0
DICTIONARY
  5
B
330
A
100
AcDbDictionary
280
0
281
1
  0
DICTIONARY
  5
C
330
A
100
AcDbDictionary
280
0
281
1
  0
DICTIONARY
  5
D
330
A
100
AcDbDictionary
280
0
281
1
  3
Model
350
1A
  3
Layout1
350
1E
  0
DICTIONARY
  5
E
330
A
100
AcDbDictionary
280
0
281
1
  3
ByBlock
350
1F
  3
ByLayer
350
20
  3
Global
350
21
  0
DICTIONARY
  5
F
330
A
100
AcDbDictionary
280
0
281
1
  3
Standard
350
2C
  0
DICTIONARY
  5
10
330
A
100
AcDbDictionary
280
0
281
1
  3
Standard
350
22
  0
DICTIONARY
  5
11
330
A
100
AcDbDictionary
280
0
281
1
  0
ACDBDICTIONARYWDFLT
  5
12
330
A
100
AcDbDictionary
280
0
281
1
  3
Normal
350
13
100
AcDbDictionaryWithDefault
340
13
  0
ACDBPLACEHOLDER
  5
13
330
12
  0
DICTIONARY
  5
14
330
A
100
AcDbDictionary
280
0
281
1
  0
DICTIONARY
  5
15
330
A
100
AcDbDictionary
280
0
281
1
  0
DICTIONARY
  5
16
330
A
100
AcDbDictionary
280
0
281
1
  0
LAYOUT
  5
1A
330
D
100
AcDbPlotSettings
  1

  4
A3
  6

 40
7.5
 41
20.0
 42
7.5
 43
20.0
 44
420.0
 45
297.0
 46
0.0
 47
0.0
 48
0.0
 49
0.0
140
0.0
141
0.0
142
1.0
143
1.0
 70
1024
 72
1
 73
0
 74
5
  7

 75
16
 76
0
 77
2
 78
300
147
1.0
148
0.0
149
0.0
100
AcDbLayout
  1
Model
 70
1
 71
0
 10
0.0
 20
0.0
 11
420.0
 21
297.0
 12
0.0
 22
0.0
 32
0.0
 14
1e+20
 24
1e+20
 34
1e+20
 15
-1e+20
 25
-1e+20
 35
-1e+20
146
0.0
 13
0.0
 23
0.0
 33
0.0
 16
1.0
 26
0.0
 36
0.0
 17
0.0
 27
1.0
 37
0.0
 76
1
330
17
  0
LAYOUT
  5
1E
330
D
100
AcDbPlotSettings
  1

  4
A3
  6

 40
7.5
 41
20.0
 42
7.5
 43
20.0
 44
420.0
 45
297.0
 46
0.0
 47
0.0
 48
0.0
 49
0.0
140
0.0
141
0.0
142
1.0
143
1.0
 70
0
 72
1
 73
0
 74
5
  7

 75
16
 76
0
 77
2
 78
300
147
1.0
148
0.0
149
0.0
100
AcDbLayout
  1
Layout1
 70
1
 71
1
 10
0.0
 20
0.0
 11
420.0
 21
297.0
 12
0.0
 22
0.0
 32
0.0
 14
1e+20
 24
1e+20
 34
1e+20
 15
-1e+20
 25
-1e+20
 35
-1e+20
146
0.0
 13
0.0
 23
0.0
 33
0.0
 16
1.0
 26
0.0
 36
0.0
 17
0.0
 27
1.0
 37
0.0
 76
1
330
1B
  0
MATERIAL
  5
1F
102
{ACAD_REACTORS
330
E
102
}
330
E
100
AcDbMaterial
  1
ByBlock
  2

 70
0
 40
1.0
 71
1
 41
1.0
 91
-1023410177
 42
1.0
 72
1
  3

 73
1
 74
1
 75
1
 44
0.5
 73
0
 45
1.0
 46
1.0
 77
1
  4

 78
1
 79
1
170
1
 48
1.0
171
1
  6

172
1
173
1
174
1
140
1.0
141
1.0
175
1
  7

176
1
177
1
178
1
143
1.0
179
1
  8

270
1
271
1
272
1
145
1.0
146
1.0
273
1
  9

274
1
275
1
276
1
 42
1.0
 72
1
  3

 73
1
 74
1
 75
1
 94
63
  0
MATERIAL
  5
20
102
{ACAD_REACTORS
330
E
102
}
330
E
100
AcDbMaterial
  1
ByLayer
  2

 70
0
 40
1.0
 71
1
 41
1.0
 91
-1023410177
 42
1.0
 72
1
  3

 73
1
 74
1
 75
1
 44
0.5
 73
0
 45
1.0
 46
1.0
 77
1
  4

 78
1
 79
1
170
1
 48
1.0
171
1
  6

172
1
173
1
174
1
140
1.0
141
1.0
175
1
  7

176
1
177
1
178
1
143
1.0
179
1
  8

270
1
271
1
272
1
145
1.0
146
1.0
273
1
  9

274
1
275
1
276
1
 42
1.0
 72
1
  3

 73
1
 74
1
 75
1
 94
63
  0
MATERIAL
  5
21
102
{ACAD_REACTORS
330
E
102
}
330
E
100
AcDbMaterial
  1
Global
  2

 70
0
 40
1.0
 71
1
 41
1.0
 91
-1023410177
 42
1.0
 72
1
  3

 73
1
 74
1
 75
1
 44
0.5
 73
0
 45
1.0
 46
1.0
 77
1
  4

 78
1
 79
1
170
1
 48
1.0
171
1
  6

172
1
173
1
174
1
140
1.0
141
1.0
175
1
  7

176
1
177
1
178
1
143
1.0
179
1
  8

270
1
271
1
272
1
145
1.0
146
1.0
273
1
  9

274
1
275
1
276
1
 42
1.0
 72
1
  3

 73
1
 74
1
 75
1
 94
63
  0
MLINESTYLE
  5
22
102
{ACAD_REACTORS
330
10
102
}
330
10
100
AcDbMlineStyle
  2
Standard
 70
0
  3

 62
256
 51
90.0
 52
90.0
 71
2
 49
0.5
 62
256
  6
BYLAYER
 49
-0.5
 62
256
  6
BYLAYER
  0
MLEADERSTYLE
  5
2C
102
{ACAD_REACTORS
330
F
102
}
330
F
100
AcDbMLeaderStyle
179
2
170
2
171
1
172
0
 90
2
 40
0.0
 41
0.0
173
1
 91
-1056964608
 92
-2
290
1
 42
2.0
291
1
 43
8.0
  3
Standard
 44
4.0
300

342
29
174
1
175
1
176
0
178
1
 93
-1056964608
 45
4.0
292
0
297
0
 46
4.0
 94
-1056964608
 47
1.0
 49
1.0
140
1.0
294
1
141
0.0
177
0
142
1.0
295
0
296
0
143
3.75
271
0
272
9
273
9
  0
DICTIONARY
  5
2D
330
A
100
AcDbDictionary
281
1
  3
CREATED_BY_EZDXF
350
2E
  3
WRITTEN_BY_EZDXF
350
168
  0
DICTIONARYVAR
  5
2E
330
2D
100
DictionaryVariables
280
0
  1
1.3.1 @ 2024-07-19T17:58:26.265398+00:00
  0
DICTIONARYVAR
  5
168
330
2D
100
DictionaryVariables
280
0
  1
1.3.1 @ 2024-07-19T17:58:26.279356+00:00
  0
ENDSEC
  0
EOF
