  0
SECTION
  2
HEADER
  9
$ACADVER
  1
AC1027
  9
$ACADMAINTVER
 70
105
  9
$DWGCODEPAGE
  3
ANSI_1252
  9
$LASTSAVEDBY
  1
ezdxf
  9
$REQUIREDVERSIONS
160
0
  9
$INSBASE
 10
0.0
 20
0.0
 30
0.0
  9
$EXTMIN
 10
1e+20
 20
1e+20
 30
1e+20
  9
$EXTMAX
 10
-1e+20
 20
-1e+20
 30
-1e+20
  9
$LIMMIN
 10
0.0
 20
0.0
  9
$LIMMAX
 10
420.0
 20
297.0
  9
$ORTHOMODE
 70
0
  9
$REGENMODE
 70
1
  9
$FILLMODE
 70
1
  9
$QTEXTMODE
 70
0
  9
$MIRRTEXT
 70
1
  9
$LTSCALE
 40
1.0
  9
$ATTMODE
 70
1
  9
$TEXTSIZE
 40
2.5
  9
$TRACEWID
 40
1.0
  9
$TEXTSTYLE
  7
Standard
  9
$CLAYER
  8
0
  9
$CELTYPE
  6
ByLayer
  9
$CECOLOR
 62
256
  9
$CELTSCALE
 40
1.0
  9
$DISPSILH
 70
0
  9
$DIMSCALE
 40
1.0
  9
$DIMASZ
 40
2.5
  9
$DIMEXO
 40
0.625
  9
$DIMDLI
 40
3.75
  9
$DIMRND
 40
0.0
  9
$DIMDLE
 40
0.0
  9
$DIMEXE
 40
1.25
  9
$DIMTP
 40
0.0
  9
$DIMTM
 40
0.0
  9
$DIMTXT
 40
2.5
  9
$DIMCEN
 40
2.5
  9
$DIMTSZ
 40
0.0
  9
$DIMTOL
 70
0
  9
$DIMLIM
 70
0
  9
$DIMTIH
 70
0
  9
$DIMTOH
 70
0
  9
$DIMSE1
 70
0
  9
$DIMSE2
 70
0
  9
$DIMTAD
 70
1
  9
$DIMZIN
 70
8
  9
$DIMBLK
  1

  9
$DIMASO
 70
1
  9
$DIMSHO
 70
1
  9
$DIMPOST
  1

  9
$DIMAPOST
  1

  9
$DIMALT
 70
0
  9
$DIMALTD
 70
3
  9
$DIMALTF
 40
0.03937007874
  9
$DIMLFAC
 40
1.0
  9
$DIMTOFL
 70
1
  9
$DIMTVP
 40
0.0
  9
$DIMTIX
 70
0
  9
$DIMSOXD
 70
0
  9
$DIMSAH
 70
0
  9
$DIMBLK1
  1

  9
$DIMBLK2
  1

  9
$DIMSTYLE
  2
ISO-25
  9
$DIMCLRD
 70
0
  9
$DIMCLRE
 70
0
  9
$DIMCLRT
 70
0
  9
$DIMTFAC
 40
1.0
  9
$DIMGAP
 40
0.625
  9
$DIMJUST
 70
0
  9
$DIMSD1
 70
0
  9
$DIMSD2
 70
0
  9
$DIMTOLJ
 70
0
  9
$DIMTZIN
 70
8
  9
$DIMALTZ
 70
0
  9
$DIMALTTZ
 70
0
  9
$DIMUPT
 70
0
  9
$DIMDEC
 70
2
  9
$DIMTDEC
 70
2
  9
$DIMALTU
 70
2
  9
$DIMALTTD
 70
3
  9
$DIMTXSTY
  7
Standard
  9
$DIMAUNIT
 70
0
  9
$DIMADEC
 70
0
  9
$DIMALTRND
 40
0.0
  9
$DIMAZIN
 70
0
  9
$DIMDSEP
 70
44
  9
$DIMATFIT
 70
3
  9
$DIMFRAC
 70
0
  9
$DIMLDRBLK
  1

  9
$DIMLUNIT
 70
2
  9
$DIMLWD
 70
-2
  9
$DIMLWE
 70
-2
  9
$DIMTMOVE
 70
0
  9
$DIMFXL
 40
1.0
  9
$DIMFXLON
 70
0
  9
$DIMJOGANG
 40
0.785398163397
  9
$DIMTFILL
 70
0
  9
$DIMTFILLCLR
 70
0
  9
$DIMARCSYM
 70
0
  9
$DIMLTYPE
  6

  9
$DIMLTEX1
  6

  9
$DIMLTEX2
  6

  9
$DIMTXTDIRECTION
 70
0
  9
$LUNITS
 70
2
  9
$LUPREC
 70
4
  9
$SKETCHINC
 40
1.0
  9
$FILLETRAD
 40
10.0
  9
$AUNITS
 70
0
  9
$AUPREC
 70
2
  9
$MENU
  1
.
  9
$ELEVATION
 40
0.0
  9
$PELEVATION
 40
0.0
  9
$THICKNESS
 40
0.0
  9
$LIMCHECK
 70
0
  9
$CHAMFERA
 40
0.0
  9
$CHAMFERB
 40
0.0
  9
$CHAMFERC
 40
0.0
  9
$CHAMFERD
 40
0.0
  9
$SKPOLY
 70
0
  9
$TDCREATE
 40
2460511.749085648
  9
$TDUCREATE
 40
2458532.153996898
  9
$TDUPDATE
 40
2460511.749085648
  9
$TDUUPDATE
 40
2458532.1544311
  9
$TDINDWG
 40
0.0
  9
$TDUSRTIMER
 40
0.0
  9
$USRTIMER
 70
1
  9
$ANGBASE
 50
0.0
  9
$ANGDIR
 70
0
  9
$PDMODE
 70
0
  9
$PDSIZE
 40
0.0
  9
$PLINEWID
 40
0.0
  9
$SPLFRAME
 70
0
  9
$SPLINETYPE
 70
6
  9
$SPLINESEGS
 70
8
  9
$HANDSEED
  5
191
  9
$SURFTAB1
 70
6
  9
$SURFTAB2
 70
6
  9
$SURFTYPE
 70
6
  9
$SURFU
 70
6
  9
$SURFV
 70
6
  9
$UCSBASE
  2

  9
$UCSNAME
  2

  9
$UCSORG
 10
0.0
 20
0.0
 30
0.0
  9
$UCSXDIR
 10
1.0
 20
0.0
 30
0.0
  9
$UCSYDIR
 10
0.0
 20
1.0
 30
0.0
  9
$UCSORTHOREF
  2

  9
$UCSORTHOVIEW
 70
0
  9
$UCSORGTOP
 10
0.0
 20
0.0
 30
0.0
  9
$UCSORGBOTTOM
 10
0.0
 20
0.0
 30
0.0
  9
$UCSORGLEFT
 10
0.0
 20
0.0
 30
0.0
  9
$UCSORGRIGHT
 10
0.0
 20
0.0
 30
0.0
  9
$UCSORGFRONT
 10
0.0
 20
0.0
 30
0.0
  9
$UCSORGBACK
 10
0.0
 20
0.0
 30
0.0
  9
$PUCSBASE
  2

  9
$PUCSNAME
  2

  9
$PUCSORG
 10
0.0
 20
0.0
 30
0.0
  9
$PUCSXDIR
 10
1.0
 20
0.0
 30
0.0
  9
$PUCSYDIR
 10
0.0
 20
1.0
 30
0.0
  9
$PUCSORTHOREF
  2

  9
$PUCSORTHOVIEW
 70
0
  9
$PUCSORGTOP
 10
0.0
 20
0.0
 30
0.0
  9
$PUCSORGBOTTOM
 10
0.0
 20
0.0
 30
0.0
  9
$PUCSORGLEFT
 10
0.0
 20
0.0
 30
0.0
  9
$PUCSORGRIGHT
 10
0.0
 20
0.0
 30
0.0
  9
$PUCSORGFRONT
 10
0.0
 20
0.0
 30
0.0
  9
$PUCSORGBACK
 10
0.0
 20
0.0
 30
0.0
  9
$USERI1
 70
0
  9
$USERI2
 70
0
  9
$USERI3
 70
0
  9
$USERI4
 70
0
  9
$USERI5
 70
0
  9
$USERR1
 40
0.0
  9
$USERR2
 40
0.0
  9
$USERR3
 40
0.0
  9
$USERR4
 40
0.0
  9
$USERR5
 40
0.0
  9
$WORLDVIEW
 70
1
  9
$SHADEDGE
 70
3
  9
$SHADEDIF
 70
70
  9
$TILEMODE
 70
1
  9
$MAXACTVP
 70
64
  9
$PINSBASE
 10
0.0
 20
0.0
 30
0.0
  9
$PLIMCHECK
 70
0
  9
$PEXTMIN
 10
1e+20
 20
1e+20
 30
1e+20
  9
$PEXTMAX
 10
-1e+20
 20
-1e+20
 30
-1e+20
  9
$PLIMMIN
 10
0.0
 20
0.0
  9
$PLIMMAX
 10
420.0
 20
297.0
  9
$UNITMODE
 70
0
  9
$VISRETAIN
 70
1
  9
$PLINEGEN
 70
0
  9
$PSLTSCALE
 70
1
  9
$TREEDEPTH
 70
3020
  9
$CMLSTYLE
  2
Standard
  9
$CMLJUST
 70
0
  9
$CMLSCALE
 40
20.0
  9
$PROXYGRAPHICS
 70
1
  9
$MEASUREMENT
 70
1
  9
$CELWEIGHT
370
-1
  9
$ENDCAPS
280
0
  9
$JOINSTYLE
280
0
  9
$LWDISPLAY
290
0
  9
$INSUNITS
 70
6
  9
$HYPERLINKBASE
  1

  9
$STYLESHEET
  1

  9
$XEDIT
290
1
  9
$CEPSNTYPE
380
0
  9
$PSTYLEMODE
290
1
  9
$FINGERPRINTGUID
  2
{CF2AC8D6-49E3-4455-824C-173176821C6D}
  9
$VERSIONGUID
  2
{C3C46960-4662-4BEA-9DA4-D79EC7E17C19}
  9
$EXTNAMES
290
1
  9
$PSVPSCALE
 40
0.0
  9
$OLESTARTUP
290
0
  9
$SORTENTS
280
127
  9
$INDEXCTL
280
0
  9
$HIDETEXT
280
1
  9
$XCLIPFRAME
280
1
  9
$HALOGAP
280
0
  9
$OBSCOLOR
 70
257
  9
$OBSLTYPE
280
0
  9
$INTERSECTIONDISPLAY
280
0
  9
$INTERSECTIONCOLOR
 70
257
  9
$DIMASSOC
280
2
  9
$PROJECTNAME
  1

  9
$CAMERADISPLAY
290
0
  9
$LENSLENGTH
 40
50.0
  9
$CAMERAHEIGHT
 40
0.0
  9
$STEPSPERSEC
 40
24.0
  9
$STEPSIZE
 40
100.0
  9
$3DDWFPREC
 40
2.0
  9
$PSOLWIDTH
 40
0.005
  9
$PSOLHEIGHT
 40
0.08
  9
$LOFTANG1
 40
1.570796326795
  9
$LOFTANG2
 40
1.570796326795
  9
$LOFTMAG1
 40
0.0
  9
$LOFTMAG2
 40
0.0
  9
$LOFTPARAM
 70
7
  9
$LOFTNORMALS
280
1
  9
$LATITUDE
 40
37.795
  9
$LONGITUDE
 40
-122.394
  9
$NORTHDIRECTION
 40
0.0
  9
$TIMEZONE
 70
-8000
  9
$LIGHTGLYPHDISPLAY
280
1
  9
$TILEMODELIGHTSYNCH
280
1
  9
$CMATERIAL
347
20
  9
$SOLIDHIST
280
0
  9
$SHOWHIST
280
1
  9
$DWFFRAME
280
2
  9
$DGNFRAME
280
2
  9
$REALWORLDSCALE
290
1
  9
$INTERFERECOLOR
 62
256
  9
$CSHADOW
280
0
  9
$SHADOWPLANELOCATION
 40
0.0
  0
ENDSEC
  0
SECTION
  2
CLASSES
  0
CLASS
  1
ACDBDICTIONARYWDFLT
  2
AcDbDictionaryWithDefault
  3
ObjectDBX Classes
 90
0
 91
0
280
0
281
0
  0
CLASS
  1
SUN
  2
AcDbSun
  3
SCENEOE
 90
1153
 91
0
280
0
281
0
  0
CLASS
  1
VISUALSTYLE
  2
AcDbVisualStyle
  3
ObjectDBX Classes
 90
4095
 91
0
280
0
281
0
  0
CLASS
  1
MATERIAL
  2
AcDbMaterial
  3
ObjectDBX Classes
 90
1153
 91
0
280
0
281
0
  0
CLASS
  1
SCALE
  2
AcDbScale
  3
ObjectDBX Classes
 90
1153
 91
0
280
0
281
0
  0
CLASS
  1
TABLESTYLE
  2
AcDbTableStyle
  3
ObjectDBX Classes
 90
4095
 91
0
280
0
281
0
  0
CLASS
  1
MLEADERSTYLE
  2
AcDbMLeaderStyle
  3
ACDB_MLEADERSTYLE_CLASS
 90
4095
 91
0
280
0
281
0
  0
CLASS
  1
DICTIONARYVAR
  2
AcDbDictionaryVar
  3
ObjectDBX Classes
 90
0
 91
0
280
0
281
0
  0
CLASS
  1
CELLSTYLEMAP
  2
AcDbCellStyleMap
  3
ObjectDBX Classes
 90
1152
 91
0
280
0
281
0
  0
CLASS
  1
MENTALRAYRENDERSETTINGS
  2
AcDbMentalRayRenderSettings
  3
SCENEOE
 90
1024
 91
0
280
0
281
0
  0
CLASS
  1
ACDBDETAILVIEWSTYLE
  2
AcDbDetailViewStyle
  3
ObjectDBX Classes
 90
1025
 91
0
280
0
281
0
  0
CLASS
  1
ACDBSECTIONVIEWSTYLE
  2
AcDbSectionViewStyle
  3
ObjectDBX Classes
 90
1025
 91
0
280
0
281
0
  0
CLASS
  1
RASTERVARIABLES
  2
AcDbRasterVariables
  3
ISM
 90
0
 91
0
280
0
281
0
  0
CLASS
  1
ACDBPLACEHOLDER
  2
AcDbPlaceHolder
  3
ObjectDBX Classes
 90
0
 91
0
280
0
281
0
  0
CLASS
  1
LAYOUT
  2
AcDbLayout
  3
ObjectDBX Classes
 90
0
 91
0
280
0
281
0
  0
ENDSEC
  0
SECTION
  2
TABLES
  0
TABLE
  2
VPORT
  5
8
330
0
100
AcDbSymbolTable
 70
1
  0
VPORT
  5
23
330
8
100
AcDbSymbolTableRecord
100
AcDbViewportTableRecord
  2
*Active
 70
0
 10
0.0
 20
0.0
 11
1.0
 21
1.0
 12
0.0
 22
0.0
 13
0.0
 23
0.0
 14
0.5
 24
0.5
 15
0.5
 25
0.5
 16
0.0
 26
0.0
 36
1.0
 17
0.0
 27
0.0
 37
0.0
 40
1000.0
 41
1.34
 42
50.0
 43
0.0
 44
0.0
 50
0.0
 51
0.0
 71
0
 72
1000
 73
1
 74
3
 75
0
 76
0
 77
0
 78
0
281
0
 65
0
146
0.0
  0
ENDTAB
  0
TABLE
  2
LTYPE
  5
2
330
0
100
AcDbSymbolTable
 70
3
  0
LTYPE
  5
24
330
2
100
AcDbSymbolTableRecord
100
AcDbLinetypeTableRecord
  2
ByBlock
 70
0
  3

 72
65
 73
0
 40
0.0
  0
LTYPE
  5
25
330
2
100
AcDbSymbolTableRecord
100
AcDbLinetypeTableRecord
  2
ByLayer
 70
0
  3

 72
65
 73
0
 40
0.0
  0
LTYPE
  5
26
330
2
100
AcDbSymbolTableRecord
100
AcDbLinetypeTableRecord
  2
Continuous
 70
0
  3

 72
65
 73
0
 40
0.0
  0
ENDTAB
  0
TABLE
  2
LAYER
  5
1
330
0
100
AcDbSymbolTable
 70
30
  0
LAYER
  5
27
330
1
100
AcDbSymbolTableRecord
100
AcDbLayerTableRecord
  2
0
 70
0
 62
7
  6
Continuous
370
-3
390
13
347
21
  0
LAYER
  5
28
330
1
100
AcDbSymbolTableRecord
100
AcDbLayerTableRecord
  2
Defpoints
 70
0
 62
7
  6
Continuous
290
0
370
-3
390
13
347
21
  0
LAYER
  5
2F
330
1
100
AcDbSymbolTableRecord
100
AcDbLayerTableRecord
  2
Parking
 70
0
 62
7
  6
Continuous
370
-3
390
13
347
21
  0
LAYER
  5
31
330
1
100
AcDbSymbolTableRecord
100
AcDbLayerTableRecord
  2
Garden
 70
0
 62
7
  6
Continuous
370
-3
390
13
347
21
  0
LAYER
  5
34
330
1
100
AcDbSymbolTableRecord
100
AcDbLayerTableRecord
  2
Boundary
 70
0
 62
7
  6
Continuous
370
-3
390
13
347
21
  0
LAYER
  5
3F
330
1
100
AcDbSymbolTableRecord
100
AcDbLayerTableRecord
  2
BedRoom1
 70
0
 62
7
  6
Continuous
370
-3
390
13
347
21
  0
LAYER
  5
45
330
1
100
AcDbSymbolTableRecord
100
AcDbLayerTableRecord
  2
WashArea
 70
0
 62
7
  6
Continuous
370
-3
390
13
347
21
  0
LAYER
  5
48
330
1
100
AcDbSymbolTableRecord
100
AcDbLayerTableRecord
  2
Kitchen
 70
0
 62
7
  6
Continuous
370
-3
390
13
347
21
  0
LAYER
  5
50
330
1
100
AcDbSymbolTableRecord
100
AcDbLayerTableRecord
  2
StoreRoom
 70
0
 62
7
  6
Continuous
370
-3
390
13
347
21
  0
LAYER
  5
60
330
1
100
AcDbSymbolTableRecord
100
AcDbLayerTableRecord
  2
Closet1
 70
0
 62
7
  6
Continuous
370
-3
390
13
347
21
  0
LAYER
  5
63
330
1
100
AcDbSymbolTableRecord
100
AcDbLayerTableRecord
  2
BathRoom1
 70
0
 62
7
  6
Continuous
370
-3
390
13
347
21
  0
LAYER
  5
68
330
1
100
AcDbSymbolTableRecord
100
AcDbLayerTableRecord
  2
LivingRoom1
 70
0
 62
7
  6
Continuous
370
-3
390
13
347
21
  0
LAYER
  5
74
330
1
100
AcDbSymbolTableRecord
100
AcDbLayerTableRecord
  2
Staircase
 70
0
 62
7
  6
Continuous
370
-3
390
13
347
21
  0
LAYER
  5
81
330
1
100
AcDbSymbolTableRecord
100
AcDbLayerTableRecord
  2
DiningRoom
 70
0
 62
7
  6
Continuous
370
-3
390
13
347
21
  0
LAYER
  5
A8
330
1
100
AcDbSymbolTableRecord
100
AcDbLayerTableRecord
  2
BathRoom2
 70
0
 62
7
  6
Continuous
370
-3
390
13
347
21
  0
LAYER
  5
AC
330
1
100
AcDbSymbolTableRecord
100
AcDbLayerTableRecord
  2
Setbacks
 70
0
 62
7
  6
Continuous
370
-3
390
13
347
21
  0
LAYER
  5
B7
330
1
100
AcDbSymbolTableRecord
100
AcDbLayerTableRecord
  2
PoojaRoom
 70
0
 62
7
  6
Continuous
370
-3
390
13
347
21
  0
LAYER
  5
C1
330
1
100
AcDbSymbolTableRecord
100
AcDbLayerTableRecord
  2
Entrance_Staircase
 70
0
 62
7
  6
Continuous
370
-3
390
13
347
21
  0
LAYER
  5
E5
330
1
100
AcDbSymbolTableRecord
100
AcDbLayerTableRecord
  2
Balcony1
 70
0
 62
7
  6
Continuous
370
-3
390
13
347
21
  0
LAYER
  5
E7
330
1
100
AcDbSymbolTableRecord
100
AcDbLayerTableRecord
  2
BathRoom2b
 70
0
 62
7
  6
Continuous
370
-3
390
13
347
21
  0
LAYER
  5
F0
330
1
100
AcDbSymbolTableRecord
100
AcDbLayerTableRecord
  2
Balcony2
 70
0
 62
7
  6
Continuous
370
-3
390
13
347
21
  0
LAYER
  5
FE
330
1
100
AcDbSymbolTableRecord
100
AcDbLayerTableRecord
  2
BedRoom1a
 70
0
 62
7
  6
Continuous
370
-3
390
13
347
21
  0
LAYER
  5
101
330
1
100
AcDbSymbolTableRecord
100
AcDbLayerTableRecord
  2
Closet2
 70
0
 62
7
  6
Continuous
370
-3
390
13
347
21
  0
LAYER
  5
106
330
1
100
AcDbSymbolTableRecord
100
AcDbLayerTableRecord
  2
BedRoom2a
 70
0
 62
7
  6
Continuous
370
-3
390
13
347
21
  0
LAYER
  5
116
330
1
100
AcDbSymbolTableRecord
100
AcDbLayerTableRecord
  2
Walkway
 70
0
 62
7
  6
Continuous
370
-3
390
13
347
21
  0
LAYER
  5
123
330
1
100
AcDbSymbolTableRecord
100
AcDbLayerTableRecord
  2
BathRoom1a
 70
0
 62
7
  6
Continuous
370
-3
390
13
347
21
  0
LAYER
  5
126
330
1
100
AcDbSymbolTableRecord
100
AcDbLayerTableRecord
  2
Closet3
 70
0
 62
7
  6
Continuous
370
-3
390
13
347
21
  0
LAYER
  5
12D
330
1
100
AcDbSymbolTableRecord
100
AcDbLayerTableRecord
  2
LivingRoom2
 70
0
 62
7
  6
Continuous
370
-3
390
13
347
21
  0
LAYER
  5
14F
330
1
100
AcDbSymbolTableRecord
100
AcDbLayerTableRecord
  2
OTS
 70
0
 62
7
  6
Continuous
370
-3
390
13
347
21
  0
LAYER
  5
155
330
1
100
AcDbSymbolTableRecord
100
AcDbLayerTableRecord
  2
BathRoom2a
 70
0
 62
7
  6
Continuous
370
-3
390
13
347
21
  0
ENDTAB
  0
TABLE
  2
STYLE
  5
5
330
0
100
AcDbSymbolTable
 70
1
  0
STYLE
  5
29
330
5
100
AcDbSymbolTableRecord
100
AcDbTextStyleTableRecord
  2
Standard
 70
0
 40
0.0
 41
1.0
 50
0.0
 71
0
 42
2.5
  3
txt
  4

  0
ENDTAB
  0
TABLE
  2
VIEW
  5
7
330
0
100
AcDbSymbolTable
 70
0
  0
ENDTAB
  0
TABLE
  2
UCS
  5
6
330
0
100
AcDbSymbolTable
 70
0
  0
ENDTAB
  0
TABLE
  2
APPID
  5
3
330
0
100
AcDbSymbolTable
 70
3
  0
APPID
  5
2A
330
3
100
AcDbSymbolTableRecord
100
AcDbRegAppTableRecord
  2
ACAD
 70
0
  0
APPID
  5
18E
330
3
100
AcDbSymbolTableRecord
100
AcDbRegAppTableRecord
  2
HATCHBACKGROUNDCOLOR
 70
0
  0
APPID
  5
18F
330
3
100
AcDbSymbolTableRecord
100
AcDbRegAppTableRecord
  2
EZDXF
 70
0
  0
ENDTAB
  0
TABLE
  2
DIMSTYLE
  5
4
330
0
100
AcDbSymbolTable
 70
1
100
AcDbDimStyleTable
  0
DIMSTYLE
105
2B
330
4
100
AcDbSymbolTableRecord
100
AcDbDimStyleTableRecord
  2
Standard
 70
0
 40
1.0
 41
2.5
 42
0.625
 43
3.75
 44
1.25
 45
0.0
 46
0.0
 47
0.0
 48
0.0
 49
2.5
140
2.5
141
2.5
142
0.0
143
0.03937007874
144
1.0
145
0.0
146
1.0
147
0.625
148
0.0
 69
0
 70
0
 71
0
 72
0
 73
0
 74
0
 75
0
 76
0
 77
1
 78
8
 79
3
170
0
171
3
172
1
173
0
174
0
175
0
176
0
177
0
178
0
179
2
271
2
272
2
273
2
274
3
275
0
276
0
277
2
278
44
279
0
280
0
281
0
282
0
283
0
284
8
285
0
286
0
288
0
289
3
290
0
371
-2
372
-2
  0
ENDTAB
  0
TABLE
  2
BLOCK_RECORD
  5
9
330
0
100
AcDbSymbolTable
 70
2
  0
BLOCK_RECORD
  5
17
330
9
100
AcDbSymbolTableRecord
100
AcDbBlockTableRecord
  2
*Model_Space
340
1A
 70
0
280
1
281
0
  0
BLOCK_RECORD
  5
1B
330
9
100
AcDbSymbolTableRecord
100
AcDbBlockTableRecord
  2
*Paper_Space
340
1E
 70
0
280
1
281
0
  0
ENDTAB
  0
ENDSEC
  0
SECTION
  2
BLOCKS
  0
BLOCK
  5
18
330
17
100
AcDbEntity
  8
0
100
AcDbBlockBegin
  2
*Model_Space
 70
0
 10
0.0
 20
0.0
 30
0.0
  3
*Model_Space
  1

  0
ENDBLK
  5
19
330
17
100
AcDbEntity
  8
0
100
AcDbBlockEnd
  0
BLOCK
  5
1C
330
1B
100
AcDbEntity
  8
0
100
AcDbBlockBegin
  2
*Paper_Space
 70
0
 10
0.0
 20
0.0
 30
0.0
  3
*Paper_Space
  1

  0
ENDBLK
  5
1D
330
1B
100
AcDbEntity
  8
0
100
AcDbBlockEnd
  0
ENDSEC
  0
SECTION
  2
ENTITIES
  0
LINE
  5
30
330
17
100
AcDbEntity
  8
Parking
100
AcDbLine
 10
139.0
 20
0.0
 30
0.0
 11
470.8628766143594
 21
0.0
 31
0.0
  0
LINE
  5
32
330
17
100
AcDbEntity
  8
Garden
100
AcDbLine
 10
139.0
 20
0.0
 30
0.0
 11
139.0
 21
154.5009375663961
 31
0.0
  0
LINE
  5
33
330
17
100
AcDbEntity
  8
Garden
100
AcDbLine
 10
9.0
 20
8.999999999999773
 30
0.0
 11
9.0
 21
381.5499687477867
 31
0.0
  0
LINE
  5
35
330
17
100
AcDbEntity
  8
Boundary
100
AcDbLine
 10
0.0
 20
0.0
 30
0.0
 11
139.0
 21
0.0
 31
0.0
  0
LINE
  5
36
330
17
100
AcDbEntity
  8
Garden
100
AcDbLine
 10
9.0
 20
8.999999999999773
 30
0.0
 11
139.0
 21
8.999999999999773
 31
0.0
  0
LINE
  5
37
330
17
100
AcDbEntity
  8
Boundary
100
AcDbLine
 10
0.0
 20
0.0
 30
0.0
 11
0.0
 21
612.0
 31
0.0
  0
LINE
  5
38
330
17
100
AcDbEntity
  8
Parking
100
AcDbLine
 10
470.8628766143594
 20
0.0
 30
0.0
 11
473.9252988936681
 21
53.200343774345335
 31
0.0
  0
LINE
  5
39
330
17
100
AcDbEntity
  8
Boundary
100
AcDbLine
 10
480.0
 20
0.0
 30
0.0
 11
490.0
 21
53.200343774345335
 31
0.0
  0
MTEXT
  5
3A
330
17
100
AcDbEntity
  8
Garden
100
AcDbMText
 10
55.46429780628692
 20
72.60288578636215
 30
0.0
 40
2.5
 71
1
  1
GARDEN
  0
MTEXT
  5
3B
330
17
100
AcDbEntity
  8
Parking
100
AcDbMText
 10
287.38335404171346
 20
72.16754444035456
 30
0.0
 40
2.5
 71
1
  1
PARKING
  0
LINE
  5
3C
330
17
100
AcDbEntity
  8
Parking
100
AcDbLine
 10
470.8628766143594
 20
53.200343774345335
 30
0.0
 11
473.9252988936681
 21
130.45081255754351
 31
0.0
  0
LINE
  5
3D
330
17
100
AcDbEntity
  8
Boundary
100
AcDbLine
 10
480.0
 20
53.200343774345335
 30
0.0
 11
490.0
 21
130.45081255754351
 31
0.0
  0
LINE
  5
3E
330
17
100
AcDbEntity
  8
Parking
100
AcDbLine
 10
139.0
 20
154.5009375663961
 30
0.0
 11
473.9252988936681
 21
154.5009375663961
 31
0.0
  0
LINE
  5
40
330
17
100
AcDbEntity
  8
BedRoom1
100
AcDbLine
 10
41.99999999999999
 20
163.50093756639632
 30
0.0
 11
42.00000000000001
 21
313.3010625752488
 31
0.0
  0
LINE
  5
41
330
17
100
AcDbEntity
  8
BedRoom1
100
AcDbLine
 10
210.0
 20
163.50093756639603
 30
0.0
 11
210.0
 21
281.43431256934684
 31
0.0
  0
LINE
  5
42
330
17
100
AcDbEntity
  8
Garden
100
AcDbLine
 10
32.99999999999999
 20
154.5009375663961
 30
0.0
 11
32.99999999999999
 21
381.5499687477867
 31
0.0
  0
LINE
  5
43
330
17
100
AcDbEntity
  8
Garden
100
AcDbLine
 10
32.99999999999999
 20
154.5009375663961
 30
0.0
 11
139.0
 21
154.5009375663961
 31
0.0
  0
LINE
  5
44
330
17
100
AcDbEntity
  8
BedRoom1
100
AcDbLine
 10
41.99999999999998
 20
163.50093756639603
 30
0.0
 11
209.99999999999991
 21
163.50093756639603
 31
0.0
  0
LINE
  5
46
330
17
100
AcDbEntity
  8
WashArea
100
AcDbLine
 10
214.99999999999991
 20
163.50093756639603
 30
0.0
 11
286.7222222222222
 21
163.50093756639603
 31
0.0
  0
LINE
  5
47
330
17
100
AcDbEntity
  8
WashArea
100
AcDbLine
 10
215.0
 20
163.50093756639603
 30
0.0
 11
215.0
 21
215.43431256934696
 31
0.0
  0
LINE
  5
49
330
17
100
AcDbEntity
  8
Kitchen
100
AcDbLine
 10
291.7222222222223
 20
163.50093756639603
 30
0.0
 11
423.9999999999999
 21
163.50093756639603
 31
0.0
  0
LINE
  5
4A
330
17
100
AcDbEntity
  8
Kitchen
100
AcDbLine
 10
291.7222222222223
 20
163.50093756639592
 30
0.0
 11
291.7222222222223
 21
191.43431256934724
 31
0.0
  0
LINE
  5
4B
330
17
100
AcDbEntity
  8
WashArea
100
AcDbLine
 10
286.7222222222222
 20
163.50093756639592
 30
0.0
 11
286.7222222222222
 21
191.43431256934724
 31
0.0
  0
LINE
  5
4C
330
17
100
AcDbEntity
  8
Parking
100
AcDbLine
 10
470.8628766143594
 20
130.45081255754351
 30
0.0
 11
473.9252988936681
 21
154.5009375663961
 31
0.0
  0
LINE
  5
4D
330
17
100
AcDbEntity
  8
Boundary
100
AcDbLine
 10
480.0
 20
130.45081255754351
 30
0.0
 11
490.0
 21
177.21762506787184
 31
0.0
  0
LINE
  5
4E
330
17
100
AcDbEntity
  8
Kitchen
100
AcDbLine
 10
424.0000000000001
 20
163.50093756639592
 30
0.0
 11
424.0000000000001
 21
313.3010625752488
 31
0.0
  0
MTEXT
  5
4F
330
17
100
AcDbEntity
  8
BedRoom1
100
AcDbMText
 10
98.12383997487571
 20
237.09808640905914
 30
0.0
 40
2.5
 71
1
  1
BEDROOM1
  0
MTEXT
  5
51
330
17
100
AcDbEntity
  8
StoreRoom
100
AcDbMText
 10
227.8638175429763
 20
244.93908874971942
 30
0.0
 40
2.5
 71
1
  1
STOREROOM
  0
MTEXT
  5
52
330
17
100
AcDbEntity
  8
WashArea
100
AcDbMText
 10
229.2430962834872
 20
194.61318718350583
 30
0.0
 40
2.5
 71
1
  1
WASHAREA
  0
LINE
  5
53
330
17
100
AcDbEntity
  8
StoreRoom
100
AcDbLine
 10
215.0
 20
263.43431256934684
 30
0.0
 11
286.7222222222222
 21
263.43431256934684
 31
0.0
  0
LINE
  5
54
330
17
100
AcDbEntity
  8
WashArea
100
AcDbLine
 10
215.0
 20
215.43431256934696
 30
0.0
 11
291.7222222222223
 21
215.43431256934696
 31
0.0
  0
LINE
  5
55
330
17
100
AcDbEntity
  8
Kitchen
100
AcDbLine
 10
214.99999999999991
 20
268.43431256934696
 30
0.0
 11
291.7222222222223
 21
268.434312569347
 31
0.0
  0
LINE
  5
56
330
17
100
AcDbEntity
  8
StoreRoom
100
AcDbLine
 10
215.0
 20
220.43431256934696
 30
0.0
 11
291.7222222222223
 21
220.43431256934696
 31
0.0
  0
LINE
  5
57
330
17
100
AcDbEntity
  8
Kitchen
100
AcDbLine
 10
215.0
 20
268.43431256934696
 30
0.0
 11
215.0
 21
281.43431256934684
 31
0.0
  0
LINE
  5
58
330
17
100
AcDbEntity
  8
BedRoom1
100
AcDbLine
 10
210.0
 20
281.43431256934684
 30
0.0
 11
215.0
 21
281.43431256934696
 31
0.0
  0
LINE
  5
59
330
17
100
AcDbEntity
  8
StoreRoom
100
AcDbLine
 10
215.0
 20
220.43431256934696
 30
0.0
 11
215.0
 21
263.43431256934684
 31
0.0
  0
MTEXT
  5
5A
330
17
100
AcDbEntity
  8
Kitchen
100
AcDbMText
 10
340.5839765487426
 20
243.19866650770382
 30
0.0
 40
2.5
 71
1
  1
KITCHEN
  0
LINE
  5
5B
330
17
100
AcDbEntity
  8
Kitchen
100
AcDbLine
 10
291.7222222222223
 20
244.43431256934696
 30
0.0
 11
291.7222222222223
 21
268.43431256934696
 31
0.0
  0
LINE
  5
5C
330
17
100
AcDbEntity
  8
StoreRoom
100
AcDbLine
 10
286.7222222222222
 20
244.43431256934696
 30
0.0
 11
286.7222222222222
 21
263.43431256934684
 31
0.0
  0
LINE
  5
5D
330
17
100
AcDbEntity
  8
WashArea
100
AcDbLine
 10
286.7222222222222
 20
191.43431256934724
 30
0.0
 11
291.7222222222223
 21
191.43431256934724
 31
0.0
  0
LINE
  5
5E
330
17
100
AcDbEntity
  8
StoreRoom
100
AcDbLine
 10
286.7222222222222
 20
244.43431256934696
 30
0.0
 11
291.7222222222223
 21
244.43431256934696
 31
0.0
  0
LINE
  5
5F
330
17
100
AcDbEntity
  8
Boundary
100
AcDbLine
 10
480.0
 20
177.21762506787184
 30
0.0
 11
490.0
 21
297.1176875722982
 31
0.0
  0
LINE
  5
61
330
17
100
AcDbEntity
  8
Closet1
100
AcDbLine
 10
137.6011417679941
 20
318.30106257524886
 30
0.0
 11
180.0
 21
318.30106257524886
 31
0.0
  0
LINE
  5
62
330
17
100
AcDbEntity
  8
BedRoom1
100
AcDbLine
 10
42.0
 20
313.3010625752488
 30
0.0
 11
180.0
 21
313.3010625752488
 31
0.0
  0
LINE
  5
64
330
17
100
AcDbEntity
  8
BathRoom1
100
AcDbLine
 10
42.0
 20
318.3010625752488
 30
0.0
 11
137.6011417679941
 21
318.30106257524886
 31
0.0
  0
LINE
  5
65
330
17
100
AcDbEntity
  8
BathRoom1
100
AcDbLine
 10
41.99999999999999
 20
318.3010625752488
 30
0.0
 11
42.0
 21
381.5499687477867
 31
0.0
  0
LINE
  5
66
330
17
100
AcDbEntity
  8
BedRoom1
100
AcDbLine
 10
210.0
 20
313.3010625752488
 30
0.0
 11
215.0
 21
313.3010625752488
 31
0.0
  0
LINE
  5
67
330
17
100
AcDbEntity
  8
Closet1
100
AcDbLine
 10
180.0
 20
313.3010625752488
 30
0.0
 11
180.0
 21
318.30106257524886
 31
0.0
  0
LINE
  5
69
330
17
100
AcDbEntity
  8
LivingRoom1
100
AcDbLine
 10
215.0
 20
313.3010625752488
 30
0.0
 11
215.0
 21
386.5499687477867
 31
0.0
  0
LINE
  5
6A
330
17
100
AcDbEntity
  8
Closet1
100
AcDbLine
 10
210.0
 20
313.3010625752488
 30
0.0
 11
210.0
 21
381.5499687477867
 31
0.0
  0
LINE
  5
6B
330
17
100
AcDbEntity
  8
Kitchen
100
AcDbLine
 10
286.7222222222223
 20
313.3010625752487
 30
0.0
 11
423.9999999999999
 21
313.3010625752488
 31
0.0
  0
LINE
  5
6C
330
17
100
AcDbEntity
  8
LivingRoom1
100
AcDbLine
 10
286.7222222222223
 20
318.3010625752488
 30
0.0
 11
424.0000000000001
 21
318.3010625752488
 31
0.0
  0
LINE
  5
6D
330
17
100
AcDbEntity
  8
Kitchen
100
AcDbLine
 10
286.7222222222223
 20
313.3010625752488
 30
0.0
 11
286.7222222222223
 21
318.3010625752488
 31
0.0
  0
LINE
  5
6E
330
17
100
AcDbEntity
  8
Boundary
100
AcDbLine
 10
480.0
 20
297.1176875722982
 30
0.0
 11
490.0
 21
332.0177500767246
 31
0.0
  0
LINE
  5
6F
330
17
100
AcDbEntity
  8
LivingRoom1
100
AcDbLine
 10
423.9999999999999
 20
318.3010625752488
 30
0.0
 11
424.0000000000001
 21
446.5499687477867
 31
0.0
  0
LINE
  5
70
330
17
100
AcDbEntity
  8
BathRoom1
100
AcDbLine
 10
132.0
 20
346.23443757819973
 30
0.0
 11
132.0
 21
381.5499687477867
 31
0.0
  0
LINE
  5
71
330
17
100
AcDbEntity
  8
BathRoom1
100
AcDbLine
 10
132.0
 20
346.23443757819985
 30
0.0
 11
137.99999999999991
 21
346.23443757819985
 31
0.0
  0
LINE
  5
72
330
17
100
AcDbEntity
  8
Closet1
100
AcDbLine
 10
137.99999999999991
 20
346.23443757819985
 30
0.0
 11
137.99999999999991
 21
381.5499687477867
 31
0.0
  0
LINE
  5
73
330
17
100
AcDbEntity
  8
Boundary
100
AcDbLine
 10
480.0
 20
332.0177500767246
 30
0.0
 11
490.0
 21
363.72060945750354
 31
0.0
  0
LINE
  5
75
330
17
100
AcDbEntity
  8
Staircase
100
AcDbLine
 10
73.00000000000004
 20
386.5499687477867
 30
0.0
 11
73.00000000000004
 21
424.54996874778675
 31
0.0
  0
LINE
  5
76
330
17
100
AcDbEntity
  8
Staircase
100
AcDbLine
 10
83.00000000000001
 20
386.5499687477867
 30
0.0
 11
83.00000000000001
 21
424.54996874778675
 31
0.0
  0
LINE
  5
77
330
17
100
AcDbEntity
  8
Staircase
100
AcDbLine
 10
93.00000000000001
 20
386.5499687477867
 30
0.0
 11
93.00000000000001
 21
424.54996874778675
 31
0.0
  0
LINE
  5
78
330
17
100
AcDbEntity
  8
Staircase
100
AcDbLine
 10
103.00000000000001
 20
386.5499687477867
 30
0.0
 11
103.00000000000001
 21
424.54996874778675
 31
0.0
  0
LINE
  5
79
330
17
100
AcDbEntity
  8
Staircase
100
AcDbLine
 10
133.0
 20
424.54996874778675
 30
0.0
 11
133.0
 21
470.5499687477867
 31
0.0
  0
LINE
  5
7A
330
17
100
AcDbEntity
  8
Staircase
100
AcDbLine
 10
113.0
 20
432.5499687477867
 30
0.0
 11
113.0
 21
470.5499687477867
 31
0.0
  0
LINE
  5
7B
330
17
100
AcDbEntity
  8
Staircase
100
AcDbLine
 10
103.00000000000001
 20
432.5499687477867
 30
0.0
 11
103.00000000000001
 21
470.5499687477867
 31
0.0
  0
LINE
  5
7C
330
17
100
AcDbEntity
  8
Staircase
100
AcDbLine
 10
63.00000000000004
 20
386.5499687477867
 30
0.0
 11
63.00000000000006
 21
424.54996874778675
 31
0.0
  0
LINE
  5
7D
330
17
100
AcDbEntity
  8
Staircase
100
AcDbLine
 10
93.00000000000001
 20
432.5499687477867
 30
0.0
 11
93.00000000000001
 21
470.5499687477867
 31
0.0
  0
LINE
  5
7E
330
17
100
AcDbEntity
  8
Staircase
100
AcDbLine
 10
73.00000000000004
 20
432.5499687477867
 30
0.0
 11
73.00000000000007
 21
470.5499687477867
 31
0.0
  0
LINE
  5
7F
330
17
100
AcDbEntity
  8
Staircase
100
AcDbLine
 10
63.00000000000006
 20
432.5499687477867
 30
0.0
 11
63.00000000000007
 21
470.5499687477867
 31
0.0
  0
LINE
  5
80
330
17
100
AcDbEntity
  8
Staircase
100
AcDbLine
 10
53.00000000000006
 20
432.5499687477867
 30
0.0
 11
53.00000000000006
 21
470.5499687477867
 31
0.0
  0
LINE
  5
82
330
17
100
AcDbEntity
  8
DiningRoom
100
AcDbLine
 10
143.0
 20
505.5499687477859
 30
0.0
 11
341.7222222222224
 21
505.5499687477866
 31
0.0
  0
LINE
  5
83
330
17
100
AcDbEntity
  8
Staircase
100
AcDbLine
 10
83.00000000000001
 20
432.5499687477867
 30
0.0
 11
83.00000000000001
 21
470.5499687477867
 31
0.0
  0
LINE
  5
84
330
17
100
AcDbEntity
  8
Staircase
100
AcDbLine
 10
53.00000000000004
 20
386.5499687477867
 30
0.0
 11
53.00000000000006
 21
424.54996874778675
 31
0.0
  0
LINE
  5
85
330
17
100
AcDbEntity
  8
Staircase
100
AcDbLine
 10
43.00000000000006
 20
432.5499687477867
 30
0.0
 11
133.0
 21
432.5499687477867
 31
0.0
  0
LINE
  5
86
330
17
100
AcDbEntity
  8
Staircase
100
AcDbLine
 10
43.00000000000006
 20
424.5499687477867
 30
0.0
 11
133.0
 21
424.5499687477867
 31
0.0
  0
LINE
  5
87
330
17
100
AcDbEntity
  8
Staircase
100
AcDbLine
 10
9.0
 20
434.5499687477867
 30
0.0
 11
43.00000000000006
 21
434.5499687477867
 31
0.0
  0
LINE
  5
88
330
17
100
AcDbEntity
  8
Staircase
100
AcDbLine
 10
9.0
 20
422.5499687477867
 30
0.0
 11
43.00000000000006
 21
422.54996874778675
 31
0.0
  0
LINE
  5
89
330
17
100
AcDbEntity
  8
Staircase
100
AcDbLine
 10
133.0
 20
432.5499687477867
 30
0.0
 11
133.0
 21
470.5499687477867
 31
0.0
  0
LINE
  5
8A
330
17
100
AcDbEntity
  8
Staircase
100
AcDbLine
 10
123.0
 20
432.5499687477867
 30
0.0
 11
123.0
 21
470.5499687477867
 31
0.0
  0
LINE
  5
8B
330
17
100
AcDbEntity
  8
Staircase
100
AcDbLine
 10
113.0
 20
432.5499687477867
 30
0.0
 11
113.0
 21
470.5499687477867
 31
0.0
  0
LINE
  5
8C
330
17
100
AcDbEntity
  8
Staircase
100
AcDbLine
 10
103.00000000000001
 20
432.5499687477867
 30
0.0
 11
103.00000000000001
 21
470.5499687477867
 31
0.0
  0
LINE
  5
8D
330
17
100
AcDbEntity
  8
Staircase
100
AcDbLine
 10
93.00000000000001
 20
432.5499687477867
 30
0.0
 11
93.00000000000001
 21
470.5499687477867
 31
0.0
  0
LINE
  5
8E
330
17
100
AcDbEntity
  8
Staircase
100
AcDbLine
 10
83.00000000000001
 20
432.5499687477867
 30
0.0
 11
83.00000000000001
 21
470.5499687477867
 31
0.0
  0
LINE
  5
8F
330
17
100
AcDbEntity
  8
Staircase
100
AcDbLine
 10
73.00000000000004
 20
432.5499687477867
 30
0.0
 11
73.00000000000004
 21
470.5499687477867
 31
0.0
  0
LINE
  5
90
330
17
100
AcDbEntity
  8
Staircase
100
AcDbLine
 10
63.00000000000006
 20
432.5499687477867
 30
0.0
 11
63.00000000000006
 21
470.5499687477867
 31
0.0
  0
LINE
  5
91
330
17
100
AcDbEntity
  8
Staircase
100
AcDbLine
 10
53.00000000000006
 20
432.5499687477867
 30
0.0
 11
53.00000000000006
 21
470.5499687477867
 31
0.0
  0
LINE
  5
92
330
17
100
AcDbEntity
  8
Staircase
100
AcDbLine
 10
43.00000000000006
 20
386.5499687477867
 30
0.0
 11
43.00000000000006
 21
470.5499687477867
 31
0.0
  0
MTEXT
  5
93
330
17
100
AcDbEntity
  8
Staircase
100
AcDbMText
 10
116.8264195393852
 20
452.115912680017
 30
0.0
 40
2.5
 71
1
  1
17
  0
MTEXT
  5
94
330
17
100
AcDbEntity
  8
Staircase
100
AcDbMText
 10
106.3901899469523
 20
452.115912680017
 30
0.0
 40
2.5
 71
1
  1
16
  0
MTEXT
  5
95
330
17
100
AcDbEntity
  8
Staircase
100
AcDbMText
 10
96.18676671940861
 20
452.115912680017
 30
0.0
 40
2.5
 71
1
  1
15
  0
MTEXT
  5
96
330
17
100
AcDbEntity
  8
Staircase
100
AcDbMText
 10
86.64400445054281
 20
452.115912680017
 30
0.0
 40
2.5
 71
1
  1
14
  0
MTEXT
  5
97
330
17
100
AcDbEntity
  8
Staircase
100
AcDbMText
 10
76.64363230372633
 20
452.115912680017
 30
0.0
 40
2.5
 71
1
  1
13
  0
MTEXT
  5
98
330
17
100
AcDbEntity
  8
Staircase
100
AcDbMText
 10
65.9997755317848
 20
452.115912680017
 30
0.0
 40
2.5
 71
1
  1
12
  0
MTEXT
  5
99
330
17
100
AcDbEntity
  8
Staircase
100
AcDbMText
 10
56.23678584863168
 20
452.115912680017
 30
0.0
 40
2.5
 71
1
  1
11
  0
MTEXT
  5
9A
330
17
100
AcDbEntity
  8
Staircase
100
AcDbMText
 10
46.10675047500203
 20
452.115912680017
 30
0.0
 40
2.5
 71
1
  1
10
  0
MTEXT
  5
9B
330
17
100
AcDbEntity
  8
Staircase
100
AcDbMText
 10
25.26036441108893
 20
452.115912680017
 30
0.0
 40
2.5
 71
1
  1
9
  0
MTEXT
  5
9C
330
17
100
AcDbEntity
  8
Staircase
100
AcDbMText
 10
25.67021703493812
 20
426.8196486061581
 30
0.0
 40
2.5
 71
1
  1
8
  0
MTEXT
  5
9D
330
17
100
AcDbEntity
  8
Staircase
100
AcDbMText
 10
25.67021703493812
 20
405.60072568915825
 30
0.0
 40
2.5
 71
1
  1
7
  0
MTEXT
  5
9E
330
17
100
AcDbEntity
  8
Staircase
100
AcDbMText
 10
45.27358123441749
 20
404.78632871537945
 30
0.0
 40
2.5
 71
1
  1
6
  0
MTEXT
  5
9F
330
17
100
AcDbEntity
  8
Staircase
100
AcDbMText
 10
55.13750819578702
 20
404.80186000949226
 30
0.0
 40
2.5
 71
1
  1
5
  0
MTEXT
  5
A0
330
17
100
AcDbEntity
  8
Staircase
100
AcDbMText
 10
64.72338006734012
 20
404.80186000949226
 30
0.0
 40
2.5
 71
1
  1
4
  0
MTEXT
  5
A1
330
17
100
AcDbEntity
  8
Staircase
100
AcDbMText
 10
75.31475242526481
 20
404.80186000949226
 30
0.0
 40
2.5
 71
1
  1
3
  0
MTEXT
  5
A2
330
17
100
AcDbEntity
  8
Staircase
100
AcDbMText
 10
85.10173141047682
 20
404.80186000949226
 30
0.0
 40
2.5
 71
1
  1
2
  0
MTEXT
  5
A3
330
17
100
AcDbEntity
  8
Staircase
100
AcDbMText
 10
95.3579310926228
 20
404.80186000949226
 30
0.0
 40
2.5
 71
1
  1
1
  0
MTEXT
  5
A4
330
17
100
AcDbEntity
  8
Staircase
100
AcDbMText
 10
126.07556654004591
 20
452.115912680017
 30
0.0
 40
2.5
 71
1
  1
18
  0
MTEXT
  5
A5
330
17
100
AcDbEntity
  8
Closet1
100
AcDbMText
 10
163.06276821914372
 20
363.72060945750354
 30
0.0
 40
2.5
 71
1
  1
CLOSET1
  0
MTEXT
  5
A6
330
17
100
AcDbEntity
  8
BathRoom1
100
AcDbMText
 10
66.92783276445275
 20
363.72060945750354
 30
0.0
 40
2.5
 71
1
  1
BATHROOM1
  0
LINE
  5
A7
330
17
100
AcDbEntity
  8
Staircase
100
AcDbLine
 10
123.0
 20
432.5499687477867
 30
0.0
 11
123.0
 21
470.5499687477867
 31
0.0
  0
LINE
  5
A9
330
17
100
AcDbEntity
  8
BathRoom2
100
AcDbLine
 10
42.00000000000002
 20
475.5499687477867
 30
0.0
 11
143.0
 21
475.5499687477867
 31
0.0
  0
LINE
  5
AA
330
17
100
AcDbEntity
  8
BathRoom1
100
AcDbLine
 10
41.99999999999999
 20
381.5499687477867
 30
0.0
 11
132.0
 21
381.5499687477867
 31
0.0
  0
LINE
  5
AB
330
17
100
AcDbEntity
  8
Staircase
100
AcDbLine
 10
9.0
 20
386.5499687477867
 30
0.0
 11
9.0
 21
470.5499687477867
 31
0.0
  0
LINE
  5
AD
330
17
100
AcDbEntity
  8
Setbacks
100
AcDbLine
 10
9.0
 20
475.5499687477867
 30
0.0
 11
9.0
 21
603.0
 31
0.0
  0
LINE
  5
AE
330
17
100
AcDbEntity
  8
Setbacks
100
AcDbLine
 10
33.0
 20
475.5499687477867
 30
0.0
 11
33.00000000000002
 21
579.0
 31
0.0
  0
LINE
  5
AF
330
17
100
AcDbEntity
  8
BathRoom2
100
AcDbLine
 10
42.0
 20
475.5499687477867
 30
0.0
 11
42.00000000000001
 21
570.0
 31
0.0
  0
LINE
  5
B0
330
17
100
AcDbEntity
  8
Setbacks
100
AcDbLine
 10
9.0
 20
475.5499687477867
 30
0.0
 11
33.00000000000002
 21
475.5499687477867
 31
0.0
  0
LINE
  5
B1
330
17
100
AcDbEntity
  8
Staircase
100
AcDbLine
 10
9.0
 20
470.5499687477867
 30
0.0
 11
143.0
 21
470.5499687477867
 31
0.0
  0
LINE
  5
B2
330
17
100
AcDbEntity
  8
Staircase
100
AcDbLine
 10
9.0
 20
386.54996874778675
 30
0.0
 11
215.0
 21
386.54996874778675
 31
0.0
  0
LINE
  5
B3
330
17
100
AcDbEntity
  8
Garden
100
AcDbLine
 10
9.0
 20
381.5499687477867
 30
0.0
 11
32.99999999999998
 21
381.5499687477867
 31
0.0
  0
LINE
  5
B4
330
17
100
AcDbEntity
  8
Closet1
100
AcDbLine
 10
138.0
 20
381.5499687477867
 30
0.0
 11
210.0
 21
381.5499687477867
 31
0.0
  0
LINE
  5
B5
330
17
100
AcDbEntity
  8
BathRoom2
100
AcDbLine
 10
138.0
 20
505.5499687477868
 30
0.0
 11
138.0
 21
570.0
 31
0.0
  0
LINE
  5
B6
330
17
100
AcDbEntity
  8
DiningRoom
100
AcDbLine
 10
143.0
 20
505.5499687477868
 30
0.0
 11
143.0
 21
570.0
 31
0.0
  0
LINE
  5
B8
330
17
100
AcDbEntity
  8
PoojaRoom
100
AcDbLine
 10
341.7222222222223
 20
505.5499687477859
 30
0.0
 11
341.7222222222224
 21
555.5
 31
0.0
  0
MTEXT
  5
B9
330
17
100
AcDbEntity
  8
LivingRoom1
100
AcDbMText
 10
334.4697077487243
 20
381.3867534187266
 30
0.0
 40
2.5
 71
1
  1
LIVINGROOM1
  0
LINE
  5
BA
330
17
100
AcDbEntity
  8
LivingRoom1
100
AcDbLine
 10
341.7222222222223
 20
444.5499687477867
 30
0.0
 11
341.7222222222223
 21
446.5499687477867
 31
0.0
  0
LINE
  5
BB
330
17
100
AcDbEntity
  8
PoojaRoom
100
AcDbLine
 10
346.7222222222223
 20
499.5499687477868
 30
0.0
 11
424.0000000000001
 21
499.5499687477868
 31
0.0
  0
LINE
  5
BC
330
17
100
AcDbEntity
  8
PoojaRoom
100
AcDbLine
 10
341.7222222222223
 20
509.0499687477866
 30
0.0
 11
346.7222222222223
 21
509.0499687477866
 31
0.0
  0
LINE
  5
BD
330
17
100
AcDbEntity
  8
PoojaRoom
100
AcDbLine
 10
346.7222222222223
 20
499.5499687477868
 30
0.0
 11
346.7222222222224
 21
509.0499687477866
 31
0.0
  0
LINE
  5
BE
330
17
100
AcDbEntity
  8
DiningRoom
100
AcDbLine
 10
341.7222222222223
 20
494.54996874778675
 30
0.0
 11
341.7222222222224
 21
509.0499687477866
 31
0.0
  0
LINE
  5
BF
330
17
100
AcDbEntity
  8
LivingRoom1
100
AcDbLine
 10
341.7222222222223
 20
446.5499687477867
 30
0.0
 11
433.0000000000001
 21
446.5499687477867
 31
0.0
  0
LINE
  5
C0
330
17
100
AcDbEntity
  8
LivingRoom1
100
AcDbLine
 10
341.7222222222223
 20
444.5499687477867
 30
0.0
 11
423.9999999999999
 21
444.54996874778675
 31
0.0
  0
LINE
  5
C2
330
17
100
AcDbEntity
  8
Entrance_Staircase
100
AcDbLine
 10
433.0000000000001
 20
408.8965499803023
 30
0.0
 11
478.0190378673806
 21
408.8965499803023
 31
0.0
  0
LINE
  5
C3
330
17
100
AcDbEntity
  8
Entrance_Staircase
100
AcDbLine
 10
433.0000000000001
 20
398.8965499803023
 30
0.0
 11
477.86667855000223
 21
398.8965499803023
 31
0.0
  0
MTEXT
  5
C4
330
17
100
AcDbEntity
  8
Entrance_Staircase
100
AcDbMText
 10
454.94785636864935
 20
416.15795659322185
 30
0.0
 40
2.5
 71
1
  1
2
  0
MTEXT
  5
C5
330
17
100
AcDbEntity
  8
Entrance_Staircase
100
AcDbMText
 10
422.2210418332546
 20
468.0504251872668
 30
0.0
 40
2.5
 71
1
  1
+24''
  0
MTEXT
  5
C6
330
17
100
AcDbEntity
  8
Entrance_Staircase
100
AcDbMText
 10
409.34237079505647
 20
476.61411575407055
 30
0.0
 40
2.5
 71
1
  1
ENTRANCE
  0
MTEXT
  5
C7
330
17
100
AcDbEntity
  8
Entrance_Staircase
100
AcDbMText
 10
454.94785636864935
 20
475.3251660818289
 30
0.0
 40
2.5
 71
1
  1
3
  0
MTEXT
  5
C8
330
17
100
AcDbEntity
  8
Entrance_Staircase
100
AcDbMText
 10
454.94785636864935
 20
405.49165963249857
 30
0.0
 40
2.5
 71
1
  1
1
  0
LINE
  5
C9
330
17
100
AcDbEntity
  8
Entrance_Staircase
100
AcDbLine
 10
433.0000000000001
 20
418.8965499803023
 30
0.0
 11
478.17139718475937
 21
418.89654998030244
 31
0.0
  0
LINE
  5
CA
330
17
100
AcDbEntity
  8
Boundary
100
AcDbLine
 10
480.0
 20
363.72060945750354
 30
0.0
 11
490.0
 21
522.4317969629136
 31
0.0
  0
LINE
  5
CB
330
17
100
AcDbEntity
  8
PoojaRoom
100
AcDbLine
 10
423.9999999999999
 20
499.5499687477868
 30
0.0
 11
424.0000000000001
 21
570.0
 31
0.0
  0
LINE
  5
CC
330
17
100
AcDbEntity
  8
Boundary
100
AcDbLine
 10
0.0
 20
612.0
 30
0.0
 11
490.0
 21
612.0
 31
0.0
  0
MTEXT
  5
CD
330
17
100
AcDbEntity
  8
DiningRoom
100
AcDbMText
 10
215.80769155094762
 20
543.5026540251029
 30
0.0
 40
2.5
 71
1
  1
DININGROOM
  0
MTEXT
  5
CE
330
17
100
AcDbEntity
  8
Setbacks
100
AcDbMText
 10
225.9117389403467
 20
595.3586103399421
 30
0.0
 40
2.5
 71
1
  1
SETBACKS
  0
MTEXT
  5
CF
330
17
100
AcDbEntity
  8
BathRoom2
100
AcDbMText
 10
65.48365544199565
 20
527.3713683142332
 30
0.0
 40
2.5
 71
1
  1
BATHROOM2
  0
LINE
  5
D0
330
17
100
AcDbEntity
  8
Setbacks
100
AcDbLine
 10
8.99999999999999
 20
603.0
 30
0.0
 11
481.0
 21
603.0
 31
0.0
  0
LINE
  5
D1
330
17
100
AcDbEntity
  8
Setbacks
100
AcDbLine
 10
33.0
 20
579.0
 30
0.0
 11
432.9999999999999
 21
579.0
 31
0.0
  0
LINE
  5
D2
330
17
100
AcDbEntity
  8
BathRoom2
100
AcDbLine
 10
42.0
 20
570.0
 30
0.0
 11
138.0
 21
570.0
 31
0.0
  0
LINE
  5
D3
330
17
100
AcDbEntity
  8
DiningRoom
100
AcDbLine
 10
143.0
 20
570.0
 30
0.0
 11
341.7222222222223
 21
570.0
 31
0.0
  0
MTEXT
  5
D4
330
17
100
AcDbEntity
  8
PoojaRoom
100
AcDbMText
 10
358.04102228868123
 20
538.7357092600732
 30
0.0
 40
2.5
 71
1
  1
POOJAROOM
  0
LINE
  5
D5
330
17
100
AcDbEntity
  8
PoojaRoom
100
AcDbLine
 10
346.7222222222223
 20
555.5
 30
0.0
 11
346.7222222222223
 21
569.9999999999998
 31
0.0
  0
LINE
  5
D6
330
17
100
AcDbEntity
  8
DiningRoom
100
AcDbLine
 10
341.7222222222223
 20
555.5
 30
0.0
 11
341.7222222222223
 21
569.9999999999998
 31
0.0
  0
LINE
  5
D7
330
17
100
AcDbEntity
  8
PoojaRoom
100
AcDbLine
 10
341.7222222222223
 20
555.5
 30
0.0
 11
346.7222222222223
 21
555.5
 31
0.0
  0
LINE
  5
D8
330
17
100
AcDbEntity
  8
PoojaRoom
100
AcDbLine
 10
346.7222222222222
 20
570.0
 30
0.0
 11
424.0000000000001
 21
570.0
 31
0.0
  0
LINE
  5
D9
330
17
100
AcDbEntity
  8
Entrance_Staircase
100
AcDbLine
 10
433.0000000000001
 20
546.0
 30
0.0
 11
480.13155189094243
 21
546.0
 31
0.0
  0
LINE
  5
DA
330
17
100
AcDbEntity
  8
Entrance_Staircase
100
AcDbLine
 10
433.0000000000001
 20
556.0
 30
0.0
 11
480.2839112083209
 21
556.0
 31
0.0
  0
LINE
  5
DB
330
17
100
AcDbEntity
  8
Entrance_Staircase
100
AcDbLine
 10
433.0000000000001
 20
536.0
 30
0.0
 11
479.97919257356364
 21
536.0
 31
0.0
  0
MTEXT
  5
DC
330
17
100
AcDbEntity
  8
Entrance_Staircase
100
AcDbMText
 10
455.58667975827075
 20
553.4511194095433
 30
0.0
 40
2.5
 71
1
  1
1
  0
MTEXT
  5
DD
330
17
100
AcDbEntity
  8
Entrance_Staircase
100
AcDbMText
 10
455.58667975827075
 20
543.6860515594246
 30
0.0
 40
2.5
 71
1
  1
2
  0
LINE
  5
DE
330
17
100
AcDbEntity
  8
Boundary
100
AcDbLine
 10
480.0
 20
522.4317969629136
 30
0.0
 11
490.0
 21
612.0
 31
0.0
  0
LINE
  5
DF
330
17
100
AcDbEntity
  8
Boundary
100
AcDbLine
 10
607.3327585067001
 20
0.0
 30
0.0
 11
607.3327585067001
 21
612.0
 31
0.0
  0
LINE
  5
E0
330
17
100
AcDbEntity
  8
Boundary
100
AcDbLine
 10
616.3327585067
 20
8.999999999999773
 30
0.0
 11
616.3327585067
 21
381.5499687477867
 31
0.0
  0
LINE
  5
E1
330
17
100
AcDbEntity
  8
Boundary
100
AcDbLine
 10
607.3327585067001
 20
0.0
 30
0.0
 11
1087.3327585067
 21
0.0
 31
0.0
  0
LINE
  5
E2
330
17
100
AcDbEntity
  8
Boundary
100
AcDbLine
 10
616.3327585067
 20
8.999999999999773
 30
0.0
 11
1078.3327585067
 21
8.999999999999773
 31
0.0
  0
LINE
  5
E3
330
17
100
AcDbEntity
  8
Boundary
100
AcDbLine
 10
1078.3327585067
 20
8.999999999999773
 30
0.0
 11
1088.3327585067
 21
53.200343774345335
 31
0.0
  0
LINE
  5
E4
330
17
100
AcDbEntity
  8
Boundary
100
AcDbLine
 10
1087.3327585067
 20
0.0
 30
0.0
 11
1097.3327585067
 21
53.200343774345335
 31
0.0
  0
LINE
  5
E6
330
17
100
AcDbEntity
  8
Balcony1
100
AcDbLine
 10
813.3327585067003
 20
97.90068754869054
 30
0.0
 11
813.3327585067003
 21
154.5009375663961
 31
0.0
  0
LINE
  5
E8
330
17
100
AcDbEntity
  8
BathRoom2b
100
AcDbLine
 10
822.3327585067003
 20
106.90068754869054
 30
0.0
 11
822.3327585067003
 21
154.5009375663961
 31
0.0
  0
LINE
  5
E9
330
17
100
AcDbEntity
  8
Boundary
100
AcDbLine
 10
813.3327585067003
 20
97.9006875486902
 30
0.0
 11
951.0549807289223
 21
97.90068754869054
 31
0.0
  0
LINE
  5
EA
330
17
100
AcDbEntity
  8
BathRoom2b
100
AcDbLine
 10
822.3327585067001
 20
106.9006875486902
 30
0.0
 11
942.0549807289223
 21
106.90068754869054
 31
0.0
  0
LINE
  5
EB
330
17
100
AcDbEntity
  8
Balcony1
100
AcDbLine
 10
640.3327585067002
 20
97.90068754868997
 30
0.0
 11
640.3327585067002
 21
154.5009375663961
 31
0.0
  0
LINE
  5
EC
330
17
100
AcDbEntity
  8
Balcony1
100
AcDbLine
 10
642.3327585067
 20
99.90068754868997
 30
0.0
 11
642.3327585067
 21
154.5009375663961
 31
0.0
  0
LINE
  5
ED
330
17
100
AcDbEntity
  8
Balcony1
100
AcDbLine
 10
642.3327585067
 20
99.90068754868997
 30
0.0
 11
813.3327585067003
 21
99.90068754869043
 31
0.0
  0
LINE
  5
EE
330
17
100
AcDbEntity
  8
Balcony1
100
AcDbLine
 10
640.3327585067002
 20
97.90068754868997
 30
0.0
 11
813.3327585067003
 21
97.90068754869054
 31
0.0
  0
LINE
  5
EF
330
17
100
AcDbEntity
  8
BathRoom2b
100
AcDbLine
 10
942.0549807289223
 20
106.9006875486902
 30
0.0
 11
942.0549807289223
 21
163.50093756639603
 31
0.0
  0
LINE
  5
F1
330
17
100
AcDbEntity
  8
Balcony2
100
AcDbLine
 10
951.0549807289223
 20
97.90068754869054
 30
0.0
 11
951.0549807289223
 21
154.5009375663961
 31
0.0
  0
LINE
  5
F2
330
17
100
AcDbEntity
  8
Balcony2
100
AcDbLine
 10
951.0549807289223
 20
97.90068754869054
 30
0.0
 11
1073.461132683174
 21
97.90068754869054
 31
0.0
  0
LINE
  5
F3
330
17
100
AcDbEntity
  8
Balcony2
100
AcDbLine
 10
951.0549807289223
 20
99.90068754869054
 30
0.0
 11
1071.461132683174
 21
99.90068754869054
 31
0.0
  0
LINE
  5
F4
330
17
100
AcDbEntity
  8
Balcony2
100
AcDbLine
 10
1073.461132683174
 20
97.90068754869054
 30
0.0
 11
1073.461132683174
 21
154.5009375663961
 31
0.0
  0
LINE
  5
F5
330
17
100
AcDbEntity
  8
Balcony2
100
AcDbLine
 10
1071.461132683174
 20
99.90068754869043
 30
0.0
 11
1071.461132683174
 21
154.5009375663961
 31
0.0
  0
LINE
  5
F6
330
17
100
AcDbEntity
  8
Boundary
100
AcDbLine
 10
1078.3327585067
 20
53.200343774345335
 30
0.0
 11
1088.3327585067
 21
130.45081255754351
 31
0.0
  0
LINE
  5
F7
330
17
100
AcDbEntity
  8
Boundary
100
AcDbLine
 10
1087.3327585067
 20
53.200343774345335
 30
0.0
 11
1097.3327585067
 21
130.45081255754351
 31
0.0
  0
LINE
  5
F8
330
17
100
AcDbEntity
  8
BathRoom2b
100
AcDbLine
 10
822.3327585067001
 20
154.5009375663961
 30
0.0
 11
912.0549807289223
 21
154.5009375663961
 31
0.0
  0
LINE
  5
F9
330
17
100
AcDbEntity
  8
Balcony1
100
AcDbLine
 10
679.3327585067
 20
154.50093756639632
 30
0.0
 11
679.3327585067
 21
163.50093756639603
 31
0.0
  0
LINE
  5
FA
330
17
100
AcDbEntity
  8
Balcony1
100
AcDbLine
 10
679.3327585067
 20
154.5009375663961
 30
0.0
 11
813.3327585067003
 21
154.50093756639632
 31
0.0
  0
MTEXT
  5
FB
330
17
100
AcDbEntity
  8
BathRoom2b
100
AcDbMText
 10
855.4091031036288
 20
130.45081255754351
 30
0.0
 40
2.5
 71
1
  1
BATHROOM2b
  0
MTEXT
  5
FC
330
17
100
AcDbEntity
  8
Balcony1
100
AcDbMText
 10
713.1256130972064
 20
130.45081255754351
 30
0.0
 40
2.5
 71
1
  1
BALCONY1
  0
LINE
  5
FD
330
17
100
AcDbEntity
  8
Boundary
100
AcDbLine
 10
640.3327585067002
 20
154.5009375663961
 30
0.0
 11
640.3327585067002
 21
381.5499687477867
 31
0.0
  0
LINE
  5
FF
330
17
100
AcDbEntity
  8
BedRoom1a
100
AcDbLine
 10
649.3327585067
 20
154.50093756639632
 30
0.0
 11
649.3327585067
 21
313.3010625752488
 31
0.0
  0
LINE
  5
100
330
17
100
AcDbEntity
  8
BedRoom1a
100
AcDbLine
 10
817.3327585067002
 20
163.50093756639603
 30
0.0
 11
817.3327585067002
 21
281.43431256934684
 31
0.0
  0
LINE
  5
102
330
17
100
AcDbEntity
  8
Closet2
100
AcDbLine
 10
822.3327585067003
 20
163.50093756639603
 30
0.0
 11
822.3327585067003
 21
215.43431256934696
 31
0.0
  0
LINE
  5
103
330
17
100
AcDbEntity
  8
Balcony1
100
AcDbLine
 10
640.3327585067002
 20
154.5009375663961
 30
0.0
 11
649.3327585067
 21
154.50093756639632
 31
0.0
  0
LINE
  5
104
330
17
100
AcDbEntity
  8
BedRoom1a
100
AcDbLine
 10
679.3327585067
 20
163.50093756639592
 30
0.0
 11
817.3327585067002
 21
163.50093756639603
 31
0.0
  0
LINE
  5
105
330
17
100
AcDbEntity
  8
Closet2
100
AcDbLine
 10
822.3327585067003
 20
163.50093756639603
 30
0.0
 11
894.0549807289223
 21
163.50093756639603
 31
0.0
  0
LINE
  5
107
330
17
100
AcDbEntity
  8
BedRoom2a
100
AcDbLine
 10
942.0549807289223
 20
163.50093756639603
 30
0.0
 11
1034.4611326831748
 21
163.50093756639603
 31
0.0
  0
LINE
  5
108
330
17
100
AcDbEntity
  8
Balcony2
100
AcDbLine
 10
951.0549807289223
 20
154.50093756639603
 30
0.0
 11
1034.4611326831748
 21
154.5009375663961
 31
0.0
  0
LINE
  5
109
330
17
100
AcDbEntity
  8
BathRoom2b
100
AcDbLine
 10
912.0549807289219
 20
154.5009375663961
 30
0.0
 11
912.0549807289223
 21
163.50093756639592
 31
0.0
  0
MTEXT
  5
10A
330
17
100
AcDbEntity
  8
Balcony2
100
AcDbMText
 10
991.4951368669124
 20
130.45081255754351
 30
0.0
 40
2.5
 71
1
  1
BALCONY2
  0
LINE
  5
10B
330
17
100
AcDbEntity
  8
BedRoom2a
100
AcDbLine
 10
899.0549807289224
 20
163.50093756639592
 30
0.0
 11
899.0549807289224
 21
191.43431256934724
 31
0.0
  0
LINE
  5
10C
330
17
100
AcDbEntity
  8
Closet2
100
AcDbLine
 10
894.0549807289223
 20
163.50093756639592
 30
0.0
 11
894.0549807289223
 21
191.43431256934724
 31
0.0
  0
LINE
  5
10D
330
17
100
AcDbEntity
  8
BedRoom2a
100
AcDbLine
 10
899.0549807289224
 20
163.50093756639603
 30
0.0
 11
912.0549807289223
 21
163.50093756639603
 31
0.0
  0
LINE
  5
10E
330
17
100
AcDbEntity
  8
Balcony2
100
AcDbLine
 10
1034.4611326831748
 20
154.5009375663961
 30
0.0
 11
1034.4611326831748
 21
163.50093756639603
 31
0.0
  0
LINE
  5
10F
330
17
100
AcDbEntity
  8
Balcony2
100
AcDbLine
 10
1064.4611326831748
 20
154.5009375663961
 30
0.0
 11
1073.461132683174
 21
154.5009375663961
 31
0.0
  0
LINE
  5
110
330
17
100
AcDbEntity
  8
Boundary
100
AcDbLine
 10
1073.461132683174
 20
154.5009375663961
 30
0.0
 11
1073.461132683174
 21
318.30106257524886
 31
0.0
  0
LINE
  5
111
330
17
100
AcDbEntity
  8
BedRoom2a
100
AcDbLine
 10
1064.4611326831748
 20
154.5009375663961
 30
0.0
 11
1064.4611326831748
 21
313.30106257524886
 31
0.0
  0
LINE
  5
112
330
17
100
AcDbEntity
  8
Boundary
100
AcDbLine
 10
1078.3327585067
 20
130.45081255754351
 30
0.0
 11
1088.3327585067
 21
177.21762506787184
 31
0.0
  0
LINE
  5
113
330
17
100
AcDbEntity
  8
Boundary
100
AcDbLine
 10
1087.3327585067
 20
130.45081255754351
 30
0.0
 11
1097.3327585067
 21
177.21762506787184
 31
0.0
  0
MTEXT
  5
114
330
17
100
AcDbEntity
  8
BedRoom1a
100
AcDbMText
 10
712.0905846899944
 20
236.80227790976932
 30
0.0
 40
2.5
 71
1
  1
BEDROOM1a
  0
MTEXT
  5
115
330
17
100
AcDbEntity
  8
Closet2
100
AcDbMText
 10
838.3465973416997
 20
192.35783577970255
 30
0.0
 40
2.5
 71
1
  1
CLOSET2
  0
LINE
  5
117
330
17
100
AcDbEntity
  8
Walkway
100
AcDbLine
 10
822.3327585067003
 20
220.43431256934696
 30
0.0
 11
822.3327585067003
 21
281.43431256934684
 31
0.0
  0
LINE
  5
118
330
17
100
AcDbEntity
  8
Closet2
100
AcDbLine
 10
822.3327585067003
 20
215.43431256934696
 30
0.0
 11
899.0549807289224
 21
215.43431256934696
 31
0.0
  0
LINE
  5
119
330
17
100
AcDbEntity
  8
Walkway
100
AcDbLine
 10
822.3327585067003
 20
220.43431256934696
 30
0.0
 11
894.0549807289223
 21
220.43431256934701
 31
0.0
  0
LINE
  5
11A
330
17
100
AcDbEntity
  8
BedRoom1a
100
AcDbLine
 10
817.3327585067002
 20
281.43431256934684
 30
0.0
 11
822.3327585067003
 21
281.43431256934696
 31
0.0
  0
MTEXT
  5
11B
330
17
100
AcDbEntity
  8
Walkway
100
AcDbMText
 10
835.6110267754732
 20
257.4194308255002
 30
0.0
 40
2.5
 71
1
  1
WALKWAY
  0
LINE
  5
11C
330
17
100
AcDbEntity
  8
Walkway
100
AcDbLine
 10
894.0549807289223
 20
281.43431256934684
 30
0.0
 11
899.0549807289224
 21
281.43431256934696
 31
0.0
  0
LINE
  5
11D
330
17
100
AcDbEntity
  8
BedRoom2a
100
AcDbLine
 10
899.0549807289224
 20
215.43431256934696
 30
0.0
 11
899.0549807289224
 21
281.43431256934696
 31
0.0
  0
LINE
  5
11E
330
17
100
AcDbEntity
  8
Walkway
100
AcDbLine
 10
894.0549807289223
 20
220.43431256934696
 30
0.0
 11
894.0549807289226
 21
281.43431256934684
 31
0.0
  0
MTEXT
  5
11F
330
17
100
AcDbEntity
  8
BedRoom2a
100
AcDbMText
 10
950.0664826177106
 20
224.15652774343403
 30
0.0
 40
2.5
 71
1
  1
BEDROOM2a
  0
LINE
  5
120
330
17
100
AcDbEntity
  8
Closet2
100
AcDbLine
 10
894.0549807289223
 20
191.43431256934724
 30
0.0
 11
899.0549807289224
 21
191.43431256934724
 31
0.0
  0
LINE
  5
121
330
17
100
AcDbEntity
  8
Boundary
100
AcDbLine
 10
1078.3327585067
 20
177.21762506787184
 30
0.0
 11
1088.3327585067
 21
297.1176875722982
 31
0.0
  0
LINE
  5
122
330
17
100
AcDbEntity
  8
Boundary
100
AcDbLine
 10
1087.3327585067
 20
177.21762506787184
 30
0.0
 11
1097.3327585067
 21
297.1176875722982
 31
0.0
  0
LINE
  5
124
330
17
100
AcDbEntity
  8
BathRoom1a
100
AcDbLine
 10
649.3327585067
 20
318.3010625752488
 30
0.0
 11
745.3327585067
 21
318.30106257524886
 31
0.0
  0
LINE
  5
125
330
17
100
AcDbEntity
  8
BathRoom1a
100
AcDbLine
 10
649.3327585067
 20
318.3010625752488
 30
0.0
 11
649.3327585067
 21
381.5499687477867
 31
0.0
  0
LINE
  5
127
330
17
100
AcDbEntity
  8
Closet3
100
AcDbLine
 10
745.3327585067
 20
318.30106257524886
 30
0.0
 11
787.3327585067003
 21
318.30106257524886
 31
0.0
  0
LINE
  5
128
330
17
100
AcDbEntity
  8
Closet3
100
AcDbLine
 10
817.3327585067002
 20
313.3010625752488
 30
0.0
 11
817.3327585067002
 21
381.5499687477867
 31
0.0
  0
LINE
  5
129
330
17
100
AcDbEntity
  8
Walkway
100
AcDbLine
 10
822.3327585067003
 20
313.3010625752488
 30
0.0
 11
822.3327585067003
 21
386.5499687477867
 31
0.0
  0
LINE
  5
12A
330
17
100
AcDbEntity
  8
BedRoom1a
100
AcDbLine
 10
649.3327585067
 20
313.3010625752488
 30
0.0
 11
787.3327585067003
 21
313.3010625752488
 31
0.0
  0
LINE
  5
12B
330
17
100
AcDbEntity
  8
BedRoom1a
100
AcDbLine
 10
817.3327585067002
 20
313.3010625752488
 30
0.0
 11
822.3327585067003
 21
313.3010625752488
 31
0.0
  0
LINE
  5
12C
330
17
100
AcDbEntity
  8
BedRoom1a
100
AcDbLine
 10
787.3327585067003
 20
313.3010625752488
 30
0.0
 11
787.3327585067003
 21
318.30106257524886
 31
0.0
  0
LINE
  5
12E
330
17
100
AcDbEntity
  8
LivingRoom2
100
AcDbLine
 10
894.0549807289223
 20
318.3010625752488
 30
0.0
 11
1031.3327585067002
 21
318.3010625752488
 31
0.0
  0
LINE
  5
12F
330
17
100
AcDbEntity
  8
BedRoom2a
100
AcDbLine
 10
894.0549807289223
 20
313.3010625752487
 30
0.0
 11
1064.4611326831748
 21
313.30106257524886
 31
0.0
  0
LINE
  5
130
330
17
100
AcDbEntity
  8
Walkway
100
AcDbLine
 10
894.0549807289223
 20
313.3010625752488
 30
0.0
 11
894.0549807289223
 21
318.3010625752488
 31
0.0
  0
LINE
  5
131
330
17
100
AcDbEntity
  8
LivingRoom2
100
AcDbLine
 10
1031.3327585067002
 20
318.3010625752488
 30
0.0
 11
1031.3327585067002
 21
570.0
 31
0.0
  0
LINE
  5
132
330
17
100
AcDbEntity
  8
Boundary
100
AcDbLine
 10
1040.3327585067
 20
318.3010625752488
 30
0.0
 11
1040.3327585067
 21
579.0
 31
0.0
  0
LINE
  5
133
330
17
100
AcDbEntity
  8
Boundary
100
AcDbLine
 10
1078.3327585067
 20
297.1176875722982
 30
0.0
 11
1088.3327585067
 21
332.0177500767246
 31
0.0
  0
LINE
  5
134
330
17
100
AcDbEntity
  8
Boundary
100
AcDbLine
 10
1087.3327585067
 20
297.1176875722982
 30
0.0
 11
1097.3327585067
 21
332.0177500767246
 31
0.0
  0
LINE
  5
135
330
17
100
AcDbEntity
  8
Boundary
100
AcDbLine
 10
1040.3327585067
 20
318.3010625752488
 30
0.0
 11
1073.461132683174
 21
318.3010625752488
 31
0.0
  0
MTEXT
  5
136
330
17
100
AcDbEntity
  8
Closet3
100
AcDbMText
 10
767.5554134312727
 20
362.8215139534026
 30
0.0
 40
2.5
 71
1
  1
CLOSET3
  0
MTEXT
  5
137
330
17
100
AcDbEntity
  8
BathRoom1a
100
AcDbMText
 10
666.8037902650789
 20
358.7374510849472
 30
0.0
 40
2.5
 71
1
  1
BATHROOM1a
  0
LINE
  5
138
330
17
100
AcDbEntity
  8
BathRoom1a
100
AcDbLine
 10
739.3327585067004
 20
346.23443757819973
 30
0.0
 11
739.3327585067004
 21
381.5499687477867
 31
0.0
  0
LINE
  5
139
330
17
100
AcDbEntity
  8
BathRoom1a
100
AcDbLine
 10
739.3327585067004
 20
346.23443757819985
 30
0.0
 11
745.3327585067
 21
346.23443757819985
 31
0.0
  0
LINE
  5
13A
330
17
100
AcDbEntity
  8
Closet3
100
AcDbLine
 10
745.3327585067
 20
346.23443757819985
 30
0.0
 11
745.3327585067
 21
381.5499687477867
 31
0.0
  0
LINE
  5
13B
330
17
100
AcDbEntity
  8
Boundary
100
AcDbLine
 10
1078.3327585067
 20
332.0177500767246
 30
0.0
 11
1088.3327585067
 21
363.72060945750354
 31
0.0
  0
LINE
  5
13C
330
17
100
AcDbEntity
  8
Boundary
100
AcDbLine
 10
1087.3327585067
 20
332.0177500767246
 30
0.0
 11
1097.3327585067
 21
363.72060945750354
 31
0.0
  0
MTEXT
  5
13D
330
17
100
AcDbEntity
  8
Staircase
100
AcDbMText
 10
702.5764769780093
 20
404.80186000949226
 30
0.0
 40
2.5
 71
1
  1
1
  0
MTEXT
  5
13E
330
17
100
AcDbEntity
  8
Staircase
100
AcDbMText
 10
733.2941124254326
 20
452.115912680017
 30
0.0
 40
2.5
 71
1
  1
18
  0
MTEXT
  5
13F
330
17
100
AcDbEntity
  8
Staircase
100
AcDbMText
 10
724.0449654247716
 20
452.115912680017
 30
0.0
 40
2.5
 71
1
  1
17
  0
MTEXT
  5
140
330
17
100
AcDbEntity
  8
Staircase
100
AcDbMText
 10
713.6087358323387
 20
452.115912680017
 30
0.0
 40
2.5
 71
1
  1
16
  0
MTEXT
  5
141
330
17
100
AcDbEntity
  8
Staircase
100
AcDbMText
 10
703.4053126047951
 20
452.115912680017
 30
0.0
 40
2.5
 71
1
  1
15
  0
MTEXT
  5
142
330
17
100
AcDbEntity
  8
Staircase
100
AcDbMText
 10
683.8621781891127
 20
452.115912680017
 30
0.0
 40
2.5
 71
1
  1
13
  0
MTEXT
  5
143
330
17
100
AcDbEntity
  8
Staircase
100
AcDbMText
 10
673.2183214171712
 20
452.115912680017
 30
0.0
 40
2.5
 71
1
  1
12
  0
MTEXT
  5
144
330
17
100
AcDbEntity
  8
Staircase
100
AcDbMText
 10
663.4553317340182
 20
452.115912680017
 30
0.0
 40
2.5
 71
1
  1
11
  0
MTEXT
  5
145
330
17
100
AcDbEntity
  8
Staircase
100
AcDbMText
 10
653.3252963603884
 20
452.115912680017
 30
0.0
 40
2.5
 71
1
  1
10
  0
MTEXT
  5
146
330
17
100
AcDbEntity
  8
Staircase
100
AcDbMText
 10
632.4789102964755
 20
452.115912680017
 30
0.0
 40
2.5
 71
1
  1
9
  0
MTEXT
  5
147
330
17
100
AcDbEntity
  8
Staircase
100
AcDbMText
 10
632.8887629203246
 20
426.8196486061581
 30
0.0
 40
2.5
 71
1
  1
8
  0
MTEXT
  5
148
330
17
100
AcDbEntity
  8
Staircase
100
AcDbMText
 10
632.8887629203246
 20
405.60072568915825
 30
0.0
 40
2.5
 71
1
  1
7
  0
MTEXT
  5
149
330
17
100
AcDbEntity
  8
Staircase
100
AcDbMText
 10
652.492127119804
 20
404.78632871537945
 30
0.0
 40
2.5
 71
1
  1
6
  0
MTEXT
  5
14A
330
17
100
AcDbEntity
  8
Staircase
100
AcDbMText
 10
662.3560540811734
 20
404.80186000949226
 30
0.0
 40
2.5
 71
1
  1
5
  0
MTEXT
  5
14B
330
17
100
AcDbEntity
  8
Staircase
100
AcDbMText
 10
671.9419259527266
 20
404.80186000949226
 30
0.0
 40
2.5
 71
1
  1
4
  0
MTEXT
  5
14C
330
17
100
AcDbEntity
  8
Staircase
100
AcDbMText
 10
682.5332983106512
 20
404.80186000949226
 30
0.0
 40
2.5
 71
1
  1
3
  0
MTEXT
  5
14D
330
17
100
AcDbEntity
  8
Staircase
100
AcDbMText
 10
692.3202772958633
 20
404.80186000949226
 30
0.0
 40
2.5
 71
1
  1
2
  0
MTEXT
  5
14E
330
17
100
AcDbEntity
  8
Staircase
100
AcDbMText
 10
693.8625503359293
 20
452.115912680017
 30
0.0
 40
2.5
 71
1
  1
14
  0
LINE
  5
150
330
17
100
AcDbEntity
  8
OTS
100
AcDbLine
 10
750.3327585067
 20
505.5499687477868
 30
0.0
 11
750.3327585067005
 21
570.0
 31
0.0
  0
LINE
  5
151
330
17
100
AcDbEntity
  8
OTS
100
AcDbLine
 10
750.3327585067005
 20
507.5499687477861
 30
0.0
 11
923.0549807289227
 21
507.5499687477868
 31
0.0
  0
LINE
  5
152
330
17
100
AcDbEntity
  8
Boundary
100
AcDbLine
 10
616.3327585067
 20
475.5499687477867
 30
0.0
 11
616.3327585067
 21
603.0
 31
0.0
  0
LINE
  5
153
330
17
100
AcDbEntity
  8
Staircase
100
AcDbLine
 10
616.3327585067
 20
386.5499687477867
 30
0.0
 11
616.3327585067
 21
470.5499687477867
 31
0.0
  0
LINE
  5
154
330
17
100
AcDbEntity
  8
Boundary
100
AcDbLine
 10
640.3327585067002
 20
475.5499687477867
 30
0.0
 11
640.3327585067002
 21
579.0
 31
0.0
  0
LINE
  5
156
330
17
100
AcDbEntity
  8
BathRoom2a
100
AcDbLine
 10
649.3327585067
 20
475.5499687477867
 30
0.0
 11
649.3327585067
 21
570.0
 31
0.0
  0
LINE
  5
157
330
17
100
AcDbEntity
  8
BathRoom2a
100
AcDbLine
 10
745.3327585067
 20
505.5499687477868
 30
0.0
 11
745.3327585067
 21
570.0
 31
0.0
  0
LINE
  5
158
330
17
100
AcDbEntity
  8
Boundary
100
AcDbLine
 10
616.3327585067
 20
475.5499687477867
 30
0.0
 11
640.3327585067002
 21
475.5499687477867
 31
0.0
  0
LINE
  5
159
330
17
100
AcDbEntity
  8
BathRoom2a
100
AcDbLine
 10
649.3327585067
 20
475.5499687477867
 30
0.0
 11
750.3327585067005
 21
475.5499687477867
 31
0.0
  0
LINE
  5
15A
330
17
100
AcDbEntity
  8
BathRoom2a
100
AcDbLine
 10
745.3327585067
 20
505.5499687477866
 30
0.0
 11
750.3327585067005
 21
505.5499687477866
 31
0.0
  0
LINE
  5
15B
330
17
100
AcDbEntity
  8
Staircase
100
AcDbLine
 10
616.3327585067
 20
470.5499687477867
 30
0.0
 11
750.3327585067005
 21
470.5499687477867
 31
0.0
  0
LINE
  5
15C
330
17
100
AcDbEntity
  8
Staircase
100
AcDbLine
 10
616.3327585067
 20
386.54996874778675
 30
0.0
 11
822.3327585067003
 21
386.54996874778675
 31
0.0
  0
LINE
  5
15D
330
17
100
AcDbEntity
  8
Staircase
100
AcDbLine
 10
616.3327585067
 20
422.5499687477867
 30
0.0
 11
650.3327585067004
 21
422.54996874778675
 31
0.0
  0
LINE
  5
15E
330
17
100
AcDbEntity
  8
Staircase
100
AcDbLine
 10
650.3327585067004
 20
424.5499687477867
 30
0.0
 11
740.3327585067003
 21
424.5499687477867
 31
0.0
  0
LINE
  5
15F
330
17
100
AcDbEntity
  8
Boundary
100
AcDbLine
 10
616.3327585067
 20
381.5499687477867
 30
0.0
 11
640.3327585067002
 21
381.5499687477867
 31
0.0
  0
LINE
  5
160
330
17
100
AcDbEntity
  8
BathRoom1a
100
AcDbLine
 10
649.3327585067
 20
381.5499687477867
 30
0.0
 11
739.3327585067004
 21
381.5499687477867
 31
0.0
  0
LINE
  5
161
330
17
100
AcDbEntity
  8
Closet3
100
AcDbLine
 10
745.3327585067
 20
381.5499687477867
 30
0.0
 11
817.3327585067002
 21
381.5499687477867
 31
0.0
  0
LINE
  5
162
330
17
100
AcDbEntity
  8
Staircase
100
AcDbLine
 10
670.3327585067003
 20
432.5499687477867
 30
0.0
 11
670.3327585067003
 21
470.5499687477867
 31
0.0
  0
LINE
  5
163
330
17
100
AcDbEntity
  8
Staircase
100
AcDbLine
 10
660.3327585067003
 20
432.5499687477867
 30
0.0
 11
660.3327585067003
 21
470.5499687477867
 31
0.0
  0
LINE
  5
164
330
17
100
AcDbEntity
  8
Staircase
100
AcDbLine
 10
650.3327585067004
 20
386.5499687477867
 30
0.0
 11
650.3327585067004
 21
470.5499687477867
 31
0.0
  0
LINE
  5
165
330
17
100
AcDbEntity
  8
Staircase
100
AcDbLine
 10
660.3327585067003
 20
386.5499687477867
 30
0.0
 11
660.3327585067003
 21
424.54996874778675
 31
0.0
  0
LINE
  5
166
330
17
100
AcDbEntity
  8
Staircase
100
AcDbLine
 10
660.3327585067003
 20
432.5499687477867
 30
0.0
 11
660.3327585067003
 21
470.5499687477867
 31
0.0
  0
LINE
  5
167
330
17
100
AcDbEntity
  8
Staircase
100
AcDbLine
 10
670.3327585067003
 20
386.5499687477867
 30
0.0
 11
670.3327585067003
 21
424.54996874778675
 31
0.0
  0
LINE
  5
168
330
17
100
AcDbEntity
  8
Staircase
100
AcDbLine
 10
670.3327585067003
 20
432.5499687477867
 30
0.0
 11
670.3327585067003
 21
470.5499687477867
 31
0.0
  0
LINE
  5
169
330
17
100
AcDbEntity
  8
Staircase
100
AcDbLine
 10
680.3327585067005
 20
386.5499687477867
 30
0.0
 11
680.3327585067005
 21
424.54996874778675
 31
0.0
  0
LINE
  5
16A
330
17
100
AcDbEntity
  8
Staircase
100
AcDbLine
 10
680.3327585067005
 20
432.5499687477867
 30
0.0
 11
680.3327585067005
 21
470.5499687477867
 31
0.0
  0
LINE
  5
16B
330
17
100
AcDbEntity
  8
Staircase
100
AcDbLine
 10
680.3327585067005
 20
432.5499687477867
 30
0.0
 11
680.3327585067005
 21
470.5499687477867
 31
0.0
  0
LINE
  5
16C
330
17
100
AcDbEntity
  8
Staircase
100
AcDbLine
 10
690.3327585067003
 20
386.5499687477867
 30
0.0
 11
690.3327585067003
 21
424.54996874778675
 31
0.0
  0
LINE
  5
16D
330
17
100
AcDbEntity
  8
Staircase
100
AcDbLine
 10
700.3327585067005
 20
386.5499687477867
 30
0.0
 11
700.3327585067005
 21
424.54996874778675
 31
0.0
  0
LINE
  5
16E
330
17
100
AcDbEntity
  8
Staircase
100
AcDbLine
 10
700.3327585067005
 20
432.5499687477867
 30
0.0
 11
700.3327585067005
 21
470.5499687477867
 31
0.0
  0
LINE
  5
16F
330
17
100
AcDbEntity
  8
Staircase
100
AcDbLine
 10
710.3327585067003
 20
386.5499687477867
 30
0.0
 11
710.3327585067003
 21
424.54996874778675
 31
0.0
  0
LINE
  5
170
330
17
100
AcDbEntity
  8
Staircase
100
AcDbLine
 10
710.3327585067003
 20
432.5499687477867
 30
0.0
 11
710.3327585067003
 21
470.5499687477867
 31
0.0
  0
LINE
  5
171
330
17
100
AcDbEntity
  8
Staircase
100
AcDbLine
 10
720.3327585067003
 20
432.5499687477867
 30
0.0
 11
720.3327585067003
 21
470.5499687477867
 31
0.0
  0
LINE
  5
172
330
17
100
AcDbEntity
  8
Staircase
100
AcDbLine
 10
730.3327585067005
 20
432.5499687477867
 30
0.0
 11
730.3327585067005
 21
470.5499687477867
 31
0.0
  0
LINE
  5
173
330
17
100
AcDbEntity
  8
Staircase
100
AcDbLine
 10
740.3327585067002
 20
424.54996874778675
 30
0.0
 11
740.3327585067003
 21
470.5499687477867
 31
0.0
  0
LINE
  5
174
330
17
100
AcDbEntity
  8
OTS
100
AcDbLine
 10
750.3327585067005
 20
505.5499687477861
 30
0.0
 11
925.0549807289223
 21
505.5499687477866
 31
0.0
  0
LINE
  5
175
330
17
100
AcDbEntity
  8
Staircase
100
AcDbLine
 10
690.3327585067003
 20
432.5499687477867
 30
0.0
 11
690.3327585067003
 21
470.5499687477867
 31
0.0
  0
LINE
  5
176
330
17
100
AcDbEntity
  8
Staircase
100
AcDbLine
 10
690.3327585067003
 20
432.5499687477867
 30
0.0
 11
690.3327585067003
 21
470.5499687477867
 31
0.0
  0
LINE
  5
177
330
17
100
AcDbEntity
  8
Staircase
100
AcDbLine
 10
700.3327585067005
 20
432.5499687477867
 30
0.0
 11
700.3327585067005
 21
470.5499687477867
 31
0.0
  0
LINE
  5
178
330
17
100
AcDbEntity
  8
Staircase
100
AcDbLine
 10
710.3327585067003
 20
432.5499687477867
 30
0.0
 11
710.3327585067003
 21
470.5499687477867
 31
0.0
  0
LINE
  5
179
330
17
100
AcDbEntity
  8
Staircase
100
AcDbLine
 10
616.3327585067
 20
434.5499687477867
 30
0.0
 11
650.3327585067004
 21
434.5499687477867
 31
0.0
  0
LINE
  5
17A
330
17
100
AcDbEntity
  8
Staircase
100
AcDbLine
 10
650.3327585067004
 20
432.5499687477867
 30
0.0
 11
750.3327585067005
 21
432.5499687477867
 31
0.0
  0
LINE
  5
17B
330
17
100
AcDbEntity
  8
Staircase
100
AcDbLine
 10
750.3327585067
 20
432.5499687477867
 30
0.0
 11
750.3327585067005
 21
470.5499687477867
 31
0.0
  0
LINE
  5
17C
330
17
100
AcDbEntity
  8
Staircase
100
AcDbLine
 10
740.3327585067002
 20
432.5499687477867
 30
0.0
 11
740.3327585067003
 21
470.5499687477867
 31
0.0
  0
LINE
  5
17D
330
17
100
AcDbEntity
  8
Staircase
100
AcDbLine
 10
730.3327585067005
 20
432.5499687477867
 30
0.0
 11
730.3327585067005
 21
470.5499687477867
 31
0.0
  0
LINE
  5
17E
330
17
100
AcDbEntity
  8
Staircase
100
AcDbLine
 10
720.3327585067003
 20
432.5499687477867
 30
0.0
 11
720.3327585067003
 21
470.5499687477867
 31
0.0
  0
MTEXT
  5
17F
330
17
100
AcDbEntity
  8
LivingRoom2
100
AcDbMText
 10
944.5085846816571
 20
430.21993143982036
 30
0.0
 40
2.5
 71
1
  1
LIVINGROOM2
  0
LINE
  5
180
330
17
100
AcDbEntity
  8
OTS
100
AcDbLine
 10
923.0549807289224
 20
507.5499687477861
 30
0.0
 11
923.0549807289227
 21
570.0
 31
0.0
  0
LINE
  5
181
330
17
100
AcDbEntity
  8
OTS
100
AcDbLine
 10
925.0549807289223
 20
505.5499687477859
 30
0.0
 11
925.0549807289223
 21
570.0
 31
0.0
  0
LINE
  5
182
330
17
100
AcDbEntity
  8
Boundary
100
AcDbLine
 10
1078.3327585067
 20
363.72060945750354
 30
0.0
 11
1088.3327585067
 21
522.4317969629136
 31
0.0
  0
LINE
  5
183
330
17
100
AcDbEntity
  8
Boundary
100
AcDbLine
 10
1087.3327585067
 20
363.72060945750354
 30
0.0
 11
1097.3327585067
 21
522.4317969629136
 31
0.0
  0
LINE
  5
184
330
17
100
AcDbEntity
  8
OTS
100
AcDbLine
 10
750.3327585067
 20
570.0
 30
0.0
 11
923.0549807289224
 21
570.0
 31
0.0
  0
MTEXT
  5
185
330
17
100
AcDbEntity
  8
BathRoom2a
100
AcDbMText
 10
677.7058635972709
 20
527.8475818578054
 30
0.0
 40
2.5
 71
1
  1
BATHROOM2a
  0
MTEXT
  5
186
330
17
100
AcDbEntity
  8
OTS
100
AcDbMText
 10
810.3691169182815
 20
539.245607608601
 30
0.0
 40
2.5
 71
1
  1
OTS
  0
LINE
  5
187
330
17
100
AcDbEntity
  8
Boundary
100
AcDbLine
 10
607.3327585067001
 20
612.0
 30
0.0
 11
1097.3327585067
 21
612.0
 31
0.0
  0
LINE
  5
188
330
17
100
AcDbEntity
  8
Boundary
100
AcDbLine
 10
616.3327585067
 20
603.0
 30
0.0
 11
1088.3327585067
 21
603.0
 31
0.0
  0
LINE
  5
189
330
17
100
AcDbEntity
  8
Boundary
100
AcDbLine
 10
640.3327585067002
 20
579.0
 30
0.0
 11
1040.3327585067
 21
579.0
 31
0.0
  0
LINE
  5
18A
330
17
100
AcDbEntity
  8
BathRoom2a
100
AcDbLine
 10
649.3327585067
 20
570.0
 30
0.0
 11
745.3327585067
 21
570.0
 31
0.0
  0
LINE
  5
18B
330
17
100
AcDbEntity
  8
LivingRoom2
100
AcDbLine
 10
923.0549807289224
 20
570.0
 30
0.0
 11
1031.3327585067002
 21
570.0000000000009
 31
0.0
  0
LINE
  5
18C
330
17
100
AcDbEntity
  8
Boundary
100
AcDbLine
 10
1078.3327585067
 20
522.4317969629136
 30
0.0
 11
1088.3327585067
 21
603.0
 31
0.0
  0
LINE
  5
18D
330
17
100
AcDbEntity
  8
Boundary
100
AcDbLine
 10
1087.3327585067
 20
522.4317969629136
 30
0.0
 11
1097.3327585067
 21
612.0
 31
0.0
  0
ENDSEC
  0
SECTION
  2
OBJECTS
  0
DICTIONARY
  5
A
330
0
100
AcDbDictionary
280
0
281
1
  3
ACAD_COLOR
350
B
  3
ACAD_GROUP
350
C
  3
ACAD_LAYOUT
350
D
  3
ACAD_MATERIAL
350
E
  3
ACAD_MLEADERSTYLE
350
F
  3
ACAD_MLINESTYLE
350
10
  3
ACAD_PLOTSETTINGS
350
11
  3
ACAD_PLOTSTYLENAME
350
12
  3
ACAD_SCALELIST
350
14
  3
ACAD_TABLESTYLE
350
15
  3
ACAD_VISUALSTYLE
350
16
  3
EZDXF_META
350
2D
  0
DICTIONARY
  5
B
330
A
100
AcDbDictionary
280
0
281
1
  0
DICTIONARY
  5
C
330
A
100
AcDbDictionary
280
0
281
1
  0
DICTIONARY
  5
D
330
A
100
AcDbDictionary
280
0
281
1
  3
Model
350
1A
  3
Layout1
350
1E
  0
DICTIONARY
  5
E
330
A
100
AcDbDictionary
280
0
281
1
  3
ByBlock
350
1F
  3
ByLayer
350
20
  3
Global
350
21
  0
DICTIONARY
  5
F
330
A
100
AcDbDictionary
280
0
281
1
  3
Standard
350
2C
  0
DICTIONARY
  5
10
330
A
100
AcDbDictionary
280
0
281
1
  3
Standard
350
22
  0
DICTIONARY
  5
11
330
A
100
AcDbDictionary
280
0
281
1
  0
ACDBDICTIONARYWDFLT
  5
12
330
A
100
AcDbDictionary
280
0
281
1
  3
Normal
350
13
100
AcDbDictionaryWithDefault
340
13
  0
ACDBPLACEHOLDER
  5
13
330
12
  0
DICTIONARY
  5
14
330
A
100
AcDbDictionary
280
0
281
1
  0
DICTIONARY
  5
15
330
A
100
AcDbDictionary
280
0
281
1
  0
DICTIONARY
  5
16
330
A
100
AcDbDictionary
280
0
281
1
  0
LAYOUT
  5
1A
330
D
100
AcDbPlotSettings
  1

  4
A3
  6

 40
7.5
 41
20.0
 42
7.5
 43
20.0
 44
420.0
 45
297.0
 46
0.0
 47
0.0
 48
0.0
 49
0.0
140
0.0
141
0.0
142
1.0
143
1.0
 70
1024
 72
1
 73
0
 74
5
  7

 75
16
 76
0
 77
2
 78
300
147
1.0
148
0.0
149
0.0
100
AcDbLayout
  1
Model
 70
1
 71
0
 10
0.0
 20
0.0
 11
420.0
 21
297.0
 12
0.0
 22
0.0
 32
0.0
 14
1e+20
 24
1e+20
 34
1e+20
 15
-1e+20
 25
-1e+20
 35
-1e+20
146
0.0
 13
0.0
 23
0.0
 33
0.0
 16
1.0
 26
0.0
 36
0.0
 17
0.0
 27
1.0
 37
0.0
 76
1
330
17
  0
LAYOUT
  5
1E
330
D
100
AcDbPlotSettings
  1

  4
A3
  6

 40
7.5
 41
20.0
 42
7.5
 43
20.0
 44
420.0
 45
297.0
 46
0.0
 47
0.0
 48
0.0
 49
0.0
140
0.0
141
0.0
142
1.0
143
1.0
 70
0
 72
1
 73
0
 74
5
  7

 75
16
 76
0
 77
2
 78
300
147
1.0
148
0.0
149
0.0
100
AcDbLayout
  1
Layout1
 70
1
 71
1
 10
0.0
 20
0.0
 11
420.0
 21
297.0
 12
0.0
 22
0.0
 32
0.0
 14
1e+20
 24
1e+20
 34
1e+20
 15
-1e+20
 25
-1e+20
 35
-1e+20
146
0.0
 13
0.0
 23
0.0
 33
0.0
 16
1.0
 26
0.0
 36
0.0
 17
0.0
 27
1.0
 37
0.0
 76
1
330
1B
  0
MATERIAL
  5
1F
102
{ACAD_REACTORS
330
E
102
}
330
E
100
AcDbMaterial
  1
ByBlock
  2

 70
0
 40
1.0
 71
1
 41
1.0
 91
-1023410177
 42
1.0
 72
1
  3

 73
1
 74
1
 75
1
 44
0.5
 73
0
 45
1.0
 46
1.0
 77
1
  4

 78
1
 79
1
170
1
 48
1.0
171
1
  6

172
1
173
1
174
1
140
1.0
141
1.0
175
1
  7

176
1
177
1
178
1
143
1.0
179
1
  8

270
1
271
1
272
1
145
1.0
146
1.0
273
1
  9

274
1
275
1
276
1
 42
1.0
 72
1
  3

 73
1
 74
1
 75
1
 94
63
  0
MATERIAL
  5
20
102
{ACAD_REACTORS
330
E
102
}
330
E
100
AcDbMaterial
  1
ByLayer
  2

 70
0
 40
1.0
 71
1
 41
1.0
 91
-1023410177
 42
1.0
 72
1
  3

 73
1
 74
1
 75
1
 44
0.5
 73
0
 45
1.0
 46
1.0
 77
1
  4

 78
1
 79
1
170
1
 48
1.0
171
1
  6

172
1
173
1
174
1
140
1.0
141
1.0
175
1
  7

176
1
177
1
178
1
143
1.0
179
1
  8

270
1
271
1
272
1
145
1.0
146
1.0
273
1
  9

274
1
275
1
276
1
 42
1.0
 72
1
  3

 73
1
 74
1
 75
1
 94
63
  0
MATERIAL
  5
21
102
{ACAD_REACTORS
330
E
102
}
330
E
100
AcDbMaterial
  1
Global
  2

 70
0
 40
1.0
 71
1
 41
1.0
 91
-1023410177
 42
1.0
 72
1
  3

 73
1
 74
1
 75
1
 44
0.5
 73
0
 45
1.0
 46
1.0
 77
1
  4

 78
1
 79
1
170
1
 48
1.0
171
1
  6

172
1
173
1
174
1
140
1.0
141
1.0
175
1
  7

176
1
177
1
178
1
143
1.0
179
1
  8

270
1
271
1
272
1
145
1.0
146
1.0
273
1
  9

274
1
275
1
276
1
 42
1.0
 72
1
  3

 73
1
 74
1
 75
1
 94
63
  0
MLINESTYLE
  5
22
102
{ACAD_REACTORS
330
10
102
}
330
10
100
AcDbMlineStyle
  2
Standard
 70
0
  3

 62
256
 51
90.0
 52
90.0
 71
2
 49
0.5
 62
256
  6
BYLAYER
 49
-0.5
 62
256
  6
BYLAYER
  0
MLEADERSTYLE
  5
2C
102
{ACAD_REACTORS
330
F
102
}
330
F
100
AcDbMLeaderStyle
179
2
170
2
171
1
172
0
 90
2
 40
0.0
 41
0.0
173
1
 91
-1056964608
 92
-2
290
1
 42
2.0
291
1
 43
8.0
  3
Standard
 44
4.0
300

342
29
174
1
175
1
176
0
178
1
 93
-1056964608
 45
4.0
292
0
297
0
 46
4.0
 94
-1056964608
 47
1.0
 49
1.0
140
1.0
294
1
141
0.0
177
0
142
1.0
295
0
296
0
143
3.75
271
0
272
9
273
9
  0
DICTIONARY
  5
2D
330
A
100
AcDbDictionary
281
1
  3
CREATED_BY_EZDXF
350
2E
  3
WRITTEN_BY_EZDXF
350
190
  0
DICTIONARYVAR
  5
2E
330
2D
100
DictionaryVariables
280
0
  1
1.3.1 @ 2024-07-19T17:58:41.493831+00:00
  0
DICTIONARYVAR
  5
190
330
2D
100
DictionaryVariables
280
0
  1
1.3.1 @ 2024-07-19T17:58:41.510628+00:00
  0
ENDSEC
  0
EOF
