  0
SECTION
  2
HEADER
  9
$ACADVER
  1
AC1027
  9
$ACADMAINTVER
 70
105
  9
$DWGCODEPAGE
  3
ANSI_1252
  9
$LASTSAVEDBY
  1
ezdxf
  9
$REQUIREDVERSIONS
160
0
  9
$INSBASE
 10
0.0
 20
0.0
 30
0.0
  9
$EXTMIN
 10
1e+20
 20
1e+20
 30
1e+20
  9
$EXTMAX
 10
-1e+20
 20
-1e+20
 30
-1e+20
  9
$LIMMIN
 10
0.0
 20
0.0
  9
$LIMMAX
 10
420.0
 20
297.0
  9
$ORTHOMODE
 70
0
  9
$REGENMODE
 70
1
  9
$FILLMODE
 70
1
  9
$QTEXTMODE
 70
0
  9
$MIRRTEXT
 70
1
  9
$LTSCALE
 40
1.0
  9
$ATTMODE
 70
1
  9
$TEXTSIZE
 40
2.5
  9
$TRACEWID
 40
1.0
  9
$TEXTSTYLE
  7
Standard
  9
$CLAYER
  8
0
  9
$CELTYPE
  6
ByLayer
  9
$CECOLOR
 62
256
  9
$CELTSCALE
 40
1.0
  9
$DISPSILH
 70
0
  9
$DIMSCALE
 40
1.0
  9
$DIMASZ
 40
2.5
  9
$DIMEXO
 40
0.625
  9
$DIMDLI
 40
3.75
  9
$DIMRND
 40
0.0
  9
$DIMDLE
 40
0.0
  9
$DIMEXE
 40
1.25
  9
$DIMTP
 40
0.0
  9
$DIMTM
 40
0.0
  9
$DIMTXT
 40
2.5
  9
$DIMCEN
 40
2.5
  9
$DIMTSZ
 40
0.0
  9
$DIMTOL
 70
0
  9
$DIMLIM
 70
0
  9
$DIMTIH
 70
0
  9
$DIMTOH
 70
0
  9
$DIMSE1
 70
0
  9
$DIMSE2
 70
0
  9
$DIMTAD
 70
1
  9
$DIMZIN
 70
8
  9
$DIMBLK
  1

  9
$DIMASO
 70
1
  9
$DIMSHO
 70
1
  9
$DIMPOST
  1

  9
$DIMAPOST
  1

  9
$DIMALT
 70
0
  9
$DIMALTD
 70
3
  9
$DIMALTF
 40
0.03937007874
  9
$DIMLFAC
 40
1.0
  9
$DIMTOFL
 70
1
  9
$DIMTVP
 40
0.0
  9
$DIMTIX
 70
0
  9
$DIMSOXD
 70
0
  9
$DIMSAH
 70
0
  9
$DIMBLK1
  1

  9
$DIMBLK2
  1

  9
$DIMSTYLE
  2
ISO-25
  9
$DIMCLRD
 70
0
  9
$DIMCLRE
 70
0
  9
$DIMCLRT
 70
0
  9
$DIMTFAC
 40
1.0
  9
$DIMGAP
 40
0.625
  9
$DIMJUST
 70
0
  9
$DIMSD1
 70
0
  9
$DIMSD2
 70
0
  9
$DIMTOLJ
 70
0
  9
$DIMTZIN
 70
8
  9
$DIMALTZ
 70
0
  9
$DIMALTTZ
 70
0
  9
$DIMUPT
 70
0
  9
$DIMDEC
 70
2
  9
$DIMTDEC
 70
2
  9
$DIMALTU
 70
2
  9
$DIMALTTD
 70
3
  9
$DIMTXSTY
  7
Standard
  9
$DIMAUNIT
 70
0
  9
$DIMADEC
 70
0
  9
$DIMALTRND
 40
0.0
  9
$DIMAZIN
 70
0
  9
$DIMDSEP
 70
44
  9
$DIMATFIT
 70
3
  9
$DIMFRAC
 70
0
  9
$DIMLDRBLK
  1

  9
$DIMLUNIT
 70
2
  9
$DIMLWD
 70
-2
  9
$DIMLWE
 70
-2
  9
$DIMTMOVE
 70
0
  9
$DIMFXL
 40
1.0
  9
$DIMFXLON
 70
0
  9
$DIMJOGANG
 40
0.785398163397
  9
$DIMTFILL
 70
0
  9
$DIMTFILLCLR
 70
0
  9
$DIMARCSYM
 70
0
  9
$DIMLTYPE
  6

  9
$DIMLTEX1
  6

  9
$DIMLTEX2
  6

  9
$DIMTXTDIRECTION
 70
0
  9
$LUNITS
 70
2
  9
$LUPREC
 70
4
  9
$SKETCHINC
 40
1.0
  9
$FILLETRAD
 40
10.0
  9
$AUNITS
 70
0
  9
$AUPREC
 70
2
  9
$MENU
  1
.
  9
$ELEVATION
 40
0.0
  9
$PELEVATION
 40
0.0
  9
$THICKNESS
 40
0.0
  9
$LIMCHECK
 70
0
  9
$CHAMFERA
 40
0.0
  9
$CHAMFERB
 40
0.0
  9
$CHAMFERC
 40
0.0
  9
$CHAMFERD
 40
0.0
  9
$SKPOLY
 70
0
  9
$TDCREATE
 40
2460512.3339930554
  9
$TDUCREATE
 40
2458532.153996898
  9
$TDUPDATE
 40
2460512.3339930554
  9
$TDUUPDATE
 40
2458532.1544311
  9
$TDINDWG
 40
0.0
  9
$TDUSRTIMER
 40
0.0
  9
$USRTIMER
 70
1
  9
$ANGBASE
 50
0.0
  9
$ANGDIR
 70
0
  9
$PDMODE
 70
0
  9
$PDSIZE
 40
0.0
  9
$PLINEWID
 40
0.0
  9
$SPLFRAME
 70
0
  9
$SPLINETYPE
 70
6
  9
$SPLINESEGS
 70
8
  9
$HANDSEED
  5
164
  9
$SURFTAB1
 70
6
  9
$SURFTAB2
 70
6
  9
$SURFTYPE
 70
6
  9
$SURFU
 70
6
  9
$SURFV
 70
6
  9
$UCSBASE
  2

  9
$UCSNAME
  2

  9
$UCSORG
 10
0.0
 20
0.0
 30
0.0
  9
$UCSXDIR
 10
1.0
 20
0.0
 30
0.0
  9
$UCSYDIR
 10
0.0
 20
1.0
 30
0.0
  9
$UCSORTHOREF
  2

  9
$UCSORTHOVIEW
 70
0
  9
$UCSORGTOP
 10
0.0
 20
0.0
 30
0.0
  9
$UCSORGBOTTOM
 10
0.0
 20
0.0
 30
0.0
  9
$UCSORGLEFT
 10
0.0
 20
0.0
 30
0.0
  9
$UCSORGRIGHT
 10
0.0
 20
0.0
 30
0.0
  9
$UCSORGFRONT
 10
0.0
 20
0.0
 30
0.0
  9
$UCSORGBACK
 10
0.0
 20
0.0
 30
0.0
  9
$PUCSBASE
  2

  9
$PUCSNAME
  2

  9
$PUCSORG
 10
0.0
 20
0.0
 30
0.0
  9
$PUCSXDIR
 10
1.0
 20
0.0
 30
0.0
  9
$PUCSYDIR
 10
0.0
 20
1.0
 30
0.0
  9
$PUCSORTHOREF
  2

  9
$PUCSORTHOVIEW
 70
0
  9
$PUCSORGTOP
 10
0.0
 20
0.0
 30
0.0
  9
$PUCSORGBOTTOM
 10
0.0
 20
0.0
 30
0.0
  9
$PUCSORGLEFT
 10
0.0
 20
0.0
 30
0.0
  9
$PUCSORGRIGHT
 10
0.0
 20
0.0
 30
0.0
  9
$PUCSORGFRONT
 10
0.0
 20
0.0
 30
0.0
  9
$PUCSORGBACK
 10
0.0
 20
0.0
 30
0.0
  9
$USERI1
 70
0
  9
$USERI2
 70
0
  9
$USERI3
 70
0
  9
$USERI4
 70
0
  9
$USERI5
 70
0
  9
$USERR1
 40
0.0
  9
$USERR2
 40
0.0
  9
$USERR3
 40
0.0
  9
$USERR4
 40
0.0
  9
$USERR5
 40
0.0
  9
$WORLDVIEW
 70
1
  9
$SHADEDGE
 70
3
  9
$SHADEDIF
 70
70
  9
$TILEMODE
 70
1
  9
$MAXACTVP
 70
64
  9
$PINSBASE
 10
0.0
 20
0.0
 30
0.0
  9
$PLIMCHECK
 70
0
  9
$PEXTMIN
 10
1e+20
 20
1e+20
 30
1e+20
  9
$PEXTMAX
 10
-1e+20
 20
-1e+20
 30
-1e+20
  9
$PLIMMIN
 10
0.0
 20
0.0
  9
$PLIMMAX
 10
420.0
 20
297.0
  9
$UNITMODE
 70
0
  9
$VISRETAIN
 70
1
  9
$PLINEGEN
 70
0
  9
$PSLTSCALE
 70
1
  9
$TREEDEPTH
 70
3020
  9
$CMLSTYLE
  2
Standard
  9
$CMLJUST
 70
0
  9
$CMLSCALE
 40
20.0
  9
$PROXYGRAPHICS
 70
1
  9
$MEASUREMENT
 70
1
  9
$CELWEIGHT
370
-1
  9
$ENDCAPS
280
0
  9
$JOINSTYLE
280
0
  9
$LWDISPLAY
290
0
  9
$INSUNITS
 70
6
  9
$HYPERLINKBASE
  1

  9
$STYLESHEET
  1

  9
$XEDIT
290
1
  9
$CEPSNTYPE
380
0
  9
$PSTYLEMODE
290
1
  9
$FINGERPRINTGUID
  2
{19C9420B-CE22-4B4F-BAFC-B2B8164B234B}
  9
$VERSIONGUID
  2
{D46EA6B2-29FC-4201-BF12-DB4BB5923295}
  9
$EXTNAMES
290
1
  9
$PSVPSCALE
 40
0.0
  9
$OLESTARTUP
290
0
  9
$SORTENTS
280
127
  9
$INDEXCTL
280
0
  9
$HIDETEXT
280
1
  9
$XCLIPFRAME
280
1
  9
$HALOGAP
280
0
  9
$OBSCOLOR
 70
257
  9
$OBSLTYPE
280
0
  9
$INTERSECTIONDISPLAY
280
0
  9
$INTERSECTIONCOLOR
 70
257
  9
$DIMASSOC
280
2
  9
$PROJECTNAME
  1

  9
$CAMERADISPLAY
290
0
  9
$LENSLENGTH
 40
50.0
  9
$CAMERAHEIGHT
 40
0.0
  9
$STEPSPERSEC
 40
24.0
  9
$STEPSIZE
 40
100.0
  9
$3DDWFPREC
 40
2.0
  9
$PSOLWIDTH
 40
0.005
  9
$PSOLHEIGHT
 40
0.08
  9
$LOFTANG1
 40
1.570796326795
  9
$LOFTANG2
 40
1.570796326795
  9
$LOFTMAG1
 40
0.0
  9
$LOFTMAG2
 40
0.0
  9
$LOFTPARAM
 70
7
  9
$LOFTNORMALS
280
1
  9
$LATITUDE
 40
37.795
  9
$LONGITUDE
 40
-122.394
  9
$NORTHDIRECTION
 40
0.0
  9
$TIMEZONE
 70
-8000
  9
$LIGHTGLYPHDISPLAY
280
1
  9
$TILEMODELIGHTSYNCH
280
1
  9
$CMATERIAL
347
20
  9
$SOLIDHIST
280
0
  9
$SHOWHIST
280
1
  9
$DWFFRAME
280
2
  9
$DGNFRAME
280
2
  9
$REALWORLDSCALE
290
1
  9
$INTERFERECOLOR
 62
256
  9
$CSHADOW
280
0
  9
$SHADOWPLANELOCATION
 40
0.0
  0
ENDSEC
  0
SECTION
  2
CLASSES
  0
CLASS
  1
ACDBDICTIONARYWDFLT
  2
AcDbDictionaryWithDefault
  3
ObjectDBX Classes
 90
0
 91
0
280
0
281
0
  0
CLASS
  1
SUN
  2
AcDbSun
  3
SCENEOE
 90
1153
 91
0
280
0
281
0
  0
CLASS
  1
VISUALSTYLE
  2
AcDbVisualStyle
  3
ObjectDBX Classes
 90
4095
 91
0
280
0
281
0
  0
CLASS
  1
MATERIAL
  2
AcDbMaterial
  3
ObjectDBX Classes
 90
1153
 91
0
280
0
281
0
  0
CLASS
  1
SCALE
  2
AcDbScale
  3
ObjectDBX Classes
 90
1153
 91
0
280
0
281
0
  0
CLASS
  1
TABLESTYLE
  2
AcDbTableStyle
  3
ObjectDBX Classes
 90
4095
 91
0
280
0
281
0
  0
CLASS
  1
MLEADERSTYLE
  2
AcDbMLeaderStyle
  3
ACDB_MLEADERSTYLE_CLASS
 90
4095
 91
0
280
0
281
0
  0
CLASS
  1
DICTIONARYVAR
  2
AcDbDictionaryVar
  3
ObjectDBX Classes
 90
0
 91
0
280
0
281
0
  0
CLASS
  1
CELLSTYLEMAP
  2
AcDbCellStyleMap
  3
ObjectDBX Classes
 90
1152
 91
0
280
0
281
0
  0
CLASS
  1
MENTALRAYRENDERSETTINGS
  2
AcDbMentalRayRenderSettings
  3
SCENEOE
 90
1024
 91
0
280
0
281
0
  0
CLASS
  1
ACDBDETAILVIEWSTYLE
  2
AcDbDetailViewStyle
  3
ObjectDBX Classes
 90
1025
 91
0
280
0
281
0
  0
CLASS
  1
ACDBSECTIONVIEWSTYLE
  2
AcDbSectionViewStyle
  3
ObjectDBX Classes
 90
1025
 91
0
280
0
281
0
  0
CLASS
  1
RASTERVARIABLES
  2
AcDbRasterVariables
  3
ISM
 90
0
 91
0
280
0
281
0
  0
CLASS
  1
LAYOUT
  2
AcDbLayout
  3
ObjectDBX Classes
 90
0
 91
0
280
0
281
0
  0
CLASS
  1
ACDBPLACEHOLDER
  2
AcDbPlaceHolder
  3
ObjectDBX Classes
 90
0
 91
0
280
0
281
0
  0
ENDSEC
  0
SECTION
  2
TABLES
  0
TABLE
  2
VPORT
  5
8
330
0
100
AcDbSymbolTable
 70
1
  0
VPORT
  5
23
330
8
100
AcDbSymbolTableRecord
100
AcDbViewportTableRecord
  2
*Active
 70
0
 10
0.0
 20
0.0
 11
1.0
 21
1.0
 12
0.0
 22
0.0
 13
0.0
 23
0.0
 14
0.5
 24
0.5
 15
0.5
 25
0.5
 16
0.0
 26
0.0
 36
1.0
 17
0.0
 27
0.0
 37
0.0
 40
1000.0
 41
1.34
 42
50.0
 43
0.0
 44
0.0
 50
0.0
 51
0.0
 71
0
 72
1000
 73
1
 74
3
 75
0
 76
0
 77
0
 78
0
281
0
 65
0
146
0.0
  0
ENDTAB
  0
TABLE
  2
LTYPE
  5
2
330
0
100
AcDbSymbolTable
 70
3
  0
LTYPE
  5
24
330
2
100
AcDbSymbolTableRecord
100
AcDbLinetypeTableRecord
  2
ByBlock
 70
0
  3

 72
65
 73
0
 40
0.0
  0
LTYPE
  5
25
330
2
100
AcDbSymbolTableRecord
100
AcDbLinetypeTableRecord
  2
ByLayer
 70
0
  3

 72
65
 73
0
 40
0.0
  0
LTYPE
  5
26
330
2
100
AcDbSymbolTableRecord
100
AcDbLinetypeTableRecord
  2
Continuous
 70
0
  3

 72
65
 73
0
 40
0.0
  0
ENDTAB
  0
TABLE
  2
LAYER
  5
1
330
0
100
AcDbSymbolTable
 70
24
  0
LAYER
  5
27
330
1
100
AcDbSymbolTableRecord
100
AcDbLayerTableRecord
  2
0
 70
0
 62
7
  6
Continuous
370
-3
390
13
347
21
  0
LAYER
  5
28
330
1
100
AcDbSymbolTableRecord
100
AcDbLayerTableRecord
  2
Defpoints
 70
0
 62
7
  6
Continuous
290
0
370
-3
390
13
347
21
  0
LAYER
  5
2F
330
1
100
AcDbSymbolTableRecord
100
AcDbLayerTableRecord
  2
Parking
 70
0
 62
7
  6
Continuous
370
-3
390
13
347
21
  0
LAYER
  5
31
330
1
100
AcDbSymbolTableRecord
100
AcDbLayerTableRecord
  2
Boundary
 70
0
 62
7
  6
Continuous
370
-3
390
13
347
21
  0
LAYER
  5
33
330
1
100
AcDbSymbolTableRecord
100
AcDbLayerTableRecord
  2
Garden
 70
0
 62
7
  6
Continuous
370
-3
390
13
347
21
  0
LAYER
  5
3D
330
1
100
AcDbSymbolTableRecord
100
AcDbLayerTableRecord
  2
BedRoom1
 70
0
 62
7
  6
Continuous
370
-3
390
13
347
21
  0
LAYER
  5
42
330
1
100
AcDbSymbolTableRecord
100
AcDbLayerTableRecord
  2
Entrance_Staircase
 70
0
 62
7
  6
Continuous
370
-3
390
13
347
21
  0
LAYER
  5
4F
330
1
100
AcDbSymbolTableRecord
100
AcDbLayerTableRecord
  2
Staircase
 70
0
 62
7
  6
Continuous
370
-3
390
13
347
21
  0
LAYER
  5
52
330
1
100
AcDbSymbolTableRecord
100
AcDbLayerTableRecord
  2
WashArea
 70
0
 62
7
  6
Continuous
370
-3
390
13
347
21
  0
LAYER
  5
55
330
1
100
AcDbSymbolTableRecord
100
AcDbLayerTableRecord
  2
WashArea_Staircase
 70
0
 62
7
  6
Continuous
370
-3
390
13
347
21
  0
LAYER
  5
5C
330
1
100
AcDbSymbolTableRecord
100
AcDbLayerTableRecord
  2
DiningRoom
 70
0
 62
7
  6
Continuous
370
-3
390
13
347
21
  0
LAYER
  5
61
330
1
100
AcDbSymbolTableRecord
100
AcDbLayerTableRecord
  2
LivingRoom1
 70
0
 62
7
  6
Continuous
370
-3
390
13
347
21
  0
LAYER
  5
63
330
1
100
AcDbSymbolTableRecord
100
AcDbLayerTableRecord
  2
BathRoom1
 70
0
 62
7
  6
Continuous
370
-3
390
13
347
21
  0
LAYER
  5
6B
330
1
100
AcDbSymbolTableRecord
100
AcDbLayerTableRecord
  2
Kitchen
 70
0
 62
7
  6
Continuous
370
-3
390
13
347
21
  0
LAYER
  5
6E
330
1
100
AcDbSymbolTableRecord
100
AcDbLayerTableRecord
  2
PoojaRoom
 70
0
 62
7
  6
Continuous
370
-3
390
13
347
21
  0
LAYER
  5
B6
330
1
100
AcDbSymbolTableRecord
100
AcDbLayerTableRecord
  2
Balcony
 70
0
 62
7
  6
Continuous
370
-3
390
13
347
21
  0
LAYER
  5
C0
330
1
100
AcDbSymbolTableRecord
100
AcDbLayerTableRecord
  2
BedRoom2
 70
0
 62
7
  6
Continuous
370
-3
390
13
347
21
  0
LAYER
  5
C2
330
1
100
AcDbSymbolTableRecord
100
AcDbLayerTableRecord
  2
BedRoom3
 70
0
 62
7
  6
Continuous
370
-3
390
13
347
21
  0
LAYER
  5
E8
330
1
100
AcDbSymbolTableRecord
100
AcDbLayerTableRecord
  2
BathRoom2a
 70
0
 62
7
  6
Continuous
370
-3
390
13
347
21
  0
LAYER
  5
EA
330
1
100
AcDbSymbolTableRecord
100
AcDbLayerTableRecord
  2
BedRoom2a
 70
0
 62
7
  6
Continuous
370
-3
390
13
347
21
  0
LAYER
  5
EC
330
1
100
AcDbSymbolTableRecord
100
AcDbLayerTableRecord
  2
BathRoom2b
 70
0
 62
7
  6
Continuous
370
-3
390
13
347
21
  0
LAYER
  5
EE
330
1
100
AcDbSymbolTableRecord
100
AcDbLayerTableRecord
  2
BathRoom2
 70
0
 62
7
  6
Continuous
370
-3
390
13
347
21
  0
LAYER
  5
F0
330
1
100
AcDbSymbolTableRecord
100
AcDbLayerTableRecord
  2
LivingRoom2
 70
0
 62
7
  6
Continuous
370
-3
390
13
347
21
  0
LAYER
  5
12C
330
1
100
AcDbSymbolTableRecord
100
AcDbLayerTableRecord
  2
Terrace
 70
0
 62
7
  6
Continuous
370
-3
390
13
347
21
  0
ENDTAB
  0
TABLE
  2
STYLE
  5
5
330
0
100
AcDbSymbolTable
 70
1
  0
STYLE
  5
29
330
5
100
AcDbSymbolTableRecord
100
AcDbTextStyleTableRecord
  2
Standard
 70
0
 40
0.0
 41
1.0
 50
0.0
 71
0
 42
2.5
  3
txt
  4

  0
ENDTAB
  0
TABLE
  2
VIEW
  5
7
330
0
100
AcDbSymbolTable
 70
0
  0
ENDTAB
  0
TABLE
  2
UCS
  5
6
330
0
100
AcDbSymbolTable
 70
0
  0
ENDTAB
  0
TABLE
  2
APPID
  5
3
330
0
100
AcDbSymbolTable
 70
3
  0
APPID
  5
2A
330
3
100
AcDbSymbolTableRecord
100
AcDbRegAppTableRecord
  2
ACAD
 70
0
  0
APPID
  5
161
330
3
100
AcDbSymbolTableRecord
100
AcDbRegAppTableRecord
  2
HATCHBACKGROUNDCOLOR
 70
0
  0
APPID
  5
162
330
3
100
AcDbSymbolTableRecord
100
AcDbRegAppTableRecord
  2
EZDXF
 70
0
  0
ENDTAB
  0
TABLE
  2
DIMSTYLE
  5
4
330
0
100
AcDbSymbolTable
 70
1
100
AcDbDimStyleTable
  0
DIMSTYLE
105
2B
330
4
100
AcDbSymbolTableRecord
100
AcDbDimStyleTableRecord
  2
Standard
 70
0
 40
1.0
 41
2.5
 42
0.625
 43
3.75
 44
1.25
 45
0.0
 46
0.0
 47
0.0
 48
0.0
 49
2.5
140
2.5
141
2.5
142
0.0
143
0.03937007874
144
1.0
145
0.0
146
1.0
147
0.625
148
0.0
 69
0
 70
0
 71
0
 72
0
 73
0
 74
0
 75
0
 76
0
 77
1
 78
8
 79
3
170
0
171
3
172
1
173
0
174
0
175
0
176
0
177
0
178
0
179
2
271
2
272
2
273
2
274
3
275
0
276
0
277
2
278
44
279
0
280
0
281
0
282
0
283
0
284
8
285
0
286
0
288
0
289
3
290
0
371
-2
372
-2
  0
ENDTAB
  0
TABLE
  2
BLOCK_RECORD
  5
9
330
0
100
AcDbSymbolTable
 70
2
  0
BLOCK_RECORD
  5
17
330
9
100
AcDbSymbolTableRecord
100
AcDbBlockTableRecord
  2
*Model_Space
340
1A
 70
0
280
1
281
0
  0
BLOCK_RECORD
  5
1B
330
9
100
AcDbSymbolTableRecord
100
AcDbBlockTableRecord
  2
*Paper_Space
340
1E
 70
0
280
1
281
0
  0
ENDTAB
  0
ENDSEC
  0
SECTION
  2
BLOCKS
  0
BLOCK
  5
18
330
17
100
AcDbEntity
  8
0
100
AcDbBlockBegin
  2
*Model_Space
 70
0
 10
0.0
 20
0.0
 30
0.0
  3
*Model_Space
  1

  0
ENDBLK
  5
19
330
17
100
AcDbEntity
  8
0
100
AcDbBlockEnd
  0
BLOCK
  5
1C
330
1B
100
AcDbEntity
  8
0
100
AcDbBlockBegin
  2
*Paper_Space
 70
0
 10
0.0
 20
0.0
 30
0.0
  3
*Paper_Space
  1

  0
ENDBLK
  5
1D
330
1B
100
AcDbEntity
  8
0
100
AcDbBlockEnd
  0
ENDSEC
  0
SECTION
  2
ENTITIES
  0
LINE
  5
30
330
17
100
AcDbEntity
  8
Parking
100
AcDbLine
 10
8.999999999999943
 20
0.0
 30
0.0
 11
176.99999999999994
 21
0.0
 31
0.0
  0
LINE
  5
32
330
17
100
AcDbEntity
  8
Boundary
100
AcDbLine
 10
176.99999999999994
 20
0.0
 30
0.0
 11
420.00000000000006
 21
0.0
 31
0.0
  0
LINE
  5
34
330
17
100
AcDbEntity
  8
Garden
100
AcDbLine
 10
176.99999999999994
 20
8.999999999999773
 30
0.0
 11
411.00000000000006
 21
9.0
 31
0.0
  0
LINE
  5
35
330
17
100
AcDbEntity
  8
Parking
100
AcDbLine
 10
177.0
 20
1.1368683772161603e-13
 30
0.0
 11
177.0
 21
182.37894736842117
 31
0.0
  0
LINE
  5
36
330
17
100
AcDbEntity
  8
Boundary
100
AcDbLine
 10
0.0
 20
0.0
 30
0.0
 11
8.999999999999943
 21
0.0
 31
0.0
  0
LINE
  5
37
330
17
100
AcDbEntity
  8
Parking
100
AcDbLine
 10
8.999999999999943
 20
0.0
 30
0.0
 11
8.999999999999943
 21
234.0
 31
0.0
  0
LINE
  5
38
330
17
100
AcDbEntity
  8
Boundary
100
AcDbLine
 10
0.0
 20
0.0
 30
0.0
 11
0.0
 21
540.0
 31
0.0
  0
LINE
  5
39
330
17
100
AcDbEntity
  8
Garden
100
AcDbLine
 10
411.00000000000006
 20
9.0
 30
0.0
 11
411.00000000000006
 21
48.536842105263176
 31
0.0
  0
LINE
  5
3A
330
17
100
AcDbEntity
  8
Boundary
100
AcDbLine
 10
420.00000000000006
 20
0.0
 30
0.0
 11
420.00000000000006
 21
540.0
 31
0.0
  0
MTEXT
  5
3B
330
17
100
AcDbEntity
  8
Garden
100
AcDbMText
 10
249.86140978474936
 20
33.77197851848676
 30
0.0
 40
2.5
 71
1
  1
GARDEN
  0
MTEXT
  5
3C
330
17
100
AcDbEntity
  8
Parking
100
AcDbMText
 10
83.98525021666984
 20
94.92887760450917
 30
0.0
 40
2.5
 71
1
  1
PARKING
  0
LINE
  5
3E
330
17
100
AcDbEntity
  8
BedRoom1
100
AcDbLine
 10
185.99999999999994
 20
57.536842105263176
 30
0.0
 11
185.99999999999994
 21
243.0
 31
0.0
  0
LINE
  5
3F
330
17
100
AcDbEntity
  8
Garden
100
AcDbLine
 10
176.99999999999994
 20
48.536842105263176
 30
0.0
 11
411.00000000000006
 21
48.536842105263176
 31
0.0
  0
LINE
  5
40
330
17
100
AcDbEntity
  8
BedRoom1
100
AcDbLine
 10
185.99999999999994
 20
57.536842105263176
 30
0.0
 11
411.00000000000006
 21
57.536842105263176
 31
0.0
  0
LINE
  5
41
330
17
100
AcDbEntity
  8
BedRoom1
100
AcDbLine
 10
411.00000000000006
 20
57.536842105263176
 30
0.0
 11
411.00000000000006
 21
238.0
 31
0.0
  0
LINE
  5
43
330
17
100
AcDbEntity
  8
Entrance_Staircase
100
AcDbLine
 10
176.9999999999984
 20
182.37894736842117
 30
0.0
 11
176.99999999999994
 21
243.0
 31
0.0
  0
LINE
  5
44
330
17
100
AcDbEntity
  8
Entrance_Staircase
100
AcDbLine
 10
93.35257051162193
 20
182.37894736842117
 30
0.0
 11
93.35257051162193
 21
234.0
 31
0.0
  0
LINE
  5
45
330
17
100
AcDbEntity
  8
Entrance_Staircase
100
AcDbLine
 10
103.35257051162193
 20
192.37894736842117
 30
0.0
 11
103.35257051162193
 21
234.0
 31
0.0
  0
LINE
  5
46
330
17
100
AcDbEntity
  8
Entrance_Staircase
100
AcDbLine
 10
113.35257051162193
 20
202.37894736842117
 30
0.0
 11
113.35257051162193
 21
234.0
 31
0.0
  0
LINE
  5
47
330
17
100
AcDbEntity
  8
Entrance_Staircase
100
AcDbLine
 10
93.35257051162193
 20
182.37894736842117
 30
0.0
 11
176.99999999999994
 21
182.37894736842117
 31
0.0
  0
LINE
  5
48
330
17
100
AcDbEntity
  8
Entrance_Staircase
100
AcDbLine
 10
103.35257051162193
 20
192.37894736842094
 30
0.0
 11
176.99999999999994
 21
192.37894736842117
 31
0.0
  0
LINE
  5
49
330
17
100
AcDbEntity
  8
Entrance_Staircase
100
AcDbLine
 10
113.35257051162193
 20
202.37894736842117
 30
0.0
 11
176.99999999999994
 21
202.37894736842117
 31
0.0
  0
MTEXT
  5
4A
330
17
100
AcDbEntity
  8
BedRoom1
100
AcDbMText
 10
245.3787248780954
 20
156.01922457622464
 30
0.0
 40
2.5
 71
1
  1
BEDROOM1
  0
MTEXT
  5
4B
330
17
100
AcDbEntity
  8
Entrance_Staircase
100
AcDbMText
 10
140.7366598320222
 20
189.31466857987795
 30
0.0
 40
2.5
 71
1
  1
1
  0
MTEXT
  5
4C
330
17
100
AcDbEntity
  8
Entrance_Staircase
100
AcDbMText
 10
140.3880507804023
 20
200.29962535538215
 30
0.0
 40
2.5
 71
1
  1
2
  0
MTEXT
  5
4D
330
17
100
AcDbEntity
  8
Entrance_Staircase
100
AcDbMText
 10
140.06445513864304
 20
212.45278034021908
 30
0.0
 40
2.5
 71
1
  1
3
  0
LINE
  5
4E
330
17
100
AcDbEntity
  8
Boundary
100
AcDbLine
 10
0.0
 20
540.0
 30
0.0
 11
420.00000000000006
 21
540.0
 31
0.0
  0
MTEXT
  5
50
330
17
100
AcDbEntity
  8
Staircase
100
AcDbMText
 10
30.66266952687323
 20
380.7457142650213
 30
0.0
 40
2.5
 71
1
  1
12
  0
MTEXT
  5
51
330
17
100
AcDbEntity
  8
Staircase
100
AcDbMText
 10
30.66266952687323
 20
370.5898664186583
 30
0.0
 40
2.5
 71
1
  1
11
  0
LINE
  5
53
330
17
100
AcDbEntity
  8
WashArea
100
AcDbLine
 10
255.06784098052577
 20
531.0
 30
0.0
 11
411.00000000000006
 21
531.0
 31
0.0
  0
LINE
  5
54
330
17
100
AcDbEntity
  8
WashArea
100
AcDbLine
 10
255.06784098052577
 20
477.99999999999994
 30
0.0
 11
358.405063291139
 21
477.99999999999994
 31
0.0
  0
LINE
  5
56
330
17
100
AcDbEntity
  8
WashArea_Staircase
100
AcDbLine
 10
255.06784098052577
 20
477.99999999999994
 30
0.0
 11
255.06784098052577
 21
531.0
 31
0.0
  0
LINE
  5
57
330
17
100
AcDbEntity
  8
WashArea_Staircase
100
AcDbLine
 10
245.06784098052577
 20
477.9999999999999
 30
0.0
 11
245.06784098052577
 21
531.0
 31
0.0
  0
LINE
  5
58
330
17
100
AcDbEntity
  8
WashArea_Staircase
100
AcDbLine
 10
235.0678409805259
 20
477.9999999999999
 30
0.0
 11
235.0678409805259
 21
531.0
 31
0.0
  0
LINE
  5
59
330
17
100
AcDbEntity
  8
Parking
100
AcDbLine
 10
8.999999999999943
 20
234.0
 30
0.0
 11
93.35257051162193
 21
234.0
 31
0.0
  0
LINE
  5
5A
330
17
100
AcDbEntity
  8
WashArea_Staircase
100
AcDbLine
 10
199.0
 20
531.0
 30
0.0
 11
255.06784098052577
 21
531.0
 31
0.0
  0
LINE
  5
5B
330
17
100
AcDbEntity
  8
WashArea_Staircase
100
AcDbLine
 10
199.0
 20
507.9999999999999
 30
0.0
 11
199.0
 21
531.0
 31
0.0
  0
LINE
  5
5D
330
17
100
AcDbEntity
  8
DiningRoom
100
AcDbLine
 10
194.0000000000001
 20
507.9999999999999
 30
0.0
 11
194.0000000000001
 21
531.0
 31
0.0
  0
LINE
  5
5E
330
17
100
AcDbEntity
  8
Staircase
100
AcDbLine
 10
8.999999999999943
 20
243.0
 30
0.0
 11
128.99999999999994
 21
243.0
 31
0.0
  0
LINE
  5
5F
330
17
100
AcDbEntity
  8
Entrance_Staircase
100
AcDbLine
 10
128.99999999999972
 20
234.0
 30
0.0
 11
128.99999999999972
 21
243.0
 31
0.0
  0
LINE
  5
60
330
17
100
AcDbEntity
  8
DiningRoom
100
AcDbLine
 10
194.0
 20
472.9999999999999
 30
0.0
 11
194.0
 21
477.9999999999999
 31
0.0
  0
LINE
  5
62
330
17
100
AcDbEntity
  8
LivingRoom1
100
AcDbLine
 10
221.76541684347734
 20
237.9999999999999
 30
0.0
 11
221.76541684347734
 21
249.9999999999999
 31
0.0
  0
LINE
  5
64
330
17
100
AcDbEntity
  8
BathRoom1
100
AcDbLine
 10
226.76541684347723
 20
237.9999999999999
 30
0.0
 11
226.76541684347723
 21
249.9999999999999
 31
0.0
  0
LINE
  5
65
330
17
100
AcDbEntity
  8
BathRoom1
100
AcDbLine
 10
221.76541684347734
 20
279.9999999999999
 30
0.0
 11
226.76541684347723
 21
279.9999999999999
 31
0.0
  0
MTEXT
  5
66
330
17
100
AcDbEntity
  8
Staircase
100
AcDbMText
 10
61.49882421000609
 20
430.28063441960904
 30
0.0
 40
2.5
 71
1
  1
17
  0
LINE
  5
67
330
17
100
AcDbEntity
  8
BathRoom1
100
AcDbLine
 10
221.76541684347734
 20
249.9999999999999
 30
0.0
 11
226.76541684347723
 21
249.9999999999999
 31
0.0
  0
MTEXT
  5
68
330
17
100
AcDbEntity
  8
Staircase
100
AcDbMText
 10
29.458851204632026
 20
435.96444117085537
 30
0.0
 40
2.5
 71
1
  1
16
  0
MTEXT
  5
69
330
17
100
AcDbEntity
  8
Staircase
100
AcDbMText
 10
29.84972751431991
 20
400.8381436347539
 30
0.0
 40
2.5
 71
1
  1
14
  0
MTEXT
  5
6A
330
17
100
AcDbEntity
  8
BathRoom1
100
AcDbMText
 10
250.94155662278519
 20
285.98471231644817
 30
0.0
 40
2.5
 71
1
  1
BATHROOM1
  0
MTEXT
  5
6C
330
17
100
AcDbEntity
  8
Kitchen
100
AcDbMText
 10
254.54010802173792
 20
406.19492400663637
 30
0.0
 40
2.5
 71
1
  1
KITCHEN 
  0
MTEXT
  5
6D
330
17
100
AcDbEntity
  8
LivingRoom1
100
AcDbMText
 10
126.1920855022235
 20
345.5619224875983
 30
0.0
 40
2.5
 71
1
  1
LIVINGROOM1
  0
MTEXT
  5
6F
330
17
100
AcDbEntity
  8
PoojaRoom
100
AcDbMText
 10
21.2546052695688
 20
495.3459997791942
 30
0.0
 40
2.5
 71
1
  1
POOJAROOM
  0
MTEXT
  5
70
330
17
100
AcDbEntity
  8
WashArea
100
AcDbMText
 10
286.48816931973107
 20
505.15231361888976
 30
0.0
 40
2.5
 71
1
  1
WASHAREA
  0
MTEXT
  5
71
330
17
100
AcDbEntity
  8
WashArea
100
AcDbMText
 10
120.72213634721072
 20
499.362215332454
 30
0.0
 40
2.5
 71
1
  1
DININGROOM
  0
MTEXT
  5
72
330
17
100
AcDbEntity
  8
Entrance_Staircase
100
AcDbMText
 10
136.12344572816244
 20
235.2447735241824
 30
0.0
 40
2.5
 71
1
  1
ENTRANCE
  0
MTEXT
  5
73
330
17
100
AcDbEntity
  8
Entrance_Staircase
100
AcDbMText
 10
149.0021167663612
 20
226.6810829573787
 30
0.0
 40
2.5
 71
1
  1
+24''
  0
MTEXT
  5
74
330
17
100
AcDbEntity
  8
WashArea_Staircase
100
AcDbMText
 10
248.6898257431307
 20
504.3189610185863
 30
0.0
 40
2.5
 71
1
  1
1
  0
MTEXT
  5
75
330
17
100
AcDbEntity
  8
WashArea_Staircase
100
AcDbMText
 10
237.33886874742342
 20
503.97035196696646
 30
0.0
 40
2.5
 71
1
  1
2
  0
MTEXT
  5
76
330
17
100
AcDbEntity
  8
WashArea_Staircase
100
AcDbMText
 10
226.77172684404644
 20
504.49999999999994
 30
0.0
 40
2.5
 71
1
  1
3
  0
MTEXT
  5
77
330
17
100
AcDbEntity
  8
Staircase
100
AcDbMText
 10
61.00523102299894
 20
263.6306293109851
 30
0.0
 40
2.5
 71
1
  1
1
  0
MTEXT
  5
78
330
17
100
AcDbEntity
  8
Staircase
100
AcDbMText
 10
32.99257552847109
 20
263.1511566972781
 30
0.0
 40
2.5
 71
1
  1
2
  0
MTEXT
  5
79
330
17
100
AcDbEntity
  8
Staircase
100
AcDbMText
 10
32.713721789582394
 20
290.1765934428165
 30
0.0
 40
2.5
 71
1
  1
3
  0
MTEXT
  5
7A
330
17
100
AcDbEntity
  8
Staircase
100
AcDbMText
 10
32.713721789582394
 20
300.7679658007412
 30
0.0
 40
2.5
 71
1
  1
4
  0
MTEXT
  5
7B
330
17
100
AcDbEntity
  8
Staircase
100
AcDbMText
 10
32.713721789582394
 20
310.3538376722953
 30
0.0
 40
2.5
 71
1
  1
5
  0
MTEXT
  5
7C
330
17
100
AcDbEntity
  8
Staircase
100
AcDbMText
 10
32.38853960582571
 20
320.98804505608393
 30
0.0
 40
2.5
 71
1
  1
6
  0
MTEXT
  5
7D
330
17
100
AcDbEntity
  8
Staircase
100
AcDbMText
 10
30.968174708108506
 20
361.35906527382417
 30
0.0
 40
2.5
 71
1
  1
10
  0
MTEXT
  5
7E
330
17
100
AcDbEntity
  8
Staircase
100
AcDbMText
 10
33.11446444305051
 20
350.9260749571248
 30
0.0
 40
2.5
 71
1
  1
9
  0
MTEXT
  5
7F
330
17
100
AcDbEntity
  8
Staircase
100
AcDbMText
 10
33.43964124807184
 20
341.2143642339855
 30
0.0
 40
2.5
 71
1
  1
8
  0
MTEXT
  5
80
330
17
100
AcDbEntity
  8
Staircase
100
AcDbMText
 10
32.95188141927514
 20
330.4861197602434
 30
0.0
 40
2.5
 71
1
  1
7
  0
MTEXT
  5
81
330
17
100
AcDbEntity
  8
Staircase
100
AcDbMText
 10
30.174904319341238
 20
391.0834400171069
 30
0.0
 40
2.5
 71
1
  1
13
  0
MTEXT
  5
82
330
17
100
AcDbEntity
  8
Staircase
100
AcDbMText
 10
30.012315916829607
 20
410.5593790995112
 30
0.0
 40
2.5
 71
1
  1
15
  0
LINE
  5
83
330
17
100
AcDbEntity
  8
Staircase
100
AcDbLine
 10
61.9999999999996
 20
283.0
 30
0.0
 11
61.99999999999994
 21
413.0000000000001
 31
0.0
  0
LINE
  5
84
330
17
100
AcDbEntity
  8
WashArea_Staircase
100
AcDbLine
 10
194.0000000000001
 20
507.9999999999999
 30
0.0
 11
199.0000000000001
 21
507.9999999999999
 31
0.0
  0
LINE
  5
85
330
17
100
AcDbEntity
  8
Staircase
100
AcDbLine
 10
68.99999999999994
 20
243.0
 30
0.0
 11
68.99999999999994
 21
283.0
 31
0.0
  0
LINE
  5
86
330
17
100
AcDbEntity
  8
PoojaRoom
100
AcDbLine
 10
8.999999999999943
 20
459.0
 30
0.0
 11
8.999999999999943
 21
531.0
 31
0.0
  0
LINE
  5
87
330
17
100
AcDbEntity
  8
PoojaRoom
100
AcDbLine
 10
8.999999999999943
 20
531.0
 30
0.0
 11
80.99999999999994
 21
531.0
 31
0.0
  0
LINE
  5
88
330
17
100
AcDbEntity
  8
BedRoom1
100
AcDbLine
 10
221.76541684347734
 20
237.9999999999999
 30
0.0
 11
226.76541684347723
 21
237.9999999999999
 31
0.0
  0
LINE
  5
89
330
17
100
AcDbEntity
  8
Staircase
100
AcDbLine
 10
68.99999999999994
 20
413.0000000000001
 30
0.0
 11
68.99999999999994
 21
454.0
 31
0.0
  0
LINE
  5
8A
330
17
100
AcDbEntity
  8
LivingRoom1
100
AcDbLine
 10
221.76541684347734
 20
279.9999999999999
 30
0.0
 11
221.76541684347734
 21
391.9999999999999
 31
0.0
  0
LINE
  5
8B
330
17
100
AcDbEntity
  8
BathRoom1
100
AcDbLine
 10
226.76541684347723
 20
326.9999999999999
 30
0.0
 11
349.40506329113947
 21
327.0
 31
0.0
  0
LINE
  5
8C
330
17
100
AcDbEntity
  8
Staircase
100
AcDbLine
 10
8.999999999999943
 20
454.0
 30
0.0
 11
85.99999999999994
 21
454.0
 31
0.0
  0
LINE
  5
8D
330
17
100
AcDbEntity
  8
PoojaRoom
100
AcDbLine
 10
8.999999999999943
 20
459.0
 30
0.0
 11
80.99999999999994
 21
459.0
 31
0.0
  0
LINE
  5
8E
330
17
100
AcDbEntity
  8
PoojaRoom
100
AcDbLine
 10
80.99999999999994
 20
519.0
 30
0.0
 11
80.99999999999994
 21
531.0
 31
0.0
  0
LINE
  5
8F
330
17
100
AcDbEntity
  8
BathRoom1
100
AcDbLine
 10
226.76541684347723
 20
279.9999999999999
 30
0.0
 11
226.76541684347723
 21
326.9999999999999
 31
0.0
  0
LINE
  5
90
330
17
100
AcDbEntity
  8
Kitchen
100
AcDbLine
 10
221.7654168434771
 20
391.9999999999998
 30
0.0
 11
226.76541684347723
 21
391.9999999999999
 31
0.0
  0
LINE
  5
91
330
17
100
AcDbEntity
  8
Kitchen
100
AcDbLine
 10
194.0000000000001
 20
472.9999999999999
 30
0.0
 11
349.40506329113947
 21
473.0
 31
0.0
  0
LINE
  5
92
330
17
100
AcDbEntity
  8
WashArea_Staircase
100
AcDbLine
 10
194.0
 20
477.9999999999999
 30
0.0
 11
255.06784098052577
 21
477.9999999999999
 31
0.0
  0
LINE
  5
93
330
17
100
AcDbEntity
  8
BedRoom1
100
AcDbLine
 10
256.7654168434771
 20
237.9999999999999
 30
0.0
 11
411.00000000000006
 21
238.0
 31
0.0
  0
LINE
  5
94
330
17
100
AcDbEntity
  8
BedRoom1
100
AcDbLine
 10
256.7654168434771
 20
237.9999999999999
 30
0.0
 11
256.7654168434771
 21
242.9999999999999
 31
0.0
  0
LINE
  5
95
330
17
100
AcDbEntity
  8
Kitchen
100
AcDbLine
 10
226.76541684347723
 20
331.9999999999999
 30
0.0
 11
226.76541684347723
 21
391.9999999999998
 31
0.0
  0
LINE
  5
96
330
17
100
AcDbEntity
  8
BathRoom1
100
AcDbLine
 10
256.7654168434771
 20
242.9999999999999
 30
0.0
 11
349.40506329113913
 21
243.0
 31
0.0
  0
LINE
  5
97
330
17
100
AcDbEntity
  8
DiningRoom
100
AcDbLine
 10
85.99999999999994
 20
519.0
 30
0.0
 11
85.99999999999994
 21
531.0
 31
0.0
  0
LINE
  5
98
330
17
100
AcDbEntity
  8
Kitchen
100
AcDbLine
 10
226.76541684347723
 20
331.9999999999999
 30
0.0
 11
349.40506329113947
 21
332.0
 31
0.0
  0
LINE
  5
99
330
17
100
AcDbEntity
  8
Staircase
100
AcDbLine
 10
8.999999999999943
 20
343.0
 30
0.0
 11
58.99999999999994
 21
343.0
 31
0.0
  0
LINE
  5
9A
330
17
100
AcDbEntity
  8
Staircase
100
AcDbLine
 10
8.999999999999943
 20
343.0
 30
0.0
 11
58.99999999999994
 21
343.0
 31
0.0
  0
LINE
  5
9B
330
17
100
AcDbEntity
  8
Staircase
100
AcDbLine
 10
8.999999999999943
 20
333.0
 30
0.0
 11
58.99999999999994
 21
333.0000000000001
 31
0.0
  0
LINE
  5
9C
330
17
100
AcDbEntity
  8
Staircase
100
AcDbLine
 10
8.999999999999943
 20
323.0
 30
0.0
 11
58.99999999999994
 21
323.0000000000001
 31
0.0
  0
LINE
  5
9D
330
17
100
AcDbEntity
  8
Staircase
100
AcDbLine
 10
8.999999999999943
 20
313.0
 30
0.0
 11
58.99999999999994
 21
313.0000000000001
 31
0.0
  0
LINE
  5
9E
330
17
100
AcDbEntity
  8
Staircase
100
AcDbLine
 10
8.999999999999943
 20
303.0
 30
0.0
 11
58.99999999999994
 21
303.0000000000001
 31
0.0
  0
LINE
  5
9F
330
17
100
AcDbEntity
  8
Staircase
100
AcDbLine
 10
8.999999999999943
 20
293.0
 30
0.0
 11
58.99999999999994
 21
293.0
 31
0.0
  0
LINE
  5
A0
330
17
100
AcDbEntity
  8
Staircase
100
AcDbLine
 10
8.999999999999943
 20
283.0
 30
0.0
 11
68.99999999999994
 21
283.0
 31
0.0
  0
LINE
  5
A1
330
17
100
AcDbEntity
  8
Staircase
100
AcDbLine
 10
58.99999999999994
 20
243.0
 30
0.0
 11
58.99999999999994
 21
454.0
 31
0.0
  0
LINE
  5
A2
330
17
100
AcDbEntity
  8
Entrance_Staircase
100
AcDbLine
 10
93.35257051162193
 20
234.0
 30
0.0
 11
128.99999999999972
 21
234.0
 31
0.0
  0
LINE
  5
A3
330
17
100
AcDbEntity
  8
Entrance_Staircase
100
AcDbLine
 10
176.99999999999994
 20
243.0
 30
0.0
 11
185.99999999999994
 21
243.00000000000023
 31
0.0
  0
LINE
  5
A4
330
17
100
AcDbEntity
  8
PoojaRoom
100
AcDbLine
 10
80.99999999999994
 20
459.0
 30
0.0
 11
80.99999999999994
 21
471.0
 31
0.0
  0
LINE
  5
A5
330
17
100
AcDbEntity
  8
DiningRoom
100
AcDbLine
 10
85.99999999999994
 20
454.0
 30
0.0
 11
85.99999999999994
 21
471.0
 31
0.0
  0
LINE
  5
A6
330
17
100
AcDbEntity
  8
PoojaRoom
100
AcDbLine
 10
80.99999999999994
 20
471.0
 30
0.0
 11
85.99999999999994
 21
471.0
 31
0.0
  0
LINE
  5
A7
330
17
100
AcDbEntity
  8
PoojaRoom
100
AcDbLine
 10
80.99999999999994
 20
519.0
 30
0.0
 11
85.99999999999994
 21
519.0
 31
0.0
  0
LINE
  5
A8
330
17
100
AcDbEntity
  8
Staircase
100
AcDbLine
 10
8.999999999999943
 20
243.0
 30
0.0
 11
8.999999999999943
 21
454.0
 31
0.0
  0
LINE
  5
A9
330
17
100
AcDbEntity
  8
Staircase
100
AcDbLine
 10
8.999999999999943
 20
373.0
 30
0.0
 11
58.99999999999994
 21
373.0000000000001
 31
0.0
  0
LINE
  5
AA
330
17
100
AcDbEntity
  8
Staircase
100
AcDbLine
 10
8.999999999999943
 20
383.0
 30
0.0
 11
58.99999999999994
 21
383.0000000000001
 31
0.0
  0
LINE
  5
AB
330
17
100
AcDbEntity
  8
Staircase
100
AcDbLine
 10
8.99999999999983
 20
393.0
 30
0.0
 11
58.99999999999994
 21
393.0
 31
0.0
  0
LINE
  5
AC
330
17
100
AcDbEntity
  8
Staircase
100
AcDbLine
 10
8.99999999999983
 20
403.0
 30
0.0
 11
58.99999999999994
 21
403.0
 31
0.0
  0
LINE
  5
AD
330
17
100
AcDbEntity
  8
Staircase
100
AcDbLine
 10
8.99999999999983
 20
413.0
 30
0.0
 11
68.9999999999996
 21
413.0000000000001
 31
0.0
  0
LINE
  5
AE
330
17
100
AcDbEntity
  8
DiningRoom
100
AcDbLine
 10
85.99999999999994
 20
531.0
 30
0.0
 11
194.0
 21
531.0
 31
0.0
  0
LINE
  5
AF
330
17
100
AcDbEntity
  8
Staircase
100
AcDbLine
 10
8.999999999999943
 20
353.0
 30
0.0
 11
58.99999999999994
 21
353.0000000000001
 31
0.0
  0
LINE
  5
B0
330
17
100
AcDbEntity
  8
Staircase
100
AcDbLine
 10
8.999999999999943
 20
363.0
 30
0.0
 11
58.99999999999994
 21
363.0000000000001
 31
0.0
  0
LINE
  5
B1
330
17
100
AcDbEntity
  8
WashArea
100
AcDbLine
 10
358.405063291139
 20
243.0
 30
0.0
 11
358.405063291139
 21
478.0
 31
0.0
  0
LINE
  5
B2
330
17
100
AcDbEntity
  8
Kitchen
100
AcDbLine
 10
349.40506329113947
 20
332.0
 30
0.0
 11
349.40506329113947
 21
473.0
 31
0.0
  0
LINE
  5
B3
330
17
100
AcDbEntity
  8
WashArea
100
AcDbLine
 10
358.405063291139
 20
243.0
 30
0.0
 11
411.00000000000006
 21
243.0
 31
0.0
  0
LINE
  5
B4
330
17
100
AcDbEntity
  8
BathRoom1
100
AcDbLine
 10
349.40506329113913
 20
243.0
 30
0.0
 11
349.40506329113947
 21
327.0
 31
0.0
  0
LINE
  5
B5
330
17
100
AcDbEntity
  8
WashArea
100
AcDbLine
 10
411.00000000000006
 20
243.0
 30
0.0
 11
411.00000000000006
 21
531.0
 31
0.0
  0
MTEXT
  5
B7
330
17
100
AcDbEntity
  8
Balcony
100
AcDbMText
 10
599.611123193461
 20
27.217604075680413
 30
0.0
 40
2.5
 71
1
  1
BALCONY
  0
LINE
  5
B8
330
17
100
AcDbEntity
  8
Balcony
100
AcDbLine
 10
713.8104464080131
 20
7.0
 30
0.0
 11
713.8104464080131
 21
48.536842105263176
 31
0.0
  0
LINE
  5
B9
330
17
100
AcDbEntity
  8
Boundary
100
AcDbLine
 10
530.8104464080131
 20
0.0
 30
0.0
 11
950.8104464080131
 21
0.0
 31
0.0
  0
LINE
  5
BA
330
17
100
AcDbEntity
  8
Balcony
100
AcDbLine
 10
539.8104464080131
 20
7.0
 30
0.0
 11
713.8104464080131
 21
7.0
 31
0.0
  0
LINE
  5
BB
330
17
100
AcDbEntity
  8
Balcony
100
AcDbLine
 10
539.8104464080131
 20
8.999999999999773
 30
0.0
 11
711.8104464080134
 21
8.999999999999773
 31
0.0
  0
LINE
  5
BC
330
17
100
AcDbEntity
  8
Boundary
100
AcDbLine
 10
530.8104464080131
 20
0.0
 30
0.0
 11
530.8104464080131
 21
540.0
 31
0.0
  0
LINE
  5
BD
330
17
100
AcDbEntity
  8
Balcony
100
AcDbLine
 10
711.8104464080134
 20
8.999999999999773
 30
0.0
 11
711.8104464080134
 21
48.536842105263176
 31
0.0
  0
LINE
  5
BE
330
17
100
AcDbEntity
  8
Boundary
100
AcDbLine
 10
950.8104464080131
 20
0.0
 30
0.0
 11
950.8104464080131
 21
540.0
 31
0.0
  0
LINE
  5
BF
330
17
100
AcDbEntity
  8
Boundary
100
AcDbLine
 10
941.8104464080122
 20
0.0
 30
0.0
 11
941.8104464080122
 21
48.536842105263176
 31
0.0
  0
LINE
  5
C1
330
17
100
AcDbEntity
  8
BedRoom2
100
AcDbLine
 10
716.8104464080134
 20
57.536842105263176
 30
0.0
 11
941.8104464080122
 21
57.536842105263176
 31
0.0
  0
LINE
  5
C3
330
17
100
AcDbEntity
  8
BedRoom3
100
AcDbLine
 10
659.8104464080134
 20
57.536842105263176
 30
0.0
 11
659.8104464080134
 21
243.0
 31
0.0
  0
LINE
  5
C4
330
17
100
AcDbEntity
  8
BedRoom3
100
AcDbLine
 10
664.8104464080131
 20
48.536842105263176
 30
0.0
 11
664.8104464080131
 21
243.0
 31
0.0
  0
LINE
  5
C5
330
17
100
AcDbEntity
  8
BedRoom3
100
AcDbLine
 10
539.8104464080131
 20
57.536842105263176
 30
0.0
 11
659.8104464080134
 21
57.536842105263176
 31
0.0
  0
LINE
  5
C6
330
17
100
AcDbEntity
  8
Boundary
100
AcDbLine
 10
711.8104464080134
 20
48.536842105263176
 30
0.0
 11
941.8104464080122
 21
48.536842105263176
 31
0.0
  0
LINE
  5
C7
330
17
100
AcDbEntity
  8
BedRoom2
100
AcDbLine
 10
716.8104464080134
 20
57.536842105263176
 30
0.0
 11
716.8104464080134
 21
243.0
 31
0.0
  0
LINE
  5
C8
330
17
100
AcDbEntity
  8
BedRoom2
100
AcDbLine
 10
711.8104464080134
 20
48.536842105263176
 30
0.0
 11
711.8104464080134
 21
243.00000000000023
 31
0.0
  0
LINE
  5
C9
330
17
100
AcDbEntity
  8
BedRoom3
100
AcDbLine
 10
539.8104464080131
 20
57.53684210526329
 30
0.0
 11
539.8104464080131
 21
237.9999999999999
 31
0.0
  0
LINE
  5
CA
330
17
100
AcDbEntity
  8
Balcony
100
AcDbLine
 10
539.8104464080131
 20
48.536842105263176
 30
0.0
 11
664.8104464080131
 21
48.536842105263176
 31
0.0
  0
LINE
  5
CB
330
17
100
AcDbEntity
  8
BedRoom2
100
AcDbLine
 10
941.8104464080122
 20
57.536842105263176
 30
0.0
 11
941.8104464080122
 21
238.0
 31
0.0
  0
MTEXT
  5
CC
330
17
100
AcDbEntity
  8
BedRoom3
100
AcDbMText
 10
577.6044400121189
 20
152.18954665896246
 30
0.0
 40
2.5
 71
1
  1
BEDROOM3
  0
MTEXT
  5
CD
330
17
100
AcDbEntity
  8
BedRoom2
100
AcDbMText
 10
786.0326139750416
 20
158.45565013981115
 30
0.0
 40
2.5
 71
1
  1
BEDROOM2
  0
LINE
  5
CE
330
17
100
AcDbEntity
  8
Staircase
100
AcDbLine
 10
592.8104464080131
 20
283.0
 30
0.0
 11
592.8104464080134
 21
413.0000000000001
 31
0.0
  0
LINE
  5
CF
330
17
100
AcDbEntity
  8
Staircase
100
AcDbLine
 10
539.8104464080131
 20
403.0
 30
0.0
 11
589.8104464080134
 21
403.0
 31
0.0
  0
LINE
  5
D0
330
17
100
AcDbEntity
  8
Staircase
100
AcDbLine
 10
539.8104464080131
 20
413.0
 30
0.0
 11
599.8104464080129
 21
413.0000000000001
 31
0.0
  0
LINE
  5
D1
330
17
100
AcDbEntity
  8
Staircase
100
AcDbLine
 10
589.8104464080134
 20
243.0
 30
0.0
 11
589.8104464080134
 21
454.0
 31
0.0
  0
LINE
  5
D2
330
17
100
AcDbEntity
  8
Staircase
100
AcDbLine
 10
599.8104464080134
 20
243.0
 30
0.0
 11
599.8104464080134
 21
283.0
 31
0.0
  0
LINE
  5
D3
330
17
100
AcDbEntity
  8
Staircase
100
AcDbLine
 10
599.8104464080134
 20
413.0000000000001
 30
0.0
 11
599.8104464080134
 21
454.0
 31
0.0
  0
LINE
  5
D4
330
17
100
AcDbEntity
  8
Staircase
100
AcDbLine
 10
539.8104464080131
 20
393.0
 30
0.0
 11
589.8104464080134
 21
393.0
 31
0.0
  0
LINE
  5
D5
330
17
100
AcDbEntity
  8
Staircase
100
AcDbLine
 10
539.8104464080134
 20
383.0
 30
0.0
 11
589.8104464080134
 21
383.0000000000001
 31
0.0
  0
LINE
  5
D6
330
17
100
AcDbEntity
  8
Staircase
100
AcDbLine
 10
539.8104464080134
 20
373.0
 30
0.0
 11
589.8104464080134
 21
373.0000000000001
 31
0.0
  0
MTEXT
  5
D7
330
17
100
AcDbEntity
  8
Staircase
100
AcDbMText
 10
561.4731159348867
 20
370.5898664186583
 30
0.0
 40
2.5
 71
1
  1
11
  0
MTEXT
  5
D8
330
17
100
AcDbEntity
  8
Staircase
100
AcDbMText
 10
561.4731159348867
 20
380.7457142650213
 30
0.0
 40
2.5
 71
1
  1
12
  0
MTEXT
  5
D9
330
17
100
AcDbEntity
  8
Staircase
100
AcDbMText
 10
592.3092706180196
 20
430.28063441960904
 30
0.0
 40
2.5
 71
1
  1
17
  0
MTEXT
  5
DA
330
17
100
AcDbEntity
  8
Staircase
100
AcDbMText
 10
560.2692976126455
 20
435.96444117085537
 30
0.0
 40
2.5
 71
1
  1
16
  0
MTEXT
  5
DB
330
17
100
AcDbEntity
  8
Staircase
100
AcDbMText
 10
560.8227623248431
 20
410.5593790995112
 30
0.0
 40
2.5
 71
1
  1
15
  0
MTEXT
  5
DC
330
17
100
AcDbEntity
  8
Staircase
100
AcDbMText
 10
560.6601739223333
 20
400.8381436347539
 30
0.0
 40
2.5
 71
1
  1
14
  0
MTEXT
  5
DD
330
17
100
AcDbEntity
  8
Staircase
100
AcDbMText
 10
560.9853507273547
 20
391.0834400171069
 30
0.0
 40
2.5
 71
1
  1
13
  0
MTEXT
  5
DE
330
17
100
AcDbEntity
  8
Staircase
100
AcDbMText
 10
563.7623278272886
 20
330.4861197602434
 30
0.0
 40
2.5
 71
1
  1
7
  0
MTEXT
  5
DF
330
17
100
AcDbEntity
  8
Staircase
100
AcDbMText
 10
564.2500876560855
 20
341.2143642339855
 30
0.0
 40
2.5
 71
1
  1
8
  0
MTEXT
  5
E0
330
17
100
AcDbEntity
  8
Staircase
100
AcDbMText
 10
563.9249108510639
 20
350.9260749571248
 30
0.0
 40
2.5
 71
1
  1
9
  0
MTEXT
  5
E1
330
17
100
AcDbEntity
  8
Staircase
100
AcDbMText
 10
561.7786211161219
 20
361.35906527382417
 30
0.0
 40
2.5
 71
1
  1
10
  0
MTEXT
  5
E2
330
17
100
AcDbEntity
  8
Staircase
100
AcDbMText
 10
563.1989860138392
 20
320.98804505608393
 30
0.0
 40
2.5
 71
1
  1
6
  0
MTEXT
  5
E3
330
17
100
AcDbEntity
  8
Staircase
100
AcDbMText
 10
563.5241681975958
 20
310.3538376722953
 30
0.0
 40
2.5
 71
1
  1
5
  0
MTEXT
  5
E4
330
17
100
AcDbEntity
  8
Staircase
100
AcDbMText
 10
563.5241681975958
 20
300.7679658007412
 30
0.0
 40
2.5
 71
1
  1
4
  0
MTEXT
  5
E5
330
17
100
AcDbEntity
  8
Staircase
100
AcDbMText
 10
563.5241681975958
 20
290.1765934428165
 30
0.0
 40
2.5
 71
1
  1
3
  0
MTEXT
  5
E6
330
17
100
AcDbEntity
  8
Staircase
100
AcDbMText
 10
563.8030219364846
 20
263.1511566972781
 30
0.0
 40
2.5
 71
1
  1
2
  0
MTEXT
  5
E7
330
17
100
AcDbEntity
  8
Staircase
100
AcDbMText
 10
591.8156774310123
 20
263.6306293109851
 30
0.0
 40
2.5
 71
1
  1
1
  0
MTEXT
  5
E9
330
17
100
AcDbEntity
  8
BathRoom2a
100
AcDbMText
 10
622.7271182684615
 20
491.19379745236944
 30
0.0
 40
2.5
 71
1
  1
BATHROOM2a
  0
MTEXT
  5
EB
330
17
100
AcDbEntity
  8
BedRoom2a
100
AcDbMText
 10
764.0778727101947
 20
462.49124314570173
 30
0.0
 40
2.5
 71
1
  1
BEDROOM2a
  0
MTEXT
  5
ED
330
17
100
AcDbEntity
  8
BathRoom2b
100
AcDbMText
 10
778.8575127105396
 20
354.9424761698498
 30
0.0
 40
2.5
 71
1
  1
BATHROOM2b
  0
MTEXT
  5
EF
330
17
100
AcDbEntity
  8
BathRoom2
100
AcDbMText
 10
781.8915711146617
 20
280.3918258041956
 30
0.0
 40
2.5
 71
1
  1
BATHROOM2
  0
MTEXT
  5
F1
330
17
100
AcDbEntity
  8
LivingRoom2
100
AcDbMText
 10
662.0979383516801
 20
317.04160728995623
 30
0.0
 40
2.5
 71
1
  1
LIVINGROOM2
  0
LINE
  5
F2
330
17
100
AcDbEntity
  8
Staircase
100
AcDbLine
 10
539.8104464080134
 20
363.0
 30
0.0
 11
589.8104464080134
 21
363.0000000000001
 31
0.0
  0
LINE
  5
F3
330
17
100
AcDbEntity
  8
Staircase
100
AcDbLine
 10
539.8104464080134
 20
343.0
 30
0.0
 11
589.8104464080134
 21
343.0
 31
0.0
  0
LINE
  5
F4
330
17
100
AcDbEntity
  8
BathRoom2
100
AcDbLine
 10
752.5758632514908
 20
237.9999999999999
 30
0.0
 11
757.5758632514908
 21
237.9999999999999
 31
0.0
  0
LINE
  5
F5
330
17
100
AcDbEntity
  8
BedRoom2
100
AcDbLine
 10
787.5758632514908
 20
237.9999999999999
 30
0.0
 11
941.8104464080122
 21
238.0
 31
0.0
  0
LINE
  5
F6
330
17
100
AcDbEntity
  8
BathRoom2
100
AcDbLine
 10
787.5758632514908
 20
242.9999999999999
 30
0.0
 11
880.2155096991526
 21
243.0
 31
0.0
  0
LINE
  5
F7
330
17
100
AcDbEntity
  8
BathRoom2
100
AcDbLine
 10
757.5758632514908
 20
326.9999999999999
 30
0.0
 11
880.2155096991526
 21
327.0
 31
0.0
  0
LINE
  5
F8
330
17
100
AcDbEntity
  8
BathRoom2b
100
AcDbLine
 10
757.5758632514908
 20
331.9999999999999
 30
0.0
 11
880.2155096991526
 21
332.0
 31
0.0
  0
LINE
  5
F9
330
17
100
AcDbEntity
  8
LivingRoom2
100
AcDbLine
 10
711.8104464080134
 20
243.00000000000023
 30
0.0
 11
716.8104464080134
 21
243.00000000000023
 31
0.0
  0
LINE
  5
FA
330
17
100
AcDbEntity
  8
LivingRoom2
100
AcDbLine
 10
659.8104464080134
 20
243.0
 30
0.0
 11
664.8104464080131
 21
243.0
 31
0.0
  0
LINE
  5
FB
330
17
100
AcDbEntity
  8
BedRoom3
100
AcDbLine
 10
539.8104464080131
 20
238.0
 30
0.0
 11
623.8104464080134
 21
238.0
 31
0.0
  0
LINE
  5
FC
330
17
100
AcDbEntity
  8
BathRoom2b
100
AcDbLine
 10
736.8104464080136
 20
391.9999999999998
 30
0.0
 11
880.2155096991526
 21
392.0
 31
0.0
  0
LINE
  5
FD
330
17
100
AcDbEntity
  8
BathRoom2a
100
AcDbLine
 10
695.8104464080131
 20
489.0
 30
0.0
 11
695.8104464080131
 21
531.0
 31
0.0
  0
LINE
  5
FE
330
17
100
AcDbEntity
  8
BedRoom2a
100
AcDbLine
 10
700.8104464080134
 20
489.0
 30
0.0
 11
700.8104464080134
 21
531.0
 31
0.0
  0
LINE
  5
FF
330
17
100
AcDbEntity
  8
BedRoom2a
100
AcDbLine
 10
736.8104464080136
 20
397.0000000000007
 30
0.0
 11
880.2155096991526
 21
397.0000000000008
 31
0.0
  0
LINE
  5
100
330
17
100
AcDbEntity
  8
BathRoom2a
100
AcDbLine
 10
592.8104464080131
 20
459.0
 30
0.0
 11
700.8104464080136
 21
459.0
 31
0.0
  0
LINE
  5
101
330
17
100
AcDbEntity
  8
Staircase
100
AcDbLine
 10
539.8104464080134
 20
353.0
 30
0.0
 11
589.8104464080134
 21
353.0000000000001
 31
0.0
  0
LINE
  5
102
330
17
100
AcDbEntity
  8
BedRoom3
100
AcDbLine
 10
623.8104464080129
 20
238.0
 30
0.0
 11
623.8104464080134
 21
243.0
 31
0.0
  0
LINE
  5
103
330
17
100
AcDbEntity
  8
Staircase
100
AcDbLine
 10
539.8104464080131
 20
243.0
 30
0.0
 11
623.8104464080134
 21
243.0
 31
0.0
  0
LINE
  5
104
330
17
100
AcDbEntity
  8
LivingRoom2
100
AcDbLine
 10
695.8104464080131
 20
392.0000000000007
 30
0.0
 11
700.8104464080134
 21
392.0000000000007
 31
0.0
  0
LINE
  5
105
330
17
100
AcDbEntity
  8
Boundary
100
AcDbLine
 10
530.8104464080131
 20
540.0
 30
0.0
 11
950.8104464080131
 21
540.0
 31
0.0
  0
LINE
  5
106
330
17
100
AcDbEntity
  8
Boundary
100
AcDbLine
 10
539.8104464080131
 20
531.0
 30
0.0
 11
587.8104464080131
 21
531.0
 31
0.0
  0
LINE
  5
107
330
17
100
AcDbEntity
  8
BathRoom2a
100
AcDbLine
 10
592.8104464080134
 20
531.0
 30
0.0
 11
695.8104464080131
 21
531.0
 31
0.0
  0
LINE
  5
108
330
17
100
AcDbEntity
  8
Boundary
100
AcDbLine
 10
539.8104464080131
 20
459.0
 30
0.0
 11
587.8104464080131
 21
459.00000000000006
 31
0.0
  0
LINE
  5
109
330
17
100
AcDbEntity
  8
Staircase
100
AcDbLine
 10
539.8104464080131
 20
454.0
 30
0.0
 11
695.8104464080131
 21
454.0
 31
0.0
  0
LINE
  5
10A
330
17
100
AcDbEntity
  8
LivingRoom2
100
AcDbLine
 10
752.5758632514908
 20
237.9999999999999
 30
0.0
 11
752.5758632514908
 21
361.9999999999998
 31
0.0
  0
LINE
  5
10B
330
17
100
AcDbEntity
  8
BathRoom2b
100
AcDbLine
 10
757.5758632514908
 20
331.9999999999999
 30
0.0
 11
757.5758632514908
 21
361.9999999999998
 31
0.0
  0
LINE
  5
10C
330
17
100
AcDbEntity
  8
BathRoom2
100
AcDbLine
 10
757.5758632514908
 20
237.9999999999999
 30
0.0
 11
757.5758632514908
 21
326.9999999999999
 31
0.0
  0
LINE
  5
10D
330
17
100
AcDbEntity
  8
BathRoom2
100
AcDbLine
 10
787.5758632514908
 20
237.9999999999999
 30
0.0
 11
787.5758632514908
 21
242.9999999999999
 31
0.0
  0
LINE
  5
10E
330
17
100
AcDbEntity
  8
Boundary
100
AcDbLine
 10
539.8104464080131
 20
459.0
 30
0.0
 11
539.8104464080131
 21
531.0
 31
0.0
  0
LINE
  5
10F
330
17
100
AcDbEntity
  8
Staircase
100
AcDbLine
 10
539.8104464080131
 20
243.0
 30
0.0
 11
539.8104464080131
 21
454.0
 31
0.0
  0
LINE
  5
110
330
17
100
AcDbEntity
  8
Boundary
100
AcDbLine
 10
587.8104464080131
 20
459.0
 30
0.0
 11
587.8104464080131
 21
531.0
 31
0.0
  0
LINE
  5
111
330
17
100
AcDbEntity
  8
BathRoom2a
100
AcDbLine
 10
592.8104464080131
 20
459.0
 30
0.0
 11
592.8104464080134
 21
531.0
 31
0.0
  0
LINE
  5
112
330
17
100
AcDbEntity
  8
LivingRoom2
100
AcDbLine
 10
695.8104464080131
 20
392.0000000000007
 30
0.0
 11
695.8104464080131
 21
454.0
 31
0.0
  0
LINE
  5
113
330
17
100
AcDbEntity
  8
Staircase
100
AcDbLine
 10
539.8104464080134
 20
333.0
 30
0.0
 11
589.8104464080134
 21
333.0000000000001
 31
0.0
  0
LINE
  5
114
330
17
100
AcDbEntity
  8
Staircase
100
AcDbLine
 10
539.8104464080134
 20
323.0
 30
0.0
 11
589.8104464080134
 21
323.0000000000001
 31
0.0
  0
LINE
  5
115
330
17
100
AcDbEntity
  8
Staircase
100
AcDbLine
 10
539.8104464080134
 20
313.0
 30
0.0
 11
589.8104464080134
 21
313.0000000000001
 31
0.0
  0
LINE
  5
116
330
17
100
AcDbEntity
  8
Staircase
100
AcDbLine
 10
539.8104464080134
 20
303.0
 30
0.0
 11
589.8104464080134
 21
303.0000000000001
 31
0.0
  0
LINE
  5
117
330
17
100
AcDbEntity
  8
Staircase
100
AcDbLine
 10
539.8104464080134
 20
293.0
 30
0.0
 11
589.8104464080134
 21
293.0
 31
0.0
  0
LINE
  5
118
330
17
100
AcDbEntity
  8
Staircase
100
AcDbLine
 10
539.8104464080134
 20
283.0
 30
0.0
 11
599.8104464080134
 21
283.0
 31
0.0
  0
LINE
  5
119
330
17
100
AcDbEntity
  8
BathRoom2b
100
AcDbLine
 10
752.5758632514908
 20
361.9999999999998
 30
0.0
 11
757.5758632514908
 21
361.9999999999999
 31
0.0
  0
LINE
  5
11A
330
17
100
AcDbEntity
  8
Staircase
100
AcDbLine
 10
539.8104464080134
 20
343.0
 30
0.0
 11
589.8104464080134
 21
343.0
 31
0.0
  0
LINE
  5
11B
330
17
100
AcDbEntity
  8
BathRoom2a
100
AcDbLine
 10
695.8104464080131
 20
489.0
 30
0.0
 11
700.8104464080134
 21
489.0
 31
0.0
  0
LINE
  5
11C
330
17
100
AcDbEntity
  8
BedRoom2a
100
AcDbLine
 10
700.8104464080136
 20
392.0000000000007
 30
0.0
 11
700.8104464080136
 21
459.0
 31
0.0
  0
LINE
  5
11D
330
17
100
AcDbEntity
  8
BedRoom2a
100
AcDbLine
 10
700.8104464080134
 20
531.0
 30
0.0
 11
880.2155096991517
 21
531.0
 31
0.0
  0
LINE
  5
11E
330
17
100
AcDbEntity
  8
BedRoom2a
100
AcDbLine
 10
736.8104464080136
 20
392.0000000000007
 30
0.0
 11
736.8104464080136
 21
397.0000000000007
 31
0.0
  0
LINE
  5
11F
330
17
100
AcDbEntity
  8
Boundary
100
AcDbLine
 10
889.2155096991526
 20
243.0
 30
0.0
 11
941.8104464080122
 21
243.0
 31
0.0
  0
LINE
  5
120
330
17
100
AcDbEntity
  8
Boundary
100
AcDbLine
 10
889.2155096991517
 20
531.0
 30
0.0
 11
941.8104464080131
 21
531.0
 31
0.0
  0
LINE
  5
121
330
17
100
AcDbEntity
  8
BathRoom2b
100
AcDbLine
 10
880.2155096991517
 20
332.0
 30
0.0
 11
880.2155096991526
 21
392.0
 31
0.0
  0
LINE
  5
122
330
17
100
AcDbEntity
  8
Boundary
100
AcDbLine
 10
889.2155096991526
 20
243.0
 30
0.0
 11
889.2155096991526
 21
531.0
 31
0.0
  0
LINE
  5
123
330
17
100
AcDbEntity
  8
BathRoom2
100
AcDbLine
 10
880.2155096991526
 20
243.0
 30
0.0
 11
880.2155096991526
 21
327.0
 31
0.0
  0
LINE
  5
124
330
17
100
AcDbEntity
  8
BedRoom2a
100
AcDbLine
 10
880.2155096991517
 20
397.0000000000007
 30
0.0
 11
880.2155096991526
 21
531.0
 31
0.0
  0
LINE
  5
125
330
17
100
AcDbEntity
  8
Boundary
100
AcDbLine
 10
941.8104464080122
 20
243.0
 30
0.0
 11
941.8104464080122
 21
531.0
 31
0.0
  0
LINE
  5
126
330
17
100
AcDbEntity
  8
Boundary
100
AcDbLine
 10
1141.0618826345326
 20
0.0
 30
0.0
 11
1141.0618826345326
 21
540.0
 31
0.0
  0
LINE
  5
127
330
17
100
AcDbEntity
  8
Boundary
100
AcDbLine
 10
1141.0618826345326
 20
0.0
 30
0.0
 11
1561.0618826345326
 21
0.0
 31
0.0
  0
LINE
  5
128
330
17
100
AcDbEntity
  8
Boundary
100
AcDbLine
 10
1150.0618826345326
 20
8.999999999999773
 30
0.0
 11
1552.0618826345326
 21
9.0
 31
0.0
  0
LINE
  5
129
330
17
100
AcDbEntity
  8
Boundary
100
AcDbLine
 10
1150.0618826345326
 20
8.999999999999773
 30
0.0
 11
1150.0618826345326
 21
55.536842105263176
 31
0.0
  0
LINE
  5
12A
330
17
100
AcDbEntity
  8
Boundary
100
AcDbLine
 10
1561.0618826345326
 20
0.0
 30
0.0
 11
1561.0618826345326
 21
540.0
 31
0.0
  0
LINE
  5
12B
330
17
100
AcDbEntity
  8
Boundary
100
AcDbLine
 10
1552.0618826345326
 20
9.0
 30
0.0
 11
1552.0618826345326
 21
531.0
 31
0.0
  0
LINE
  5
12D
330
17
100
AcDbEntity
  8
Terrace
100
AcDbLine
 10
1150.0618826345326
 20
57.536842105263176
 30
0.0
 11
1150.0618826345326
 21
234.0
 31
0.0
  0
LINE
  5
12E
330
17
100
AcDbEntity
  8
Terrace
100
AcDbLine
 10
1150.0618826345326
 20
55.53684210526306
 30
0.0
 11
1492.466945925671
 21
55.536842105263176
 31
0.0
  0
LINE
  5
12F
330
17
100
AcDbEntity
  8
Terrace
100
AcDbLine
 10
1150.0618826345326
 20
57.536842105263176
 30
0.0
 11
1490.466945925672
 21
57.536842105263176
 31
0.0
  0
LINE
  5
130
330
17
100
AcDbEntity
  8
Terrace
100
AcDbLine
 10
1492.466945925671
 20
55.53684210526306
 30
0.0
 11
1492.466945925671
 21
462.99999999999994
 31
0.0
  0
LINE
  5
131
330
17
100
AcDbEntity
  8
Terrace
100
AcDbLine
 10
1490.466945925672
 20
57.536842105263176
 30
0.0
 11
1490.466945925672
 21
454.0
 31
0.0
  0
LINE
  5
132
330
17
100
AcDbEntity
  8
Boundary
100
AcDbLine
 10
1150.0618826345326
 20
531.0
 30
0.0
 11
1552.0618826345326
 21
531.0
 31
0.0
  0
LINE
  5
133
330
17
100
AcDbEntity
  8
Terrace
100
AcDbLine
 10
1210.0618826345326
 20
454.0
 30
0.0
 11
1492.466945925671
 21
454.0
 31
0.0
  0
LINE
  5
134
330
17
100
AcDbEntity
  8
Boundary
100
AcDbLine
 10
1141.0618826345326
 20
540.0
 30
0.0
 11
1561.0618826345326
 21
540.0
 31
0.0
  0
MTEXT
  5
135
330
17
100
AcDbEntity
  8
Terrace
100
AcDbMText
 10
1308.6246263867536
 20
291.6648820873309
 30
0.0
 40
2.5
 71
1
  1
TERRACE
  0
MTEXT
  5
136
330
17
100
AcDbEntity
  8
Staircase
100
AcDbMText
 10
1174.0544581630036
 20
263.1511566972781
 30
0.0
 40
2.5
 71
1
  1
2
  0
LINE
  5
137
330
17
100
AcDbEntity
  8
Staircase
100
AcDbLine
 10
1210.0618826345326
 20
234.0
 30
0.0
 11
1210.0618826345326
 21
243.0
 31
0.0
  0
MTEXT
  5
138
330
17
100
AcDbEntity
  8
Staircase
100
AcDbMText
 10
1173.7756044241146
 20
290.1765934428165
 30
0.0
 40
2.5
 71
1
  1
3
  0
MTEXT
  5
139
330
17
100
AcDbEntity
  8
Staircase
100
AcDbMText
 10
1173.7756044241146
 20
300.7679658007412
 30
0.0
 40
2.5
 71
1
  1
4
  0
MTEXT
  5
13A
330
17
100
AcDbEntity
  8
Staircase
100
AcDbMText
 10
1173.7756044241146
 20
310.3538376722953
 30
0.0
 40
2.5
 71
1
  1
5
  0
MTEXT
  5
13B
330
17
100
AcDbEntity
  8
Staircase
100
AcDbMText
 10
1173.4504222403586
 20
320.98804505608393
 30
0.0
 40
2.5
 71
1
  1
6
  0
MTEXT
  5
13C
330
17
100
AcDbEntity
  8
Staircase
100
AcDbMText
 10
1172.0300573426407
 20
361.35906527382417
 30
0.0
 40
2.5
 71
1
  1
10
  0
MTEXT
  5
13D
330
17
100
AcDbEntity
  8
Staircase
100
AcDbMText
 10
1174.1763470775827
 20
350.9260749571248
 30
0.0
 40
2.5
 71
1
  1
9
  0
MTEXT
  5
13E
330
17
100
AcDbEntity
  8
Staircase
100
AcDbMText
 10
1174.5015238826047
 20
341.2143642339855
 30
0.0
 40
2.5
 71
1
  1
8
  0
MTEXT
  5
13F
330
17
100
AcDbEntity
  8
Staircase
100
AcDbMText
 10
1174.0137640538076
 20
330.4861197602434
 30
0.0
 40
2.5
 71
1
  1
7
  0
MTEXT
  5
140
330
17
100
AcDbEntity
  8
Staircase
100
AcDbMText
 10
1171.2367869538737
 20
391.0834400171069
 30
0.0
 40
2.5
 71
1
  1
13
  0
MTEXT
  5
141
330
17
100
AcDbEntity
  8
Staircase
100
AcDbMText
 10
1170.9116101488526
 20
400.8381436347539
 30
0.0
 40
2.5
 71
1
  1
14
  0
MTEXT
  5
142
330
17
100
AcDbEntity
  8
Staircase
100
AcDbMText
 10
1171.0741985513628
 20
410.5593790995112
 30
0.0
 40
2.5
 71
1
  1
15
  0
MTEXT
  5
143
330
17
100
AcDbEntity
  8
Staircase
100
AcDbMText
 10
1170.5207338391647
 20
435.96444117085537
 30
0.0
 40
2.5
 71
1
  1
16
  0
MTEXT
  5
144
330
17
100
AcDbEntity
  8
Staircase
100
AcDbMText
 10
1202.5607068445386
 20
430.28063441960904
 30
0.0
 40
2.5
 71
1
  1
17
  0
MTEXT
  5
145
330
17
100
AcDbEntity
  8
Staircase
100
AcDbMText
 10
1202.0671136575318
 20
263.6306293109851
 30
0.0
 40
2.5
 71
1
  1
1
  0
MTEXT
  5
146
330
17
100
AcDbEntity
  8
Staircase
100
AcDbMText
 10
1171.7245521614057
 20
380.7457142650213
 30
0.0
 40
2.5
 71
1
  1
12
  0
LINE
  5
147
330
17
100
AcDbEntity
  8
Staircase
100
AcDbLine
 10
1150.0618826345326
 20
454.0
 30
0.0
 11
1210.0618826345326
 21
454.0
 31
0.0
  0
LINE
  5
148
330
17
100
AcDbEntity
  8
Terrace
100
AcDbLine
 10
1150.0618826345326
 20
462.99999999999994
 30
0.0
 11
1492.466945925671
 21
463.0
 31
0.0
  0
LINE
  5
149
330
17
100
AcDbEntity
  8
Staircase
100
AcDbLine
 10
1203.0618826345317
 20
283.0
 30
0.0
 11
1203.0618826345326
 21
413.0000000000001
 31
0.0
  0
LINE
  5
14A
330
17
100
AcDbEntity
  8
Staircase
100
AcDbLine
 10
1210.0618826345326
 20
413.0000000000001
 30
0.0
 11
1210.0618826345326
 21
454.0
 31
0.0
  0
LINE
  5
14B
330
17
100
AcDbEntity
  8
Staircase
100
AcDbLine
 10
1210.0618826345326
 20
243.0
 30
0.0
 11
1210.0618826345326
 21
283.0
 31
0.0
  0
LINE
  5
14C
330
17
100
AcDbEntity
  8
Staircase
100
AcDbLine
 10
1200.0618826345326
 20
243.0
 30
0.0
 11
1200.0618826345326
 21
454.0
 31
0.0
  0
LINE
  5
14D
330
17
100
AcDbEntity
  8
Staircase
100
AcDbLine
 10
1150.0618826345326
 20
413.0
 30
0.0
 11
1210.0618826345317
 21
413.0000000000001
 31
0.0
  0
LINE
  5
14E
330
17
100
AcDbEntity
  8
Staircase
100
AcDbLine
 10
1150.0618826345326
 20
403.0
 30
0.0
 11
1200.0618826345326
 21
403.0
 31
0.0
  0
LINE
  5
14F
330
17
100
AcDbEntity
  8
Staircase
100
AcDbLine
 10
1150.0618826345326
 20
393.0
 30
0.0
 11
1200.0618826345326
 21
393.0
 31
0.0
  0
LINE
  5
150
330
17
100
AcDbEntity
  8
Staircase
100
AcDbLine
 10
1150.0618826345326
 20
383.0
 30
0.0
 11
1200.0618826345326
 21
383.0000000000001
 31
0.0
  0
LINE
  5
151
330
17
100
AcDbEntity
  8
Staircase
100
AcDbLine
 10
1150.0618826345326
 20
373.0
 30
0.0
 11
1200.0618826345326
 21
373.0000000000001
 31
0.0
  0
LINE
  5
152
330
17
100
AcDbEntity
  8
Staircase
100
AcDbLine
 10
1150.0618826345326
 20
363.0
 30
0.0
 11
1200.0618826345326
 21
363.0000000000001
 31
0.0
  0
LINE
  5
153
330
17
100
AcDbEntity
  8
Staircase
100
AcDbLine
 10
1150.0618826345326
 20
353.0
 30
0.0
 11
1200.0618826345326
 21
353.0000000000001
 31
0.0
  0
LINE
  5
154
330
17
100
AcDbEntity
  8
Staircase
100
AcDbLine
 10
1150.0618826345326
 20
343.0
 30
0.0
 11
1200.0618826345326
 21
343.0
 31
0.0
  0
LINE
  5
155
330
17
100
AcDbEntity
  8
Staircase
100
AcDbLine
 10
1150.0618826345326
 20
343.0
 30
0.0
 11
1200.0618826345326
 21
343.0
 31
0.0
  0
LINE
  5
156
330
17
100
AcDbEntity
  8
Staircase
100
AcDbLine
 10
1150.0618826345326
 20
333.0
 30
0.0
 11
1200.0618826345326
 21
333.0000000000001
 31
0.0
  0
LINE
  5
157
330
17
100
AcDbEntity
  8
Staircase
100
AcDbLine
 10
1150.0618826345326
 20
323.0
 30
0.0
 11
1200.0618826345326
 21
323.0000000000001
 31
0.0
  0
LINE
  5
158
330
17
100
AcDbEntity
  8
Boundary
100
AcDbLine
 10
1150.0618826345326
 20
463.0
 30
0.0
 11
1150.0618826345326
 21
531.0
 31
0.0
  0
LINE
  5
159
330
17
100
AcDbEntity
  8
Staircase
100
AcDbLine
 10
1150.0618826345326
 20
243.0
 30
0.0
 11
1150.0618826345326
 21
454.0
 31
0.0
  0
LINE
  5
15A
330
17
100
AcDbEntity
  8
Terrace
100
AcDbLine
 10
1150.0618826345326
 20
234.0
 30
0.0
 11
1210.0618826345326
 21
234.0
 31
0.0
  0
LINE
  5
15B
330
17
100
AcDbEntity
  8
Staircase
100
AcDbLine
 10
1150.0618826345326
 20
283.0
 30
0.0
 11
1210.0618826345326
 21
283.0
 31
0.0
  0
LINE
  5
15C
330
17
100
AcDbEntity
  8
Staircase
100
AcDbLine
 10
1150.0618826345326
 20
293.0
 30
0.0
 11
1200.0618826345326
 21
293.0
 31
0.0
  0
LINE
  5
15D
330
17
100
AcDbEntity
  8
Staircase
100
AcDbLine
 10
1150.0618826345326
 20
303.0
 30
0.0
 11
1200.0618826345326
 21
303.0000000000001
 31
0.0
  0
LINE
  5
15E
330
17
100
AcDbEntity
  8
Staircase
100
AcDbLine
 10
1150.0618826345326
 20
313.0
 30
0.0
 11
1200.0618826345326
 21
313.0000000000001
 31
0.0
  0
LINE
  5
15F
330
17
100
AcDbEntity
  8
Staircase
100
AcDbLine
 10
1150.0618826345326
 20
243.0
 30
0.0
 11
1210.0618826345326
 21
243.0
 31
0.0
  0
MTEXT
  5
160
330
17
100
AcDbEntity
  8
Staircase
100
AcDbMText
 10
1171.7245521614057
 20
370.5898664186583
 30
0.0
 40
2.5
 71
1
  1
11
  0
ENDSEC
  0
SECTION
  2
OBJECTS
  0
DICTIONARY
  5
A
330
0
100
AcDbDictionary
280
0
281
1
  3
ACAD_COLOR
350
B
  3
ACAD_GROUP
350
C
  3
ACAD_LAYOUT
350
D
  3
ACAD_MATERIAL
350
E
  3
ACAD_MLEADERSTYLE
350
F
  3
ACAD_MLINESTYLE
350
10
  3
ACAD_PLOTSETTINGS
350
11
  3
ACAD_PLOTSTYLENAME
350
12
  3
ACAD_SCALELIST
350
14
  3
ACAD_TABLESTYLE
350
15
  3
ACAD_VISUALSTYLE
350
16
  3
EZDXF_META
350
2D
  0
DICTIONARY
  5
B
330
A
100
AcDbDictionary
280
0
281
1
  0
DICTIONARY
  5
C
330
A
100
AcDbDictionary
280
0
281
1
  0
DICTIONARY
  5
D
330
A
100
AcDbDictionary
280
0
281
1
  3
Model
350
1A
  3
Layout1
350
1E
  0
DICTIONARY
  5
E
330
A
100
AcDbDictionary
280
0
281
1
  3
ByBlock
350
1F
  3
ByLayer
350
20
  3
Global
350
21
  0
DICTIONARY
  5
F
330
A
100
AcDbDictionary
280
0
281
1
  3
Standard
350
2C
  0
DICTIONARY
  5
10
330
A
100
AcDbDictionary
280
0
281
1
  3
Standard
350
22
  0
DICTIONARY
  5
11
330
A
100
AcDbDictionary
280
0
281
1
  0
ACDBDICTIONARYWDFLT
  5
12
330
A
100
AcDbDictionary
280
0
281
1
  3
Normal
350
13
100
AcDbDictionaryWithDefault
340
13
  0
ACDBPLACEHOLDER
  5
13
330
12
  0
DICTIONARY
  5
14
330
A
100
AcDbDictionary
280
0
281
1
  0
DICTIONARY
  5
15
330
A
100
AcDbDictionary
280
0
281
1
  0
DICTIONARY
  5
16
330
A
100
AcDbDictionary
280
0
281
1
  0
LAYOUT
  5
1A
330
D
100
AcDbPlotSettings
  1

  4
A3
  6

 40
7.5
 41
20.0
 42
7.5
 43
20.0
 44
420.0
 45
297.0
 46
0.0
 47
0.0
 48
0.0
 49
0.0
140
0.0
141
0.0
142
1.0
143
1.0
 70
1024
 72
1
 73
0
 74
5
  7

 75
16
 76
0
 77
2
 78
300
147
1.0
148
0.0
149
0.0
100
AcDbLayout
  1
Model
 70
1
 71
0
 10
0.0
 20
0.0
 11
420.0
 21
297.0
 12
0.0
 22
0.0
 32
0.0
 14
1e+20
 24
1e+20
 34
1e+20
 15
-1e+20
 25
-1e+20
 35
-1e+20
146
0.0
 13
0.0
 23
0.0
 33
0.0
 16
1.0
 26
0.0
 36
0.0
 17
0.0
 27
1.0
 37
0.0
 76
1
330
17
  0
LAYOUT
  5
1E
330
D
100
AcDbPlotSettings
  1

  4
A3
  6

 40
7.5
 41
20.0
 42
7.5
 43
20.0
 44
420.0
 45
297.0
 46
0.0
 47
0.0
 48
0.0
 49
0.0
140
0.0
141
0.0
142
1.0
143
1.0
 70
0
 72
1
 73
0
 74
5
  7

 75
16
 76
0
 77
2
 78
300
147
1.0
148
0.0
149
0.0
100
AcDbLayout
  1
Layout1
 70
1
 71
1
 10
0.0
 20
0.0
 11
420.0
 21
297.0
 12
0.0
 22
0.0
 32
0.0
 14
1e+20
 24
1e+20
 34
1e+20
 15
-1e+20
 25
-1e+20
 35
-1e+20
146
0.0
 13
0.0
 23
0.0
 33
0.0
 16
1.0
 26
0.0
 36
0.0
 17
0.0
 27
1.0
 37
0.0
 76
1
330
1B
  0
MATERIAL
  5
1F
102
{ACAD_REACTORS
330
E
102
}
330
E
100
AcDbMaterial
  1
ByBlock
  2

 70
0
 40
1.0
 71
1
 41
1.0
 91
-1023410177
 42
1.0
 72
1
  3

 73
1
 74
1
 75
1
 44
0.5
 73
0
 45
1.0
 46
1.0
 77
1
  4

 78
1
 79
1
170
1
 48
1.0
171
1
  6

172
1
173
1
174
1
140
1.0
141
1.0
175
1
  7

176
1
177
1
178
1
143
1.0
179
1
  8

270
1
271
1
272
1
145
1.0
146
1.0
273
1
  9

274
1
275
1
276
1
 42
1.0
 72
1
  3

 73
1
 74
1
 75
1
 94
63
  0
MATERIAL
  5
20
102
{ACAD_REACTORS
330
E
102
}
330
E
100
AcDbMaterial
  1
ByLayer
  2

 70
0
 40
1.0
 71
1
 41
1.0
 91
-1023410177
 42
1.0
 72
1
  3

 73
1
 74
1
 75
1
 44
0.5
 73
0
 45
1.0
 46
1.0
 77
1
  4

 78
1
 79
1
170
1
 48
1.0
171
1
  6

172
1
173
1
174
1
140
1.0
141
1.0
175
1
  7

176
1
177
1
178
1
143
1.0
179
1
  8

270
1
271
1
272
1
145
1.0
146
1.0
273
1
  9

274
1
275
1
276
1
 42
1.0
 72
1
  3

 73
1
 74
1
 75
1
 94
63
  0
MATERIAL
  5
21
102
{ACAD_REACTORS
330
E
102
}
330
E
100
AcDbMaterial
  1
Global
  2

 70
0
 40
1.0
 71
1
 41
1.0
 91
-1023410177
 42
1.0
 72
1
  3

 73
1
 74
1
 75
1
 44
0.5
 73
0
 45
1.0
 46
1.0
 77
1
  4

 78
1
 79
1
170
1
 48
1.0
171
1
  6

172
1
173
1
174
1
140
1.0
141
1.0
175
1
  7

176
1
177
1
178
1
143
1.0
179
1
  8

270
1
271
1
272
1
145
1.0
146
1.0
273
1
  9

274
1
275
1
276
1
 42
1.0
 72
1
  3

 73
1
 74
1
 75
1
 94
63
  0
MLINESTYLE
  5
22
102
{ACAD_REACTORS
330
10
102
}
330
10
100
AcDbMlineStyle
  2
Standard
 70
0
  3

 62
256
 51
90.0
 52
90.0
 71
2
 49
0.5
 62
256
  6
BYLAYER
 49
-0.5
 62
256
  6
BYLAYER
  0
MLEADERSTYLE
  5
2C
102
{ACAD_REACTORS
330
F
102
}
330
F
100
AcDbMLeaderStyle
179
2
170
2
171
1
172
0
 90
2
 40
0.0
 41
0.0
173
1
 91
-1056964608
 92
-2
290
1
 42
2.0
291
1
 43
8.0
  3
Standard
 44
4.0
300

342
29
174
1
175
1
176
0
178
1
 93
-1056964608
 45
4.0
292
0
297
0
 46
4.0
 94
-1056964608
 47
1.0
 49
1.0
140
1.0
294
1
141
0.0
177
0
142
1.0
295
0
296
0
143
3.75
271
0
272
9
273
9
  0
DICTIONARY
  5
2D
330
A
100
AcDbDictionary
281
1
  3
CREATED_BY_EZDXF
350
2E
  3
WRITTEN_BY_EZDXF
350
163
  0
DICTIONARYVAR
  5
2E
330
2D
100
DictionaryVariables
280
0
  1
1.3.1 @ 2024-07-20T08:00:57.333124+00:00
  0
DICTIONARYVAR
  5
163
330
2D
100
DictionaryVariables
280
0
  1
1.3.1 @ 2024-07-20T08:00:57.346631+00:00
  0
ENDSEC
  0
EOF
