  0
SECTION
  2
HEADER
  9
$ACADVER
  1
AC1027
  9
$ACADMAINTVER
 70
105
  9
$DWGCODEPAGE
  3
ANSI_1252
  9
$LASTSAVEDBY
  1
ezdxf
  9
$REQUIREDVERSIONS
160
0
  9
$INSBASE
 10
0.0
 20
0.0
 30
0.0
  9
$EXTMIN
 10
1e+20
 20
1e+20
 30
1e+20
  9
$EXTMAX
 10
-1e+20
 20
-1e+20
 30
-1e+20
  9
$LIMMIN
 10
0.0
 20
0.0
  9
$LIMMAX
 10
420.0
 20
297.0
  9
$ORTHOMODE
 70
0
  9
$REGENMODE
 70
1
  9
$FILLMODE
 70
1
  9
$QTEXTMODE
 70
0
  9
$MIRRTEXT
 70
1
  9
$LTSCALE
 40
1.0
  9
$ATTMODE
 70
1
  9
$TEXTSIZE
 40
2.5
  9
$TRACEWID
 40
1.0
  9
$TEXTSTYLE
  7
Standard
  9
$CLAYER
  8
0
  9
$CELTYPE
  6
ByLayer
  9
$CECOLOR
 62
256
  9
$CELTSCALE
 40
1.0
  9
$DISPSILH
 70
0
  9
$DIMSCALE
 40
1.0
  9
$DIMASZ
 40
2.5
  9
$DIMEXO
 40
0.625
  9
$DIMDLI
 40
3.75
  9
$DIMRND
 40
0.0
  9
$DIMDLE
 40
0.0
  9
$DIMEXE
 40
1.25
  9
$DIMTP
 40
0.0
  9
$DIMTM
 40
0.0
  9
$DIMTXT
 40
2.5
  9
$DIMCEN
 40
2.5
  9
$DIMTSZ
 40
0.0
  9
$DIMTOL
 70
0
  9
$DIMLIM
 70
0
  9
$DIMTIH
 70
0
  9
$DIMTOH
 70
0
  9
$DIMSE1
 70
0
  9
$DIMSE2
 70
0
  9
$DIMTAD
 70
1
  9
$DIMZIN
 70
8
  9
$DIMBLK
  1

  9
$DIMASO
 70
1
  9
$DIMSHO
 70
1
  9
$DIMPOST
  1

  9
$DIMAPOST
  1

  9
$DIMALT
 70
0
  9
$DIMALTD
 70
3
  9
$DIMALTF
 40
0.03937007874
  9
$DIMLFAC
 40
1.0
  9
$DIMTOFL
 70
1
  9
$DIMTVP
 40
0.0
  9
$DIMTIX
 70
0
  9
$DIMSOXD
 70
0
  9
$DIMSAH
 70
0
  9
$DIMBLK1
  1

  9
$DIMBLK2
  1

  9
$DIMSTYLE
  2
ISO-25
  9
$DIMCLRD
 70
0
  9
$DIMCLRE
 70
0
  9
$DIMCLRT
 70
0
  9
$DIMTFAC
 40
1.0
  9
$DIMGAP
 40
0.625
  9
$DIMJUST
 70
0
  9
$DIMSD1
 70
0
  9
$DIMSD2
 70
0
  9
$DIMTOLJ
 70
0
  9
$DIMTZIN
 70
8
  9
$DIMALTZ
 70
0
  9
$DIMALTTZ
 70
0
  9
$DIMUPT
 70
0
  9
$DIMDEC
 70
2
  9
$DIMTDEC
 70
2
  9
$DIMALTU
 70
2
  9
$DIMALTTD
 70
3
  9
$DIMTXSTY
  7
Standard
  9
$DIMAUNIT
 70
0
  9
$DIMADEC
 70
0
  9
$DIMALTRND
 40
0.0
  9
$DIMAZIN
 70
0
  9
$DIMDSEP
 70
44
  9
$DIMATFIT
 70
3
  9
$DIMFRAC
 70
0
  9
$DIMLDRBLK
  1

  9
$DIMLUNIT
 70
2
  9
$DIMLWD
 70
-2
  9
$DIMLWE
 70
-2
  9
$DIMTMOVE
 70
0
  9
$DIMFXL
 40
1.0
  9
$DIMFXLON
 70
0
  9
$DIMJOGANG
 40
0.785398163397
  9
$DIMTFILL
 70
0
  9
$DIMTFILLCLR
 70
0
  9
$DIMARCSYM
 70
0
  9
$DIMLTYPE
  6

  9
$DIMLTEX1
  6

  9
$DIMLTEX2
  6

  9
$DIMTXTDIRECTION
 70
0
  9
$LUNITS
 70
2
  9
$LUPREC
 70
4
  9
$SKETCHINC
 40
1.0
  9
$FILLETRAD
 40
10.0
  9
$AUNITS
 70
0
  9
$AUPREC
 70
2
  9
$MENU
  1
.
  9
$ELEVATION
 40
0.0
  9
$PELEVATION
 40
0.0
  9
$THICKNESS
 40
0.0
  9
$LIMCHECK
 70
0
  9
$CHAMFERA
 40
0.0
  9
$CHAMFERB
 40
0.0
  9
$CHAMFERC
 40
0.0
  9
$CHAMFERD
 40
0.0
  9
$SKPOLY
 70
0
  9
$TDCREATE
 40
2460512.3337731482
  9
$TDUCREATE
 40
2458532.153996898
  9
$TDUPDATE
 40
2460512.3337731482
  9
$TDUUPDATE
 40
2458532.1544311
  9
$TDINDWG
 40
0.0
  9
$TDUSRTIMER
 40
0.0
  9
$USRTIMER
 70
1
  9
$ANGBASE
 50
0.0
  9
$ANGDIR
 70
0
  9
$PDMODE
 70
0
  9
$PDSIZE
 40
0.0
  9
$PLINEWID
 40
0.0
  9
$SPLFRAME
 70
0
  9
$SPLINETYPE
 70
6
  9
$SPLINESEGS
 70
8
  9
$HANDSEED
  5
137
  9
$SURFTAB1
 70
6
  9
$SURFTAB2
 70
6
  9
$SURFTYPE
 70
6
  9
$SURFU
 70
6
  9
$SURFV
 70
6
  9
$UCSBASE
  2

  9
$UCSNAME
  2

  9
$UCSORG
 10
0.0
 20
0.0
 30
0.0
  9
$UCSXDIR
 10
1.0
 20
0.0
 30
0.0
  9
$UCSYDIR
 10
0.0
 20
1.0
 30
0.0
  9
$UCSORTHOREF
  2

  9
$UCSORTHOVIEW
 70
0
  9
$UCSORGTOP
 10
0.0
 20
0.0
 30
0.0
  9
$UCSORGBOTTOM
 10
0.0
 20
0.0
 30
0.0
  9
$UCSORGLEFT
 10
0.0
 20
0.0
 30
0.0
  9
$UCSORGRIGHT
 10
0.0
 20
0.0
 30
0.0
  9
$UCSORGFRONT
 10
0.0
 20
0.0
 30
0.0
  9
$UCSORGBACK
 10
0.0
 20
0.0
 30
0.0
  9
$PUCSBASE
  2

  9
$PUCSNAME
  2

  9
$PUCSORG
 10
0.0
 20
0.0
 30
0.0
  9
$PUCSXDIR
 10
1.0
 20
0.0
 30
0.0
  9
$PUCSYDIR
 10
0.0
 20
1.0
 30
0.0
  9
$PUCSORTHOREF
  2

  9
$PUCSORTHOVIEW
 70
0
  9
$PUCSORGTOP
 10
0.0
 20
0.0
 30
0.0
  9
$PUCSORGBOTTOM
 10
0.0
 20
0.0
 30
0.0
  9
$PUCSORGLEFT
 10
0.0
 20
0.0
 30
0.0
  9
$PUCSORGRIGHT
 10
0.0
 20
0.0
 30
0.0
  9
$PUCSORGFRONT
 10
0.0
 20
0.0
 30
0.0
  9
$PUCSORGBACK
 10
0.0
 20
0.0
 30
0.0
  9
$USERI1
 70
0
  9
$USERI2
 70
0
  9
$USERI3
 70
0
  9
$USERI4
 70
0
  9
$USERI5
 70
0
  9
$USERR1
 40
0.0
  9
$USERR2
 40
0.0
  9
$USERR3
 40
0.0
  9
$USERR4
 40
0.0
  9
$USERR5
 40
0.0
  9
$WORLDVIEW
 70
1
  9
$SHADEDGE
 70
3
  9
$SHADEDIF
 70
70
  9
$TILEMODE
 70
1
  9
$MAXACTVP
 70
64
  9
$PINSBASE
 10
0.0
 20
0.0
 30
0.0
  9
$PLIMCHECK
 70
0
  9
$PEXTMIN
 10
1e+20
 20
1e+20
 30
1e+20
  9
$PEXTMAX
 10
-1e+20
 20
-1e+20
 30
-1e+20
  9
$PLIMMIN
 10
0.0
 20
0.0
  9
$PLIMMAX
 10
420.0
 20
297.0
  9
$UNITMODE
 70
0
  9
$VISRETAIN
 70
1
  9
$PLINEGEN
 70
0
  9
$PSLTSCALE
 70
1
  9
$TREEDEPTH
 70
3020
  9
$CMLSTYLE
  2
Standard
  9
$CMLJUST
 70
0
  9
$CMLSCALE
 40
20.0
  9
$PROXYGRAPHICS
 70
1
  9
$MEASUREMENT
 70
1
  9
$CELWEIGHT
370
-1
  9
$ENDCAPS
280
0
  9
$JOINSTYLE
280
0
  9
$LWDISPLAY
290
0
  9
$INSUNITS
 70
6
  9
$HYPERLINKBASE
  1

  9
$STYLESHEET
  1

  9
$XEDIT
290
1
  9
$CEPSNTYPE
380
0
  9
$PSTYLEMODE
290
1
  9
$FINGERPRINTGUID
  2
{8787994C-4A57-4CFC-B4E1-47A7806A717C}
  9
$VERSIONGUID
  2
{3FDA348C-D390-45F3-9246-833BB588AF00}
  9
$EXTNAMES
290
1
  9
$PSVPSCALE
 40
0.0
  9
$OLESTARTUP
290
0
  9
$SORTENTS
280
127
  9
$INDEXCTL
280
0
  9
$HIDETEXT
280
1
  9
$XCLIPFRAME
280
1
  9
$HALOGAP
280
0
  9
$OBSCOLOR
 70
257
  9
$OBSLTYPE
280
0
  9
$INTERSECTIONDISPLAY
280
0
  9
$INTERSECTIONCOLOR
 70
257
  9
$DIMASSOC
280
2
  9
$PROJECTNAME
  1

  9
$CAMERADISPLAY
290
0
  9
$LENSLENGTH
 40
50.0
  9
$CAMERAHEIGHT
 40
0.0
  9
$STEPSPERSEC
 40
24.0
  9
$STEPSIZE
 40
100.0
  9
$3DDWFPREC
 40
2.0
  9
$PSOLWIDTH
 40
0.005
  9
$PSOLHEIGHT
 40
0.08
  9
$LOFTANG1
 40
1.570796326795
  9
$LOFTANG2
 40
1.570796326795
  9
$LOFTMAG1
 40
0.0
  9
$LOFTMAG2
 40
0.0
  9
$LOFTPARAM
 70
7
  9
$LOFTNORMALS
280
1
  9
$LATITUDE
 40
37.795
  9
$LONGITUDE
 40
-122.394
  9
$NORTHDIRECTION
 40
0.0
  9
$TIMEZONE
 70
-8000
  9
$LIGHTGLYPHDISPLAY
280
1
  9
$TILEMODELIGHTSYNCH
280
1
  9
$CMATERIAL
347
20
  9
$SOLIDHIST
280
0
  9
$SHOWHIST
280
1
  9
$DWFFRAME
280
2
  9
$DGNFRAME
280
2
  9
$REALWORLDSCALE
290
1
  9
$INTERFERECOLOR
 62
256
  9
$CSHADOW
280
0
  9
$SHADOWPLANELOCATION
 40
0.0
  0
ENDSEC
  0
SECTION
  2
CLASSES
  0
CLASS
  1
ACDBDICTIONARYWDFLT
  2
AcDbDictionaryWithDefault
  3
ObjectDBX Classes
 90
0
 91
0
280
0
281
0
  0
CLASS
  1
SUN
  2
AcDbSun
  3
SCENEOE
 90
1153
 91
0
280
0
281
0
  0
CLASS
  1
VISUALSTYLE
  2
AcDbVisualStyle
  3
ObjectDBX Classes
 90
4095
 91
0
280
0
281
0
  0
CLASS
  1
MATERIAL
  2
AcDbMaterial
  3
ObjectDBX Classes
 90
1153
 91
0
280
0
281
0
  0
CLASS
  1
SCALE
  2
AcDbScale
  3
ObjectDBX Classes
 90
1153
 91
0
280
0
281
0
  0
CLASS
  1
TABLESTYLE
  2
AcDbTableStyle
  3
ObjectDBX Classes
 90
4095
 91
0
280
0
281
0
  0
CLASS
  1
MLEADERSTYLE
  2
AcDbMLeaderStyle
  3
ACDB_MLEADERSTYLE_CLASS
 90
4095
 91
0
280
0
281
0
  0
CLASS
  1
DICTIONARYVAR
  2
AcDbDictionaryVar
  3
ObjectDBX Classes
 90
0
 91
0
280
0
281
0
  0
CLASS
  1
CELLSTYLEMAP
  2
AcDbCellStyleMap
  3
ObjectDBX Classes
 90
1152
 91
0
280
0
281
0
  0
CLASS
  1
MENTALRAYRENDERSETTINGS
  2
AcDbMentalRayRenderSettings
  3
SCENEOE
 90
1024
 91
0
280
0
281
0
  0
CLASS
  1
ACDBDETAILVIEWSTYLE
  2
AcDbDetailViewStyle
  3
ObjectDBX Classes
 90
1025
 91
0
280
0
281
0
  0
CLASS
  1
ACDBSECTIONVIEWSTYLE
  2
AcDbSectionViewStyle
  3
ObjectDBX Classes
 90
1025
 91
0
280
0
281
0
  0
CLASS
  1
RASTERVARIABLES
  2
AcDbRasterVariables
  3
ISM
 90
0
 91
0
280
0
281
0
  0
CLASS
  1
LAYOUT
  2
AcDbLayout
  3
ObjectDBX Classes
 90
0
 91
0
280
0
281
0
  0
CLASS
  1
ACDBPLACEHOLDER
  2
AcDbPlaceHolder
  3
ObjectDBX Classes
 90
0
 91
0
280
0
281
0
  0
ENDSEC
  0
SECTION
  2
TABLES
  0
TABLE
  2
VPORT
  5
8
330
0
100
AcDbSymbolTable
 70
1
  0
VPORT
  5
23
330
8
100
AcDbSymbolTableRecord
100
AcDbViewportTableRecord
  2
*Active
 70
0
 10
0.0
 20
0.0
 11
1.0
 21
1.0
 12
0.0
 22
0.0
 13
0.0
 23
0.0
 14
0.5
 24
0.5
 15
0.5
 25
0.5
 16
0.0
 26
0.0
 36
1.0
 17
0.0
 27
0.0
 37
0.0
 40
1000.0
 41
1.34
 42
50.0
 43
0.0
 44
0.0
 50
0.0
 51
0.0
 71
0
 72
1000
 73
1
 74
3
 75
0
 76
0
 77
0
 78
0
281
0
 65
0
146
0.0
  0
ENDTAB
  0
TABLE
  2
LTYPE
  5
2
330
0
100
AcDbSymbolTable
 70
3
  0
LTYPE
  5
24
330
2
100
AcDbSymbolTableRecord
100
AcDbLinetypeTableRecord
  2
ByBlock
 70
0
  3

 72
65
 73
0
 40
0.0
  0
LTYPE
  5
25
330
2
100
AcDbSymbolTableRecord
100
AcDbLinetypeTableRecord
  2
ByLayer
 70
0
  3

 72
65
 73
0
 40
0.0
  0
LTYPE
  5
26
330
2
100
AcDbSymbolTableRecord
100
AcDbLinetypeTableRecord
  2
Continuous
 70
0
  3

 72
65
 73
0
 40
0.0
  0
ENDTAB
  0
TABLE
  2
LAYER
  5
1
330
0
100
AcDbSymbolTable
 70
23
  0
LAYER
  5
27
330
1
100
AcDbSymbolTableRecord
100
AcDbLayerTableRecord
  2
0
 70
0
 62
7
  6
Continuous
370
-3
390
13
347
21
  0
LAYER
  5
28
330
1
100
AcDbSymbolTableRecord
100
AcDbLayerTableRecord
  2
Defpoints
 70
0
 62
7
  6
Continuous
290
0
370
-3
390
13
347
21
  0
LAYER
  5
2F
330
1
100
AcDbSymbolTableRecord
100
AcDbLayerTableRecord
  2
Garden
 70
0
 62
7
  6
Continuous
370
-3
390
13
347
21
  0
LAYER
  5
32
330
1
100
AcDbSymbolTableRecord
100
AcDbLayerTableRecord
  2
Boundary
 70
0
 62
7
  6
Continuous
370
-3
390
13
347
21
  0
LAYER
  5
37
330
1
100
AcDbSymbolTableRecord
100
AcDbLayerTableRecord
  2
Entrance_Staircase
 70
0
 62
7
  6
Continuous
370
-3
390
13
347
21
  0
LAYER
  5
3B
330
1
100
AcDbSymbolTableRecord
100
AcDbLayerTableRecord
  2
Parking
 70
0
 62
7
  6
Continuous
370
-3
390
13
347
21
  0
LAYER
  5
44
330
1
100
AcDbSymbolTableRecord
100
AcDbLayerTableRecord
  2
Garden_Staircase
 70
0
 62
7
  6
Continuous
370
-3
390
13
347
21
  0
LAYER
  5
4C
330
1
100
AcDbSymbolTableRecord
100
AcDbLayerTableRecord
  2
PoojaRoom
 70
0
 62
7
  6
Continuous
370
-3
390
13
347
21
  0
LAYER
  5
5E
330
1
100
AcDbSymbolTableRecord
100
AcDbLayerTableRecord
  2
LivingRoom1
 70
0
 62
7
  6
Continuous
370
-3
390
13
347
21
  0
LAYER
  5
6D
330
1
100
AcDbSymbolTableRecord
100
AcDbLayerTableRecord
  2
BedRoom3
 70
0
 62
7
  6
Continuous
370
-3
390
13
347
21
  0
LAYER
  5
71
330
1
100
AcDbSymbolTableRecord
100
AcDbLayerTableRecord
  2
BathRoom2
 70
0
 62
7
  6
Continuous
370
-3
390
13
347
21
  0
LAYER
  5
81
330
1
100
AcDbSymbolTableRecord
100
AcDbLayerTableRecord
  2
Kitchen
 70
0
 62
7
  6
Continuous
370
-3
390
13
347
21
  0
LAYER
  5
85
330
1
100
AcDbSymbolTableRecord
100
AcDbLayerTableRecord
  2
StoreRoom
 70
0
 62
7
  6
Continuous
370
-3
390
13
347
21
  0
LAYER
  5
8D
330
1
100
AcDbSymbolTableRecord
100
AcDbLayerTableRecord
  2
BathRoom1
 70
0
 62
7
  6
Continuous
370
-3
390
13
347
21
  0
LAYER
  5
93
330
1
100
AcDbSymbolTableRecord
100
AcDbLayerTableRecord
  2
Staircase
 70
0
 62
7
  6
Continuous
370
-3
390
13
347
21
  0
LAYER
  5
9A
330
1
100
AcDbSymbolTableRecord
100
AcDbLayerTableRecord
  2
BedRoom1
 70
0
 62
7
  6
Continuous
370
-3
390
13
347
21
  0
LAYER
  5
D2
330
1
100
AcDbSymbolTableRecord
100
AcDbLayerTableRecord
  2
Terrace
 70
0
 62
7
  6
Continuous
370
-3
390
13
347
21
  0
LAYER
  5
D9
330
1
100
AcDbSymbolTableRecord
100
AcDbLayerTableRecord
  2
BedRoom2a
 70
0
 62
7
  6
Continuous
370
-3
390
13
347
21
  0
LAYER
  5
DC
330
1
100
AcDbSymbolTableRecord
100
AcDbLayerTableRecord
  2
BathRoom2b
 70
0
 62
7
  6
Continuous
370
-3
390
13
347
21
  0
LAYER
  5
E6
330
1
100
AcDbSymbolTableRecord
100
AcDbLayerTableRecord
  2
Pantry
 70
0
 62
7
  6
Continuous
370
-3
390
13
347
21
  0
LAYER
  5
ED
330
1
100
AcDbSymbolTableRecord
100
AcDbLayerTableRecord
  2
WashArea
 70
0
 62
7
  6
Continuous
370
-3
390
13
347
21
  0
LAYER
  5
F6
330
1
100
AcDbSymbolTableRecord
100
AcDbLayerTableRecord
  2
BathRoom2c
 70
0
 62
7
  6
Continuous
370
-3
390
13
347
21
  0
LAYER
  5
11C
330
1
100
AcDbSymbolTableRecord
100
AcDbLayerTableRecord
  2
BedRoom2
 70
0
 62
7
  6
Continuous
370
-3
390
13
347
21
  0
ENDTAB
  0
TABLE
  2
STYLE
  5
5
330
0
100
AcDbSymbolTable
 70
1
  0
STYLE
  5
29
330
5
100
AcDbSymbolTableRecord
100
AcDbTextStyleTableRecord
  2
Standard
 70
0
 40
0.0
 41
1.0
 50
0.0
 71
0
 42
2.5
  3
txt
  4

  0
ENDTAB
  0
TABLE
  2
VIEW
  5
7
330
0
100
AcDbSymbolTable
 70
0
  0
ENDTAB
  0
TABLE
  2
UCS
  5
6
330
0
100
AcDbSymbolTable
 70
0
  0
ENDTAB
  0
TABLE
  2
APPID
  5
3
330
0
100
AcDbSymbolTable
 70
3
  0
APPID
  5
2A
330
3
100
AcDbSymbolTableRecord
100
AcDbRegAppTableRecord
  2
ACAD
 70
0
  0
APPID
  5
134
330
3
100
AcDbSymbolTableRecord
100
AcDbRegAppTableRecord
  2
HATCHBACKGROUNDCOLOR
 70
0
  0
APPID
  5
135
330
3
100
AcDbSymbolTableRecord
100
AcDbRegAppTableRecord
  2
EZDXF
 70
0
  0
ENDTAB
  0
TABLE
  2
DIMSTYLE
  5
4
330
0
100
AcDbSymbolTable
 70
1
100
AcDbDimStyleTable
  0
DIMSTYLE
105
2B
330
4
100
AcDbSymbolTableRecord
100
AcDbDimStyleTableRecord
  2
Standard
 70
0
 40
1.0
 41
2.5
 42
0.625
 43
3.75
 44
1.25
 45
0.0
 46
0.0
 47
0.0
 48
0.0
 49
2.5
140
2.5
141
2.5
142
0.0
143
0.03937007874
144
1.0
145
0.0
146
1.0
147
0.625
148
0.0
 69
0
 70
0
 71
0
 72
0
 73
0
 74
0
 75
0
 76
0
 77
1
 78
8
 79
3
170
0
171
3
172
1
173
0
174
0
175
0
176
0
177
0
178
0
179
2
271
2
272
2
273
2
274
3
275
0
276
0
277
2
278
44
279
0
280
0
281
0
282
0
283
0
284
8
285
0
286
0
288
0
289
3
290
0
371
-2
372
-2
  0
ENDTAB
  0
TABLE
  2
BLOCK_RECORD
  5
9
330
0
100
AcDbSymbolTable
 70
2
  0
BLOCK_RECORD
  5
17
330
9
100
AcDbSymbolTableRecord
100
AcDbBlockTableRecord
  2
*Model_Space
340
1A
 70
0
280
1
281
0
  0
BLOCK_RECORD
  5
1B
330
9
100
AcDbSymbolTableRecord
100
AcDbBlockTableRecord
  2
*Paper_Space
340
1E
 70
0
280
1
281
0
  0
ENDTAB
  0
ENDSEC
  0
SECTION
  2
BLOCKS
  0
BLOCK
  5
18
330
17
100
AcDbEntity
  8
0
100
AcDbBlockBegin
  2
*Model_Space
 70
0
 10
0.0
 20
0.0
 30
0.0
  3
*Model_Space
  1

  0
ENDBLK
  5
19
330
17
100
AcDbEntity
  8
0
100
AcDbBlockEnd
  0
BLOCK
  5
1C
330
1B
100
AcDbEntity
  8
0
100
AcDbBlockBegin
  2
*Paper_Space
 70
0
 10
0.0
 20
0.0
 30
0.0
  3
*Paper_Space
  1

  0
ENDBLK
  5
1D
330
1B
100
AcDbEntity
  8
0
100
AcDbBlockEnd
  0
ENDSEC
  0
SECTION
  2
ENTITIES
  0
LINE
  5
30
330
17
100
AcDbEntity
  8
Garden
100
AcDbLine
 10
8.999999999999993
 20
9.000000000000114
 30
0.0
 11
109.36503067484678
 21
9.000000000000114
 31
0.0
  0
LINE
  5
31
330
17
100
AcDbEntity
  8
Garden
100
AcDbLine
 10
8.999999999999993
 20
9.000000000000341
 30
0.0
 11
8.999999999999993
 21
531.0000000000001
 31
0.0
  0
LINE
  5
33
330
17
100
AcDbEntity
  8
Boundary
100
AcDbLine
 10
0.0
 20
1.1368683772161603e-13
 30
0.0
 11
109.36503067484678
 21
2.2737367544323206e-13
 31
0.0
  0
LINE
  5
34
330
17
100
AcDbEntity
  8
Boundary
100
AcDbLine
 10
0.0
 20
2.2737367544323206e-13
 30
0.0
 11
0.0
 21
540.0000000000001
 31
0.0
  0
LINE
  5
35
330
17
100
AcDbEntity
  8
Boundary
100
AcDbLine
 10
157.36503067484676
 20
1.1368683772161603e-13
 30
0.0
 11
197.2760736196321
 21
1.1368683772161603e-13
 31
0.0
  0
LINE
  5
36
330
17
100
AcDbEntity
  8
Boundary
100
AcDbLine
 10
109.36503067484678
 20
2.2737367544323206e-13
 30
0.0
 11
109.36503067484678
 21
9.000000000000114
 31
0.0
  0
LINE
  5
38
330
17
100
AcDbEntity
  8
Entrance_Staircase
100
AcDbLine
 10
157.36503067484688
 20
9.000000000000114
 30
0.0
 11
197.2760736196321
 21
9.000000000000114
 31
0.0
  0
LINE
  5
39
330
17
100
AcDbEntity
  8
Entrance_Staircase
100
AcDbLine
 10
157.36503067484676
 20
1.1368683772161603e-13
 30
0.0
 11
157.36503067484676
 21
9.000000000000114
 31
0.0
  0
LINE
  5
3A
330
17
100
AcDbEntity
  8
Garden
100
AcDbLine
 10
65.86503067484658
 20
9.000000000000114
 30
0.0
 11
65.86503067484658
 21
112.06842105263183
 31
0.0
  0
LINE
  5
3C
330
17
100
AcDbEntity
  8
Parking
100
AcDbLine
 10
197.2760736196321
 20
0.0
 30
0.0
 11
411.00000000000006
 21
1.1368683772161603e-13
 31
0.0
  0
LINE
  5
3D
330
17
100
AcDbEntity
  8
Parking
100
AcDbLine
 10
197.2760736196321
 20
1.1368683772161603e-13
 30
0.0
 11
197.2760736196321
 21
9.000000000000114
 31
0.0
  0
LINE
  5
3E
330
17
100
AcDbEntity
  8
Boundary
100
AcDbLine
 10
411.00000000000006
 20
0.0
 30
0.0
 11
420.00000000000006
 21
0.0
 31
0.0
  0
LINE
  5
3F
330
17
100
AcDbEntity
  8
Parking
100
AcDbLine
 10
411.00000000000006
 20
2.2737367544323206e-13
 30
0.0
 11
411.00000000000006
 21
183.755263157895
 31
0.0
  0
LINE
  5
40
330
17
100
AcDbEntity
  8
Boundary
100
AcDbLine
 10
420.00000000000006
 20
2.2737367544323206e-13
 30
0.0
 11
420.00000000000006
 21
540.0000000000001
 31
0.0
  0
LINE
  5
41
330
17
100
AcDbEntity
  8
Parking
100
AcDbLine
 10
197.2760736196321
 20
41.96842105263178
 30
0.0
 11
197.2760736196321
 21
183.75526315789512
 31
0.0
  0
LINE
  5
42
330
17
100
AcDbEntity
  8
Entrance_Staircase
100
AcDbLine
 10
188.2760736196321
 20
41.96842105263178
 30
0.0
 11
197.2760736196321
 21
41.96842105263178
 31
0.0
  0
LINE
  5
43
330
17
100
AcDbEntity
  8
Entrance_Staircase
100
AcDbLine
 10
188.27607361963197
 20
41.96842105263178
 30
0.0
 11
188.2760736196321
 21
183.75526315789512
 31
0.0
  0
LINE
  5
45
330
17
100
AcDbEntity
  8
Garden_Staircase
100
AcDbLine
 10
8.999999999999993
 20
159.7764173574161
 30
0.0
 11
12.092024539877315
 21
159.77641735741622
 31
0.0
  0
LINE
  5
46
330
17
100
AcDbEntity
  8
Garden_Staircase
100
AcDbLine
 10
9.000000000000004
 20
149.7764173574161
 30
0.0
 11
12.092024539877315
 21
149.7764173574161
 31
0.0
  0
LINE
  5
47
330
17
100
AcDbEntity
  8
Garden_Staircase
100
AcDbLine
 10
9.000000000000014
 20
139.7764173574161
 30
0.0
 11
12.092024539877315
 21
139.77641735741634
 31
0.0
  0
MTEXT
  5
48
330
17
100
AcDbEntity
  8
Garden_Staircase
100
AcDbMText
 10
10.79601226993865
 20
170.50299132217782
 30
0.0
 40
2.5
 71
1
  1
3
  0
MTEXT
  5
49
330
17
100
AcDbEntity
  8
Garden_Staircase
100
AcDbMText
 10
10.79601226993865
 20
157.20548396173342
 30
0.0
 40
2.5
 71
1
  1
2
  0
MTEXT
  5
4A
330
17
100
AcDbEntity
  8
Garden_Staircase
100
AcDbMText
 10
10.79601226993865
 20
148.01611644705002
 30
0.0
 40
2.5
 71
1
  1
1
  0
MTEXT
  5
4B
330
17
100
AcDbEntity
  8
Garden
100
AcDbMText
 10
10.79601226993865
 20
64.76842105263155
 30
0.0
 40
2.5
 71
1
  1
GARDEN
  0
LINE
  5
4D
330
17
100
AcDbEntity
  8
PoojaRoom
100
AcDbLine
 10
21.092024539877244
 20
121.0684210526316
 30
0.0
 11
21.092024539877244
 21
187.75526315789512
 31
0.0
  0
MTEXT
  5
4E
330
17
100
AcDbEntity
  8
PoojaRoom
100
AcDbMText
 10
28.36809630592036
 20
155.70845194911425
 30
0.0
 40
2.5
 71
1
  1
POOJAROOM
  0
LINE
  5
4F
330
17
100
AcDbEntity
  8
PoojaRoom
100
AcDbLine
 10
21.0920245398772
 20
121.06842105263155
 30
0.0
 11
65.86503067484658
 21
121.06842105263183
 31
0.0
  0
LINE
  5
50
330
17
100
AcDbEntity
  8
Garden
100
AcDbLine
 10
12.092024539877315
 20
112.0684210526316
 30
0.0
 11
12.092024539877315
 21
233.03984689444363
 31
0.0
  0
LINE
  5
51
330
17
100
AcDbEntity
  8
Garden
100
AcDbLine
 10
12.092024539877315
 20
112.0684210526316
 30
0.0
 11
65.86503067484658
 21
112.06842105263183
 31
0.0
  0
MTEXT
  5
52
330
17
100
AcDbEntity
  8
Entrance_Staircase
100
AcDbMText
 10
132.4968523471323
 20
132.02746476883482
 30
0.0
 40
2.5
 71
1
  1
3
  0
MTEXT
  5
53
330
17
100
AcDbEntity
  8
Entrance_Staircase
100
AcDbMText
 10
132.68087282486317
 20
97.96527905092455
 30
0.0
 40
2.5
 71
1
  1
2
  0
MTEXT
  5
54
330
17
100
AcDbEntity
  8
Entrance_Staircase
100
AcDbMText
 10
124.32391801750849
 20
167.75627455844102
 30
0.0
 40
2.5
 71
1
  1
+24''
  0
MTEXT
  5
55
330
17
100
AcDbEntity
  8
Entrance_Staircase
100
AcDbMText
 10
132.68087282486317
 20
88.77591153624115
 30
0.0
 40
2.5
 71
1
  1
1
  0
LINE
  5
56
330
17
100
AcDbEntity
  8
Entrance_Staircase
100
AcDbLine
 10
74.86503067484698
 20
80.17704515646955
 30
0.0
 11
188.27607361963197
 21
80.17704515646955
 31
0.0
  0
LINE
  5
57
330
17
100
AcDbEntity
  8
Entrance_Staircase
100
AcDbLine
 10
74.86503067484698
 20
90.17704515646943
 30
0.0
 11
188.27607361963197
 21
90.17704515646943
 31
0.0
  0
LINE
  5
58
330
17
100
AcDbEntity
  8
Entrance_Staircase
100
AcDbLine
 10
74.86503067484698
 20
100.1770451564696
 30
0.0
 11
188.27607361963197
 21
100.1770451564696
 31
0.0
  0
LINE
  5
59
330
17
100
AcDbEntity
  8
PoojaRoom
100
AcDbLine
 10
65.86503067484658
 20
121.06842105263183
 30
0.0
 11
65.86503067484658
 21
187.755263157895
 31
0.0
  0
LINE
  5
5A
330
17
100
AcDbEntity
  8
Entrance_Staircase
100
AcDbLine
 10
65.86503067484658
 20
80.17704515646955
 30
0.0
 11
74.8650306748465
 21
80.17704515646955
 31
0.0
  0
LINE
  5
5B
330
17
100
AcDbEntity
  8
Entrance_Staircase
100
AcDbLine
 10
74.8650306748465
 20
80.17704515646955
 30
0.0
 11
74.8650306748465
 21
183.75526315789512
 31
0.0
  0
MTEXT
  5
5C
330
17
100
AcDbEntity
  8
Parking
100
AcDbMText
 10
285.11901254721914
 20
79.08144634892739
 30
0.0
 40
2.5
 71
1
  1
PARKING
  0
LINE
  5
5D
330
17
100
AcDbEntity
  8
PoojaRoom
100
AcDbLine
 10
34.09202453987716
 20
187.755263157895
 30
0.0
 11
34.09202453987716
 21
192.75526315789512
 31
0.0
  0
LINE
  5
5F
330
17
100
AcDbEntity
  8
LivingRoom1
100
AcDbLine
 10
21.092024539877244
 20
192.755263157895
 30
0.0
 11
34.09202453987716
 21
192.75526315789512
 31
0.0
  0
LINE
  5
60
330
17
100
AcDbEntity
  8
PoojaRoom
100
AcDbLine
 10
21.092024539877244
 20
187.755263157895
 30
0.0
 11
34.09202453987716
 21
187.755263157895
 31
0.0
  0
LINE
  5
61
330
17
100
AcDbEntity
  8
LivingRoom1
100
AcDbLine
 10
21.092024539877244
 20
192.75526315789512
 30
0.0
 11
21.092024539877244
 21
233.03984689444363
 31
0.0
  0
MTEXT
  5
62
330
17
100
AcDbEntity
  8
Entrance_Staircase
100
AcDbMText
 10
111.44524697931028
 20
176.006807230508
 30
0.0
 40
2.5
 71
1
  1
ENTRANCE
  0
LINE
  5
63
330
17
100
AcDbEntity
  8
PoojaRoom
100
AcDbLine
 10
52.865030674846494
 20
187.755263157895
 30
0.0
 11
52.865030674846494
 21
192.75526315789512
 31
0.0
  0
LINE
  5
64
330
17
100
AcDbEntity
  8
PoojaRoom
100
AcDbLine
 10
52.86503067484658
 20
187.755263157895
 30
0.0
 11
65.8650306748465
 21
187.755263157895
 31
0.0
  0
LINE
  5
65
330
17
100
AcDbEntity
  8
LivingRoom1
100
AcDbLine
 10
65.8650306748465
 20
192.75526315789512
 30
0.0
 11
104.8650306748465
 21
192.75526315789512
 31
0.0
  0
LINE
  5
66
330
17
100
AcDbEntity
  8
LivingRoom1
100
AcDbLine
 10
52.86503067484658
 20
192.75526315789512
 30
0.0
 11
65.8650306748465
 21
192.75526315789512
 31
0.0
  0
LINE
  5
67
330
17
100
AcDbEntity
  8
Entrance_Staircase
100
AcDbLine
 10
74.8650306748465
 20
183.755263157895
 30
0.0
 11
104.8650306748465
 21
183.75526315789512
 31
0.0
  0
LINE
  5
68
330
17
100
AcDbEntity
  8
Entrance_Staircase
100
AcDbLine
 10
104.8650306748465
 20
183.755263157895
 30
0.0
 11
104.8650306748465
 21
192.755263157895
 31
0.0
  0
LINE
  5
69
330
17
100
AcDbEntity
  8
LivingRoom1
100
AcDbLine
 10
152.8650306748466
 20
192.75526315789512
 30
0.0
 11
188.27607361963197
 21
192.75526315789512
 31
0.0
  0
LINE
  5
6A
330
17
100
AcDbEntity
  8
Entrance_Staircase
100
AcDbLine
 10
152.8650306748466
 20
183.75526315789512
 30
0.0
 11
188.27607361963197
 21
183.75526315789512
 31
0.0
  0
LINE
  5
6B
330
17
100
AcDbEntity
  8
Entrance_Staircase
100
AcDbLine
 10
152.8650306748466
 20
183.75526315789512
 30
0.0
 11
152.8650306748467
 21
192.75526315789512
 31
0.0
  0
LINE
  5
6C
330
17
100
AcDbEntity
  8
Parking
100
AcDbLine
 10
197.2760736196321
 20
183.75526315789512
 30
0.0
 11
411.00000000000017
 21
183.755263157895
 31
0.0
  0
LINE
  5
6E
330
17
100
AcDbEntity
  8
BedRoom3
100
AcDbLine
 10
193.2760736196321
 20
192.75526315789512
 30
0.0
 11
329.50920245398777
 21
192.75526315789512
 31
0.0
  0
LINE
  5
6F
330
17
100
AcDbEntity
  8
BedRoom3
100
AcDbLine
 10
193.27607361963192
 20
192.75526315789512
 30
0.0
 11
193.2760736196321
 21
314.47894736842113
 31
0.0
  0
LINE
  5
70
330
17
100
AcDbEntity
  8
LivingRoom1
100
AcDbLine
 10
188.2760736196318
 20
192.75526315789512
 30
0.0
 11
188.27607361963197
 21
314.47894736842113
 31
0.0
  0
LINE
  5
72
330
17
100
AcDbEntity
  8
BathRoom2
100
AcDbLine
 10
382.50920245398765
 20
192.75526315789512
 30
0.0
 11
382.50920245398765
 21
309.47894736842113
 31
0.0
  0
LINE
  5
73
330
17
100
AcDbEntity
  8
Garden
100
AcDbLine
 10
391.50920245398777
 20
183.755263157895
 30
0.0
 11
391.50920245398777
 21
502.5157894736843
 31
0.0
  0
LINE
  5
74
330
17
100
AcDbEntity
  8
BathRoom2
100
AcDbLine
 10
334.50920245398754
 20
192.75526315789512
 30
0.0
 11
382.50920245398765
 21
192.75526315789512
 31
0.0
  0
LINE
  5
75
330
17
100
AcDbEntity
  8
BathRoom2
100
AcDbLine
 10
334.50920245398754
 20
192.75526315789512
 30
0.0
 11
334.50920245398765
 21
280.9947368421052
 31
0.0
  0
LINE
  5
76
330
17
100
AcDbEntity
  8
BedRoom3
100
AcDbLine
 10
329.50920245398777
 20
192.75526315789512
 30
0.0
 11
329.50920245398777
 21
280.9947368421052
 31
0.0
  0
LINE
  5
77
330
17
100
AcDbEntity
  8
Garden
100
AcDbLine
 10
411.00000000000017
 20
183.755263157895
 30
0.0
 11
411.00000000000017
 21
531.0000000000001
 31
0.0
  0
LINE
  5
78
330
17
100
AcDbEntity
  8
LivingRoom1
100
AcDbLine
 10
12.092024539877286
 20
233.03984689444363
 30
0.0
 11
21.092024539877258
 21
233.03984689444363
 31
0.0
  0
LINE
  5
79
330
17
100
AcDbEntity
  8
Garden
100
AcDbLine
 10
12.092024539877286
 20
261.5240574207594
 30
0.0
 11
12.092024539877315
 21
502.5157894736843
 31
0.0
  0
LINE
  5
7A
330
17
100
AcDbEntity
  8
LivingRoom1
100
AcDbLine
 10
12.092024539877286
 20
261.5240574207594
 30
0.0
 11
21.092024539877286
 21
261.5240574207594
 31
0.0
  0
LINE
  5
7B
330
17
100
AcDbEntity
  8
LivingRoom1
100
AcDbLine
 10
21.092024539877286
 20
261.5240574207594
 30
0.0
 11
21.092024539877315
 21
386.47894736842113
 31
0.0
  0
MTEXT
  5
7C
330
17
100
AcDbEntity
  8
LivingRoom1
100
AcDbMText
 10
70.22011188131698
 20
280.7400425289966
 30
0.0
 40
2.5
 71
1
  1
LIVINGROOM1
  0
MTEXT
  5
7D
330
17
100
AcDbEntity
  8
BathRoom2
100
AcDbMText
 10
361.32254196710284
 20
256.12532233052184
 30
0.0
 40
2.5
 71
1
  1
BATHROOM2
  0
MTEXT
  5
7E
330
17
100
AcDbEntity
  8
BedRoom3
100
AcDbMText
 10
238.03986934931135
 20
247.5026315789473
 30
0.0
 40
2.5
 71
1
  1
BEDROOM3
  0
MTEXT
  5
7F
330
17
100
AcDbEntity
  8
Garden
100
AcDbMText
 10
10.79601226993865
 20
313.28048573097703
 30
0.0
 40
2.5
 71
1
  1
+24''
  0
MTEXT
  5
80
330
17
100
AcDbEntity
  8
Garden
100
AcDbMText
 10
10.79601226993865
 20
323.3331178934733
 30
0.0
 40
2.5
 71
1
  1
GARDEN
  0
LINE
  5
82
330
17
100
AcDbEntity
  8
Kitchen
100
AcDbLine
 10
21.092024539877286
 20
391.47894736842113
 30
0.0
 11
21.092024539877315
 21
493.5157894736843
 31
0.0
  0
LINE
  5
83
330
17
100
AcDbEntity
  8
LivingRoom1
100
AcDbLine
 10
21.092024539877286
 20
386.47894736842113
 30
0.0
 11
75.8650306748465
 21
386.47894736842113
 31
0.0
  0
LINE
  5
84
330
17
100
AcDbEntity
  8
Kitchen
100
AcDbLine
 10
21.092024539877286
 20
391.47894736842113
 30
0.0
 11
75.8650306748465
 21
391.47894736842113
 31
0.0
  0
LINE
  5
86
330
17
100
AcDbEntity
  8
StoreRoom
100
AcDbLine
 10
128.8650306748466
 20
391.47894736842113
 30
0.0
 11
136.3650306748466
 21
391.47894736842113
 31
0.0
  0
LINE
  5
87
330
17
100
AcDbEntity
  8
StoreRoom
100
AcDbLine
 10
128.8650306748466
 20
391.47894736842113
 30
0.0
 11
128.8650306748466
 21
446.57894736842127
 31
0.0
  0
LINE
  5
88
330
17
100
AcDbEntity
  8
Kitchen
100
AcDbLine
 10
123.86503067484658
 20
386.47894736842113
 30
0.0
 11
123.86503067484658
 21
493.5157894736843
 31
0.0
  0
LINE
  5
89
330
17
100
AcDbEntity
  8
Kitchen
100
AcDbLine
 10
75.8650306748465
 20
386.47894736842113
 30
0.0
 11
75.8650306748465
 21
391.47894736842113
 31
0.0
  0
LINE
  5
8A
330
17
100
AcDbEntity
  8
LivingRoom1
100
AcDbLine
 10
123.8650306748465
 20
386.47894736842113
 30
0.0
 11
136.3650306748466
 21
386.47894736842113
 31
0.0
  0
LINE
  5
8B
330
17
100
AcDbEntity
  8
StoreRoom
100
AcDbLine
 10
136.3650306748466
 20
386.478947368421
 30
0.0
 11
136.3650306748467
 21
391.478947368421
 31
0.0
  0
LINE
  5
8C
330
17
100
AcDbEntity
  8
StoreRoom
100
AcDbLine
 10
188.2760736196318
 20
391.47894736842113
 30
0.0
 11
188.2760736196318
 21
446.57894736842127
 31
0.0
  0
LINE
  5
8E
330
17
100
AcDbEntity
  8
BathRoom1
100
AcDbLine
 10
193.27607361963192
 20
391.47894736842113
 30
0.0
 11
193.27607361963192
 21
451.57894736842115
 31
0.0
  0
LINE
  5
8F
330
17
100
AcDbEntity
  8
BathRoom1
100
AcDbLine
 10
193.27607361963192
 20
391.47894736842113
 30
0.0
 11
233.50920245398777
 21
391.47894736842113
 31
0.0
  0
LINE
  5
90
330
17
100
AcDbEntity
  8
StoreRoom
100
AcDbLine
 10
180.77607361963192
 20
386.47894736842125
 30
0.0
 11
180.77607361963192
 21
391.47894736842125
 31
0.0
  0
LINE
  5
91
330
17
100
AcDbEntity
  8
StoreRoom
100
AcDbLine
 10
180.77607361963192
 20
391.47894736842113
 30
0.0
 11
188.2760736196318
 21
391.47894736842113
 31
0.0
  0
LINE
  5
92
330
17
100
AcDbEntity
  8
LivingRoom1
100
AcDbLine
 10
180.77607361963192
 20
386.47894736842113
 30
0.0
 11
233.50920245398777
 21
386.47894736842113
 31
0.0
  0
LINE
  5
94
330
17
100
AcDbEntity
  8
Staircase
100
AcDbLine
 10
256.50920245398765
 20
350.47894736842113
 30
0.0
 11
382.50920245398777
 21
350.47894736842113
 31
0.0
  0
LINE
  5
95
330
17
100
AcDbEntity
  8
Staircase
100
AcDbLine
 10
346.50920245398765
 20
314.47894736842113
 30
0.0
 11
346.50920245398765
 21
386.47894736842125
 31
0.0
  0
LINE
  5
96
330
17
100
AcDbEntity
  8
Staircase
100
AcDbLine
 10
336.50920245398765
 20
314.47894736842113
 30
0.0
 11
336.50920245398777
 21
386.47894736842125
 31
0.0
  0
LINE
  5
97
330
17
100
AcDbEntity
  8
Staircase
100
AcDbLine
 10
326.50920245398765
 20
314.47894736842113
 30
0.0
 11
326.50920245398777
 21
386.47894736842125
 31
0.0
  0
LINE
  5
98
330
17
100
AcDbEntity
  8
Staircase
100
AcDbLine
 10
316.50920245398777
 20
314.47894736842113
 30
0.0
 11
316.50920245398777
 21
386.47894736842125
 31
0.0
  0
LINE
  5
99
330
17
100
AcDbEntity
  8
Staircase
100
AcDbLine
 10
306.50920245398765
 20
314.47894736842113
 30
0.0
 11
306.50920245398777
 21
386.47894736842125
 31
0.0
  0
LINE
  5
9B
330
17
100
AcDbEntity
  8
BedRoom1
100
AcDbLine
 10
382.50920245398765
 20
391.47894736842125
 30
0.0
 11
382.50920245398777
 21
493.5157894736843
 31
0.0
  0
LINE
  5
9C
330
17
100
AcDbEntity
  8
Staircase
100
AcDbLine
 10
286.50920245398777
 20
314.47894736842113
 30
0.0
 11
286.50920245398777
 21
350.47894736842113
 31
0.0
  0
LINE
  5
9D
330
17
100
AcDbEntity
  8
Staircase
100
AcDbLine
 10
266.50920245398777
 20
314.47894736842113
 30
0.0
 11
266.50920245398777
 21
350.47894736842113
 31
0.0
  0
LINE
  5
9E
330
17
100
AcDbEntity
  8
Staircase
100
AcDbLine
 10
256.50920245398777
 20
314.47894736842113
 30
0.0
 11
256.50920245398777
 21
350.47894736842113
 31
0.0
  0
LINE
  5
9F
330
17
100
AcDbEntity
  8
Staircase
100
AcDbLine
 10
296.50920245398765
 20
314.47894736842113
 30
0.0
 11
296.50920245398765
 21
386.47894736842125
 31
0.0
  0
LINE
  5
A0
330
17
100
AcDbEntity
  8
BathRoom2
100
AcDbLine
 10
329.50920245398777
 20
309.47894736842113
 30
0.0
 11
382.50920245398765
 21
309.47894736842113
 31
0.0
  0
LINE
  5
A1
330
17
100
AcDbEntity
  8
Staircase
100
AcDbLine
 10
276.50920245398777
 20
314.47894736842113
 30
0.0
 11
276.50920245398777
 21
350.47894736842113
 31
0.0
  0
LINE
  5
A2
330
17
100
AcDbEntity
  8
Staircase
100
AcDbLine
 10
382.50920245398765
 20
314.47894736842113
 30
0.0
 11
382.50920245398777
 21
386.47894736842113
 31
0.0
  0
MTEXT
  5
A3
330
17
100
AcDbEntity
  8
Staircase
100
AcDbMText
 10
284.24647333248015
 20
334.9524609453514
 30
0.0
 40
2.5
 71
1
  1
3
  0
MTEXT
  5
A4
330
17
100
AcDbEntity
  8
Staircase
100
AcDbMText
 10
273.14273879650733
 20
334.9524609453514
 30
0.0
 40
2.5
 71
1
  1
2
  0
MTEXT
  5
A5
330
17
100
AcDbEntity
  8
Staircase
100
AcDbMText
 10
262.75237106655885
 20
334.9524609453514
 30
0.0
 40
2.5
 71
1
  1
1
  0
MTEXT
  5
A6
330
17
100
AcDbEntity
  8
Staircase
100
AcDbMText
 10
293.8481556114007
 20
334.9524609453514
 30
0.0
 40
2.5
 71
1
  1
4
  0
MTEXT
  5
A7
330
17
100
AcDbEntity
  8
Staircase
100
AcDbMText
 10
304.23216518210995
 20
334.9524609453514
 30
0.0
 40
2.5
 71
1
  1
5
  0
MTEXT
  5
A8
330
17
100
AcDbEntity
  8
Staircase
100
AcDbMText
 10
314.26054985657044
 20
334.9524609453514
 30
0.0
 40
2.5
 71
1
  1
6
  0
MTEXT
  5
A9
330
17
100
AcDbEntity
  8
Staircase
100
AcDbMText
 10
324.1467083125086
 20
334.9524609453514
 30
0.0
 40
2.5
 71
1
  1
7
  0
MTEXT
  5
AA
330
17
100
AcDbEntity
  8
Staircase
100
AcDbMText
 10
304.28874170911473
 20
367.74971407867224
 30
0.0
 40
2.5
 71
1
  1
16
  0
MTEXT
  5
AB
330
17
100
AcDbEntity
  8
Staircase
100
AcDbMText
 10
314.6808940928709
 20
367.74971407867224
 30
0.0
 40
2.5
 71
1
  1
15
  0
MTEXT
  5
AC
330
17
100
AcDbEntity
  8
Staircase
100
AcDbMText
 10
324.64304422390666
 20
367.74971407867224
 30
0.0
 40
2.5
 71
1
  1
14
  0
MTEXT
  5
AD
330
17
100
AcDbEntity
  8
Staircase
100
AcDbMText
 10
334.533499616176
 20
367.74971407867224
 30
0.0
 40
2.5
 71
1
  1
13
  0
MTEXT
  5
AE
330
17
100
AcDbEntity
  8
Staircase
100
AcDbMText
 10
344.99732299871505
 20
367.74971407867224
 30
0.0
 40
2.5
 71
1
  1
12
  0
MTEXT
  5
AF
330
17
100
AcDbEntity
  8
Staircase
100
AcDbMText
 10
367.07018223030406
 20
367.74971407867224
 30
0.0
 40
2.5
 71
1
  1
11
  0
MTEXT
  5
B0
330
17
100
AcDbEntity
  8
Staircase
100
AcDbMText
 10
367.07018223030406
 20
334.9524609453514
 30
0.0
 40
2.5
 71
1
  1
10
  0
MTEXT
  5
B1
330
17
100
AcDbEntity
  8
Staircase
100
AcDbMText
 10
344.31068740985813
 20
334.9524609453514
 30
0.0
 40
2.5
 71
1
  1
9
  0
MTEXT
  5
B2
330
17
100
AcDbEntity
  8
Staircase
100
AcDbMText
 10
333.8555528598977
 20
334.9524609453514
 30
0.0
 40
2.5
 71
1
  1
8
  0
LINE
  5
B3
330
17
100
AcDbEntity
  8
BedRoom1
100
AcDbLine
 10
269.50920245398777
 20
391.47894736842113
 30
0.0
 11
382.50920245398765
 21
391.47894736842113
 31
0.0
  0
LINE
  5
B4
330
17
100
AcDbEntity
  8
BedRoom3
100
AcDbLine
 10
218.50920245398783
 20
309.47894736842113
 30
0.0
 11
329.50920245398777
 21
309.47894736842113
 31
0.0
  0
LINE
  5
B5
330
17
100
AcDbEntity
  8
Staircase
100
AcDbLine
 10
218.50920245398777
 20
314.47894736842113
 30
0.0
 11
382.50920245398765
 21
314.47894736842113
 31
0.0
  0
LINE
  5
B6
330
17
100
AcDbEntity
  8
BedRoom3
100
AcDbLine
 10
218.50920245398777
 20
309.478947368421
 30
0.0
 11
218.50920245398777
 21
314.47894736842113
 31
0.0
  0
LINE
  5
B7
330
17
100
AcDbEntity
  8
BathRoom1
100
AcDbLine
 10
233.50920245398777
 20
386.47894736842113
 30
0.0
 11
233.50920245398777
 21
391.47894736842113
 31
0.0
  0
LINE
  5
B8
330
17
100
AcDbEntity
  8
BedRoom1
100
AcDbLine
 10
269.50920245398777
 20
386.47894736842113
 30
0.0
 11
269.50920245398777
 21
391.47894736842113
 31
0.0
  0
LINE
  5
B9
330
17
100
AcDbEntity
  8
Staircase
100
AcDbLine
 10
269.50920245398777
 20
386.47894736842113
 30
0.0
 11
382.50920245398765
 21
386.47894736842113
 31
0.0
  0
MTEXT
  5
BA
330
17
100
AcDbEntity
  8
StoreRoom
100
AcDbMText
 10
139.05123933061606
 20
422.2813468279529
 30
0.0
 40
2.5
 71
1
  1
STOREROOM
  0
LINE
  5
BB
330
17
100
AcDbEntity
  8
BathRoom1
100
AcDbLine
 10
228.50920245398777
 20
417.721052631579
 30
0.0
 11
228.50920245398777
 21
493.5157894736843
 31
0.0
  0
LINE
  5
BC
330
17
100
AcDbEntity
  8
BedRoom1
100
AcDbLine
 10
233.50920245398777
 20
417.721052631579
 30
0.0
 11
233.50920245398777
 21
493.5157894736843
 31
0.0
  0
LINE
  5
BD
330
17
100
AcDbEntity
  8
BathRoom1
100
AcDbLine
 10
228.50920245398777
 20
417.721052631579
 30
0.0
 11
233.50920245398777
 21
417.721052631579
 31
0.0
  0
MTEXT
  5
BE
330
17
100
AcDbEntity
  8
Kitchen
100
AcDbMText
 10
43.92910515724337
 20
457.96939209504467
 30
0.0
 40
2.5
 71
1
  1
KITCHEN
  0
LINE
  5
BF
330
17
100
AcDbEntity
  8
BathRoom1
100
AcDbLine
 10
128.8650306748466
 20
451.57894736842115
 30
0.0
 11
128.8650306748466
 21
493.5157894736843
 31
0.0
  0
LINE
  5
C0
330
17
100
AcDbEntity
  8
BathRoom1
100
AcDbLine
 10
128.8650306748466
 20
451.57894736842115
 30
0.0
 11
193.27607361963192
 21
451.57894736842115
 31
0.0
  0
LINE
  5
C1
330
17
100
AcDbEntity
  8
StoreRoom
100
AcDbLine
 10
128.8650306748467
 20
446.57894736842127
 30
0.0
 11
188.2760736196318
 21
446.57894736842127
 31
0.0
  0
MTEXT
  5
C2
330
17
100
AcDbEntity
  8
BedRoom1
100
AcDbMText
 10
289.3896332954087
 20
459.9382597577513
 30
0.0
 40
2.5
 71
1
  1
BEDROOM1
  0
LINE
  5
C3
330
17
100
AcDbEntity
  8
Kitchen
100
AcDbLine
 10
21.092024539877286
 20
493.5157894736843
 30
0.0
 11
123.86503067484658
 21
493.5157894736843
 31
0.0
  0
LINE
  5
C4
330
17
100
AcDbEntity
  8
Garden
100
AcDbLine
 10
12.092024539877315
 20
502.5157894736843
 30
0.0
 11
391.50920245398777
 21
502.5157894736843
 31
0.0
  0
LINE
  5
C5
330
17
100
AcDbEntity
  8
BathRoom1
100
AcDbLine
 10
128.8650306748466
 20
493.5157894736843
 30
0.0
 11
228.50920245398794
 21
493.5157894736843
 31
0.0
  0
MTEXT
  5
C6
330
17
100
AcDbEntity
  8
BathRoom1
100
AcDbMText
 10
158.08980094921918
 20
472.7973684210526
 30
0.0
 40
2.5
 71
1
  1
BATHROOM1
  0
LINE
  5
C7
330
17
100
AcDbEntity
  8
BedRoom1
100
AcDbLine
 10
233.50920245398783
 20
493.5157894736843
 30
0.0
 11
382.50920245398765
 21
493.5157894736843
 31
0.0
  0
LINE
  5
C8
330
17
100
AcDbEntity
  8
Boundary
100
AcDbLine
 10
0.0
 20
540.0000000000001
 30
0.0
 11
420.00000000000006
 21
540.0000000000001
 31
0.0
  0
LINE
  5
C9
330
17
100
AcDbEntity
  8
Garden
100
AcDbLine
 10
8.999999999999993
 20
531.0000000000001
 30
0.0
 11
411.00000000000017
 21
531.0000000000001
 31
0.0
  0
LINE
  5
CA
330
17
100
AcDbEntity
  8
Boundary
100
AcDbLine
 10
935.9898936851621
 20
9.000000000000114
 30
0.0
 11
935.9898936851621
 21
531.0000000000002
 31
0.0
  0
LINE
  5
CB
330
17
100
AcDbEntity
  8
Boundary
100
AcDbLine
 10
926.9898936851621
 20
2.2737367544323206e-13
 30
0.0
 11
926.9898936851621
 21
540.0000000000002
 31
0.0
  0
LINE
  5
CC
330
17
100
AcDbEntity
  8
Boundary
100
AcDbLine
 10
926.9898936851621
 20
2.2737367544323206e-13
 30
0.0
 11
1346.989893685162
 21
2.2737367544323206e-13
 31
0.0
  0
LINE
  5
CD
330
17
100
AcDbEntity
  8
Boundary
100
AcDbLine
 10
935.9898936851621
 20
9.000000000000114
 30
0.0
 11
1337.989893685161
 21
9.000000000000114
 31
0.0
  0
LINE
  5
CE
330
17
100
AcDbEntity
  8
Boundary
100
AcDbLine
 10
1346.989893685162
 20
2.2737367544323206e-13
 30
0.0
 11
1346.989893685162
 21
540.0000000000002
 31
0.0
  0
LINE
  5
CF
330
17
100
AcDbEntity
  8
Boundary
100
AcDbLine
 10
1337.989893685161
 20
9.000000000000341
 30
0.0
 11
1337.989893685162
 21
531.0000000000002
 31
0.0
  0
LINE
  5
D0
330
17
100
AcDbEntity
  8
Boundary
100
AcDbLine
 10
939.0819182250394
 20
47.18121722437411
 30
0.0
 11
1117.265967304794
 21
47.18121722437479
 31
0.0
  0
LINE
  5
D1
330
17
100
AcDbEntity
  8
Boundary
100
AcDbLine
 10
939.0819182250394
 20
47.18121722437411
 30
0.0
 11
939.0819182250394
 21
502.51578947368444
 31
0.0
  0
LINE
  5
D3
330
17
100
AcDbEntity
  8
Terrace
100
AcDbLine
 10
948.0819182250395
 20
49.18121722437422
 30
0.0
 11
1115.2659673047929
 21
49.181217224374564
 31
0.0
  0
LINE
  5
D4
330
17
100
AcDbEntity
  8
Terrace
100
AcDbLine
 10
948.0819182250395
 20
47.18121722437411
 30
0.0
 11
948.0819182250395
 21
309.47894736842125
 31
0.0
  0
LINE
  5
D5
330
17
100
AcDbEntity
  8
Terrace
100
AcDbLine
 10
1117.265967304794
 20
47.181217224374336
 30
0.0
 11
1117.265967304794
 21
183.75526315789506
 31
0.0
  0
LINE
  5
D6
330
17
100
AcDbEntity
  8
Terrace
100
AcDbLine
 10
1115.265967304794
 20
49.181217224374564
 30
0.0
 11
1115.265967304794
 21
314.47894736842125
 31
0.0
  0
MTEXT
  5
D7
330
17
100
AcDbEntity
  8
Terrace
100
AcDbMText
 10
997.6362248908617
 20
201.10575410696373
 30
0.0
 40
2.5
 71
1
  1
TERRACE
  0
LINE
  5
D8
330
17
100
AcDbEntity
  8
Boundary
100
AcDbLine
 10
1115.265967304794
 20
183.75526315789506
 30
0.0
 11
1318.4990961391497
 21
183.75526315789517
 31
0.0
  0
LINE
  5
DA
330
17
100
AcDbEntity
  8
BedRoom2a
100
AcDbLine
 10
1120.265967304794
 20
192.75526315789517
 30
0.0
 11
1256.4990961391497
 21
192.75526315789517
 31
0.0
  0
LINE
  5
DB
330
17
100
AcDbEntity
  8
BedRoom2a
100
AcDbLine
 10
1120.265967304794
 20
192.75526315789517
 30
0.0
 11
1120.265967304794
 21
314.47894736842125
 31
0.0
  0
LINE
  5
DD
330
17
100
AcDbEntity
  8
BathRoom2b
100
AcDbLine
 10
1261.4990961391497
 20
192.75526315789517
 30
0.0
 11
1309.4990961391497
 21
192.75526315789517
 31
0.0
  0
LINE
  5
DE
330
17
100
AcDbEntity
  8
Boundary
100
AcDbLine
 10
1318.4990961391497
 20
183.75526315789506
 30
0.0
 11
1318.4990961391497
 21
502.51578947368444
 31
0.0
  0
LINE
  5
DF
330
17
100
AcDbEntity
  8
BathRoom2b
100
AcDbLine
 10
1261.4990961391497
 20
192.75526315789517
 30
0.0
 11
1261.4990961391497
 21
280.9947368421054
 31
0.0
  0
LINE
  5
E0
330
17
100
AcDbEntity
  8
BedRoom2a
100
AcDbLine
 10
1256.4990961391497
 20
192.75526315789517
 30
0.0
 11
1256.4990961391497
 21
280.99473684210534
 31
0.0
  0
LINE
  5
E1
330
17
100
AcDbEntity
  8
BathRoom2b
100
AcDbLine
 10
1309.4990961391497
 20
192.75526315789517
 30
0.0
 11
1309.4990961391497
 21
309.47894736842125
 31
0.0
  0
MTEXT
  5
E2
330
17
100
AcDbEntity
  8
BathRoom2b
100
AcDbMText
 10
1292.6065806371946
 20
258.97967790050615
 30
0.0
 40
2.5
 71
1
  1
BATHROOM2b
  0
MTEXT
  5
E3
330
17
100
AcDbEntity
  8
BedRoom2a
100
AcDbMText
 10
1170.9495485013117
 20
247.50263157894744
 30
0.0
 40
2.5
 71
1
  1
BEDROOM2a
  0
LINE
  5
E4
330
17
100
AcDbEntity
  8
BathRoom2b
100
AcDbLine
 10
1256.4990961391497
 20
280.9947368421054
 30
0.0
 11
1261.4990961391497
 21
280.9947368421054
 31
0.0
  0
MTEXT
  5
E5
330
17
100
AcDbEntity
  8
BathRoom2b
100
AcDbMText
 10
960.5368743545685
 20
352.0756635361074
 30
0.0
 40
2.5
 71
1
  1
BATHROOM2b
  0
LINE
  5
E7
330
17
100
AcDbEntity
  8
Pantry
100
AcDbLine
 10
948.0819182250395
 20
391.4789473684213
 30
0.0
 11
948.0819182250395
 21
493.51578947368444
 31
0.0
  0
LINE
  5
E8
330
17
100
AcDbEntity
  8
BathRoom2b
100
AcDbLine
 10
948.0819182250395
 20
386.4789473684213
 30
0.0
 11
1002.8549243600078
 21
386.4789473684213
 31
0.0
  0
LINE
  5
E9
330
17
100
AcDbEntity
  8
Pantry
100
AcDbLine
 10
948.0819182250395
 20
391.4789473684213
 30
0.0
 11
1007.8549243600089
 21
391.4789473684213
 31
0.0
  0
LINE
  5
EA
330
17
100
AcDbEntity
  8
Terrace
100
AcDbLine
 10
948.0819182250395
 20
309.47894736842125
 30
0.0
 11
1070.8549243600078
 21
309.47894736842125
 31
0.0
  0
LINE
  5
EB
330
17
100
AcDbEntity
  8
BathRoom2b
100
AcDbLine
 10
948.0819182250395
 20
314.47894736842125
 30
0.0
 11
1070.8549243600078
 21
314.47894736842125
 31
0.0
  0
LINE
  5
EC
330
17
100
AcDbEntity
  8
BathRoom2b
100
AcDbLine
 10
948.0819182250395
 20
314.47894736842125
 30
0.0
 11
948.0819182250395
 21
386.4789473684213
 31
0.0
  0
LINE
  5
EE
330
17
100
AcDbEntity
  8
WashArea
100
AcDbLine
 10
1050.854924360009
 20
386.4789473684213
 30
0.0
 11
1063.3549243600078
 21
386.4789473684213
 31
0.0
  0
LINE
  5
EF
330
17
100
AcDbEntity
  8
WashArea
100
AcDbLine
 10
1055.854924360009
 20
391.47894736842125
 30
0.0
 11
1055.854924360009
 21
446.5789473684214
 31
0.0
  0
LINE
  5
F0
330
17
100
AcDbEntity
  8
Pantry
100
AcDbLine
 10
1050.854924360009
 20
386.4789473684213
 30
0.0
 11
1050.854924360009
 21
493.51578947368444
 31
0.0
  0
LINE
  5
F1
330
17
100
AcDbEntity
  8
WashArea
100
AcDbLine
 10
1055.854924360009
 20
391.4789473684213
 30
0.0
 11
1063.3549243600078
 21
391.4789473684213
 31
0.0
  0
LINE
  5
F2
330
17
100
AcDbEntity
  8
BathRoom2b
100
AcDbLine
 10
1002.8549243600078
 20
344.47894736842113
 30
0.0
 11
1002.8549243600089
 21
386.4789473684213
 31
0.0
  0
LINE
  5
F3
330
17
100
AcDbEntity
  8
BathRoom2b
100
AcDbLine
 10
1007.8549243600089
 20
344.47894736842113
 30
0.0
 11
1007.8549243600089
 21
391.4789473684213
 31
0.0
  0
LINE
  5
F4
330
17
100
AcDbEntity
  8
BathRoom2b
100
AcDbLine
 10
1002.8549243600089
 20
344.47894736842113
 30
0.0
 11
1007.8549243600089
 21
344.47894736842113
 31
0.0
  0
LINE
  5
F5
330
17
100
AcDbEntity
  8
WashArea
100
AcDbLine
 10
1063.3549243600078
 20
386.47894736842113
 30
0.0
 11
1063.3549243600078
 21
391.47894736842113
 31
0.0
  0
LINE
  5
F7
330
17
100
AcDbEntity
  8
BathRoom2c
100
AcDbLine
 10
1120.265967304794
 20
391.47894736842125
 30
0.0
 11
1120.265967304794
 21
451.57894736842127
 31
0.0
  0
LINE
  5
F8
330
17
100
AcDbEntity
  8
WashArea
100
AcDbLine
 10
1115.265967304794
 20
391.4789473684213
 30
0.0
 11
1115.265967304794
 21
446.5789473684214
 31
0.0
  0
LINE
  5
F9
330
17
100
AcDbEntity
  8
Terrace
100
AcDbLine
 10
1115.265967304794
 20
314.47894736842125
 30
0.0
 11
1120.265967304794
 21
314.47894736842125
 31
0.0
  0
LINE
  5
FA
330
17
100
AcDbEntity
  8
BathRoom2c
100
AcDbLine
 10
1107.765967304794
 20
386.4789473684213
 30
0.0
 11
1160.4990961391497
 21
386.4789473684213
 31
0.0
  0
LINE
  5
FB
330
17
100
AcDbEntity
  8
WashArea
100
AcDbLine
 10
1107.765967304794
 20
391.4789473684213
 30
0.0
 11
1115.265967304794
 21
391.4789473684213
 31
0.0
  0
LINE
  5
FC
330
17
100
AcDbEntity
  8
BathRoom2c
100
AcDbLine
 10
1120.265967304794
 20
391.4789473684213
 30
0.0
 11
1160.4990961391497
 21
391.4789473684213
 31
0.0
  0
LINE
  5
FD
330
17
100
AcDbEntity
  8
WashArea
100
AcDbLine
 10
1107.765967304794
 20
386.4789473684214
 30
0.0
 11
1107.765967304794
 21
391.4789473684214
 31
0.0
  0
LINE
  5
FE
330
17
100
AcDbEntity
  8
Staircase
100
AcDbLine
 10
1203.4990961391497
 20
314.47894736842125
 30
0.0
 11
1203.4990961391497
 21
350.47894736842125
 31
0.0
  0
LINE
  5
FF
330
17
100
AcDbEntity
  8
Staircase
100
AcDbLine
 10
1213.4990961391497
 20
314.47894736842125
 30
0.0
 11
1213.4990961391497
 21
350.47894736842125
 31
0.0
  0
LINE
  5
100
330
17
100
AcDbEntity
  8
BathRoom2b
100
AcDbLine
 10
1261.4990961391497
 20
309.47894736842125
 30
0.0
 11
1309.4990961391497
 21
309.4789473684213
 31
0.0
  0
LINE
  5
101
330
17
100
AcDbEntity
  8
Staircase
100
AcDbLine
 10
1183.4990961391497
 20
350.47894736842125
 30
0.0
 11
1309.4990961391497
 21
350.4789473684213
 31
0.0
  0
LINE
  5
102
330
17
100
AcDbEntity
  8
Staircase
100
AcDbLine
 10
1183.4990961391497
 20
314.47894736842125
 30
0.0
 11
1183.4990961391497
 21
350.47894736842125
 31
0.0
  0
LINE
  5
103
330
17
100
AcDbEntity
  8
Staircase
100
AcDbLine
 10
1223.4990961391497
 20
314.47894736842125
 30
0.0
 11
1223.4990961391497
 21
386.4789473684213
 31
0.0
  0
LINE
  5
104
330
17
100
AcDbEntity
  8
Staircase
100
AcDbLine
 10
1233.4990961391497
 20
314.47894736842125
 30
0.0
 11
1233.4990961391497
 21
386.4789473684213
 31
0.0
  0
LINE
  5
105
330
17
100
AcDbEntity
  8
Staircase
100
AcDbLine
 10
1193.4990961391497
 20
314.47894736842125
 30
0.0
 11
1193.4990961391497
 21
350.47894736842125
 31
0.0
  0
MTEXT
  5
106
330
17
100
AcDbEntity
  8
Staircase
100
AcDbMText
 10
1189.7422647517208
 20
334.9524609453515
 30
0.0
 40
2.5
 71
1
  1
1
  0
LINE
  5
107
330
17
100
AcDbEntity
  8
Staircase
100
AcDbLine
 10
1243.4990961391497
 20
314.47894736842125
 30
0.0
 11
1243.4990961391497
 21
386.4789473684213
 31
0.0
  0
MTEXT
  5
108
330
17
100
AcDbEntity
  8
Staircase
100
AcDbMText
 10
1231.2786353942768
 20
367.7497140786723
 30
0.0
 40
2.5
 71
1
  1
16
  0
MTEXT
  5
109
330
17
100
AcDbEntity
  8
Staircase
100
AcDbMText
 10
1241.6707877780327
 20
367.7497140786723
 30
0.0
 40
2.5
 71
1
  1
15
  0
MTEXT
  5
10A
330
17
100
AcDbEntity
  8
Staircase
100
AcDbMText
 10
1251.6329379090687
 20
367.7497140786723
 30
0.0
 40
2.5
 71
1
  1
14
  0
MTEXT
  5
10B
330
17
100
AcDbEntity
  8
Staircase
100
AcDbMText
 10
1261.5233933013376
 20
367.7497140786723
 30
0.0
 40
2.5
 71
1
  1
13
  0
MTEXT
  5
10C
330
17
100
AcDbEntity
  8
Staircase
100
AcDbMText
 10
1271.9872166838766
 20
367.7497140786723
 30
0.0
 40
2.5
 71
1
  1
12
  0
MTEXT
  5
10D
330
17
100
AcDbEntity
  8
Staircase
100
AcDbMText
 10
1294.0600759154656
 20
367.7497140786723
 30
0.0
 40
2.5
 71
1
  1
11
  0
MTEXT
  5
10E
330
17
100
AcDbEntity
  8
Staircase
100
AcDbMText
 10
1294.0600759154656
 20
334.9524609453515
 30
0.0
 40
2.5
 71
1
  1
10
  0
MTEXT
  5
10F
330
17
100
AcDbEntity
  8
Staircase
100
AcDbMText
 10
1271.3005810950197
 20
334.9524609453515
 30
0.0
 40
2.5
 71
1
  1
9
  0
MTEXT
  5
110
330
17
100
AcDbEntity
  8
Staircase
100
AcDbMText
 10
1260.8454465450598
 20
334.9524609453515
 30
0.0
 40
2.5
 71
1
  1
8
  0
MTEXT
  5
111
330
17
100
AcDbEntity
  8
Staircase
100
AcDbMText
 10
1241.2504435417327
 20
334.9524609453515
 30
0.0
 40
2.5
 71
1
  1
6
  0
MTEXT
  5
112
330
17
100
AcDbEntity
  8
Staircase
100
AcDbMText
 10
1231.2220588672717
 20
334.9524609453515
 30
0.0
 40
2.5
 71
1
  1
5
  0
MTEXT
  5
113
330
17
100
AcDbEntity
  8
Staircase
100
AcDbMText
 10
1220.8380492965628
 20
334.9524609453515
 30
0.0
 40
2.5
 71
1
  1
4
  0
MTEXT
  5
114
330
17
100
AcDbEntity
  8
Staircase
100
AcDbMText
 10
1211.2363670176417
 20
334.9524609453515
 30
0.0
 40
2.5
 71
1
  1
3
  0
MTEXT
  5
115
330
17
100
AcDbEntity
  8
Staircase
100
AcDbMText
 10
1200.1326324816687
 20
334.9524609453515
 30
0.0
 40
2.5
 71
1
  1
2
  0
MTEXT
  5
116
330
17
100
AcDbEntity
  8
Staircase
100
AcDbMText
 10
1251.1366019976706
 20
334.9524609453515
 30
0.0
 40
2.5
 71
1
  1
7
  0
LINE
  5
117
330
17
100
AcDbEntity
  8
Staircase
100
AcDbLine
 10
1253.4990961391497
 20
314.47894736842125
 30
0.0
 11
1253.4990961391497
 21
386.4789473684213
 31
0.0
  0
LINE
  5
118
330
17
100
AcDbEntity
  8
Staircase
100
AcDbLine
 10
1273.4990961391497
 20
314.47894736842125
 30
0.0
 11
1273.4990961391497
 21
386.4789473684213
 31
0.0
  0
LINE
  5
119
330
17
100
AcDbEntity
  8
BedRoom2a
100
AcDbLine
 10
1145.4990961391497
 20
309.47894736842125
 30
0.0
 11
1261.4990961391497
 21
309.4789473684213
 31
0.0
  0
LINE
  5
11A
330
17
100
AcDbEntity
  8
Staircase
100
AcDbLine
 10
1145.4990961391497
 20
314.47894736842125
 30
0.0
 11
1309.4990961391497
 21
314.47894736842125
 31
0.0
  0
LINE
  5
11B
330
17
100
AcDbEntity
  8
Staircase
100
AcDbLine
 10
1196.4990961391497
 20
386.4789473684213
 30
0.0
 11
1309.4990961391497
 21
386.4789473684213
 31
0.0
  0
LINE
  5
11D
330
17
100
AcDbEntity
  8
BedRoom2
100
AcDbLine
 10
1196.4990961391497
 20
391.4789473684213
 30
0.0
 11
1309.4990961391497
 21
391.4789473684213
 31
0.0
  0
LINE
  5
11E
330
17
100
AcDbEntity
  8
BathRoom2c
100
AcDbLine
 10
1160.4990961391497
 20
386.4789473684213
 30
0.0
 11
1160.4990961391497
 21
391.47894736842125
 31
0.0
  0
LINE
  5
11F
330
17
100
AcDbEntity
  8
BedRoom2
100
AcDbLine
 10
1196.4990961391497
 20
386.4789473684213
 30
0.0
 11
1196.4990961391497
 21
391.4789473684213
 31
0.0
  0
LINE
  5
120
330
17
100
AcDbEntity
  8
Staircase
100
AcDbLine
 10
1263.4990961391497
 20
314.47894736842125
 30
0.0
 11
1263.4990961391497
 21
386.4789473684213
 31
0.0
  0
LINE
  5
121
330
17
100
AcDbEntity
  8
BedRoom2
100
AcDbLine
 10
1309.4990961391497
 20
391.4789473684213
 30
0.0
 11
1309.4990961391497
 21
493.51578947368444
 31
0.0
  0
LINE
  5
122
330
17
100
AcDbEntity
  8
Staircase
100
AcDbLine
 10
1309.4990961391497
 20
314.47894736842125
 30
0.0
 11
1309.4990961391497
 21
386.4789473684213
 31
0.0
  0
LINE
  5
123
330
17
100
AcDbEntity
  8
BedRoom2a
100
AcDbLine
 10
1145.4990961391497
 20
309.47894736842113
 30
0.0
 11
1145.4990961391497
 21
314.47894736842125
 31
0.0
  0
MTEXT
  5
124
330
17
100
AcDbEntity
  8
WashArea
100
AcDbMText
 10
1064.634589962519
 20
427.9819793770331
 30
0.0
 40
2.5
 71
1
  1
WASHAREA
  0
LINE
  5
125
330
17
100
AcDbEntity
  8
BathRoom2c
100
AcDbLine
 10
1155.4990961391497
 20
417.7210526315792
 30
0.0
 11
1155.4990961391497
 21
493.51578947368444
 31
0.0
  0
LINE
  5
126
330
17
100
AcDbEntity
  8
BedRoom2
100
AcDbLine
 10
1160.4990961391497
 20
417.7210526315792
 30
0.0
 11
1160.4990961391497
 21
493.51578947368444
 31
0.0
  0
LINE
  5
127
330
17
100
AcDbEntity
  8
BathRoom2c
100
AcDbLine
 10
1155.4990961391497
 20
417.7210526315792
 30
0.0
 11
1160.4990961391497
 21
417.7210526315792
 31
0.0
  0
LINE
  5
128
330
17
100
AcDbEntity
  8
BathRoom2c
100
AcDbLine
 10
1055.854924360009
 20
451.57894736842127
 30
0.0
 11
1055.854924360009
 21
493.51578947368444
 31
0.0
  0
LINE
  5
129
330
17
100
AcDbEntity
  8
BathRoom2c
100
AcDbLine
 10
1055.854924360009
 20
451.57894736842127
 30
0.0
 11
1120.265967304794
 21
451.57894736842127
 31
0.0
  0
LINE
  5
12A
330
17
100
AcDbEntity
  8
WashArea
100
AcDbLine
 10
1055.854924360009
 20
446.5789473684214
 30
0.0
 11
1115.265967304794
 21
446.5789473684214
 31
0.0
  0
MTEXT
  5
12B
330
17
100
AcDbEntity
  8
Pantry
100
AcDbMText
 10
970.4452945523799
 20
454.4745711686136
 30
0.0
 40
2.5
 71
1
  1
PANTRY
  0
MTEXT
  5
12C
330
17
100
AcDbEntity
  8
BedRoom2
100
AcDbMText
 10
1221.5268393617528
 20
458.08430167178756
 30
0.0
 40
2.5
 71
1
  1
BEDROOM2
  0
LINE
  5
12D
330
17
100
AcDbEntity
  8
Boundary
100
AcDbLine
 10
939.0819182250394
 20
502.51578947368444
 30
0.0
 11
1318.4990961391497
 21
502.51578947368444
 31
0.0
  0
LINE
  5
12E
330
17
100
AcDbEntity
  8
Pantry
100
AcDbLine
 10
948.0819182250395
 20
493.51578947368444
 30
0.0
 11
1050.854924360009
 21
493.51578947368444
 31
0.0
  0
MTEXT
  5
12F
330
17
100
AcDbEntity
  8
BathRoom2c
100
AcDbMText
 10
1082.8417774912227
 20
472.79736842105274
 30
0.0
 40
2.5
 71
1
  1
BATHROOM2c
  0
LINE
  5
130
330
17
100
AcDbEntity
  8
BathRoom2c
100
AcDbLine
 10
1055.854924360009
 20
493.51578947368444
 30
0.0
 11
1155.4990961391497
 21
493.51578947368444
 31
0.0
  0
LINE
  5
131
330
17
100
AcDbEntity
  8
BedRoom2
100
AcDbLine
 10
1160.4990961391497
 20
493.51578947368444
 30
0.0
 11
1309.4990961391497
 21
493.51578947368444
 31
0.0
  0
LINE
  5
132
330
17
100
AcDbEntity
  8
Boundary
100
AcDbLine
 10
926.9898936851621
 20
540.0000000000002
 30
0.0
 11
1346.989893685162
 21
540.0000000000002
 31
0.0
  0
LINE
  5
133
330
17
100
AcDbEntity
  8
Boundary
100
AcDbLine
 10
935.9898936851621
 20
531.0000000000002
 30
0.0
 11
1337.989893685162
 21
531.0000000000002
 31
0.0
  0
ENDSEC
  0
SECTION
  2
OBJECTS
  0
DICTIONARY
  5
A
330
0
100
AcDbDictionary
280
0
281
1
  3
ACAD_COLOR
350
B
  3
ACAD_GROUP
350
C
  3
ACAD_LAYOUT
350
D
  3
ACAD_MATERIAL
350
E
  3
ACAD_MLEADERSTYLE
350
F
  3
ACAD_MLINESTYLE
350
10
  3
ACAD_PLOTSETTINGS
350
11
  3
ACAD_PLOTSTYLENAME
350
12
  3
ACAD_SCALELIST
350
14
  3
ACAD_TABLESTYLE
350
15
  3
ACAD_VISUALSTYLE
350
16
  3
EZDXF_META
350
2D
  0
DICTIONARY
  5
B
330
A
100
AcDbDictionary
280
0
281
1
  0
DICTIONARY
  5
C
330
A
100
AcDbDictionary
280
0
281
1
  0
DICTIONARY
  5
D
330
A
100
AcDbDictionary
280
0
281
1
  3
Model
350
1A
  3
Layout1
350
1E
  0
DICTIONARY
  5
E
330
A
100
AcDbDictionary
280
0
281
1
  3
ByBlock
350
1F
  3
ByLayer
350
20
  3
Global
350
21
  0
DICTIONARY
  5
F
330
A
100
AcDbDictionary
280
0
281
1
  3
Standard
350
2C
  0
DICTIONARY
  5
10
330
A
100
AcDbDictionary
280
0
281
1
  3
Standard
350
22
  0
DICTIONARY
  5
11
330
A
100
AcDbDictionary
280
0
281
1
  0
ACDBDICTIONARYWDFLT
  5
12
330
A
100
AcDbDictionary
280
0
281
1
  3
Normal
350
13
100
AcDbDictionaryWithDefault
340
13
  0
ACDBPLACEHOLDER
  5
13
330
12
  0
DICTIONARY
  5
14
330
A
100
AcDbDictionary
280
0
281
1
  0
DICTIONARY
  5
15
330
A
100
AcDbDictionary
280
0
281
1
  0
DICTIONARY
  5
16
330
A
100
AcDbDictionary
280
0
281
1
  0
LAYOUT
  5
1A
330
D
100
AcDbPlotSettings
  1

  4
A3
  6

 40
7.5
 41
20.0
 42
7.5
 43
20.0
 44
420.0
 45
297.0
 46
0.0
 47
0.0
 48
0.0
 49
0.0
140
0.0
141
0.0
142
1.0
143
1.0
 70
1024
 72
1
 73
0
 74
5
  7

 75
16
 76
0
 77
2
 78
300
147
1.0
148
0.0
149
0.0
100
AcDbLayout
  1
Model
 70
1
 71
0
 10
0.0
 20
0.0
 11
420.0
 21
297.0
 12
0.0
 22
0.0
 32
0.0
 14
1e+20
 24
1e+20
 34
1e+20
 15
-1e+20
 25
-1e+20
 35
-1e+20
146
0.0
 13
0.0
 23
0.0
 33
0.0
 16
1.0
 26
0.0
 36
0.0
 17
0.0
 27
1.0
 37
0.0
 76
1
330
17
  0
LAYOUT
  5
1E
330
D
100
AcDbPlotSettings
  1

  4
A3
  6

 40
7.5
 41
20.0
 42
7.5
 43
20.0
 44
420.0
 45
297.0
 46
0.0
 47
0.0
 48
0.0
 49
0.0
140
0.0
141
0.0
142
1.0
143
1.0
 70
0
 72
1
 73
0
 74
5
  7

 75
16
 76
0
 77
2
 78
300
147
1.0
148
0.0
149
0.0
100
AcDbLayout
  1
Layout1
 70
1
 71
1
 10
0.0
 20
0.0
 11
420.0
 21
297.0
 12
0.0
 22
0.0
 32
0.0
 14
1e+20
 24
1e+20
 34
1e+20
 15
-1e+20
 25
-1e+20
 35
-1e+20
146
0.0
 13
0.0
 23
0.0
 33
0.0
 16
1.0
 26
0.0
 36
0.0
 17
0.0
 27
1.0
 37
0.0
 76
1
330
1B
  0
MATERIAL
  5
1F
102
{ACAD_REACTORS
330
E
102
}
330
E
100
AcDbMaterial
  1
ByBlock
  2

 70
0
 40
1.0
 71
1
 41
1.0
 91
-1023410177
 42
1.0
 72
1
  3

 73
1
 74
1
 75
1
 44
0.5
 73
0
 45
1.0
 46
1.0
 77
1
  4

 78
1
 79
1
170
1
 48
1.0
171
1
  6

172
1
173
1
174
1
140
1.0
141
1.0
175
1
  7

176
1
177
1
178
1
143
1.0
179
1
  8

270
1
271
1
272
1
145
1.0
146
1.0
273
1
  9

274
1
275
1
276
1
 42
1.0
 72
1
  3

 73
1
 74
1
 75
1
 94
63
  0
MATERIAL
  5
20
102
{ACAD_REACTORS
330
E
102
}
330
E
100
AcDbMaterial
  1
ByLayer
  2

 70
0
 40
1.0
 71
1
 41
1.0
 91
-1023410177
 42
1.0
 72
1
  3

 73
1
 74
1
 75
1
 44
0.5
 73
0
 45
1.0
 46
1.0
 77
1
  4

 78
1
 79
1
170
1
 48
1.0
171
1
  6

172
1
173
1
174
1
140
1.0
141
1.0
175
1
  7

176
1
177
1
178
1
143
1.0
179
1
  8

270
1
271
1
272
1
145
1.0
146
1.0
273
1
  9

274
1
275
1
276
1
 42
1.0
 72
1
  3

 73
1
 74
1
 75
1
 94
63
  0
MATERIAL
  5
21
102
{ACAD_REACTORS
330
E
102
}
330
E
100
AcDbMaterial
  1
Global
  2

 70
0
 40
1.0
 71
1
 41
1.0
 91
-1023410177
 42
1.0
 72
1
  3

 73
1
 74
1
 75
1
 44
0.5
 73
0
 45
1.0
 46
1.0
 77
1
  4

 78
1
 79
1
170
1
 48
1.0
171
1
  6

172
1
173
1
174
1
140
1.0
141
1.0
175
1
  7

176
1
177
1
178
1
143
1.0
179
1
  8

270
1
271
1
272
1
145
1.0
146
1.0
273
1
  9

274
1
275
1
276
1
 42
1.0
 72
1
  3

 73
1
 74
1
 75
1
 94
63
  0
MLINESTYLE
  5
22
102
{ACAD_REACTORS
330
10
102
}
330
10
100
AcDbMlineStyle
  2
Standard
 70
0
  3

 62
256
 51
90.0
 52
90.0
 71
2
 49
0.5
 62
256
  6
BYLAYER
 49
-0.5
 62
256
  6
BYLAYER
  0
MLEADERSTYLE
  5
2C
102
{ACAD_REACTORS
330
F
102
}
330
F
100
AcDbMLeaderStyle
179
2
170
2
171
1
172
0
 90
2
 40
0.0
 41
0.0
173
1
 91
-1056964608
 92
-2
290
1
 42
2.0
291
1
 43
8.0
  3
Standard
 44
4.0
300

342
29
174
1
175
1
176
0
178
1
 93
-1056964608
 45
4.0
292
0
297
0
 46
4.0
 94
-1056964608
 47
1.0
 49
1.0
140
1.0
294
1
141
0.0
177
0
142
1.0
295
0
296
0
143
3.75
271
0
272
9
273
9
  0
DICTIONARY
  5
2D
330
A
100
AcDbDictionary
281
1
  3
CREATED_BY_EZDXF
350
2E
  3
WRITTEN_BY_EZDXF
350
136
  0
DICTIONARYVAR
  5
2E
330
2D
100
DictionaryVariables
280
0
  1
1.3.1 @ 2024-07-20T08:00:38.823149+00:00
  0
DICTIONARYVAR
  5
136
330
2D
100
DictionaryVariables
280
0
  1
1.3.1 @ 2024-07-20T08:00:38.834828+00:00
  0
ENDSEC
  0
EOF
